<svg width="40" height="40" viewBox="0 0 40 40" fill="none" xmlns="http://www.w3.org/2000/svg">
<circle opacity="0.3" cx="20" cy="20" r="20" fill="#1673FE"/>
<path fill-rule="evenodd" clip-rule="evenodd" d="M29.5439 18.8703C32.0016 18.8703 34 20.9148 34 23.4293C34 25.9438 32.0016 27.9883 29.5439 27.9883C27.0861 27.9883 25.0878 25.9438 25.0878 23.4293C25.0878 21.89 25.8343 20.5388 26.9598 19.7163L25.4897 16.9316C23.7211 18.2123 23.4799 19.0465 22.8942 21.138C22.676 21.9253 22.63 22.6655 21.7802 23.0063C21.3437 23.1708 20.9532 23.2413 20.356 23.2648C19.5291 23.2883 18.5185 23.206 17.7834 23.1708C17.5422 23.159 17.347 23.0533 17.1518 22.9123C16.8646 22.7125 16.7843 22.7008 16.4397 22.783L14.9007 23.112C14.9122 23.2178 14.9122 23.3235 14.9122 23.441C14.9122 25.9555 12.9139 28 10.4561 28C7.99836 28 6 25.9555 6 23.441C6 20.9265 7.99836 18.882 10.4561 18.882C12.1903 18.882 13.6833 19.8925 14.4184 21.373L15.831 20.7385C15.8195 20.574 15.808 20.4095 15.7966 20.245C15.9803 20.1158 16.1641 19.9865 16.3478 19.8573C16.1296 19.822 15.9803 19.7515 15.7621 19.7163C15.2338 19.6223 14.9467 19.4225 14.4988 19.1288C14.2116 18.9408 14.2002 18.8468 13.8786 18.9408C13.6604 19.0113 13.3618 18.8585 13.1665 18.7528C12.1788 18.2593 10.6169 17.5425 9.68663 16.9081C9.42248 16.7318 9.30763 16.5673 9.15833 16.4028C8.97457 16.2148 9.08942 16.0268 9.19278 15.8153C9.36506 15.4746 9.42248 15.3806 9.57178 15.3218C9.80148 15.2278 9.90484 15.2631 10.1231 15.3336C10.2034 15.3571 10.2724 15.3806 10.3528 15.4041C10.548 15.4628 10.6743 15.5333 10.548 15.2396C10.4446 14.9693 10.4446 15.0398 10.146 14.9576C9.35357 14.7461 8.54963 14.5346 7.75718 14.3113C7.17145 14.1586 7.34373 13.8413 7.86054 13.9118C8.81378 14.0646 9.77851 14.2173 10.7317 14.3583C10.9385 14.3936 11.1797 14.3936 11.329 14.2291C11.6276 13.8883 11.6965 14.0293 12.1559 14.0881C13.7408 14.3113 15.3142 14.5346 16.8991 14.7578C17.4389 14.8283 18.082 14.7578 18.5989 14.6286C19.2305 14.4758 19.9541 14.3583 20.5168 14.1233C20.6432 14.0646 20.7235 13.8766 20.8614 13.8178C20.9762 13.7591 21.0796 13.7591 21.1715 13.7473C21.3322 13.7238 21.493 13.7356 21.7112 13.7943C21.8605 13.8296 22.0098 13.8883 22.1591 13.9236C22.297 13.9588 22.6071 13.9001 22.7334 13.8413C22.9516 13.7356 23.1698 13.6298 23.388 13.5006C23.5373 13.4066 23.5144 13.3126 23.5258 13.1598C23.5258 13.0776 23.5029 12.9953 23.4799 12.9248C23.4569 12.7956 23.3076 12.6428 23.1928 12.5958C23.0665 12.5488 23.0205 12.5018 23.0205 12.2786C23.0205 12.1493 23.0205 12.0318 23.032 11.9026C23.032 11.7381 22.9861 11.5853 22.8138 11.6558C22.4578 11.7733 22.1132 11.9026 21.7572 12.0201C21.516 12.0671 21.2748 11.6088 21.6079 11.4796C21.9869 11.3386 22.3544 11.1976 22.7334 11.0448C22.9516 10.9626 23.411 10.9978 23.6177 11.1153C25.2256 12.0436 25.2026 12.1023 25.9951 14.0176C26.0525 14.1468 26.1559 14.3701 26.0984 14.5228C25.9836 14.7813 25.9836 14.7108 26.0984 14.9693C26.1559 15.0868 26.2018 15.1926 26.2592 15.3101C26.9943 15.1103 27.913 15.0281 28.4413 15.0046C28.694 14.9928 28.6366 14.9693 28.8778 15.0516C29.5439 15.2513 30.1756 15.6508 30.9221 16.0386C31.3355 16.2501 31.2322 16.5321 30.8302 16.3676C29.3946 15.8036 27.6834 15.4393 26.3167 16.3793L27.7867 19.2228C28.361 18.9878 28.9352 18.8703 29.5439 18.8703ZM13.4077 21.8195L12.0066 22.454C11.685 21.9253 11.1222 21.5845 10.4791 21.5845C9.4799 21.5845 8.67597 22.407 8.67597 23.4293C8.67597 24.4515 9.4799 25.274 10.4791 25.274C11.3979 25.274 12.1444 24.5808 12.2707 23.676L13.8097 23.347C13.8097 23.3705 13.8097 23.4058 13.8097 23.4293C13.8097 25.3093 12.3167 26.8368 10.4791 26.8368C8.64151 26.8368 7.14848 25.3093 7.14848 23.4293C7.14848 21.5493 8.64151 20.0218 10.4791 20.0218C11.7424 20.0218 12.8564 20.7503 13.4077 21.8195ZM27.5111 20.7268L28.4873 22.5598C28.3035 22.7948 28.2002 23.0885 28.2002 23.4175C28.2002 24.1813 28.8089 24.804 29.5554 24.804C30.3019 24.804 30.9106 24.1813 30.9106 23.4175C30.9106 22.6538 30.3019 22.031 29.5554 22.031C29.475 22.031 29.3946 22.0428 29.3142 22.0545L28.361 20.245C28.7285 20.104 29.1304 20.0218 29.5439 20.0218C31.3815 20.0218 32.8745 21.5493 32.8745 23.4293C32.8745 25.3093 31.3815 26.8368 29.5439 26.8368C27.7063 26.8368 26.2133 25.3093 26.2133 23.4293C26.2133 22.3248 26.7301 21.3495 27.5111 20.7268ZM14.6481 18.0008C14.671 18.1183 14.717 18.2475 14.8203 18.3063C15.0386 18.4355 15.1993 18.4943 15.4176 18.6235C15.5554 18.7058 15.7851 18.7763 15.9459 18.741C16.1641 18.694 16.2674 18.7058 16.0607 18.4238C15.9229 18.2358 15.7276 18.0713 15.5898 17.895C15.4635 17.7305 15.4865 17.7423 15.2683 17.7188C15.096 17.707 14.9122 17.6953 14.74 17.6835C14.4873 17.6365 14.6136 17.8245 14.6481 18.0008Z" fill="#1673FE"/>
</svg>
