<svg width="20" height="20" viewBox="0 0 20 20" fill="none" xmlns="http://www.w3.org/2000/svg">
<path d="M11.604 2.08582C11.9307 2.08579 12.2517 2.17113 12.5353 2.33338C12.8189 2.49562 13.0551 2.72915 13.2207 3.01082L13.899 4.16665H15.6248C15.9805 4.16665 16.3327 4.2367 16.6613 4.37281C16.9899 4.50891 17.2884 4.70841 17.5399 4.9599C17.7914 5.21139 17.9909 5.50996 18.127 5.83855C18.2631 6.16714 18.3332 6.51932 18.3332 6.87498V14.7916C18.3332 15.1473 18.2631 15.4995 18.127 15.8281C17.9909 16.1567 17.7914 16.4552 17.5399 16.7067C17.2884 16.9582 16.9899 17.1577 16.6613 17.2938C16.3327 17.4299 15.9805 17.5 15.6248 17.5H4.37484C3.65654 17.5 2.96767 17.2146 2.45976 16.7067C1.95185 16.1988 1.6665 15.5099 1.6665 14.7916V6.87498C1.6665 6.15669 1.95185 5.46781 2.45976 4.9599C2.96767 4.45199 3.65654 4.16665 4.37484 4.16665H6.10817L6.83734 2.97998C7.00499 2.70683 7.23987 2.48122 7.51954 2.32468C7.79921 2.16814 8.11434 2.0859 8.43484 2.08582H11.604ZM9.99984 6.66665C9.00528 6.66665 8.05145 7.06174 7.34819 7.765C6.64493 8.46826 6.24984 9.42209 6.24984 10.4166C6.24984 11.4112 6.64493 12.365 7.34819 13.0683C8.05145 13.7716 9.00528 14.1666 9.99984 14.1666C10.9944 14.1666 11.9482 13.7716 12.6515 13.0683C13.3547 12.365 13.7498 11.4112 13.7498 10.4166C13.7498 9.42209 13.3547 8.46826 12.6515 7.765C11.9482 7.06174 10.9944 6.66665 9.99984 6.66665V6.66665ZM9.99984 7.91665C10.3281 7.91665 10.6532 7.98131 10.9565 8.10695C11.2599 8.23259 11.5355 8.41674 11.7676 8.64888C11.9998 8.88103 12.1839 9.15663 12.3095 9.45994C12.4352 9.76325 12.4998 10.0883 12.4998 10.4166C12.4998 10.745 12.4352 11.07 12.3095 11.3734C12.1839 11.6767 11.9998 11.9523 11.7676 12.1844C11.5355 12.4166 11.2599 12.6007 10.9565 12.7263C10.6532 12.852 10.3281 12.9166 9.99984 12.9166C9.3368 12.9166 8.70091 12.6533 8.23207 12.1844C7.76323 11.7156 7.49984 11.0797 7.49984 10.4166C7.49984 9.75361 7.76323 9.11772 8.23207 8.64888C8.70091 8.18004 9.3368 7.91665 9.99984 7.91665V7.91665Z" fill="#34A4B6"/>
</svg>
