<svg width="18" height="18" viewBox="0 0 18 18" fill="none" xmlns="http://www.w3.org/2000/svg">
<g opacity="0.3">
<path d="M16.4998 6.45612V12.5626C16.4998 13.1852 16.2616 13.7842 15.834 14.2368C15.4064 14.6893 14.8219 14.9611 14.2003 14.9964L14.0623 15.0001H3.93726C3.31465 15.0002 2.71563 14.762 2.26308 14.3344C1.81053 13.9068 1.53875 13.3222 1.50351 12.7006L1.49976 12.5626V6.45612L8.73876 10.2481C8.81929 10.2903 8.90884 10.3123 8.99976 10.3123C9.09067 10.3123 9.18022 10.2903 9.26076 10.2481L16.4998 6.45612ZM3.93726 3.00012H14.0623C14.6664 3.00005 15.2491 3.22437 15.6973 3.62957C16.1454 4.03478 16.4272 4.59198 16.4878 5.19312L8.99976 9.11562L1.51176 5.19312C1.5699 4.61586 1.83204 4.07826 2.25107 3.67697C2.67009 3.27568 3.21852 3.03701 3.79776 3.00387L3.93726 3.00012H14.0623H3.93726Z" fill="#1A1A1A"/>
</g>
</svg>
