<svg width="32" height="32" viewBox="0 0 32 32" fill="none" xmlns="http://www.w3.org/2000/svg">
<path d="M2.95997 2.95999C2.79061 3.12931 2.68764 3.35378 2.66978 3.5926C2.65192 3.83141 2.72035 4.0687 2.86264 4.26133L2.95997 4.37333L8.33864 9.75333C5.71601 11.5915 3.84382 14.3134 3.0653 17.42C3.00527 17.6757 3.04829 17.9448 3.18504 18.1691C3.3218 18.3934 3.54132 18.5549 3.79615 18.6186C4.05099 18.6824 4.32067 18.6433 4.54693 18.5098C4.77319 18.3763 4.93784 18.1592 5.0053 17.9053C5.69717 15.148 7.40117 12.7519 9.77864 11.1933L12.192 13.6067C11.228 14.614 10.6968 15.9588 10.7121 17.353C10.7275 18.7472 11.2882 20.0799 12.2742 21.0657C13.2602 22.0515 14.5931 22.612 15.9873 22.6272C17.3815 22.6423 18.7261 22.1108 19.7333 21.1467L27.6253 29.04C27.8037 29.2189 28.0433 29.3237 28.2958 29.3332C28.5483 29.3426 28.7951 29.2562 28.9864 29.0912C29.1778 28.9262 29.2996 28.6948 29.3273 28.4436C29.3551 28.1925 29.2867 27.9401 29.136 27.7373L29.0386 27.6253L20.888 19.4733L20.8893 19.4707L11.6226 10.2093L11.6253 10.2067L10.1146 8.7L4.3733 2.95999C4.1858 2.77273 3.93164 2.66754 3.66664 2.66754C3.40163 2.66754 3.14747 2.77273 2.95997 2.95999V2.95999ZM16 7.33333C14.6666 7.33333 13.3733 7.53066 12.148 7.9L13.7973 9.54799C16.65 8.98314 19.6107 9.53611 22.0673 11.0926C24.5238 12.649 26.2883 15.09 26.996 17.9107C27.065 18.1626 27.23 18.3774 27.4554 18.5093C27.6809 18.6412 27.949 18.6797 28.2024 18.6165C28.4559 18.5532 28.6745 18.3933 28.8116 18.171C28.9487 17.9487 28.9933 17.6815 28.936 17.4267C28.2129 14.5433 26.5474 11.9841 24.2037 10.1554C21.86 8.32678 18.9726 7.33351 16 7.33333V7.33333ZM16.26 12.0133L21.328 17.08C21.2624 15.7572 20.7074 14.506 19.7707 13.5696C18.8341 12.6332 17.5828 12.0785 16.26 12.0133V12.0133Z" fill="black"/>
</svg>
