<svg width="13" height="8" viewBox="0 0 13 8" fill="none" xmlns="http://www.w3.org/2000/svg">
<path d="M0.219712 1.21969C0.360358 1.07909 0.551089 1.0001 0.749962 1.0001C0.948835 1.0001 1.13957 1.07909 1.28021 1.21969L5.99996 5.93944L10.7197 1.21969C10.7889 1.14806 10.8717 1.09092 10.9632 1.05161C11.0547 1.01231 11.1531 0.991616 11.2527 0.990751C11.3522 0.989886 11.451 1.00886 11.5432 1.04657C11.6353 1.08428 11.7191 1.13997 11.7895 1.21039C11.8599 1.28081 11.9156 1.36455 11.9533 1.45672C11.991 1.5489 12.01 1.64765 12.0091 1.74724C12.0083 1.84682 11.9876 1.94524 11.9483 2.03674C11.909 2.12825 11.8518 2.211 11.7802 2.28019L6.53021 7.53019C6.38957 7.67079 6.19883 7.74978 5.99996 7.74978C5.80109 7.74978 5.61036 7.67079 5.46971 7.53019L0.219712 2.28019C0.0791087 2.13954 0.00012207 1.94881 0.00012207 1.74994C0.00012207 1.55107 0.0791087 1.36033 0.219712 1.21969Z" fill="#1A1A1A"/>
</svg>
