<svg width="13" height="8" viewBox="0 0 13 8" fill="none" xmlns="http://www.w3.org/2000/svg">
<path d="M0.21959 1.21975C0.360236 1.07915 0.550967 1.00016 0.74984 1.00016C0.948713 1.00016 1.13944 1.07915 1.28009 1.21975L5.99984 5.9395L10.7196 1.21975C10.7888 1.14812 10.8715 1.09098 10.963 1.05167C11.0545 1.01237 11.153 0.991677 11.2525 0.990812C11.3521 0.989947 11.4509 1.00892 11.5431 1.04663C11.6352 1.08434 11.719 1.14003 11.7894 1.21045C11.8598 1.28087 11.9155 1.36461 11.9532 1.45678C11.9909 1.54896 12.0099 1.64772 12.009 1.7473C12.0082 1.84688 11.9875 1.9453 11.9482 2.0368C11.9089 2.12831 11.8517 2.21106 11.7801 2.28025L6.53009 7.53025C6.38944 7.67085 6.19871 7.74984 5.99984 7.74984C5.80097 7.74984 5.61024 7.67085 5.46959 7.53025L0.21959 2.28025C0.0789867 2.1396 0 1.94887 0 1.75C0 1.55113 0.0789867 1.3604 0.21959 1.21975Z" fill="#1A1A1A"/>
</svg>
