<svg width="18" height="18" viewBox="0 0 18 18" fill="none" xmlns="http://www.w3.org/2000/svg">
<g opacity="0.3">
<path d="M9 1.50076C9.62029 1.50076 10.2253 1.69304 10.7318 2.05112C11.2383 2.4092 11.6214 2.91548 11.8282 3.50026C11.8912 3.68045 11.8831 3.87787 11.8056 4.0523C11.7281 4.22673 11.587 4.36504 11.4111 4.43905C11.2351 4.51306 11.0376 4.5172 10.8587 4.45063C10.6798 4.38406 10.533 4.25179 10.4482 4.08076L10.4145 4.00051C10.2998 3.67601 10.0769 3.40083 9.78335 3.22115C9.48978 3.04147 9.14335 2.96821 8.80217 3.01367C8.461 3.05913 8.14583 3.22054 7.90955 3.47083C7.67328 3.72111 7.53026 4.04504 7.5045 4.38826L7.5015 4.50001V5.99926L13.3125 6.00001C13.7401 5.99996 14.1518 6.16223 14.4643 6.45404C14.7769 6.74585 14.967 7.14542 14.9963 7.57201L15 7.68751V14.8095C15.0001 15.2371 14.8378 15.6488 14.546 15.9613C14.2542 16.2739 13.8546 16.464 13.428 16.4933L13.3125 16.497H4.6875C4.25991 16.4971 3.84823 16.3348 3.53569 16.043C3.22314 15.7512 3.03302 15.3516 3.00375 14.925L3 14.8095V7.68751C2.99995 7.25992 3.16222 6.84825 3.45403 6.5357C3.74583 6.22315 4.14541 6.03303 4.572 6.00376L4.6875 6.00001L6.00075 5.99926V4.50001C6.00075 3.70456 6.31674 2.94169 6.87921 2.37922C7.44168 1.81675 8.20455 1.50076 9 1.50076ZM9 10.125C8.84997 10.1211 8.70068 10.1473 8.56093 10.2021C8.42119 10.2568 8.29382 10.339 8.18633 10.4437C8.07885 10.5485 7.99342 10.6737 7.93509 10.812C7.87676 10.9502 7.84671 11.0988 7.84671 11.2489C7.84671 11.399 7.87676 11.5475 7.93509 11.6858C7.99342 11.8241 8.07885 11.9493 8.18633 12.0541C8.29382 12.1588 8.42119 12.241 8.56093 12.2957C8.70068 12.3504 8.84997 12.3766 9 12.3728C9.29304 12.3652 9.57154 12.2435 9.77613 12.0335C9.98072 11.8236 10.0952 11.542 10.0952 11.2489C10.0952 10.9557 9.98072 10.6742 9.77613 10.4643C9.57154 10.2543 9.29304 10.1326 9 10.125Z" fill="#1A1A1A"/>
</g>
</svg>
