<svg width="18" height="18" viewBox="0 0 18 18" fill="none" xmlns="http://www.w3.org/2000/svg">
<g opacity="0.3">
<path d="M11.8125 1.5C12.2601 1.5 12.6893 1.67779 13.0057 1.99426C13.3222 2.31072 13.5 2.73995 13.5 3.1875V14.8125C13.5 15.2601 13.3222 15.6893 13.0057 16.0057C12.6893 16.3222 12.2601 16.5 11.8125 16.5H6.1875C5.73995 16.5 5.31073 16.3222 4.99426 16.0057C4.67779 15.6893 4.5 15.2601 4.5 14.8125V3.1875C4.5 2.73995 4.67779 2.31072 4.99426 1.99426C5.31073 1.67779 5.73995 1.5 6.1875 1.5H11.8125ZM9.9375 13.5H8.0625C7.91332 13.5 7.77024 13.5593 7.66475 13.6648C7.55926 13.7702 7.5 13.9133 7.5 14.0625C7.5 14.2117 7.55926 14.3548 7.66475 14.4602C7.77024 14.5657 7.91332 14.625 8.0625 14.625H9.9375C10.0867 14.625 10.2298 14.5657 10.3352 14.4602C10.4407 14.3548 10.5 14.2117 10.5 14.0625C10.5 13.9133 10.4407 13.7702 10.3352 13.6648C10.2298 13.5593 10.0867 13.5 9.9375 13.5Z" fill="#1A1A1A"/>
</g>
</svg>
