<svg width="40" height="40" viewBox="0 0 40 40" fill="none" xmlns="http://www.w3.org/2000/svg">
<circle opacity="0.3" cx="20" cy="20" r="20" fill="#34A4B6"/>
<path fill-rule="evenodd" clip-rule="evenodd" d="M31.4182 21.1756C32.9028 21.5141 34 22.8953 34 24.5472C34 26.4564 32.5284 27.9865 30.7212 27.9865C28.901 27.9865 27.4423 26.4429 27.4423 24.5472C27.4423 24.2493 27.4811 23.965 27.5456 23.6941L26.4871 24.5472C26.4355 24.7097 26.3838 24.8586 26.3322 25.0211C26.0482 25.8742 24.8606 25.7794 24.1635 25.7794H19.3098C18.574 25.7794 18.716 25.9148 18.148 25.4544C18.006 25.3325 17.864 25.2242 17.6962 25.0888C17.438 25.2107 17.1928 25.3325 16.9346 25.4544C16.6764 25.4544 16.3408 25.4544 15.9664 25.4409L14.9854 25.7794C14.3012 26.0096 14.4045 26.0502 13.7074 25.8742H13.6816C13.191 27.1199 12.0164 28 10.648 28C8.82788 28 7.36919 26.4564 7.36919 24.5607C7.36919 22.8682 8.53098 21.4735 10.0542 21.1756C9.52496 21.0673 8.93115 21.0402 8.23408 21.1756C7.75645 21.7443 7.29174 22.313 6.81411 22.8546C6.40103 23.3286 6.01377 23.1119 6.00086 22.4484C5.98795 21.7037 6.11704 20.9454 6.60757 20.133C6.54303 19.6997 6.60757 19.2123 6.9432 18.6029C7.5241 18.5488 8.10499 18.4811 8.68589 18.4269C9.37005 17.5468 10.222 17.0593 11.0224 17.0458C11.2031 17.0458 11.3064 16.775 11.2547 16.5719C11.1902 16.2875 11.1127 16.4365 11.3322 16.0573C11.8614 15.1231 12.7651 14.92 13.8236 15.2314C15.6824 15.7865 17.722 15.8813 19.7487 15.9896C20.3167 16.0167 20.4587 16.3282 20.5749 16.6937C20.6781 17.0187 20.8072 17.3979 20.2909 17.7905C20.2005 18.4675 19.9423 19.1852 19.5809 19.9028C19.284 20.4986 19.2711 20.2549 19.4518 20.8642C19.5551 21.2162 19.6196 21.5683 19.6713 21.961C19.7874 22.9223 19.5422 22.814 20.4458 22.9088C21.543 23.0171 22.6532 23.1119 23.7504 23.2202C24.6799 23.3015 24.9639 23.0713 25.0413 22.2182C25.4286 17.8988 25.8287 16.6125 23.6213 12.3202C23.3632 12.4556 23.1437 12.6722 22.8597 12.7399C22.3434 12.8753 22.3434 12.1983 22.6403 12.0765C23.0792 11.9004 23.389 11.5484 23.7762 11.3588C24.4346 11.0339 24.3571 10.736 24.8735 11.3859C25.1833 11.765 25.3511 12.1442 25.3124 12.7806C26.0998 12.8618 27.0938 12.8076 27.636 13.5117C28.5912 14.771 28.7719 17.4656 28.9656 18.9279C29.8563 18.9415 32.5026 19.0769 32.864 20.0112C33.1093 20.6611 32.9673 20.634 32.3993 20.8236L31.4182 21.1756ZM30.7083 23.5723L30.2177 22.5297C30.3726 22.489 30.5534 22.462 30.7212 22.462C31.8184 22.462 32.6962 23.3963 32.6962 24.5337C32.6962 25.6846 31.8055 26.6053 30.7212 26.6053C29.6239 26.6053 28.7461 25.671 28.7461 24.5337C28.7461 23.9108 29.0043 23.3556 29.4174 22.9765L29.9725 23.992C29.8692 24.1545 29.8046 24.3441 29.8046 24.5472C29.8046 25.0753 30.2177 25.5086 30.7212 25.5086C31.2246 25.5086 31.6377 25.0753 31.6377 24.5472C31.6377 24.0056 31.2246 23.5723 30.7083 23.5723ZM8.66007 24.6149L9.78313 24.8992C9.91222 25.2513 10.2478 25.5086 10.6351 25.5086C10.8675 25.5086 11.0869 25.4138 11.2418 25.2648L12.3649 25.5492C12.0293 26.1856 11.3709 26.6189 10.6351 26.6189C9.56368 26.6189 8.6988 25.7252 8.66007 24.6149Z" fill="#34A4B6"/>
</svg>
