<svg width="18" height="18" viewBox="0 0 18 18" fill="none" xmlns="http://www.w3.org/2000/svg">
<g opacity="0.3">
<path d="M14.8125 3.00012C15.2601 3.00012 15.6893 3.17791 16.0057 3.49438C16.3222 3.81085 16.5 4.24007 16.5 4.68762V13.3164C16.5 13.7639 16.3222 14.1931 16.0057 14.5096C15.6893 14.8261 15.2601 15.0039 14.8125 15.0039H3.1875C2.96589 15.0039 2.74646 14.9602 2.54172 14.8754C2.33698 14.7906 2.15096 14.6663 1.99426 14.5096C1.83756 14.3529 1.71326 14.1669 1.62845 13.9622C1.54365 13.7574 1.5 13.538 1.5 13.3164V4.68762C1.5 4.24007 1.67779 3.81085 1.99426 3.49438C2.31072 3.17791 2.73995 3.00012 3.1875 3.00012H14.8125ZM7.3125 9.37512H4.6875C4.55157 9.37513 4.42024 9.42435 4.3178 9.5137C4.21536 9.60304 4.14874 9.72646 4.13025 9.86112L4.125 9.93762V10.3066L4.131 10.3876C4.2525 11.2231 4.9515 11.6251 6 11.6251C6.99825 11.6251 7.68 11.2606 7.848 10.5046L7.869 10.3884L7.875 10.3074V9.93762C7.87499 9.80169 7.82577 9.67037 7.73643 9.56792C7.64708 9.46548 7.52367 9.39886 7.389 9.38037L7.3125 9.37512ZM13.3125 9.74712H9.939L9.8625 9.75237C9.72787 9.7709 9.60449 9.83754 9.51518 9.93998C9.42588 10.0424 9.37667 10.1737 9.37667 10.3096C9.37667 10.4455 9.42588 10.5768 9.51518 10.6793C9.60449 10.7817 9.72787 10.8483 9.8625 10.8669L9.939 10.8721H13.3125L13.389 10.8669C13.5236 10.8483 13.647 10.7817 13.7363 10.6793C13.8256 10.5768 13.8748 10.4455 13.8748 10.3096C13.8748 10.1737 13.8256 10.0424 13.7363 9.93998C13.647 9.83754 13.5236 9.7709 13.389 9.75237L13.3125 9.74712ZM6 6.37662C5.70163 6.37662 5.41548 6.49515 5.2045 6.70613C4.99353 6.91711 4.875 7.20325 4.875 7.50162C4.875 7.79999 4.99353 8.08614 5.2045 8.29712C5.41548 8.5081 5.70163 8.62662 6 8.62662C6.29837 8.62662 6.58452 8.5081 6.7955 8.29712C7.00647 8.08614 7.125 7.79999 7.125 7.50162C7.125 7.20325 7.00647 6.91711 6.7955 6.70613C6.58452 6.49515 6.29837 6.37662 6 6.37662ZM13.3125 7.12512H9.939L9.8625 7.13037C9.72787 7.1489 9.60449 7.21554 9.51518 7.31798C9.42588 7.42041 9.37667 7.55172 9.37667 7.68762C9.37667 7.82352 9.42588 7.95483 9.51518 8.05727C9.60449 8.15971 9.72787 8.22635 9.8625 8.24487L9.939 8.25012H13.3125L13.389 8.24487C13.5236 8.22635 13.647 8.15971 13.7363 8.05727C13.8256 7.95483 13.8748 7.82352 13.8748 7.68762C13.8748 7.55172 13.8256 7.42041 13.7363 7.31798C13.647 7.21554 13.5236 7.1489 13.389 7.13037L13.3125 7.12512Z" fill="#1A1A1A"/>
</g>
</svg>
