<svg width="16" height="18" viewBox="0 0 16 18" fill="none" xmlns="http://www.w3.org/2000/svg">
<path d="M13.1308 13.0683L12.1416 14.0466C11.4125 14.7616 10.4666 15.6816 9.30331 16.8066C8.95367 17.1447 8.48634 17.3337 7.99998 17.3337C7.51362 17.3337 7.04629 17.1447 6.69664 16.8066L3.78748 13.9766C3.42164 13.6174 3.11581 13.3149 2.86914 13.0683C1.85445 12.0535 1.16345 10.7606 0.883525 9.35316C0.603599 7.94568 0.747319 6.4868 1.29651 5.161C1.8457 3.8352 2.7757 2.70203 3.96891 1.90477C5.16211 1.10751 6.56493 0.681976 7.99998 0.681976C9.43502 0.681976 10.8378 1.10751 12.031 1.90477C13.2243 2.70203 14.1543 3.8352 14.7034 5.161C15.2526 6.4868 15.3964 7.94568 15.1164 9.35316C14.8365 10.7606 14.1455 12.0535 13.1308 13.0683ZM10.0833 8.16661C10.0833 7.61407 9.86382 7.08417 9.47312 6.69347C9.08242 6.30277 8.55251 6.08327 7.99998 6.08327C7.44744 6.08327 6.91754 6.30277 6.52684 6.69347C6.13614 7.08417 5.91664 7.61407 5.91664 8.16661C5.91664 8.71914 6.13614 9.24905 6.52684 9.63975C6.91754 10.0304 7.44744 10.2499 7.99998 10.2499C8.55251 10.2499 9.08242 10.0304 9.47312 9.63975C9.86382 9.24905 10.0833 8.71914 10.0833 8.16661Z" fill="black"/>
</svg>
