<svg width="18" height="14" viewBox="0 0 18 14" fill="none" xmlns="http://www.w3.org/2000/svg">
<path d="M9.00008 0.628333V6.17083L15.2017 6.17L13.7667 4.73333C13.6609 4.62751 13.5965 4.48721 13.5854 4.33796C13.5742 4.1887 13.617 4.04039 13.7059 3.92L13.7667 3.85C13.8726 3.74415 14.0129 3.67979 14.1621 3.66863C14.3114 3.65747 14.4597 3.70024 14.5801 3.78917L14.6501 3.85L17.1476 6.3475C17.2534 6.45332 17.3178 6.59362 17.329 6.74288C17.3401 6.89213 17.2973 7.04044 17.2084 7.16083L17.1476 7.23083L14.6509 9.73417C14.5394 9.84524 14.39 9.91014 14.2327 9.9159C14.0754 9.92166 13.9218 9.86785 13.8024 9.76523C13.6831 9.66261 13.6068 9.51874 13.5889 9.36235C13.571 9.20597 13.6128 9.04859 13.7059 8.92167L13.7659 8.85083L15.1934 7.42L9.00092 7.42083L9.00008 13.0417C9.00012 13.1329 8.98018 13.2231 8.94164 13.3059C8.9031 13.3886 8.84691 13.4619 8.77701 13.5206C8.70712 13.5793 8.62521 13.622 8.53706 13.6456C8.4489 13.6693 8.35664 13.6733 8.26675 13.6575L1.18341 12.4058C1.0389 12.3804 0.907938 12.3049 0.813475 12.1926C0.719012 12.0803 0.66707 11.9384 0.666748 11.7917V1.79167C0.66675 1.64353 0.719368 1.50021 0.815218 1.38727C0.911069 1.27432 1.04392 1.1991 1.19008 1.175L8.27342 0.011666C8.36288 -0.0030841 8.45449 0.00181049 8.54188 0.0260101C8.62927 0.0502097 8.71034 0.0931346 8.77948 0.151806C8.84862 0.210478 8.90416 0.283491 8.94226 0.365778C8.98035 0.448065 9.00008 0.537656 9.00008 0.628333ZM6.08508 6.58333C5.86363 6.58333 5.65124 6.67131 5.49465 6.8279C5.33805 6.98449 5.25008 7.19688 5.25008 7.41833C5.25008 7.63979 5.33805 7.85217 5.49465 8.00877C5.65124 8.16536 5.86363 8.25333 6.08508 8.25333C6.30654 8.25333 6.51892 8.16536 6.67552 8.00877C6.83211 7.85217 6.92008 7.63979 6.92008 7.41833C6.92008 7.19688 6.83211 6.98449 6.67552 6.8279C6.51892 6.67131 6.30654 6.58333 6.08508 6.58333Z" fill="#1A1A1A"/>
<path d="M9.8335 12.4175H10.471L10.556 12.4125C10.7059 12.3919 10.8433 12.3177 10.9426 12.2035C11.0419 12.0893 11.0964 11.943 11.096 11.7917L11.0902 8.25H9.8335V12.4175Z" fill="#1A1A1A"/>
<path d="M9.83516 5.33333L9.8335 4.27083V1.16666H10.4543C10.6052 1.16664 10.7511 1.22122 10.8649 1.32032C10.9787 1.41942 11.0528 1.55635 11.0735 1.70583L11.0793 1.79083L11.0852 5.33333H9.83516Z" fill="#1A1A1A"/>
</svg>
