<svg width="18" height="18" viewBox="0 0 18 18" fill="none" xmlns="http://www.w3.org/2000/svg">
<g opacity="0.3">
<path d="M1.5 5.06247C1.5 4.51546 1.7173 3.99086 2.10409 3.60406C2.49089 3.21727 3.01549 2.99997 3.5625 2.99997H14.4375C14.9845 2.99997 15.5091 3.21727 15.8959 3.60406C16.2827 3.99086 16.5 4.51546 16.5 5.06247V12.9375C16.5 13.2083 16.4467 13.4765 16.343 13.7268C16.2394 13.977 16.0874 14.2044 15.8959 14.3959C15.7044 14.5874 15.477 14.7393 15.2268 14.843C14.9766 14.9466 14.7084 15 14.4375 15H3.5625C3.29165 15 3.02345 14.9466 2.77322 14.843C2.52298 14.7393 2.29561 14.5874 2.10409 14.3959C1.91257 14.2044 1.76065 13.977 1.657 13.7268C1.55335 13.4765 1.5 13.2083 1.5 12.9375V5.06247ZM5.0625 5.99997C4.91332 5.99997 4.77024 6.05923 4.66475 6.16472C4.55926 6.27021 4.5 6.41329 4.5 6.56247C4.5 6.71165 4.55926 6.85473 4.66475 6.96022C4.77024 7.06571 4.91332 7.12497 5.0625 7.12497H8.4375C8.58668 7.12497 8.72976 7.06571 8.83525 6.96022C8.94074 6.85473 9 6.71165 9 6.56247C9 6.41329 8.94074 6.27021 8.83525 6.16472C8.72976 6.05923 8.58668 5.99997 8.4375 5.99997H5.0625ZM5.0625 8.24997C4.91332 8.24997 4.77024 8.30923 4.66475 8.41472C4.55926 8.52021 4.5 8.66329 4.5 8.81247C4.5 8.96165 4.55926 9.10473 4.66475 9.21022C4.77024 9.31571 4.91332 9.37497 5.0625 9.37497H11.4375C11.5867 9.37497 11.7298 9.31571 11.8352 9.21022C11.9407 9.10473 12 8.96165 12 8.81247C12 8.66329 11.9407 8.52021 11.8352 8.41472C11.7298 8.30923 11.5867 8.24997 11.4375 8.24997H5.0625ZM4.5 11.0625C4.5 11.373 4.752 11.625 5.0625 11.625H9.9375C10.0867 11.625 10.2298 11.5657 10.3352 11.4602C10.4407 11.3547 10.5 11.2117 10.5 11.0625C10.5 10.9133 10.4407 10.7702 10.3352 10.6647C10.2298 10.5592 10.0867 10.5 9.9375 10.5H5.0625C4.91332 10.5 4.77024 10.5592 4.66475 10.6647C4.55926 10.7702 4.5 10.9133 4.5 11.0625Z" fill="#1A1A1A"/>
</g>
</svg>
