<svg width="56" height="34" viewBox="0 0 56 34" fill="none" xmlns="http://www.w3.org/2000/svg">
<path fill-rule="evenodd" clip-rule="evenodd" d="M47.0878 15.7406C52.0033 15.7406 56 19.8296 56 24.8585C56 29.8875 52.0033 33.9765 47.0878 33.9765C42.1723 33.9765 38.1756 29.8875 38.1756 24.8585C38.1756 21.7801 39.6686 19.0776 41.9196 17.4326L38.9795 11.8631C35.4422 14.4246 34.9598 16.0931 33.7884 20.2761C33.3519 21.8506 33.2601 23.331 31.5603 24.0125C30.6875 24.3415 29.9065 24.4825 28.7121 24.5295C27.0582 24.5765 25.0369 24.412 23.5669 24.3415C23.0845 24.318 22.694 24.1065 22.3035 23.8245C21.7293 23.425 21.5685 23.4015 20.8794 23.566L17.8015 24.224C17.8244 24.4355 17.8244 24.647 17.8244 24.882C17.8244 29.911 13.8277 34 8.91223 34C3.99672 34 0 29.911 0 24.882C0 19.8531 3.99672 15.7641 8.91223 15.7641C12.3806 15.7641 15.3667 17.7851 16.8368 20.7461L19.662 19.4771C19.6391 19.1481 19.6161 18.8191 19.5931 18.4901C19.9606 18.2316 20.3281 17.9731 20.6957 17.7146C20.2592 17.6441 19.9606 17.5031 19.5242 17.4326C18.4676 17.2446 17.8934 16.8451 16.9975 16.2576C16.4233 15.8816 16.4003 15.6936 15.7572 15.8816C15.3208 16.0226 14.7235 15.7171 14.3331 15.5056C12.3577 14.5186 9.2338 13.0851 7.37326 11.8161C6.84496 11.4636 6.61526 11.1346 6.31665 10.8056C5.94914 10.4296 6.17884 10.0536 6.38557 9.63061C6.73011 8.94911 6.84496 8.76111 7.14356 8.64361C7.60295 8.45561 7.80969 8.52611 8.24611 8.66711C8.4069 8.71411 8.54471 8.76111 8.7055 8.80811C9.09599 8.92561 9.34865 9.06661 9.09598 8.47911C8.88926 7.93862 8.88926 8.07961 8.29204 7.91512C6.70714 7.49212 5.09927 7.06912 3.51436 6.62262C2.34291 6.31712 2.68745 5.68263 3.72109 5.82363C5.62757 6.12912 7.55702 6.43462 9.4635 6.71662C9.87695 6.78712 10.3593 6.78712 10.6579 6.45812C11.2551 5.77663 11.3929 6.05862 12.3117 6.17612C15.4815 6.62262 18.6284 7.06912 21.7982 7.51562C22.8778 7.65662 24.1641 7.51562 25.1977 7.25712C26.461 6.95162 27.9081 6.71662 29.0336 6.24662C29.2863 6.12912 29.4471 5.75313 29.7227 5.63563C29.9524 5.51813 30.1591 5.51813 30.3429 5.49463C30.6645 5.44763 30.9861 5.47113 31.4225 5.58863C31.7211 5.65913 32.0197 5.77663 32.3183 5.84713C32.5939 5.91762 33.2141 5.80013 33.4668 5.68263C33.9032 5.47113 34.3396 5.25963 34.7761 5.00113C35.0747 4.81313 35.0287 4.62513 35.0517 4.31963C35.0517 4.15513 35.0057 3.99063 34.9598 3.84963C34.9139 3.59114 34.6153 3.28564 34.3856 3.19164C34.1329 3.09764 34.041 3.00364 34.041 2.55714C34.041 2.29864 34.041 2.06364 34.064 1.80514C34.064 1.47615 33.9721 1.17065 33.6276 1.31165C32.9155 1.54664 32.2264 1.80514 31.5144 2.04014C31.032 2.13414 30.5496 1.21765 31.2158 0.959147C31.9738 0.677149 32.7088 0.39515 33.4668 0.0896514C33.9032 -0.0748479 34.822 -0.00434823 35.2354 0.230651C38.4512 2.08714 38.4053 2.20464 39.9902 6.03512C40.105 6.29362 40.3117 6.74012 40.1969 7.04562C39.9672 7.56262 39.9672 7.42162 40.1969 7.93862C40.3117 8.17362 40.4036 8.38511 40.5185 8.62011C41.9885 8.22061 43.8261 8.05612 44.8827 8.00912C45.388 7.98562 45.2732 7.93862 45.7555 8.10312C47.0878 8.50261 48.3511 9.30161 49.8441 10.0771C50.671 10.5001 50.4643 11.0641 49.6604 10.7351C46.7892 9.60711 43.3667 8.87861 40.6333 10.7586L43.5734 16.4456C44.7219 15.9756 45.8704 15.7406 47.0878 15.7406ZM14.8154 21.6391L12.0131 22.908C11.37 21.8506 10.2445 21.1691 8.95816 21.1691C6.9598 21.1691 5.35193 22.814 5.35193 24.8585C5.35193 26.903 6.9598 28.548 8.95816 28.548C10.7957 28.548 12.2888 27.1615 12.5414 25.352L15.6194 24.694C15.6194 24.741 15.6194 24.8115 15.6194 24.8585C15.6194 28.6185 12.6333 31.6735 8.95816 31.6735C5.28302 31.6735 2.29696 28.6185 2.29696 24.8585C2.29696 21.0986 5.28302 18.0436 8.95816 18.0436C11.4848 18.0436 13.7129 19.5006 14.8154 21.6391ZM43.0221 19.4536L44.9746 23.1195C44.6071 23.5895 44.4003 24.177 44.4003 24.835C44.4003 26.3625 45.6177 27.608 47.1108 27.608C48.6038 27.608 49.8212 26.3625 49.8212 24.835C49.8212 23.3075 48.6038 22.0621 47.1108 22.0621C46.95 22.0621 46.7892 22.0856 46.6284 22.1091L44.7219 18.4901C45.4569 18.2081 46.2609 18.0436 47.0878 18.0436C50.7629 18.0436 53.749 21.0986 53.749 24.8585C53.749 28.6185 50.7629 31.6735 47.0878 31.6735C43.4126 31.6735 40.4266 28.6185 40.4266 24.8585C40.4266 22.6495 41.4602 20.6991 43.0221 19.4536ZM17.2962 14.0016C17.3421 14.2366 17.434 14.4951 17.6407 14.6126C18.0771 14.8711 18.3987 14.9886 18.8351 15.2471C19.1107 15.4116 19.5701 15.5526 19.8917 15.4821C20.3281 15.3881 20.5349 15.4116 20.1214 14.8476C19.8458 14.4716 19.4553 14.1426 19.1797 13.7901C18.927 13.4611 18.9729 13.4846 18.5365 13.4376C18.192 13.4141 17.8244 13.3906 17.4799 13.3671C16.9746 13.2731 17.2272 13.6491 17.2962 14.0016Z" fill="#34A4B6"/>
</svg>
