<svg width="200" height="200" viewBox="0 0 200 200" fill="none" xmlns="http://www.w3.org/2000/svg">
<path d="M100 154.266C134.311 154.266 162.125 126.452 162.125 92.1409C162.125 57.8302 134.311 30.0159 100 30.0159C65.6893 30.0159 37.875 57.8302 37.875 92.1409C37.875 126.452 65.6893 154.266 100 154.266Z" fill="#34A4B6"/>
<path d="M72.3352 60.2061H126.823C128.541 60.2061 130.189 60.8886 131.403 62.1035C132.618 63.3184 133.301 64.9662 133.301 66.6843V153.714C133.301 155.433 132.618 157.08 131.403 158.295C130.189 159.51 128.541 160.193 126.823 160.193H72.3353C71.4846 160.193 70.6422 160.025 69.8562 159.699C69.0703 159.374 68.3561 158.897 67.7546 158.295C67.153 157.694 66.6759 156.979 66.3503 156.193C66.0247 155.408 65.8572 154.565 65.8572 153.714V66.6841C65.8572 64.9661 66.5397 63.3184 67.7545 62.1035C68.9694 60.8886 70.6171 60.2061 72.3352 60.2061Z" fill="white"/>
<path d="M126.823 61.9145C128.088 61.9145 129.301 62.417 130.195 63.3115C131.09 64.206 131.593 65.4192 131.593 66.6842V153.714C131.593 154.979 131.09 156.193 130.195 157.087C129.301 157.982 128.088 158.484 126.823 158.484H72.3352C71.0702 158.484 69.857 157.982 68.9625 157.087C68.068 156.193 67.5655 154.979 67.5655 153.714V66.6842C67.5655 65.4192 68.068 64.206 68.9625 63.3115C69.857 62.417 71.0702 61.9145 72.3352 61.9145H126.823ZM126.823 58.4977H72.3352C67.8211 58.4977 64.1487 62.1701 64.1487 66.6842V153.714C64.1487 158.229 67.8211 161.901 72.3352 161.901H126.823C131.337 161.901 135.009 158.229 135.009 153.714V66.6842C135.009 62.1701 131.337 58.4977 126.823 58.4977Z" fill="#8C4B06"/>
<g opacity="0.2">
<path opacity="0.2" d="M126.823 61.9146H121.366C121.47 71.205 124.265 155.091 67.5656 152.287V153.715C67.5655 154.341 67.6889 154.961 67.9286 155.54C68.1683 156.119 68.5196 156.644 68.9626 157.087C69.4055 157.53 69.9313 157.882 70.51 158.121C71.0887 158.361 71.7089 158.484 72.3353 158.484H126.823C127.449 158.484 128.069 158.361 128.648 158.121C129.227 157.882 129.753 157.53 130.196 157.087C130.638 156.644 130.99 156.119 131.229 155.54C131.469 154.961 131.593 154.341 131.593 153.715V66.6844C131.593 65.4194 131.09 64.2061 130.195 63.3117C129.301 62.4172 128.088 61.9146 126.823 61.9146Z" fill="#8C4B06"/>
</g>
<g opacity="0.2">
<path opacity="0.2" d="M79.7157 78.7161H118.621C118.802 78.7161 118.981 78.7517 119.148 78.8209C119.315 78.8901 119.467 78.9916 119.595 79.1194C119.723 79.2473 119.824 79.3991 119.893 79.5662C119.963 79.7333 119.998 79.9123 119.998 80.0932V80.3912C119.998 80.5721 119.963 80.7512 119.893 80.9182C119.824 81.0853 119.723 81.2371 119.595 81.365C119.467 81.4929 119.315 81.5943 119.148 81.6635C118.981 81.7327 118.802 81.7683 118.621 81.7683H79.7157C79.3505 81.7683 79.0002 81.6232 78.742 81.365C78.4837 81.1067 78.3386 80.7565 78.3386 80.3912V80.0932C78.3386 79.728 78.4837 79.3777 78.742 79.1194C79.0002 78.8612 79.3505 78.7161 79.7157 78.7161Z" fill="#8C4B06"/>
</g>
<g opacity="0.2">
<path opacity="0.2" d="M79.7157 85.4436H118.621C118.802 85.4436 118.981 85.4792 119.148 85.5484C119.315 85.6176 119.467 85.7191 119.595 85.8469C119.723 85.9748 119.824 86.1266 119.893 86.2937C119.963 86.4608 119.998 86.6398 119.998 86.8207V87.1188C119.998 87.484 119.853 87.8343 119.595 88.0925C119.337 88.3508 118.986 88.4958 118.621 88.4958H79.7157C79.3505 88.4958 79.0002 88.3508 78.742 88.0925C78.4837 87.8343 78.3386 87.484 78.3386 87.1188V86.8207C78.3386 86.4555 78.4837 86.1052 78.742 85.8469C79.0002 85.5887 79.3505 85.4436 79.7157 85.4436Z" fill="#8C4B06"/>
</g>
<path d="M80.4763 95.7202H117.86C118.729 95.7202 119.563 96.0654 120.177 96.6799C120.792 97.2944 121.137 98.1279 121.137 98.9969V109.201C121.137 110.07 120.792 110.903 120.177 111.518C119.563 112.132 118.729 112.477 117.86 112.477H80.4763C79.6073 112.477 78.7739 112.132 78.1594 111.518C77.5449 110.903 77.1997 110.07 77.1997 109.201V98.9968C77.1997 98.5665 77.2845 98.1404 77.4491 97.7429C77.6138 97.3453 77.8551 96.9841 78.1594 96.6799C78.4637 96.3756 78.8249 96.1342 79.2224 95.9696C79.6199 95.8049 80.046 95.7202 80.4763 95.7202Z" fill="white"/>
<path d="M117.86 96.8591C118.427 96.8591 118.971 97.0843 119.372 97.4852C119.773 97.8861 119.998 98.4298 119.998 98.9968V109.201C119.998 109.768 119.773 110.311 119.372 110.712C118.971 111.113 118.427 111.338 117.86 111.338H80.4763C80.1955 111.338 79.9176 111.283 79.6582 111.176C79.3988 111.068 79.1632 110.911 78.9647 110.712C78.7662 110.514 78.6087 110.278 78.5013 110.019C78.3939 109.759 78.3386 109.481 78.3386 109.201V98.9968C78.3386 98.7161 78.3939 98.4381 78.5013 98.1787C78.6087 97.9194 78.7662 97.6837 78.9647 97.4852C79.1632 97.2867 79.3988 97.1292 79.6582 97.0218C79.9176 96.9144 80.1955 96.8591 80.4763 96.8591H117.86ZM117.86 94.5812H80.4763C79.3056 94.5825 78.1832 95.0481 77.3554 95.8759C76.5276 96.7037 76.062 97.8261 76.0607 98.9968V109.201C76.062 110.371 76.5276 111.494 77.3554 112.321C78.1832 113.149 79.3056 113.615 80.4763 113.616H117.86C119.031 113.615 120.153 113.149 120.981 112.321C121.809 111.494 122.275 110.371 122.276 109.201V98.9968C122.275 97.8261 121.809 96.7037 120.981 95.8759C120.153 95.0481 119.031 94.5825 117.86 94.5812Z" fill="#8C4B06"/>
<path d="M85.7583 106.954C87.3351 106.954 88.6133 105.675 88.6133 104.099C88.6133 102.522 87.3351 101.244 85.7583 101.244C84.1815 101.244 82.9033 102.522 82.9033 104.099C82.9033 105.675 84.1815 106.954 85.7583 106.954Z" fill="#F2221B"/>
<path d="M94.6982 106.954C96.275 106.954 97.5532 105.675 97.5532 104.099C97.5532 102.522 96.275 101.244 94.6982 101.244C93.1215 101.244 91.8433 102.522 91.8433 104.099C91.8433 105.675 93.1215 106.954 94.6982 106.954Z" fill="#F2221B"/>
<path d="M103.638 106.954C105.215 106.954 106.493 105.675 106.493 104.099C106.493 102.522 105.215 101.244 103.638 101.244C102.062 101.244 100.783 102.522 100.783 104.099C100.783 105.675 102.062 106.954 103.638 106.954Z" fill="#F2221B"/>
<path d="M112.578 106.954C114.155 106.954 115.433 105.676 115.433 104.099C115.433 102.522 114.155 101.244 112.578 101.244C111.001 101.244 109.723 102.522 109.723 104.099C109.723 105.676 111.001 106.954 112.578 106.954Z" fill="#F2221B"/>
<path d="M83.4801 137.135H114.857C116.22 137.135 117.528 137.676 118.492 138.641C119.456 139.605 119.998 140.913 119.998 142.276C119.998 143.64 119.456 144.948 118.492 145.912C117.528 146.876 116.22 147.418 114.857 147.418H83.4801C82.1165 147.418 80.8088 146.876 79.8445 145.912C78.8803 144.948 78.3386 143.64 78.3386 142.276C78.3386 140.913 78.8803 139.605 79.8445 138.641C80.8088 137.676 82.1165 137.135 83.4801 137.135Z" fill="#F2221B"/>
<path d="M114.856 148.841H83.48C79.86 148.841 76.9148 145.896 76.9148 142.276C76.9148 138.656 79.86 135.711 83.48 135.711H114.856C118.477 135.711 121.422 138.656 121.422 142.276C121.422 145.896 118.477 148.841 114.856 148.841ZM83.48 138.558C82.4939 138.558 81.5483 138.95 80.8511 139.647C80.1538 140.344 79.7621 141.29 79.7621 142.276C79.7621 143.262 80.1538 144.208 80.8511 144.905C81.5483 145.602 82.4939 145.994 83.48 145.994H114.856C115.345 145.994 115.828 145.898 116.279 145.711C116.73 145.524 117.14 145.25 117.485 144.905C117.831 144.56 118.104 144.15 118.291 143.699C118.478 143.248 118.574 142.764 118.574 142.276C118.574 141.788 118.478 141.304 118.291 140.853C118.104 140.402 117.831 139.992 117.485 139.647C117.14 139.302 116.73 139.028 116.279 138.841C115.828 138.654 115.345 138.558 114.856 138.558H83.48Z" fill="#8C4B06"/>
<g opacity="0.6">
<path opacity="0.6" d="M80.5122 143.026C80.5133 142.04 80.9054 141.095 81.6024 140.398C82.2994 139.701 83.2444 139.309 84.2301 139.308H115.607C116.409 139.308 117.189 139.57 117.829 140.053C117.484 139.59 117.036 139.213 116.52 138.954C116.004 138.694 115.434 138.559 114.857 138.558H83.4801C82.6993 138.557 81.9381 138.802 81.3047 139.259C80.6712 139.715 80.1978 140.36 79.9516 141.101C79.7054 141.842 79.6991 142.641 79.9335 143.386C80.1678 144.131 80.631 144.783 81.2571 145.249C80.774 144.609 80.5125 143.828 80.5122 143.026Z" fill="white"/>
</g>
<g opacity="0.5">
<path opacity="0.5" d="M79.7157 70.4955H118.621C118.802 70.4955 118.981 70.5311 119.148 70.6003C119.315 70.6695 119.467 70.7709 119.595 70.8988C119.723 71.0267 119.824 71.1785 119.893 71.3455C119.963 71.5126 119.998 71.6917 119.998 71.8725V73.0449C119.998 73.2257 119.963 73.4048 119.893 73.5719C119.824 73.7389 119.723 73.8907 119.595 74.0186C119.467 74.1465 119.315 74.2479 119.148 74.3171C118.981 74.3863 118.802 74.422 118.621 74.422H79.7157C79.3505 74.422 79.0002 74.2769 78.742 74.0186C78.4837 73.7604 78.3386 73.4101 78.3386 73.0449V71.8725C78.3386 71.5073 78.4837 71.157 78.742 70.8988C79.0002 70.6405 79.3505 70.4955 79.7157 70.4955Z" fill="#8C4B06"/>
</g>
<g opacity="0.2">
<path opacity="0.2" d="M79.7157 127.289H118.621C118.802 127.289 118.981 127.325 119.148 127.394C119.315 127.463 119.467 127.565 119.595 127.693C119.723 127.821 119.824 127.972 119.893 128.139C119.963 128.307 119.998 128.486 119.998 128.666V128.666C119.998 129.032 119.853 129.382 119.595 129.64C119.337 129.898 118.986 130.044 118.621 130.044H79.7157C79.3505 130.044 79.0002 129.898 78.742 129.64C78.4837 129.382 78.3386 129.032 78.3386 128.666C78.3386 128.301 78.4837 127.951 78.742 127.693C79.0002 127.434 79.3505 127.289 79.7157 127.289Z" fill="#8C4B06"/>
</g>
<g opacity="0.2">
<path opacity="0.2" d="M79.7157 119.871H118.621C118.802 119.871 118.981 119.907 119.148 119.976C119.315 120.046 119.467 120.147 119.595 120.275C119.723 120.403 119.824 120.555 119.893 120.722C119.963 120.889 119.998 121.068 119.998 121.249V122.037C119.998 122.403 119.853 122.753 119.595 123.011C119.337 123.269 118.986 123.415 118.621 123.415H79.7157C79.3505 123.415 79.0002 123.269 78.742 123.011C78.4837 122.753 78.3386 122.403 78.3386 122.037V121.249C78.3386 121.068 78.3742 120.889 78.4434 120.722C78.5127 120.555 78.6141 120.403 78.742 120.275C78.8698 120.147 79.0216 120.046 79.1887 119.976C79.3558 119.907 79.5349 119.871 79.7157 119.871Z" fill="#8C4B06"/>
</g>
<path d="M130.293 48.228C129.84 48.228 129.406 48.048 129.085 47.7276C128.765 47.4072 128.585 46.9727 128.585 46.5196V35.2658C128.585 34.8127 128.765 34.3782 129.085 34.0578C129.406 33.7374 129.84 33.5574 130.293 33.5574C130.746 33.5574 131.181 33.7374 131.501 34.0578C131.822 34.3782 132.002 34.8127 132.002 35.2658V46.5196C132.002 46.9727 131.822 47.4072 131.501 47.7276C131.181 48.048 130.746 48.228 130.293 48.228Z" fill="#8C4B06"/>
<path d="M142.754 55.6163C142.416 55.6163 142.086 55.5161 141.805 55.3283C141.524 55.1406 141.305 54.8738 141.176 54.5616C141.047 54.2495 141.013 53.906 141.079 53.5746C141.145 53.2432 141.307 52.9388 141.546 52.6999L149.504 44.7422C149.663 44.5835 149.851 44.4575 150.058 44.3716C150.265 44.2856 150.488 44.2414 150.712 44.2413C150.937 44.2413 151.159 44.2855 151.366 44.3713C151.573 44.4572 151.762 44.583 151.92 44.7417C152.079 44.9004 152.205 45.0888 152.291 45.2961C152.377 45.5034 152.421 45.7257 152.421 45.9501C152.421 46.1745 152.377 46.3967 152.291 46.604C152.205 46.8113 152.079 46.9996 151.92 47.1582L143.962 55.1159C143.804 55.2748 143.616 55.4008 143.408 55.4866C143.201 55.5725 142.979 55.6166 142.754 55.6163Z" fill="#8C4B06"/>
<path d="M159.627 69.3596H148.373C147.92 69.3596 147.486 69.1796 147.165 68.8592C146.845 68.5388 146.665 68.1043 146.665 67.6512C146.665 67.1981 146.845 66.7636 147.165 66.4432C147.486 66.1228 147.92 65.9428 148.373 65.9428H159.627C160.08 65.9428 160.515 66.1228 160.835 66.4432C161.156 66.7636 161.336 67.1981 161.336 67.6512C161.336 68.1043 161.156 68.5388 160.835 68.8592C160.515 69.1796 160.08 69.3596 159.627 69.3596Z" fill="#8C4B06"/>
</svg>
