<svg width="18" height="18" viewBox="0 0 18 18" fill="none" xmlns="http://www.w3.org/2000/svg">
<path d="M9 1.50073C9.62029 1.50073 10.2253 1.69301 10.7318 2.05109C11.2383 2.40917 11.6214 2.91545 11.8282 3.50023C11.8912 3.68042 11.8831 3.87784 11.8056 4.05227C11.7281 4.2267 11.587 4.36501 11.4111 4.43902C11.2351 4.51303 11.0376 4.51717 10.8587 4.4506C10.6798 4.38403 10.533 4.25176 10.4482 4.08073L10.4145 4.00048C10.2998 3.67598 10.0769 3.4008 9.78335 3.22112C9.48978 3.04144 9.14335 2.96818 8.80217 3.01364C8.461 3.0591 8.14583 3.22051 7.90955 3.4708C7.67328 3.72108 7.53026 4.04501 7.5045 4.38823L7.5015 4.49998V5.99923L13.3125 5.99998C13.7401 5.99993 14.1518 6.1622 14.4643 6.45401C14.7769 6.74582 14.967 7.14539 14.9963 7.57198L15 7.68748V14.8095C15.0001 15.2371 14.8378 15.6487 14.546 15.9613C14.2542 16.2738 13.8546 16.464 13.428 16.4932L13.3125 16.497H4.6875C4.25991 16.497 3.84823 16.3348 3.53569 16.043C3.22314 15.7512 3.03302 15.3516 3.00375 14.925L3 14.8095V7.68748C2.99995 7.25989 3.16222 6.84822 3.45403 6.53567C3.74583 6.22312 4.14541 6.033 4.572 6.00373L4.6875 5.99998L6.00075 5.99923V4.49998C6.00075 3.70453 6.31674 2.94166 6.87921 2.37919C7.44168 1.81672 8.20455 1.50073 9 1.50073V1.50073ZM9 10.125C8.84997 10.1211 8.70068 10.1473 8.56093 10.202C8.42119 10.2568 8.29382 10.3389 8.18633 10.4437C8.07885 10.5484 7.99342 10.6736 7.93509 10.8119C7.87676 10.9502 7.84671 11.0988 7.84671 11.2489C7.84671 11.3989 7.87676 11.5475 7.93509 11.6858C7.99342 11.8241 8.07885 11.9493 8.18633 12.054C8.29382 12.1588 8.42119 12.2409 8.56093 12.2957C8.70068 12.3504 8.84997 12.3766 9 12.3727C9.29304 12.3652 9.57154 12.2434 9.77613 12.0335C9.98072 11.8235 10.0952 11.542 10.0952 11.2489C10.0952 10.9557 9.98072 10.6742 9.77613 10.4642C9.57154 10.2543 9.29304 10.1326 9 10.125V10.125Z" fill="#FF0F0F"/>
</svg>
