<svg width="16" height="18" viewBox="0 0 16 18" fill="none" xmlns="http://www.w3.org/2000/svg">
<path d="M8.00994 0.875C8.6216 0.881667 9.23077 0.9525 9.82827 1.08583C9.95538 1.11421 10.0705 1.18159 10.1574 1.27855C10.2444 1.37552 10.2989 1.49722 10.3133 1.62667L10.4549 2.89917C10.4749 3.07857 10.5368 3.25077 10.6355 3.40192C10.7342 3.55307 10.867 3.67894 11.0232 3.76941C11.1794 3.85988 11.3546 3.91241 11.5349 3.92279C11.7151 3.93317 11.8952 3.9011 12.0608 3.82917L13.2283 3.31667C13.3468 3.26446 13.4786 3.25037 13.6055 3.27634C13.7324 3.30232 13.8481 3.36708 13.9366 3.46167C14.7799 4.36257 15.4079 5.44301 15.7733 6.62167C15.8116 6.74553 15.8104 6.87825 15.77 7.00143C15.7295 7.12461 15.6517 7.23215 15.5474 7.30917L14.5124 8.0725C14.3669 8.17941 14.2485 8.31908 14.167 8.48021C14.0854 8.64134 14.0429 8.8194 14.0429 9C14.0429 9.1806 14.0854 9.35866 14.167 9.51979C14.2485 9.68092 14.3669 9.82059 14.5124 9.9275L15.5483 10.69C15.6529 10.767 15.7309 10.8746 15.7715 10.998C15.8122 11.1213 15.8134 11.2543 15.7749 11.3783C15.4094 12.5569 14.7814 13.6373 13.9383 14.5383C13.85 14.6327 13.7347 14.6974 13.6081 14.7235C13.4816 14.7496 13.35 14.7359 13.2316 14.6842L12.0591 14.17C11.8938 14.0975 11.7137 14.065 11.5334 14.075C11.3532 14.085 11.1778 14.1373 11.0215 14.2277C10.8652 14.3181 10.7324 14.444 10.6339 14.5953C10.5353 14.7465 10.4737 14.9189 10.4541 15.0983L10.3133 16.37C10.2991 16.498 10.2457 16.6186 10.1603 16.7151C10.075 16.8116 9.96193 16.8794 9.8366 16.9092C8.62956 17.1963 7.37198 17.1963 6.16494 16.9092C6.0396 16.8794 5.92654 16.8116 5.84121 16.7151C5.75589 16.6186 5.70247 16.498 5.68827 16.37L5.54827 15.1C5.52785 14.921 5.46572 14.7493 5.36687 14.5986C5.26801 14.448 5.13519 14.3226 4.97908 14.2327C4.82298 14.1427 4.64794 14.0906 4.46804 14.0806C4.28814 14.0706 4.1084 14.1029 3.94327 14.175L2.7716 14.6883C2.65308 14.7403 2.52138 14.7541 2.39465 14.728C2.26792 14.7019 2.15243 14.6371 2.0641 14.5425C1.22053 13.6405 0.592547 12.5589 0.227436 11.3792C0.189016 11.2551 0.190199 11.1222 0.230821 10.9988C0.271443 10.8754 0.349486 10.7678 0.454102 10.6908L1.48994 9.9275C1.63564 9.82069 1.75413 9.68106 1.83581 9.51992C1.91749 9.35878 1.96005 9.18066 1.96005 9C1.96005 8.81934 1.91749 8.64122 1.83581 8.48008C1.75413 8.31894 1.63564 8.17931 1.48994 8.0725L0.454102 7.31083C0.349633 7.23376 0.271756 7.12608 0.231286 7.00272C0.190816 6.87937 0.189761 6.74648 0.228269 6.6225C0.593705 5.44385 1.22168 4.36343 2.06494 3.4625C2.15342 3.36791 2.26911 3.30315 2.39601 3.27718C2.5229 3.2512 2.65473 3.26529 2.77327 3.3175L3.93994 3.83C4.10578 3.90189 4.28618 3.93388 4.46664 3.92341C4.6471 3.91293 4.82258 3.86027 4.979 3.76966C5.13541 3.67906 5.26839 3.55303 5.36726 3.4017C5.46613 3.25037 5.52812 3.07797 5.54827 2.89833L5.68994 1.62667C5.70423 1.49696 5.75877 1.37499 5.8459 1.27785C5.93303 1.1807 6.04838 1.11327 6.17577 1.085C6.77327 0.9525 7.3841 0.8825 8.00994 0.875ZM7.99994 6.5C7.33689 6.5 6.70101 6.76339 6.23217 7.23223C5.76333 7.70107 5.49994 8.33696 5.49994 9C5.49994 9.66304 5.76333 10.2989 6.23217 10.7678C6.70101 11.2366 7.33689 11.5 7.99994 11.5C8.66298 11.5 9.29886 11.2366 9.7677 10.7678C10.2365 10.2989 10.4999 9.66304 10.4999 9C10.4999 8.33696 10.2365 7.70107 9.7677 7.23223C9.29886 6.76339 8.66298 6.5 7.99994 6.5Z" fill="#1A1A1A"/>
</svg>
