<svg xmlns="http://www.w3.org/2000/svg" viewBox="0 0 32 32" width="18" height="18">
	<style>
		tspan { white-space:pre }
		.shp0 { fill: #000000 } 
	</style>
	<path id="Layer" class="shp0" d="M16 12.01C17.41 12.01 18.77 12.57 19.77 13.57C20.77 14.57 21.33 15.93 21.33 17.34C21.33 18.75 20.77 20.11 19.77 21.11C18.77 22.11 17.41 22.67 16 22.67C14.59 22.67 13.23 22.11 12.23 21.11C11.23 20.11 10.67 18.75 10.67 17.34C10.67 15.93 11.23 14.57 12.23 13.57C13.23 12.57 14.59 12.01 16 12.01L16 12.01ZM16 7.33C22.15 7.33 27.46 11.53 28.93 17.42C29 17.68 28.96 17.95 28.82 18.18C28.69 18.4 28.47 18.57 28.21 18.63C27.95 18.7 27.68 18.66 27.45 18.52C27.22 18.38 27.06 18.16 26.99 17.91C26.38 15.46 24.96 13.28 22.97 11.73C20.98 10.18 18.52 9.33 16 9.33C13.47 9.33 11.02 10.18 9.03 11.73C7.03 13.29 5.62 15.46 5 17.91C4.93 18.16 4.77 18.38 4.54 18.51C4.32 18.64 4.05 18.68 3.8 18.62C3.54 18.55 3.33 18.39 3.19 18.17C3.05 17.95 3.01 17.68 3.06 17.43C3.79 14.54 5.45 11.98 7.8 10.16C10.14 8.33 13.03 7.33 16 7.33L16 7.33Z" />
</svg>