<svg width="14" height="14" viewBox="0 0 14 14" fill="none" xmlns="http://www.w3.org/2000/svg">
<path d="M13.75 11.3125C13.75 11.959 13.4932 12.579 13.0361 13.0361C12.579 13.4932 11.959 13.75 11.3125 13.75H2.6875C2.04103 13.75 1.42105 13.4932 0.963927 13.0361C0.506807 12.579 0.25 11.959 0.25 11.3125V2.6875C0.25 2.04103 0.506807 1.42105 0.963927 0.963927C1.42105 0.506807 2.04103 0.25 2.6875 0.25H11.3125C11.959 0.25 12.579 0.506807 13.0361 0.963927C13.4932 1.42105 13.75 2.04103 13.75 2.6875V11.3125ZM10.75 3.8125C10.75 3.67657 10.7008 3.54524 10.6114 3.4428C10.5221 3.34036 10.3987 3.27374 10.264 3.25525L10.1875 3.25H3.8125L3.736 3.25525C3.60137 3.27377 3.47799 3.34042 3.38868 3.44285C3.29937 3.54529 3.25017 3.6766 3.25017 3.8125C3.25017 3.9484 3.29937 4.07971 3.38868 4.18215C3.47799 4.28458 3.60137 4.35123 3.736 4.36975L3.8125 4.375H10.1875L10.264 4.36975C10.3987 4.35126 10.5221 4.28464 10.6114 4.1822C10.7008 4.07976 10.75 3.94843 10.75 3.8125ZM10.75 10.1875C10.75 10.0516 10.7008 9.92024 10.6114 9.8178C10.5221 9.71536 10.3987 9.64874 10.264 9.63025L10.1875 9.625H3.8125L3.736 9.63025C3.60137 9.64877 3.47799 9.71542 3.38868 9.81785C3.29937 9.92029 3.25017 10.0516 3.25017 10.1875C3.25017 10.3234 3.29937 10.4547 3.38868 10.5571C3.47799 10.6596 3.60137 10.7262 3.736 10.7448L3.8125 10.75H10.1875L10.264 10.7448C10.3987 10.7263 10.5221 10.6596 10.6114 10.5572C10.7008 10.4548 10.75 10.3234 10.75 10.1875ZM10.75 7C10.75 6.86407 10.7008 6.73274 10.6114 6.6303C10.5221 6.52786 10.3987 6.46124 10.264 6.44275L10.1875 6.4375H3.8125L3.736 6.44275C3.60137 6.46127 3.47799 6.52792 3.38868 6.63035C3.29937 6.73279 3.25017 6.8641 3.25017 7C3.25017 7.1359 3.29937 7.26721 3.38868 7.36965C3.47799 7.47208 3.60137 7.53873 3.736 7.55725L3.8125 7.5625H10.1875L10.264 7.55725C10.3987 7.53876 10.5221 7.47214 10.6114 7.3697C10.7008 7.26726 10.75 7.13593 10.75 7Z" fill="#1A1A1A"/>
</svg>
