<svg width="18" height="18" viewBox="0 0 18 18" fill="none" xmlns="http://www.w3.org/2000/svg">
<g opacity="0.3">
<path fill-rule="evenodd" clip-rule="evenodd" d="M16.3403 9.54147C17.2946 9.75909 18 10.647 18 11.7089C18 12.9363 17.054 13.9199 15.8922 13.9199C14.7221 13.9199 13.7844 12.9275 13.7844 11.7089C13.7844 11.5174 13.8093 11.3346 13.8507 11.1605L13.1703 11.7089C13.1371 11.8134 13.1039 11.9091 13.0707 12.0136C12.8881 12.562 12.1247 12.501 11.6765 12.501H8.55631C8.08329 12.501 8.17458 12.5881 7.80944 12.2921C7.71816 12.2138 7.62688 12.1441 7.51899 12.0571C7.35302 12.1354 7.19535 12.2138 7.02938 12.2921C6.86341 12.2921 6.64765 12.2921 6.407 12.2834L5.77631 12.501C5.33649 12.649 5.40288 12.6751 4.95476 12.562H4.93816C4.62282 13.3628 3.86765 13.9286 2.98801 13.9286C1.81792 13.9286 0.880194 12.9363 0.880194 11.7176C0.880194 10.6295 1.62706 9.73298 2.60628 9.54147C2.26604 9.47184 1.88431 9.45443 1.43619 9.54147C1.12915 9.90707 0.830403 10.2727 0.523359 10.6208C0.257807 10.9255 0.00885171 10.7862 0.00055321 10.3597C-0.00774529 9.88095 0.0752397 9.3935 0.390583 8.87122C0.34909 8.59268 0.390583 8.27931 0.606344 7.88761C0.979776 7.85279 1.35321 7.80927 1.72664 7.77445C2.16646 7.20865 2.71416 6.89529 3.22867 6.88659C3.34485 6.88659 3.41124 6.71249 3.37804 6.58193C3.33655 6.39913 3.28676 6.49488 3.42783 6.25115C3.76807 5.65054 4.34897 5.51997 5.02944 5.72017C6.22443 6.07706 7.53559 6.13799 8.83846 6.20763C9.20359 6.22504 9.29487 6.42524 9.36956 6.66027C9.43595 6.86918 9.51893 7.1129 9.18699 7.36534C9.1289 7.80056 8.96293 8.2619 8.73058 8.72325C8.53971 9.10625 8.53141 8.94956 8.64759 9.34127C8.71398 9.56759 8.75547 9.79391 8.78867 10.0463C8.86335 10.6644 8.70568 10.5947 9.28658 10.6557C9.99195 10.7253 10.7056 10.7862 11.411 10.8559C12.0085 10.9081 12.1911 10.7601 12.2408 10.2117C12.4898 7.43497 12.7471 6.60804 11.328 3.84869C11.162 3.93574 11.021 4.07501 10.8384 4.11854C10.5065 4.20558 10.5065 3.77035 10.6973 3.69201C10.9795 3.57885 11.1786 3.35253 11.4276 3.23067C11.8508 3.02176 11.801 2.83026 12.133 3.24808C12.3321 3.49181 12.44 3.73554 12.4151 4.14465C12.9213 4.19688 13.5603 4.16206 13.9088 4.6147C14.5229 5.42422 14.6391 7.15643 14.7636 8.09652C15.3362 8.10522 17.0374 8.19227 17.2697 8.79288C17.4274 9.2107 17.3361 9.19329 16.971 9.31516L16.3403 9.54147ZM15.8839 11.0822L15.5685 10.4119C15.6681 10.3858 15.7843 10.3684 15.8922 10.3684C16.5976 10.3684 17.1619 10.969 17.1619 11.7002C17.1619 12.4401 16.5893 13.032 15.8922 13.032C15.1868 13.032 14.6225 12.4314 14.6225 11.7002C14.6225 11.2998 14.7885 10.9429 15.054 10.6992L15.4109 11.352C15.3445 11.4565 15.303 11.5783 15.303 11.7089C15.303 12.0484 15.5685 12.3269 15.8922 12.3269C16.2158 12.3269 16.4814 12.0484 16.4814 11.7089C16.4814 11.3607 16.2158 11.0822 15.8839 11.0822ZM1.71004 11.7524L2.43201 11.9352C2.515 12.1615 2.73076 12.3269 2.97971 12.3269C3.12909 12.3269 3.27016 12.266 3.36974 12.1703L4.09171 12.353C3.87595 12.7622 3.45273 13.0407 2.97971 13.0407C2.29094 13.0407 1.73494 12.4662 1.71004 11.7524Z" fill="#1A1A1A"/>
</g>
</svg>
