<svg width="56" height="34" viewBox="0 0 56 34" fill="none" xmlns="http://www.w3.org/2000/svg">
<path fill-rule="evenodd" clip-rule="evenodd" d="M50.8365 20.3513C53.8055 21.0283 56 23.7905 56 27.0944C56 30.9128 53.0568 33.9729 49.4423 33.9729C45.8021 33.9729 42.8847 30.8857 42.8847 27.0944C42.8847 26.4986 42.9621 25.9299 43.0912 25.3883L40.9742 27.0944C40.8709 27.4194 40.7676 27.7172 40.6644 28.0422C40.0964 29.7483 37.7212 29.5587 36.327 29.5587H26.6196C25.148 29.5587 25.432 29.8296 24.296 28.9088C24.012 28.6651 23.7281 28.4484 23.3924 28.1776C22.8761 28.4213 22.3855 28.6651 21.8692 28.9088C21.3528 28.9088 20.6816 28.9088 19.9329 28.8817L17.9707 29.5587C16.6024 30.0191 16.8089 30.1004 15.4148 29.7483H15.3632C14.3821 32.2397 12.0327 34 9.29604 34C5.65577 34 2.73838 30.9128 2.73838 27.1215C2.73838 23.7364 5.06196 20.947 8.10843 20.3513C7.04991 20.1346 5.86231 20.0804 4.46816 20.3513C3.51291 21.4887 2.58348 22.626 1.62823 23.7093C0.802065 24.6571 0.0275387 24.2238 0.0017211 22.8969C-0.0240965 21.4074 0.234079 19.8909 1.21515 18.266C1.08606 17.3994 1.21515 16.4245 1.8864 15.2059C3.04819 15.0976 4.20998 14.9622 5.37177 14.8538C6.7401 13.0936 8.44406 12.1187 10.0448 12.0916C10.4062 12.0916 10.6127 11.55 10.5095 11.1438C10.3804 10.5751 10.2255 10.873 10.6644 10.1147C11.7229 8.24612 13.5301 7.83991 15.6472 8.46276C19.3649 9.57308 23.4441 9.76265 27.4974 9.97929C28.6334 10.0335 28.9174 10.6563 29.1497 11.3875C29.3563 12.0374 29.6145 12.7957 28.5818 13.581C28.401 14.9351 27.8847 16.3704 27.1618 17.8057C26.568 18.9972 26.5422 18.5098 26.9036 19.7284C27.1102 20.4325 27.2392 21.1366 27.3425 21.9219C27.5749 23.8447 27.0843 23.628 28.8916 23.8176C31.0861 24.0343 33.3064 24.2238 35.5009 24.4405C37.3597 24.6029 37.9277 24.1426 38.0826 22.4365C38.8571 13.7977 39.6575 11.225 35.2427 2.64038C34.7263 2.91119 34.2874 3.34449 33.7194 3.47989C32.6867 3.7507 32.6867 2.39666 33.2805 2.15293C34.1583 1.80088 34.778 1.09678 35.5525 0.717644C36.8692 0.0677032 36.7143 -0.528075 37.747 0.771805C38.3666 1.53007 38.7022 2.28833 38.6248 3.56113C40.1997 3.72362 42.1876 3.61529 43.2719 5.0235C45.1824 7.54202 45.5439 12.9311 45.9312 15.8558C47.7126 15.8829 53.0052 16.1537 53.7281 18.0223C54.2186 19.3222 53.9346 19.268 52.7986 19.6472L50.8365 20.3513ZM49.4165 25.1446L48.4355 23.0593C48.7453 22.9781 49.1067 22.9239 49.4423 22.9239C51.6368 22.9239 53.3924 24.7925 53.3924 27.0673C53.3924 29.3692 51.611 31.2107 49.4423 31.2107C47.2478 31.2107 45.4923 29.3421 45.4923 27.0673C45.4923 25.8216 46.0086 24.7113 46.8348 23.953L47.9449 25.9841C47.7384 26.309 47.6093 26.6882 47.6093 27.0944C47.6093 28.1505 48.4355 29.0171 49.4423 29.0171C50.4492 29.0171 51.2754 28.1505 51.2754 27.0944C51.2754 26.0112 50.4492 25.1446 49.4165 25.1446ZM5.32014 27.2298L7.56626 27.7985C7.82444 28.5026 8.4957 29.0171 9.27022 29.0171C9.73494 29.0171 10.1738 28.8276 10.4836 28.5297L12.7298 29.0984C12.0585 30.3712 10.7418 31.2378 9.27022 31.2378C7.12737 31.2378 5.39759 29.4504 5.32014 27.2298Z" fill="#34A4B6"/>
</svg>
