<svg width="9" height="14" viewBox="0 0 9 14" fill="none" xmlns="http://www.w3.org/2000/svg">
<path d="M0.910901 13.4225C0.754675 13.2662 0.666912 13.0543 0.666912 12.8333C0.666912 12.6124 0.754675 12.4004 0.910901 12.2442L6.15507 7L0.910901 1.75583C0.831309 1.67896 0.767823 1.58701 0.724149 1.48534C0.680475 1.38367 0.657487 1.27432 0.656525 1.16367C0.655564 1.05302 0.676649 0.943286 0.718549 0.840873C0.76045 0.73846 0.822328 0.645415 0.900572 0.567171C0.978815 0.488928 1.07186 0.427049 1.17427 0.385148C1.27669 0.343247 1.38642 0.322163 1.49707 0.323125C1.60772 0.324086 1.71707 0.347075 1.81874 0.39075C1.92041 0.434423 2.01236 0.497908 2.08923 0.577499L7.92257 6.41083C8.07879 6.56711 8.16656 6.77903 8.16656 7C8.16656 7.22097 8.07879 7.43289 7.92257 7.58917L2.08923 13.4225C1.93296 13.5787 1.72104 13.6665 1.50007 13.6665C1.2791 13.6665 1.06717 13.5787 0.910901 13.4225Z" fill="#1A1A1A"/>
</svg>
