<svg width="20" height="16" viewBox="0 0 20 16" fill="none" xmlns="http://www.w3.org/2000/svg">
<g clip-path="url(#clip0)">
<path d="M16.3514 9.98853L16.847 11.0272C16.968 10.9976 17.0935 10.9815 17.2224 10.9815C18.1835 10.9815 18.9654 11.8495 18.9654 12.9165C18.9654 13.9834 18.1835 14.8515 17.2224 14.8515C16.2614 14.8515 15.4794 13.9834 15.4794 12.9165C15.4794 12.3635 15.6899 11.8643 16.026 11.5114L15.5302 10.4721C14.8705 11.0359 14.4449 11.9208 14.4449 12.9165C14.4449 14.6195 15.6884 16 17.2224 16C18.7565 16 20 14.6195 20 12.9165C20 11.2135 18.7565 9.83298 17.2224 9.83298C16.9181 9.83298 16.6255 9.88813 16.3514 9.98853ZM2.77751 16C4.15308 16 5.29437 14.8897 5.51565 13.4325H4.45709C4.25311 14.2497 3.57764 14.8515 2.77752 14.8515C1.81649 14.8515 1.03452 13.9834 1.03452 12.9165C1.03452 11.8495 1.81649 10.9815 2.77752 10.9815C3.1887 10.9815 3.56675 11.1407 3.86514 11.406L4.72331 10.7168C4.22213 10.1704 3.53543 9.83298 2.77752 9.83298C1.24354 9.83298 0 11.2135 0 12.9165C0 14.6195 1.24354 16 2.77751 16Z" fill="#1A1A1A"/>
<path d="M0.616271 7.02518L5.38837 10.0112L5.42718 10.1513L5.48136 10.3467L2.60734 12.6552C2.50526 12.7372 2.46242 12.8828 2.50123 13.0159C2.54004 13.1489 2.65165 13.239 2.77761 13.239H6.28296L6.33663 13.4325L6.39116 13.6294C6.49306 13.997 6.79899 14.2478 7.14544 14.2478H9.44453L13.2936 11.0704C13.3108 11.0463 13.3301 11.0238 13.3516 11.0036L14.4053 10.0096H12.39V9.81283H14.6139L14.9362 9.50888H11.4303V9.31213H15.1399V9.31673L15.1649 9.29311L16.9657 13.0675C17.0179 13.1767 17.1186 13.2391 17.2227 13.2391C17.2685 13.2391 17.3151 13.227 17.3585 13.2015C17.5002 13.1181 17.5543 12.923 17.4792 12.7656L15.6887 9.01297L15.8843 9.00941L17.9765 8.97112C18.0636 8.96951 18.136 8.89635 18.1456 8.80033L18.182 8.43682C18.1856 8.40082 18.1799 8.36442 18.1657 8.33182L17.0133 5.69308L14.7247 2.97778C14.6889 2.93523 14.6326 2.92253 14.5846 2.94622L14.2574 3.10766C14.192 3.13995 14.1651 3.22702 14.1987 3.29713L15.1345 5.24499L14.4178 5.93568L14.2826 6.06588L13.784 5.02068C13.7467 4.94252 13.6821 4.88478 13.6053 4.86101L13.5017 4.82889C13.5258 5.02744 13.4899 5.22785 13.3963 5.40276C13.3814 5.43074 13.3644 5.45691 13.3469 5.48262L13.7194 6.26341H13.5222H12.4338L11.88 6.10274L9.74577 7.31637L9.77384 7.33173C10.0476 7.48142 10.2583 7.75225 10.352 8.07471C10.4456 8.39714 10.4172 8.75359 10.2738 9.05262L8.4734 12.8086C8.2759 13.2205 7.89196 13.4764 7.47137 13.4764C7.28702 13.4764 7.10309 13.4254 6.93938 13.3287C6.67192 13.1707 6.47591 12.9066 6.38745 12.5849C6.29891 12.2632 6.32857 11.9226 6.47091 11.6257L7.72161 9.01649L5.24486 7.66173C5.23701 7.65743 5.22956 7.65228 5.2218 7.64778L5.13605 7.65082C4.90405 7.65904 4.68294 7.54163 4.54427 7.33503C4.45315 7.19922 4.34194 7.04125 4.23266 6.88901C3.94977 6.49483 3.51827 6.2686 3.06436 6.27786L0.698149 6.32605C0.628249 6.32747 0.571285 6.38875 0.567824 6.4663L0.548755 6.88919C0.546202 6.94507 0.572353 6.99773 0.616271 7.02518ZM16.6977 5.95379L17.6885 8.25135C17.6885 8.25135 16.716 7.6729 16.4261 6.99666C16.1363 6.32044 16.6977 5.95379 16.6977 5.95379ZM5.71598 11.1932L6.05056 12.4005L6.10423 12.594H3.67464L5.66179 10.9978L5.71598 11.1932Z" fill="#1A1A1A"/>
<path d="M12.4122 3.62527C13.3061 3.44023 13.8956 2.4858 13.7289 1.49349C13.5622 0.501179 12.7025 -0.15324 11.8086 0.0318026C10.9148 0.216845 10.3253 1.17128 10.492 2.16359C10.6587 3.1559 11.5184 3.81032 12.4122 3.62527Z" fill="#1A1A1A"/>
<path d="M6.66468 11.7401C6.42737 12.2352 6.59651 12.8501 7.04247 13.1135C7.17938 13.1944 7.32637 13.2327 7.47135 13.2327C7.79855 13.2327 8.1151 13.0372 8.27959 12.6941L10.08 8.93811C10.1963 8.69553 10.219 8.41097 10.143 8.14943C10.0671 7.88789 9.89886 7.67172 9.67677 7.55027L9.46292 7.4333C9.41471 7.44322 9.36594 7.4498 9.31692 7.4498C9.15207 7.4498 8.99336 7.39467 8.85802 7.29039C8.74677 7.20474 8.6606 7.09081 8.60135 6.96205L7.46641 6.34128C7.83466 6.17639 8.21159 6.03714 8.57383 5.91424L8.75905 4.14576C8.80615 3.69518 9.14956 3.35534 9.55772 3.35534C9.58895 3.35534 9.62053 3.3574 9.65168 3.36145C9.86498 3.38898 10.0561 3.50721 10.1895 3.69434C10.323 3.88148 10.3828 4.1151 10.358 4.35216L10.2903 4.99877L10.8394 4.68648C10.9517 4.46334 10.997 4.2185 10.9452 3.97603C10.7966 3.28057 10.0794 2.56063 8.95842 2.74359C7.41854 3.00526 6.5159 3.38959 5.15887 4.40503C4.21751 5.23154 4.48097 6.08943 4.79652 6.74631C4.90113 6.9641 4.99324 7.13767 5.10156 7.25179C5.17016 7.32754 5.25026 7.39299 5.34187 7.44309L8.02177 8.90894L6.66468 11.7401Z" fill="#1A1A1A"/>
<path d="M10.0248 5.42354L10.1399 4.32402C10.1773 3.96752 9.9472 3.64494 9.62607 3.60349C9.30602 3.56184 9.01433 3.81744 8.97703 4.17394L8.73537 6.48122C8.71043 6.7194 8.80562 6.9535 8.98311 7.09018C9.08294 7.16709 9.19962 7.20611 9.31688 7.20611C9.40806 7.20611 9.49959 7.18247 9.5837 7.13464L12.426 5.51833C12.7011 5.68358 13.0466 5.57926 13.2075 5.27829C13.3726 4.96967 13.281 4.57097 13.003 4.38776L12.7452 4.21784C12.5722 4.10368 12.3586 4.09635 12.1795 4.19824L10.0248 5.42354Z" fill="#1A1A1A"/>
</g>
<defs>
<clipPath id="clip0">
<rect width="20" height="16" fill="white"/>
</clipPath>
</defs>
</svg>
