<svg width="18" height="18" viewBox="0 0 18 18" fill="none" xmlns="http://www.w3.org/2000/svg">
<g opacity="0.3">
<path d="M13.3125 2.25C13.959 2.25 14.579 2.50681 15.0361 2.96393C15.4932 3.42105 15.75 4.04103 15.75 4.6875V5.25H2.25V4.6875C2.25 4.04103 2.50681 3.42105 2.96393 2.96393C3.42105 2.50681 4.04103 2.25 4.6875 2.25H13.3125Z" fill="#1A1A1A"/>
<path d="M15.75 6.37497V9.01647C14.814 8.41783 13.7015 8.15688 12.597 8.27687C11.4924 8.39685 10.4619 8.89056 9.67624 9.67621C8.89059 10.4619 8.39688 11.4923 8.2769 12.5969C8.15691 13.7015 8.41786 14.8139 9.0165 15.75H4.6875C4.04103 15.75 3.42105 15.4932 2.96393 15.036C2.50681 14.5789 2.25 13.9589 2.25 13.3125V6.37497H15.75Z" fill="#1A1A1A"/>
<path d="M17.25 13.125C17.25 12.031 16.8154 10.9818 16.0418 10.2082C15.2682 9.4346 14.219 9 13.125 9C12.031 9 10.9818 9.4346 10.2082 10.2082C9.4346 10.9818 9 12.031 9 13.125C9 14.219 9.4346 15.2682 10.2082 16.0418C10.9818 16.8154 12.031 17.25 13.125 17.25C14.219 17.25 15.2682 16.8154 16.0418 16.0418C16.8154 15.2682 17.25 14.219 17.25 13.125ZM13.125 13.125H14.625C14.7245 13.125 14.8198 13.1645 14.8902 13.2348C14.9605 13.3052 15 13.4005 15 13.5C15 13.5995 14.9605 13.6948 14.8902 13.7652C14.8198 13.8355 14.7245 13.875 14.625 13.875H12.75C12.6505 13.875 12.5552 13.8355 12.4848 13.7652C12.4145 13.6948 12.375 13.5995 12.375 13.5V11.25C12.375 11.1505 12.4145 11.0552 12.4848 10.9848C12.5552 10.9145 12.6505 10.875 12.75 10.875C12.8495 10.875 12.9448 10.9145 13.0152 10.9848C13.0855 11.0552 13.125 11.1505 13.125 11.25V13.125Z" fill="#1A1A1A"/>
</g>
</svg>
