<svg width="32" height="32" viewBox="0 0 32 32" fill="none" xmlns="http://www.w3.org/2000/svg">
<path d="M7.16226 31.3529C6.81167 31.3529 6.46352 31.2436 6.16639 31.0287C5.61291 30.6276 5.35436 29.9381 5.505 29.2728L7.56364 20.2045L0.582032 14.0818C0.0688361 13.6337 -0.127213 12.9243 0.0834849 12.2751C0.294183 11.6271 0.867439 11.1684 1.54617 11.1056L10.7837 10.267L14.4359 1.72012C14.7052 1.09217 15.3185 0.686646 15.9999 0.686646C16.6813 0.686646 17.2946 1.09217 17.5639 1.71865L21.2161 10.267L30.4521 11.1056C31.1323 11.1669 31.7056 11.6271 31.9163 12.2751C32.127 12.923 31.9321 13.6337 31.4189 14.0818L24.4373 20.2032L26.496 29.2713C26.6468 29.9381 26.3881 30.6276 25.8348 31.0275C25.2828 31.4274 24.5467 31.4582 23.9654 31.1088L15.9999 26.3487L8.03435 31.1115C7.76506 31.2714 7.465 31.3529 7.16226 31.3529ZM15.9999 24.2981C16.3026 24.2981 16.6024 24.3794 16.872 24.5393L24.3895 29.0355L22.4466 20.4764C22.3079 19.8673 22.5147 19.2313 22.9854 18.8192L29.5776 13.0378L20.8559 12.2458C20.228 12.1884 19.6879 11.7936 19.4426 11.215L15.9999 3.14935L12.553 11.2162C12.3103 11.7909 11.7703 12.1857 11.1438 12.2431L2.42094 13.0351L9.01289 18.8165C9.48507 19.2298 9.69162 19.8646 9.55172 20.4752L7.61027 29.034L15.1278 24.5393C15.3971 24.3794 15.6971 24.2981 15.9999 24.2981ZM10.7131 10.4323C10.7131 10.4323 10.7131 10.4337 10.7117 10.4349L10.7131 10.4323ZM21.2839 10.4283L21.2854 10.431C21.2854 10.4296 21.2854 10.4296 21.2839 10.4283Z" fill="#FFCE63"/>
</svg>
