<svg width="18" height="18" viewBox="0 0 18 18" fill="none" xmlns="http://www.w3.org/2000/svg">
<g opacity="0.3">
<path d="M1.5 7.59525L8.73975 11.3738C8.82009 11.4157 8.90938 11.4376 9 11.4376C9.09062 11.4376 9.17991 11.4157 9.26025 11.3738L16.5 7.596V13.3125C16.5 13.9351 16.2618 14.5341 15.8342 14.9867C15.4067 15.4392 14.8221 15.711 14.2005 15.7463L14.0625 15.75H3.9375C3.3149 15.75 2.71588 15.5118 2.26333 15.0842C1.81078 14.6567 1.539 14.0721 1.50375 13.4505L1.5 13.3125V7.59525ZM2.325 6.12675L8.71275 2.32875C8.78702 2.28469 8.87044 2.25833 8.95654 2.25169C9.04264 2.24506 9.12911 2.25834 9.20925 2.2905L9.28725 2.32875L15.675 6.1275C15.8512 6.2325 16.0042 6.36675 16.1287 6.522L9 10.2413L1.87125 6.52125C1.965 6.405 2.07375 6.3 2.1975 6.21075L2.325 6.12675L8.71275 2.32875L2.325 6.1275V6.12675Z" fill="#1A1A1A"/>
</g>
</svg>
