<svg width="40" height="40" viewBox="0 0 40 40" fill="none" xmlns="http://www.w3.org/2000/svg">
<circle opacity="0.3" cx="20" cy="20" r="20" fill="#34A4B6"/>
<path fill-rule="evenodd" clip-rule="evenodd" d="M10.326 19.0238C11.0182 19.0238 11.6779 19.1929 12.2619 19.5087L12.3051 19.4749C11.7536 19.1478 11.1804 18.8546 10.5856 18.6517C10.1962 18.5276 10.1854 18.3359 10.5747 18.4149C11.2993 18.5727 12.0672 18.7532 12.7377 19.1027L12.9216 18.9449C12.8783 18.8998 12.8351 18.8434 12.781 18.7983C12.4674 18.46 12.4782 18.2119 12.7486 17.7946C11.0182 16.9827 9.40672 15.8776 7.66551 15.201C6.99498 14.9417 7.02743 15.1108 6.76787 14.4342C6.67053 14.1748 6.60564 14.2876 6.49749 14.0282C6.27038 13.4419 6.68135 13.1487 7.2221 13.1938C8.45501 13.284 9.61221 13.3742 10.8019 13.4644C11.4291 13.5095 12.0023 13.7238 12.3051 14.3553C12.6729 15.1221 12.5323 15.3025 13.3001 15.4153C14.6304 15.6183 15.9606 15.81 17.2908 16.0129C17.691 15.6183 17.8532 15.4491 18.2534 15.0544C19.7134 13.5885 22.19 13.7125 23.9421 14.2763C24.3422 14.4117 24.6883 14.6372 25.0884 14.7725C25.1533 14.6936 25.2074 14.6146 25.2723 14.5244C25.4886 14.2425 25.8996 14.3214 26.2132 14.4004C26.343 14.4342 26.462 14.468 26.5917 14.5019C26.9486 14.5921 26.9811 14.7387 27.0027 15.0206C27.0243 15.28 27.2082 15.3814 27.4353 15.3138C27.63 15.2574 27.8246 15.201 28.0085 15.1446C28.4303 15.0093 28.3113 14.9529 28.1491 14.5921C28.0842 14.4455 28.0193 14.2989 27.9544 14.1636C27.803 13.8253 27.5651 13.814 27.2406 13.7914C26.6566 13.7463 26.1808 13.69 25.5535 13.3968C25.3696 13.3065 25.2182 13.0472 25.4778 12.9344C25.6076 12.878 25.7374 12.8216 25.8671 12.7765C26.0726 12.5961 26.2781 12.4044 26.4836 12.224C26.7648 11.9759 26.9162 11.897 27.2514 12.1789C27.9977 12.7991 28.625 13.408 29.1549 14.017C29.2198 13.9042 29.263 13.7351 29.263 13.5885C29.1441 13.5208 29.1441 13.4306 29.0792 13.3291C28.9927 12.9682 29.0035 12.5736 29.0467 12.2127C29.0792 11.9759 29.2414 11.9872 29.4361 12.0661C30.0417 12.3142 30.5284 12.957 29.9985 13.4531C29.8579 13.5885 29.6956 13.6787 29.5226 13.7463C29.501 13.8817 29.4685 14.017 29.4469 14.1523C29.4036 14.4004 29.3928 14.3214 29.5334 14.5131C30.0633 15.2123 30.2472 15.8551 30.6041 16.7121C31.0367 17.7495 30.8745 17.7157 29.966 18.1781C29.7065 18.3134 29.1549 18.5164 28.8521 18.5389C28.6574 18.5502 28.4735 18.5615 28.2789 18.5727C28.0301 18.584 28.0193 18.7757 28.0842 18.8998C28.1275 18.99 28.1815 19.0238 28.4411 18.9674C29.263 18.8095 30.2688 18.6178 30.9394 18.8772C31.0151 18.8998 31.0259 19.0464 30.8961 19.114L30.7771 19.1817C32.6265 19.6778 34 21.4257 34 23.5119C34 25.9815 32.0858 27.9774 29.7173 27.9774C27.3488 27.9774 25.4345 25.9815 25.4345 23.5119C25.4345 23.4555 25.4345 23.3991 25.4345 23.354C25.2939 23.76 25.1642 24.1547 25.0668 24.5719C24.8613 25.4064 24.4612 26.1055 23.3256 26.1168C20.8706 26.1394 17.9722 26.2747 15.5604 26.0266C15.0305 25.9702 14.9007 25.9364 15.0089 25.4289C15.1279 25.1132 15.7335 24.29 15.7659 23.9968C15.8092 23.6698 15.82 23.5908 15.4523 23.7487C15.1279 23.8728 14.8358 24.0306 14.5222 24.1772C14.2194 26.3423 12.4349 28 10.2827 28C7.91426 28 6 26.004 6 23.5345C6.04326 21.031 7.95751 19.0238 10.326 19.0238ZM27.4677 21.764L28.0301 22.5308C27.8787 22.824 27.803 23.151 27.803 23.5006C27.803 24.6283 28.679 25.553 29.7713 25.553C30.8528 25.553 31.7397 24.6396 31.7397 23.5006C31.7397 22.373 30.8637 21.4483 29.7713 21.4483C29.5226 21.4483 29.2847 21.4934 29.0684 21.5836L28.798 20.7266C29.1008 20.6138 29.4361 20.5461 29.7713 20.5461C31.3395 20.5461 32.6049 21.8655 32.6049 23.5006C32.6049 25.1357 31.3395 26.4551 29.7713 26.4551C28.2032 26.4551 26.9378 25.1357 26.9378 23.5006C26.927 22.8466 27.1325 22.2489 27.4677 21.764ZM12.1537 21.2453L10.9208 22.17C10.737 22.0798 10.5423 22.0347 10.326 22.0347C9.54732 22.0347 8.92005 22.6887 8.92005 23.5006C8.92005 24.3125 9.54732 24.9666 10.326 24.9666C11.0939 24.9666 11.7211 24.3125 11.7319 23.5119L13.1379 23.1172C13.1487 23.2413 13.1595 23.3766 13.1595 23.5006C13.1595 25.1357 11.8942 26.4551 10.326 26.4551C8.75782 26.4551 7.49247 25.1357 7.49247 23.5006C7.49247 21.8655 8.75782 20.5461 10.326 20.5461C11.029 20.5461 11.6671 20.8055 12.1537 21.2453Z" fill="#34A4B6"/>
</svg>
