<svg width="16" height="13" viewBox="0 0 16 13" fill="none" xmlns="http://www.w3.org/2000/svg">
<path d="M13.0625 0C13.3826 0 13.6996 0.0630479 13.9953 0.185544C14.291 0.30804 14.5597 0.487584 14.7861 0.713927C15.0124 0.94027 15.192 1.20898 15.3145 1.50471C15.437 1.80044 15.5 2.1174 15.5 2.4375V9.56625C15.5 9.88635 15.437 10.2033 15.3145 10.499C15.192 10.7948 15.0124 11.0635 14.7861 11.2898C14.5597 11.5162 14.291 11.6957 13.9953 11.8182C13.6996 11.9407 13.3826 12.0038 13.0625 12.0038H2.9375C2.6174 12.0038 2.30044 11.9407 2.00471 11.8182C1.70898 11.6957 1.44027 11.5162 1.21393 11.2898C0.987584 11.0635 0.808039 10.7948 0.685544 10.499C0.563048 10.2033 0.5 9.88635 0.5 9.56625V2.4375C0.499959 1.8149 0.738166 1.21588 1.16575 0.763327C1.59334 0.310775 2.1779 0.038999 2.7995 0.00375009L2.9375 0H13.0625ZM5.93975 6.375H3.3125C3.17657 6.37501 3.04524 6.42423 2.9428 6.51358C2.84036 6.60292 2.77374 6.72634 2.75525 6.861L2.75 6.9375V7.37325C2.75 8.328 3.476 8.8125 4.62575 8.8125C5.72525 8.8125 6.43775 8.37 6.49775 7.49625L6.50225 7.374V6.9375C6.50222 6.80146 6.45289 6.67004 6.36339 6.56758C6.2739 6.46512 6.1503 6.39857 6.0155 6.38025L5.93975 6.375ZM8.1875 6.375L7.1255 6.37425C7.19 6.51075 7.232 6.66 7.24625 6.8175L7.25225 6.9375V7.374L7.24475 7.5645C7.23044 7.79611 7.17851 8.02384 7.091 8.23875C7.172 8.24625 7.256 8.25 7.34375 8.25C8.13275 8.25 8.6885 7.94475 8.7455 7.2975L8.75 7.18725V6.9375C8.74999 6.80157 8.70077 6.67024 8.61143 6.5678C8.52208 6.46536 8.39867 6.39874 8.264 6.38025L8.1875 6.375L7.1255 6.37425L8.1875 6.375ZM12.6875 6.375H10.4375L10.361 6.38025C10.2264 6.39878 10.103 6.46542 10.0137 6.56785C9.92437 6.67029 9.87517 6.8016 9.87517 6.9375C9.87517 7.0734 9.92437 7.20471 10.0137 7.30715C10.103 7.40959 10.2264 7.47623 10.361 7.49475L10.4375 7.5H12.6875L12.764 7.49475C12.8986 7.47623 13.022 7.40959 13.1113 7.30715C13.2006 7.20471 13.2498 7.0734 13.2498 6.9375C13.2498 6.8016 13.2006 6.67029 13.1113 6.56785C13.022 6.46542 12.8986 6.39878 12.764 6.38025L12.6875 6.375ZM4.625 3.375C4.32653 3.375 4.04029 3.49357 3.82924 3.70462C3.61819 3.91566 3.49962 4.20191 3.49962 4.50038C3.49962 4.79884 3.61819 5.08509 3.82924 5.29614C4.04029 5.50718 4.32653 5.62575 4.625 5.62575C4.92347 5.62575 5.20971 5.50718 5.42076 5.29614C5.63181 5.08509 5.75037 4.79884 5.75037 4.50038C5.75037 4.20191 5.63181 3.91566 5.42076 3.70462C5.20971 3.49357 4.92347 3.375 4.625 3.375ZM7.5275 3.7515C7.40458 3.7515 7.28287 3.77571 7.16931 3.82275C7.05575 3.86979 6.95256 3.93873 6.86565 4.02565C6.77873 4.11256 6.70979 4.21575 6.66275 4.32931C6.61571 4.44287 6.5915 4.56458 6.5915 4.6875C6.5915 4.81042 6.61571 4.93213 6.66275 5.04569C6.70979 5.15925 6.77873 5.26244 6.86565 5.34935C6.95256 5.43627 7.05575 5.50521 7.16931 5.55225C7.28287 5.59929 7.40458 5.6235 7.5275 5.6235C7.77574 5.6235 8.01382 5.52489 8.18935 5.34935C8.36489 5.17382 8.4635 4.93574 8.4635 4.6875C8.4635 4.43926 8.36489 4.20118 8.18935 4.02565C8.01382 3.85011 7.77574 3.7515 7.5275 3.7515ZM12.6875 4.125H10.4375L10.361 4.13025C10.2264 4.14877 10.103 4.21542 10.0137 4.31785C9.92437 4.42029 9.87517 4.5516 9.87517 4.6875C9.87517 4.8234 9.92437 4.95471 10.0137 5.05715C10.103 5.15958 10.2264 5.22623 10.361 5.24475L10.4375 5.25H12.6875L12.764 5.24475C12.8986 5.22623 13.022 5.15958 13.1113 5.05715C13.2006 4.95471 13.2498 4.8234 13.2498 4.6875C13.2498 4.5516 13.2006 4.42029 13.1113 4.31785C13.022 4.21542 12.8986 4.14877 12.764 4.13025L12.6875 4.125Z" fill="#1A1A1A"/>
</svg>
