<svg width="20" height="20" viewBox="0 0 20 20" fill="none" xmlns="http://www.w3.org/2000/svg">
<path d="M9.5625 11.4317L9.63167 11.3725C9.73723 11.2955 9.86426 11.2536 9.9949 11.2525C10.1255 11.2515 10.2532 11.2914 10.36 11.3667L10.4375 11.4317L16.2108 17.0983C15.7843 17.3615 15.2929 17.5006 14.7917 17.5H5.20834C4.70722 17.5009 4.21578 17.3621 3.78917 17.0992L9.5625 11.4317L9.63167 11.3725L9.5625 11.4308V11.4317ZM14.7917 2.5C15.51 2.5 16.1988 2.78534 16.7068 3.29325C17.2147 3.80116 17.5 4.49004 17.5 5.20833V14.7917C17.5 15.3142 17.3517 15.8025 17.0958 16.2167L11.3133 10.5392L11.2067 10.4425C10.8698 10.1592 10.444 10.0035 10.0038 10.0026C9.56367 10.0017 9.13723 10.1556 8.79917 10.4375L8.68667 10.54L2.90417 16.2158C2.63919 15.7881 2.49919 15.2948 2.5 14.7917V5.20833C2.5 4.49004 2.78534 3.80116 3.29326 3.29325C3.80117 2.78534 4.49004 2.5 5.20834 2.5H14.7917ZM13.1267 5C12.8802 5 12.6362 5.04854 12.4085 5.14285C12.1808 5.23716 11.9739 5.3754 11.7997 5.54966C11.6254 5.72393 11.4872 5.93081 11.3929 6.1585C11.2985 6.38618 11.25 6.63022 11.25 6.87667C11.25 7.12311 11.2985 7.36715 11.3929 7.59484C11.4872 7.82252 11.6254 8.02941 11.7997 8.20367C11.9739 8.37793 12.1808 8.51617 12.4085 8.61048C12.6362 8.70479 12.8802 8.75333 13.1267 8.75333C13.6244 8.75333 14.1017 8.55561 14.4537 8.20367C14.8056 7.85173 15.0033 7.37439 15.0033 6.87667C15.0033 6.37894 14.8056 5.90161 14.4537 5.54966C14.1017 5.19772 13.6244 5 13.1267 5V5ZM13.1267 6.25C13.209 6.25 13.2905 6.26621 13.3665 6.2977C13.4425 6.32919 13.5116 6.37535 13.5698 6.43355C13.628 6.49174 13.6741 6.56082 13.7056 6.63685C13.7371 6.71288 13.7533 6.79437 13.7533 6.87667C13.7533 6.95896 13.7371 7.04045 13.7056 7.11648C13.6741 7.19251 13.628 7.26159 13.5698 7.31979C13.5116 7.37798 13.4425 7.42414 13.3665 7.45563C13.2905 7.48712 13.209 7.50333 13.1267 7.50333C12.9605 7.50333 12.8011 7.43731 12.6836 7.31979C12.566 7.20226 12.5 7.04287 12.5 6.87667C12.5 6.71046 12.566 6.55107 12.6836 6.43355C12.8011 6.31602 12.9605 6.25 13.1267 6.25V6.25Z" fill="#34A4B6"/>
</svg>
