<svg width="18" height="18" viewBox="0 0 18 18" fill="none" xmlns="http://www.w3.org/2000/svg">
<g opacity="0.3">
<path d="M7.17213 5.62863L7.21413 5.71638L11.1944 15.4701C11.2668 15.6474 11.2687 15.8456 11.1996 16.0242C11.1306 16.2027 10.9959 16.3482 10.8231 16.4306C10.6503 16.5131 10.4525 16.5263 10.2703 16.4677C10.088 16.409 9.93513 16.2829 9.84288 16.1151L9.80538 16.0364L8.76963 13.4999H4.05513L2.93763 16.0551C2.86386 16.2235 2.73083 16.3589 2.56381 16.4356C2.3968 16.5123 2.20742 16.5251 2.03163 16.4714L1.94913 16.4414C1.78065 16.3677 1.64509 16.2348 1.56821 16.0677C1.49133 15.9007 1.47849 15.7113 1.53213 15.5354L1.56213 15.4529L5.83338 5.69988C6.08538 5.12238 6.87888 5.10363 7.17288 5.62938L7.17213 5.62863ZM14.2499 1.49988C14.4336 1.4999 14.6109 1.56735 14.7482 1.68941C14.8854 1.81148 14.9731 1.97969 14.9946 2.16213L14.9999 2.24988V5.24988H15.7499C15.9336 5.2499 16.1109 5.31734 16.2482 5.43941C16.3854 5.56148 16.4731 5.72969 16.4946 5.91213L16.4999 5.99988C16.4999 6.18358 16.4324 6.36088 16.3103 6.49816C16.1883 6.63543 16.0201 6.72313 15.8376 6.74463L15.7499 6.74988H14.9999V11.9999C14.9999 12.1836 14.9324 12.3609 14.8103 12.4982C14.6883 12.6354 14.5201 12.7231 14.3376 12.7446L14.2499 12.7499C14.0662 12.7499 13.8889 12.6824 13.7516 12.5603C13.6143 12.4383 13.5266 12.2701 13.5051 12.0876L13.4999 11.9999V2.24988C13.4999 2.05097 13.5789 1.8602 13.7196 1.71955C13.8602 1.5789 14.051 1.49988 14.2499 1.49988ZM6.49488 7.92513L4.71138 11.9999H8.15763L6.49488 7.92513ZM8.24988 1.49988H11.9999C12.1836 1.4999 12.3609 1.56735 12.4982 1.68941C12.6354 1.81148 12.7231 1.97969 12.7446 2.16213L12.7499 2.24988V4.48113C12.7499 5.27678 12.4338 6.03984 11.8712 6.60245C11.3086 7.16506 10.5455 7.48113 9.74988 7.48113C9.55097 7.48113 9.36021 7.40211 9.21955 7.26146C9.0789 7.12081 8.99988 6.93004 8.99988 6.73113C8.99988 6.53222 9.0789 6.34145 9.21955 6.2008C9.36021 6.06014 9.55097 5.98113 9.74988 5.98113C10.1283 5.98125 10.4928 5.83832 10.7703 5.58101C11.0478 5.32369 11.2178 4.97099 11.2461 4.59363L11.2499 4.48113V2.99988H8.24988C8.05872 2.99967 7.87486 2.92647 7.73586 2.79524C7.59685 2.66401 7.51321 2.48466 7.502 2.29383C7.4908 2.103 7.55289 1.91509 7.67558 1.7685C7.79827 1.62191 7.97231 1.52771 8.16213 1.50513L8.24988 1.49988H11.9999H8.24988Z" fill="#1A1A1A"/>
</g>
</svg>
