<svg width="18" height="18" viewBox="0 0 18 18" fill="none" xmlns="http://www.w3.org/2000/svg">
<path d="M13.3157 10.4999C13.5373 10.4998 13.7567 10.5434 13.9614 10.6281C14.1661 10.7128 14.3522 10.8371 14.5089 10.9937C14.6656 11.1503 14.7899 11.3363 14.8747 11.541C14.9595 11.7457 15.0032 11.9651 15.0032 12.1867V12.8752C15.0031 13.3053 14.8686 13.7246 14.6184 14.0744C13.4589 15.6967 11.5652 16.4999 9.00019 16.4999C6.43369 16.4999 4.54144 15.6959 3.38494 14.0722C3.13618 13.7229 3.00248 13.3047 3.00244 12.8759V12.1859C3.00234 11.9644 3.0459 11.7449 3.13062 11.5402C3.21535 11.3355 3.33958 11.1494 3.49621 10.9927C3.65285 10.836 3.83883 10.7117 4.04353 10.6269C4.24822 10.5421 4.46762 10.4984 4.68919 10.4984H13.3149L13.3157 10.4999ZM9.00019 1.50293C9.99475 1.50293 10.9486 1.89802 11.6518 2.60128C12.3551 3.30454 12.7502 4.25837 12.7502 5.25293C12.7502 6.24749 12.3551 7.20132 11.6518 7.90458C10.9486 8.60784 9.99475 9.00293 9.00019 9.00293C8.00563 9.00293 7.0518 8.60784 6.34854 7.90458C5.64528 7.20132 5.25019 6.24749 5.25019 5.25293C5.25019 4.25837 5.64528 3.30454 6.34854 2.60128C7.0518 1.89802 8.00563 1.50293 9.00019 1.50293V1.50293Z" fill="#F2221B"/>
</svg>
