<svg width="14" height="18" viewBox="0 0 14 18" fill="none" xmlns="http://www.w3.org/2000/svg">
<path d="M11.795 10.6667C12.0412 10.6666 12.285 10.715 12.5125 10.8091C12.7399 10.9033 12.9466 11.0413 13.1208 11.2153C13.2949 11.3894 13.433 11.596 13.5272 11.8235C13.6215 12.0509 13.67 12.2947 13.67 12.5409V13.3059C13.6699 13.7838 13.5204 14.2496 13.2425 14.6384C11.9542 16.4409 9.84998 17.3334 6.99998 17.3334C4.14832 17.3334 2.04582 16.44 0.760816 14.6359C0.484419 14.2478 0.335863 13.7832 0.335816 13.3067V12.54C0.335706 12.2939 0.384102 12.0501 0.478239 11.8226C0.572376 11.5951 0.710408 11.3884 0.884452 11.2143C1.0585 11.0401 1.26514 10.902 1.49258 10.8078C1.72002 10.7135 1.96379 10.665 2.20998 10.665H11.7942L11.795 10.6667ZM6.99998 0.670044C8.10505 0.670044 9.16486 1.10903 9.94626 1.89043C10.7277 2.67183 11.1667 3.73164 11.1667 4.83671C11.1667 5.94178 10.7277 7.00159 9.94626 7.78299C9.16486 8.56439 8.10505 9.00338 6.99998 9.00338C5.89491 9.00338 4.83511 8.56439 4.0537 7.78299C3.2723 7.00159 2.83332 5.94178 2.83332 4.83671C2.83332 3.73164 3.2723 2.67183 4.0537 1.89043C4.83511 1.10903 5.89491 0.670044 6.99998 0.670044Z" fill="#1A1A1A"/>
</svg>
