<svg width="56" height="32" viewBox="0 0 56 32" fill="none" xmlns="http://www.w3.org/2000/svg">
<path fill-rule="evenodd" clip-rule="evenodd" d="M8.65199 14.0476C10.0363 14.0476 11.3557 14.3859 12.5238 15.0174L12.6103 14.9497C11.5072 14.2957 10.3608 13.7093 9.17111 13.3033C8.39243 13.0553 8.37081 12.6718 9.14949 12.8297C10.5987 13.1455 12.1344 13.5063 13.4755 14.2055L13.8432 13.8897C13.7567 13.7995 13.6701 13.6867 13.562 13.5965C12.9347 12.9199 12.9564 12.4238 13.4971 11.5893C10.0363 9.96546 6.81345 7.75524 3.33102 6.40204C1.98996 5.88331 2.05486 6.22161 1.53574 4.86842C1.34107 4.34969 1.21129 4.57522 0.994987 4.0565C0.540757 2.88373 1.3627 2.29734 2.4442 2.38756C4.91001 2.56798 7.22442 2.74841 9.60371 2.92884C10.8583 3.01905 12.0046 3.44756 12.6103 4.71054C13.3457 6.24417 13.0645 6.60502 14.6002 6.83055C17.2607 7.23651 19.9212 7.61992 22.5817 8.02588C23.382 7.23651 23.7065 6.89821 24.5068 6.10885C27.4268 3.17692 32.3801 3.42501 35.8841 4.55267C36.6844 4.82331 37.3766 5.27438 38.1769 5.54502C38.3067 5.38714 38.4148 5.22927 38.5446 5.04884C38.9772 4.48501 39.7992 4.64288 40.4264 4.80076C40.686 4.86842 40.9239 4.93608 41.1835 5.00374C41.8973 5.18416 41.9621 5.47736 42.0054 6.04119C42.0487 6.55991 42.4164 6.76289 42.8706 6.62757C43.2599 6.51481 43.6493 6.40204 44.017 6.28927C44.8606 6.01863 44.6226 5.90587 44.2982 5.18416C44.1684 4.89097 44.0386 4.59778 43.9088 4.32714C43.606 3.65054 43.1302 3.62799 42.4813 3.58288C41.3133 3.49267 40.3615 3.3799 39.107 2.79352C38.7393 2.61309 38.4365 2.09437 38.9556 1.86883C39.2151 1.75607 39.4747 1.6433 39.7343 1.55309C40.1452 1.19223 40.5562 0.808829 40.9672 0.447977C41.5295 -0.0481951 41.8324 -0.206068 42.5029 0.357764C43.9954 1.59819 45.2499 2.81607 46.3098 4.03395C46.4396 3.80841 46.5261 3.47011 46.5261 3.17692C46.2881 3.0416 46.2881 2.86118 46.1584 2.6582C45.9853 1.93649 46.007 1.14713 46.0935 0.425424C46.1584 -0.0481951 46.4828 -0.0256418 46.8722 0.132231C48.0834 0.628403 49.0568 1.91394 47.9969 2.90628C47.7157 3.17692 47.3913 3.35735 47.0452 3.49267C47.0019 3.76331 46.937 4.03395 46.8938 4.30459C46.8073 4.80076 46.7856 4.64288 47.0668 5.02629C48.1267 6.42459 48.4944 7.71013 49.2082 9.42418C50.0734 11.4991 49.7489 11.4314 47.932 12.3561C47.4129 12.6267 46.3098 13.0327 45.7041 13.0778C45.3148 13.1004 44.9471 13.1229 44.5577 13.1455C44.0603 13.168 44.0386 13.5514 44.1684 13.7995C44.2549 13.9799 44.3631 14.0476 44.8822 13.9348C46.5261 13.6191 48.5377 13.2357 49.8787 13.7544C50.0301 13.7995 50.0518 14.0927 49.7922 14.228L49.5543 14.3633C53.253 15.3557 56 18.8514 56 23.0238C56 27.963 52.1715 31.9549 47.4345 31.9549C42.6976 31.9549 38.8691 27.963 38.8691 23.0238C38.8691 22.911 38.8691 22.7983 38.8691 22.7081C38.5879 23.52 38.3283 24.3093 38.1337 25.1438C37.7227 26.8127 36.9224 28.2111 34.6512 28.2336C29.7412 28.2787 23.9444 28.5493 19.1209 28.0532C18.061 27.9404 17.8015 27.8728 18.0178 26.8579C18.2557 26.2264 19.467 24.58 19.5319 23.9936C19.6184 23.3395 19.64 23.1817 18.9046 23.4974C18.2557 23.7455 17.6717 24.0612 17.0444 24.3544C16.4388 28.6847 12.8698 32 8.56548 32C3.82851 32 0 28.0081 0 23.0689C0.0865199 18.0621 3.91502 14.0476 8.65199 14.0476ZM42.9355 19.528L44.0603 21.0617C43.7574 21.648 43.606 22.3021 43.606 23.0012C43.606 25.2566 45.3581 27.1059 47.5427 27.1059C49.7057 27.1059 51.4793 25.2791 51.4793 23.0012C51.4793 20.7459 49.7273 18.8966 47.5427 18.8966C47.0452 18.8966 46.5693 18.9868 46.1367 19.1672L45.596 17.4531C46.2016 17.2276 46.8722 17.0923 47.5427 17.0923C50.679 17.0923 53.2097 19.731 53.2097 23.0012C53.2097 26.2715 50.679 28.9102 47.5427 28.9102C44.4063 28.9102 41.8756 26.2715 41.8756 23.0012C41.854 21.6932 42.265 20.4978 42.9355 19.528ZM12.3075 18.4906L9.84164 20.34C9.47393 20.1595 9.08459 20.0693 8.65199 20.0693C7.09463 20.0693 5.84009 21.3774 5.84009 23.0012C5.84009 24.6251 7.09463 25.9332 8.65199 25.9332C10.1877 25.9332 11.4423 24.6251 11.4639 23.0238L14.2758 22.2344C14.2974 22.4825 14.319 22.7532 14.319 23.0012C14.319 26.2715 11.7883 28.9102 8.65199 28.9102C5.51564 28.9102 2.98495 26.2715 2.98495 23.0012C2.98495 19.731 5.51564 17.0923 8.65199 17.0923C10.0579 17.0923 11.3341 17.611 12.3075 18.4906Z" fill="#34A4B6"/>
</svg>
