<svg width="88" height="88" viewBox="0 0 88 88" fill="none" xmlns="http://www.w3.org/2000/svg">
<circle opacity="0.3" cx="44" cy="44" r="44" fill="#34A4B6"/>
<path d="M60.058 51.378L52.4035 49.845C52.0076 49.765 51.6515 49.5506 51.3957 49.238C51.1399 48.9254 51.0001 48.5339 51 48.13V46.373C51.504 45.673 51.9765 44.7385 52.4665 43.762C52.841 43.0235 53.4045 41.9105 53.6565 41.648C55.1405 40.1955 56.7225 38.393 57.2055 36.0445C57.643 33.9165 57.2055 32.8105 56.698 31.9355C56.698 30.224 56.698 27.0915 56.103 24.834C56.0435 22.1075 55.543 20.5675 54.2865 19.1955C53.3975 18.2365 52.0885 18.0125 51.0385 17.834C50.622 17.764 50.0515 17.666 49.852 17.5575C48.0417 16.5485 46.006 16.0128 43.9335 16C39.3135 16.175 33.6435 19.1045 31.7465 24.372C31.169 25.9715 31.225 28.5965 31.267 30.707L31.218 31.9355C30.7735 32.8105 30.336 33.9165 30.777 36.041C31.26 38.4 32.842 40.199 34.319 41.6445C34.5745 41.9105 35.145 43.0305 35.523 43.769C36.02 44.742 36.496 45.6765 37 46.3765V48.13C36.9998 48.5344 36.8595 48.9263 36.6029 49.2389C36.3464 49.5516 35.9896 49.7657 35.593 49.845L27.9385 51.378C25.5613 51.8587 23.423 53.1457 21.8854 55.0214C20.3477 56.897 19.5051 59.2462 19.5 61.6715V65C19.5 66.9285 21.0715 68.5 23 68.5H65C66.9285 68.5 68.5 66.9285 68.5 65V61.6715C68.4947 59.2457 67.6516 56.8961 66.1133 55.0204C64.5749 53.1447 62.4359 51.858 60.058 51.378Z" fill="#34A4B6"/>
</svg>
