<svg width="88" height="88" viewBox="0 0 88 88" fill="none" xmlns="http://www.w3.org/2000/svg">
<circle opacity="0.3" cx="44" cy="44" r="44" fill="#34A4B6"/>
<path d="M60.0615 51.385L52.4035 49.8485C52.0082 49.7673 51.6529 49.5525 51.3973 49.2402C51.1417 48.9279 51.0014 48.5371 51 48.1335V46.135C58.6475 45.407 59.75 43.8425 59.75 42.25C59.75 37.5425 56.621 26.612 56.103 24.834C56.04 22.0865 55.536 20.5395 54.2795 19.1885C53.3905 18.226 52.085 18.002 51.0315 17.8235C50.6185 17.75 50.048 17.6555 49.838 17.54C48.0275 16.5398 45.9949 16.0103 43.9265 16C39.317 16.189 33.6505 19.122 31.7115 24.484C31.5715 24.9845 28.25 36.8215 28.25 42.25C28.25 44.5145 30.812 45.708 37 46.254V48.1335C36.9984 48.5376 36.8577 48.9287 36.6014 49.2411C36.3451 49.5535 35.989 49.768 35.593 49.8485L27.9455 51.3815C25.5652 51.8571 23.423 53.1425 21.8833 55.0191C20.3437 56.8957 19.5015 59.2476 19.5 61.675V65C19.5 66.9285 21.0715 68.5 23 68.5H65C66.9285 68.5 68.5 66.9285 68.5 65V61.675C68.4987 59.249 67.6574 56.8983 66.119 55.0225C64.5807 53.1466 62.4403 51.8613 60.0615 51.385Z" fill="#34A4B6"/>
</svg>
