<svg width="28" height="28" viewBox="0 0 28 28" fill="none" xmlns="http://www.w3.org/2000/svg">
<rect width="28" height="28" rx="14" fill="#34A4B6"/>
<path d="M15.2833 7.66867C15.5446 7.66865 15.8014 7.73692 16.0283 7.86672C16.2552 7.99652 16.4442 8.18334 16.5766 8.40867L17.1193 9.33334H18.4999C18.7844 9.33334 19.0662 9.38938 19.3291 9.49827C19.5919 9.60715 19.8308 9.76675 20.032 9.96794C20.2332 10.1691 20.3928 10.408 20.5017 10.6709C20.6105 10.9337 20.6666 11.2155 20.6666 11.5V17.8333C20.6666 18.1179 20.6105 18.3996 20.5017 18.6625C20.3928 18.9254 20.2332 19.1642 20.032 19.3654C19.8308 19.5666 19.5919 19.7262 19.3291 19.8351C19.0662 19.944 18.7844 20 18.4999 20H9.49992C8.92528 20 8.37418 19.7717 7.96785 19.3654C7.56153 18.9591 7.33325 18.408 7.33325 17.8333V11.5C7.33325 10.9254 7.56153 10.3743 7.96785 9.96794C8.37418 9.56161 8.92528 9.33334 9.49992 9.33334H10.8866L11.4699 8.384C11.604 8.16548 11.7919 7.98499 12.0157 7.85976C12.2394 7.73453 12.4915 7.66874 12.7479 7.66867H15.2833ZM13.9999 11.3333C13.2043 11.3333 12.4412 11.6494 11.8786 12.212C11.316 12.7746 10.9999 13.5377 10.9999 14.3333C10.9999 15.129 11.316 15.892 11.8786 16.4547C12.4412 17.0173 13.2043 17.3333 13.9999 17.3333C14.7956 17.3333 15.5586 17.0173 16.1212 16.4547C16.6838 15.892 16.9999 15.129 16.9999 14.3333C16.9999 13.5377 16.6838 12.7746 16.1212 12.212C15.5586 11.6494 14.7956 11.3333 13.9999 11.3333ZM13.9999 12.3333C14.2626 12.3333 14.5226 12.3851 14.7653 12.4856C15.0079 12.5861 15.2284 12.7334 15.4141 12.9191C15.5998 13.1048 15.7472 13.3253 15.8477 13.568C15.9482 13.8106 15.9999 14.0707 15.9999 14.3333C15.9999 14.596 15.9482 14.8561 15.8477 15.0987C15.7472 15.3414 15.5998 15.5618 15.4141 15.7476C15.2284 15.9333 15.0079 16.0806 14.7653 16.1811C14.5226 16.2816 14.2626 16.3333 13.9999 16.3333C13.4695 16.3333 12.9608 16.1226 12.5857 15.7476C12.2106 15.3725 11.9999 14.8638 11.9999 14.3333C11.9999 13.8029 12.2106 13.2942 12.5857 12.9191C12.9608 12.5441 13.4695 12.3333 13.9999 12.3333Z" fill="white"/>
</svg>
