<svg width="12" height="16" viewBox="0 0 12 16" fill="none" xmlns="http://www.w3.org/2000/svg">
<path d="M6 0.500748C6.62029 0.500748 7.22534 0.693023 7.73183 1.0511C8.23833 1.40919 8.62138 1.91547 8.82825 2.50025C8.89123 2.68043 8.88314 2.87786 8.80562 3.05228C8.72811 3.22671 8.587 3.36502 8.41106 3.43903C8.23511 3.51304 8.03757 3.51719 7.85868 3.45062C7.67979 3.38405 7.53301 3.25177 7.44825 3.08075L7.4145 3.0005C7.29977 2.67599 7.07692 2.40081 6.78335 2.22113C6.48978 2.04145 6.14335 1.9682 5.80217 2.01366C5.461 2.05912 5.14583 2.22053 4.90955 2.47081C4.67328 2.72109 4.53026 3.04502 4.5045 3.38825L4.5015 3.5V4.99925L10.3125 5C10.7401 4.99995 11.1518 5.16222 11.4643 5.45402C11.7769 5.74583 11.967 6.1454 11.9963 6.572L12 6.6875V13.8095C12.0001 14.2371 11.8378 14.6488 11.546 14.9613C11.2542 15.2739 10.8546 15.464 10.428 15.4932L10.3125 15.497H1.6875C1.25991 15.4971 0.848234 15.3348 0.535685 15.043C0.223136 14.7512 0.0330166 14.3516 0.0037501 13.925L1.2749e-08 13.8095V6.6875C-5.25164e-05 6.2599 0.162221 5.84823 0.454027 5.53568C0.745832 5.22313 1.14541 5.03301 1.572 5.00375L1.6875 5L3.00075 4.99925V3.5C3.00075 2.70455 3.31674 1.94168 3.87921 1.37921C4.44168 0.816739 5.20455 0.500748 6 0.500748ZM6 9.125C5.84997 9.12112 5.70068 9.14733 5.56093 9.20206C5.42119 9.2568 5.29382 9.33896 5.18633 9.44371C5.07885 9.54845 4.99342 9.67366 4.93509 9.81194C4.87676 9.95023 4.84671 10.0988 4.84671 10.2489C4.84671 10.399 4.87676 10.5475 4.93509 10.6858C4.99342 10.8241 5.07885 10.9493 5.18633 11.054C5.29382 11.1588 5.42119 11.2409 5.56093 11.2957C5.70068 11.3504 5.84997 11.3766 6 11.3727C6.29304 11.3652 6.57154 11.2434 6.77613 11.0335C6.98072 10.8236 7.09521 10.542 7.09521 10.2489C7.09521 9.95573 6.98072 9.67418 6.77613 9.46424C6.57154 9.2543 6.29304 9.13257 6 9.125Z" fill="#1A1A1A"/>
</svg>
