<svg width="163" height="100" viewBox="0 0 163 100" fill="none" xmlns="http://www.w3.org/2000/svg">
<rect opacity="0.3" x="0.5" y="0.5" width="162" height="99" rx="3.5" stroke="#1A1A1A" stroke-dasharray="2 5"/>
<path d="M84.5667 37.3373C85.0895 37.3372 85.6031 37.4738 86.0569 37.7334C86.5106 37.993 86.8886 38.3666 87.1534 38.8173L88.2388 40.6666H91.0001C91.5691 40.6666 92.1326 40.7787 92.6584 40.9965C93.1841 41.2142 93.6618 41.5334 94.0642 41.9358C94.4666 42.3382 94.7858 42.8159 95.0036 43.3417C95.2213 43.8674 95.3334 44.4309 95.3334 44.9999V57.6666C95.3334 58.2357 95.2213 58.7992 95.0036 59.3249C94.7858 59.8507 94.4666 60.3284 94.0642 60.7307C93.6618 61.1331 93.1841 61.4523 92.6584 61.6701C92.1326 61.8879 91.5691 61.9999 91.0001 61.9999H73.0001C71.8508 61.9999 70.7486 61.5434 69.936 60.7307C69.1233 59.9181 68.6667 58.8159 68.6667 57.6666V44.9999C68.6667 43.8507 69.1233 42.7485 69.936 41.9358C70.7486 41.1232 71.8508 40.6666 73.0001 40.6666H75.7734L76.9401 38.7679C77.2083 38.3309 77.5841 37.9699 78.0316 37.7195C78.4791 37.469 78.9833 37.3374 79.4961 37.3373H84.5667ZM82.0001 44.6666C80.4088 44.6666 78.8827 45.2988 77.7574 46.424C76.6322 47.5492 76.0001 49.0753 76.0001 50.6666C76.0001 52.2579 76.6322 53.784 77.7574 54.9093C78.8827 56.0345 80.4088 56.6666 82.0001 56.6666C83.5914 56.6666 85.1175 56.0345 86.2427 54.9093C87.3679 53.784 88.0001 52.2579 88.0001 50.6666C88.0001 49.0753 87.3679 47.5492 86.2427 46.424C85.1175 45.2988 83.5914 44.6666 82.0001 44.6666ZM82.0001 46.6666C82.5254 46.6666 83.0455 46.7701 83.5308 46.9711C84.0161 47.1721 84.4571 47.4668 84.8285 47.8382C85.1999 48.2096 85.4946 48.6506 85.6956 49.1359C85.8966 49.6212 86.0001 50.1413 86.0001 50.6666C86.0001 51.1919 85.8966 51.712 85.6956 52.1973C85.4946 52.6826 85.1999 53.1236 84.8285 53.495C84.4571 53.8665 84.0161 54.1611 83.5308 54.3621C83.0455 54.5632 82.5254 54.6666 82.0001 54.6666C80.9392 54.6666 79.9218 54.2452 79.1717 53.495C78.4215 52.7449 78.0001 51.7275 78.0001 50.6666C78.0001 49.6057 78.4215 48.5883 79.1717 47.8382C79.9218 47.088 80.9392 46.6666 82.0001 46.6666Z" fill="#1A1A1A" fill-opacity="0.5"/>
</svg>
