<svg width="282" height="196" viewBox="0 0 282 196" fill="none" xmlns="http://www.w3.org/2000/svg">
<path d="M95.0153 77.106C101.309 73.3462 107.635 69.3033 112.102 63.556C116.568 57.8088 118.897 49.9719 116.299 43.2108C113.125 34.9499 103.846 30.6513 95.0887 28.5918C66.0972 21.7735 33.659 31.6698 13.7355 53.4111C6.99583 60.7657 1.51207 69.6815 0.447224 79.5123C-0.26655 86.102 1.42186 94.2222 5.7918 99.6905C12.5294 108.121 20.32 105.075 29.6148 103.548C53.0769 99.6926 74.8713 89.1395 95.0153 77.106Z" fill="url(#paint0_linear)"/>
<path d="M256.873 124.474H251.127V117.397H242.547V59.5777H232.398V124.474H227.662V152.96H256.873V124.474Z" fill="#D1FCFF"/>
<path d="M133.367 100.889H129.517V47.6299H115.401V96.3233H109.824V71.2072L97.9689 55.8025V110.221L94.5855 114.62V92.0644H62.8057V124.716V152.689H133.367V100.889Z" fill="#D1FCFF"/>
<path d="M48.4696 145.581C47.6973 145.579 46.9358 145.398 46.245 145.052C45.5542 144.705 44.9529 144.202 44.4885 143.583C44.024 142.963 43.7089 142.244 43.5681 141.482C43.4273 140.719 43.4645 139.935 43.6769 139.189C43.8892 138.444 44.2709 137.758 44.7919 137.185C45.313 136.613 45.9591 136.17 46.6796 135.891C47.4001 135.611 48.1752 135.504 48.9441 135.576C49.7131 135.649 50.4548 135.899 51.1109 136.308C52.0342 136.883 52.7455 137.745 53.1369 138.762C53.5282 139.78 53.5784 140.898 53.2796 141.946C52.9809 142.995 52.3496 143.917 51.4815 144.573C50.6135 145.229 49.556 145.583 48.4696 145.581ZM48.4853 136.04C47.3972 136.039 46.3454 136.433 45.5239 137.149C44.7024 137.866 44.1666 138.856 44.0153 139.938C43.864 141.02 44.1074 142.12 44.7007 143.036C45.294 143.952 46.1971 144.621 47.2434 144.921C48.2898 145.221 49.4088 145.131 50.3941 144.667C51.3794 144.204 52.1645 143.398 52.6047 142.399C53.0448 141.4 53.1103 140.275 52.789 139.231C52.4677 138.187 51.7814 137.295 50.8565 136.72C50.1449 136.275 49.3234 136.04 48.4853 136.04Z" fill="#FFB600"/>
<path d="M45.9121 139.282L47.8936 139.291L49.025 137.658L49.6283 139.553L51.5253 140.128L49.9168 141.29L49.9581 143.279L48.3602 142.102L46.4886 142.756L47.1102 140.867L45.9121 139.282Z" fill="#FFB600"/>
<path d="M240.086 49.733C239.314 49.7318 238.552 49.5507 237.862 49.2039C237.171 48.8572 236.57 48.3544 236.105 47.7349C235.641 47.1154 235.326 46.3962 235.185 45.6338C235.044 44.8713 235.081 44.0866 235.294 43.3411C235.506 42.5956 235.888 41.9097 236.409 41.3374C236.93 40.7651 237.576 40.3219 238.297 40.0427C239.017 39.7636 239.792 39.656 240.561 39.7285C241.33 39.801 242.072 40.0516 242.728 40.4606C243.651 41.0356 244.363 41.8972 244.754 42.9147C245.145 43.9323 245.195 45.0502 244.897 46.0989C244.598 47.1476 243.966 48.0699 243.098 48.7257C242.23 49.3815 241.173 49.7352 240.086 49.733ZM240.102 40.1926C239.014 40.1914 237.962 40.5854 237.141 41.3017C236.319 42.018 235.783 43.0084 235.632 44.0903C235.481 45.1722 235.724 46.2725 236.317 47.1883C236.91 48.1042 237.814 48.7737 238.86 49.0736C239.906 49.3734 241.025 49.2833 242.011 48.8198C242.996 48.3563 243.781 47.5508 244.221 46.5517C244.662 45.5526 244.727 44.4274 244.406 43.3836C244.085 42.3398 243.399 41.4478 242.474 40.8722C241.762 40.4276 240.94 40.1922 240.102 40.1926Z" fill="#FFB600"/>
<path d="M237.529 43.4337L239.511 43.4434L240.642 41.8096L241.246 43.705L243.143 44.2805L241.534 45.4419L241.575 47.4313L239.977 46.2539L238.106 46.9084L238.727 45.0188L237.529 43.4337Z" fill="#FFB600"/>
<path d="M281.802 66.4208L281.293 66.4098C281.329 64.7436 281.028 63.0873 280.407 61.5413C279.787 59.9954 278.861 58.5919 277.685 57.4158C276.508 56.2397 275.107 55.3155 273.564 54.6992C272.022 54.0829 270.371 53.7872 268.711 53.8302L268.698 53.319C270.427 53.2744 272.146 53.5824 273.752 54.2243C275.359 54.8662 276.819 55.8288 278.044 57.0536C279.269 58.2785 280.234 59.7402 280.88 61.3503C281.526 62.9604 281.839 64.6854 281.802 66.4208Z" fill="#FFB600"/>
<path d="M278.373 66.8349L277.864 66.8239C277.891 65.527 277.657 64.2379 277.174 63.0347C276.691 61.8315 275.971 60.7392 275.055 59.8239C274.14 58.9086 273.049 58.1893 271.848 57.7096C270.648 57.23 269.363 56.9999 268.071 57.0333L268.058 56.5223C269.419 56.4871 270.772 56.7295 272.036 57.2347C273.301 57.74 274.45 58.4976 275.414 59.4617C276.379 60.4258 277.138 61.5764 277.646 62.8438C278.155 64.1111 278.402 65.4689 278.373 66.8349Z" fill="#FFB600"/>
<path d="M275.185 66.3723L274.675 66.3613C274.693 65.5487 274.546 64.741 274.244 63.987C273.941 63.2331 273.489 62.5486 272.916 61.975C272.342 61.4014 271.658 60.9507 270.906 60.6501C270.154 60.3495 269.349 60.2053 268.539 60.2262L268.526 59.7152C269.405 59.6925 270.278 59.849 271.094 60.1752C271.911 60.5014 272.652 60.9905 273.275 61.6128C273.897 62.2352 274.387 62.9779 274.716 63.796C275.044 64.614 275.203 65.4905 275.185 66.3723Z" fill="#FFB600"/>
<path d="M269.291 67.5077C268.874 67.5074 268.47 67.3618 268.148 67.0959C267.825 66.8299 267.605 66.46 267.524 66.0491C267.443 65.6382 267.506 65.2117 267.703 64.8424C267.9 64.4731 268.218 64.1838 268.604 64.0237C268.989 63.8637 269.418 63.8428 269.817 63.9646C270.216 64.0864 270.561 64.3434 270.793 64.6919C271.024 65.0403 271.129 65.4586 271.087 65.8754C271.046 66.2923 270.863 66.6819 270.567 66.978C270.4 67.1463 270.201 67.2797 269.982 67.3706C269.763 67.4615 269.528 67.5081 269.291 67.5077ZM269.291 64.397C269.078 64.397 268.869 64.4497 268.681 64.5505C268.493 64.6513 268.333 64.7971 268.215 64.9749C268.096 65.1527 268.023 65.3571 268.003 65.5699C267.982 65.7827 268.013 65.9974 268.095 66.195C268.177 66.3925 268.305 66.5668 268.47 66.7025C268.635 66.8381 268.83 66.9309 269.039 66.9726C269.248 67.0143 269.464 67.0036 269.668 66.9415C269.871 66.8794 270.057 66.7678 270.207 66.6166C270.389 66.4347 270.512 66.203 270.562 65.9508C270.612 65.6985 270.586 65.437 270.488 65.1994C270.39 64.9618 270.224 64.7587 270.011 64.6159C269.798 64.473 269.548 64.3968 269.291 64.397Z" fill="#FFB600"/>
<path opacity="0.78" d="M258.631 103.494C257.409 103.494 256.215 103.13 255.199 102.449C254.183 101.767 253.392 100.799 252.924 99.6658C252.457 98.5327 252.334 97.2858 252.573 96.0829C252.811 94.88 253.399 93.7751 254.263 92.9078C255.127 92.0406 256.228 91.45 257.426 91.2107C258.624 90.9714 259.866 91.0942 260.994 91.5636C262.123 92.0329 263.088 92.8278 263.766 93.8475C264.445 94.8673 264.807 96.0662 264.807 97.2927C264.805 98.9368 264.154 100.513 262.996 101.676C261.838 102.838 260.268 103.492 258.631 103.494ZM258.631 91.5748C257.504 91.5748 256.403 91.9101 255.467 92.5384C254.53 93.1667 253.8 94.0598 253.369 95.1046C252.938 96.1494 252.825 97.2991 253.045 98.4083C253.265 99.5175 253.807 100.536 254.604 101.336C255.4 102.136 256.415 102.68 257.52 102.901C258.624 103.121 259.77 103.008 260.81 102.575C261.851 102.143 262.74 101.41 263.366 100.469C263.992 99.5291 264.326 98.4236 264.326 97.2927C264.324 95.7767 263.724 94.3233 262.656 93.2513C261.588 92.1794 260.141 91.5764 258.631 91.5748Z" fill="#3B8BDB"/>
<g opacity="0.78">
<path opacity="0.78" d="M255.86 99.2486C255.673 98.8038 255.574 98.3262 255.571 97.8432C255.572 97.3586 255.681 96.8804 255.89 96.4435H256.581C256.702 96.4525 256.824 96.4246 256.929 96.3633C257.073 96.2323 257.2 96.084 257.307 95.9217L257.473 95.7021C257.654 95.453 257.782 95.285 257.857 95.1982C258.253 94.7384 258.818 94.5187 258.944 93.8596C258.952 93.7147 258.996 93.5741 259.072 93.4503C259.156 93.3698 259.269 93.3255 259.385 93.327C259.502 93.3285 259.613 93.3756 259.696 93.4583C259.855 93.632 259.951 93.8542 259.97 94.0894C260.047 94.4533 260.042 94.83 259.955 95.1917C259.901 95.3568 259.582 95.6691 259.603 95.8338C259.627 96.0155 260.885 96.1037 261.164 96.2627C261.316 96.3299 261.446 96.4388 261.539 96.5767C261.632 96.7146 261.684 96.8761 261.69 97.0426C261.687 97.3307 261.57 97.6058 261.365 97.8074C261.445 97.9229 261.49 98.0586 261.495 98.1988C261.501 98.3387 261.456 98.4759 261.367 98.5842C261.279 98.6925 261.154 98.7643 261.016 98.786C261.027 98.8427 261.033 98.9003 261.035 98.9581C261.035 99.3258 260.822 99.5274 260.397 99.5629C260.403 99.6001 260.407 99.6378 260.408 99.6755C260.414 99.7646 260.397 99.8537 260.36 99.9346C260.322 100.015 260.265 100.085 260.193 100.138C259.996 100.255 259.768 100.308 259.54 100.292H259.28L259.073 100.186C258.851 100.251 258.62 100.287 258.388 100.292C258.318 100.292 258.207 100.286 258.058 100.275C257.551 100.031 257.102 99.6809 256.74 99.2486L255.86 99.2486Z" fill="#3B8BDB"/>
</g>
<path opacity="0.78" d="M95.868 113.335C94.6464 113.335 93.4522 112.971 92.4365 112.289C91.4207 111.608 90.6291 110.64 90.1616 109.506C89.6941 108.373 89.5718 107.126 89.8101 105.924C90.0484 104.721 90.6367 103.616 91.5005 102.748C92.3643 101.881 93.4648 101.291 94.663 101.051C95.8611 100.812 97.103 100.935 98.2316 101.404C99.3603 101.874 100.325 102.668 101.004 103.688C101.682 104.708 102.045 105.907 102.045 107.133C102.043 108.777 101.391 110.354 100.233 111.516C99.0755 112.679 97.5055 113.333 95.868 113.335ZM95.868 101.415C94.7416 101.415 93.6404 101.751 92.7039 102.379C91.7673 103.007 91.0373 103.9 90.6063 104.945C90.1752 105.99 90.0624 107.14 90.2822 108.249C90.502 109.358 91.0444 110.377 91.8409 111.177C92.6374 111.976 93.6522 112.521 94.757 112.741C95.8617 112.962 97.0069 112.849 98.0475 112.416C99.0882 111.983 99.9777 111.25 100.603 110.31C101.229 109.37 101.563 108.264 101.563 107.133C101.562 105.617 100.961 104.164 99.8933 103.092C98.8256 102.02 97.3779 101.417 95.868 101.415Z" fill="#3B8BDB"/>
<g opacity="0.78">
<path opacity="0.78" d="M93.098 109.089C92.9103 108.644 92.812 108.167 92.8086 107.684C92.8099 107.199 92.9189 106.721 93.1276 106.284H93.8185C93.9401 106.293 94.0616 106.265 94.1671 106.204C94.3108 106.073 94.4377 105.925 94.545 105.762L94.7105 105.543C94.8917 105.294 95.0197 105.126 95.0944 105.039C95.4906 104.579 96.0555 104.359 96.1818 103.7C96.1901 103.555 96.2339 103.415 96.3093 103.291C96.3939 103.21 96.5065 103.166 96.6231 103.168C96.7397 103.169 96.8511 103.216 96.9336 103.299C97.0927 103.473 97.1892 103.695 97.2079 103.93C97.2853 104.294 97.2802 104.671 97.1931 105.032C97.1392 105.197 96.8196 105.51 96.841 105.674C96.8647 105.856 98.1231 105.944 98.4022 106.103C98.554 106.171 98.6838 106.279 98.7768 106.417C98.8698 106.555 98.9222 106.717 98.928 106.883C98.9249 107.171 98.8081 107.446 98.6031 107.648C98.6825 107.764 98.7276 107.899 98.7332 108.039C98.7391 108.179 98.6936 108.317 98.6052 108.425C98.5169 108.533 98.3919 108.605 98.2542 108.627C98.2649 108.683 98.271 108.741 98.2724 108.799C98.2724 109.166 98.0597 109.368 97.6344 109.403C97.6409 109.441 97.6448 109.478 97.6461 109.516C97.6518 109.605 97.6351 109.694 97.5974 109.775C97.5598 109.856 97.5024 109.926 97.4306 109.979C97.2336 110.095 97.006 110.149 96.7779 110.133H96.518L96.3112 110.026C96.0884 110.092 95.858 110.128 95.626 110.133C95.5552 110.133 95.445 110.127 95.2952 110.115C94.7885 109.871 94.3394 109.521 93.9781 109.089H93.098Z" fill="#3B8BDB"/>
</g>
<path d="M117.745 98.559C117.019 98.3799 116.287 98.1696 115.569 97.9334L115.708 97.5049C116.416 97.7374 117.137 97.9447 117.852 98.1206L117.745 98.559ZM113.445 97.1457C112.751 96.8581 112.059 96.5403 111.387 96.2011L111.589 95.798C112.25 96.1327 112.932 96.4457 113.617 96.7288L113.445 97.1457ZM109.407 95.1001C108.759 94.7059 108.125 94.2833 107.52 93.844L107.784 93.4791C108.378 93.9112 109.003 94.3263 109.64 94.7142L109.407 95.1001ZM105.745 92.4335C105.167 91.9296 104.615 91.4021 104.104 90.8649L104.429 90.5532C104.93 91.0805 105.472 91.5982 106.04 92.0926L105.745 92.4335ZM102.622 89.1419C102.294 88.7189 101.98 88.2807 101.69 87.839C101.566 87.6506 101.446 87.4607 101.328 87.2693L101.712 87.0331C101.826 87.221 101.944 87.4063 102.065 87.5907C102.349 88.0221 102.656 88.451 102.976 88.8648L102.622 89.1419ZM112.508 80.1371C111.789 80.4466 111.012 80.5986 110.229 80.5831L110.236 80.1318C110.955 80.1465 111.67 80.007 112.331 79.7225L112.508 80.1371ZM114.304 78.6072L113.904 78.4017C113.925 78.3606 113.945 78.3186 113.963 78.2757C114.129 77.8408 114.198 77.3748 114.165 76.9104C114.159 76.7129 114.145 76.5161 114.122 76.3201L114.569 76.268C114.593 76.4772 114.608 76.6873 114.614 76.898C114.646 77.428 114.565 77.9588 114.376 78.4546C114.354 78.5067 114.329 78.5573 114.304 78.6072L114.304 78.6072ZM100.665 85.0697L100.257 85.2581C99.9396 84.5665 99.6659 83.8556 99.4374 83.1296L99.8657 82.9942C100.089 83.7021 100.356 84.3953 100.665 85.0697V85.0697ZM107.962 80.1201C107.244 79.836 106.57 79.451 105.96 78.9767L106.233 78.6189C106.81 79.0671 107.447 79.431 108.125 79.6996L107.962 80.1201ZM113.96 74.0359L113.548 74.218C113.371 73.8148 113.161 73.4276 112.918 73.0604C112.759 72.818 112.586 72.5847 112.401 72.3614L112.746 72.0723C112.942 72.3085 113.124 72.5553 113.293 72.8116C113.549 73.2001 113.772 73.6096 113.96 74.0359ZM99.3376 80.8335L98.8954 80.9126L98.8592 80.7027C98.746 80.0193 98.6802 79.329 98.6621 78.6365L99.1114 78.6257C99.129 79.297 99.1928 79.9664 99.3023 80.6289L99.3376 80.8335ZM104.332 77.3478C104.197 77.1728 104.068 76.9931 103.947 76.8085C103.643 76.3486 103.386 75.8596 103.179 75.3488L103.595 75.1793C103.791 75.6624 104.035 76.1249 104.322 76.5598C104.437 76.7348 104.558 76.9051 104.687 77.0709L104.332 77.3478ZM110.791 70.8911C110.198 70.4862 109.548 70.1743 108.862 69.9661L108.896 69.7409L108.961 69.5249C109.701 69.7468 110.403 70.0817 111.042 70.5177L110.791 70.8911ZM99.253 76.4199L98.8099 76.3474C98.9292 75.5866 99.1372 74.8426 99.4296 74.1306L99.8439 74.3045C99.5653 74.984 99.367 75.694 99.253 76.4198L99.253 76.4199ZM103.034 73.0548L102.59 73.1234C102.488 72.4355 102.443 71.7401 102.456 71.0446C101.893 71.4333 101.387 71.899 100.953 72.4283L100.606 72.1422C101.096 71.5452 101.672 71.0257 102.316 70.6011L102.474 70.8341L102.91 70.8482C102.884 71.586 102.926 72.3246 103.034 73.0548L103.034 73.0548ZM106.682 69.6779C105.953 69.6954 105.231 69.8162 104.536 70.0367L104.401 69.6065C105.136 69.3731 105.901 69.2453 106.672 69.227L106.682 69.6779ZM103.146 68.6397L102.703 68.5617C102.838 67.8134 103.011 67.0729 103.223 66.3431L103.655 66.4684C103.447 67.1826 103.277 67.9074 103.146 68.6396L103.146 68.6397ZM104.361 64.3462L103.94 64.1882C104.083 63.8069 104.231 63.43 104.384 63.0574C104.517 62.7337 104.654 62.4108 104.795 62.0886L105.206 62.2697C105.067 62.5888 104.931 62.9088 104.799 63.2297C104.649 63.5974 104.501 63.9697 104.361 64.3462L104.361 64.3462ZM106.159 60.2413L105.758 60.0376C106.102 59.3556 106.464 58.6847 106.834 58.0431L107.222 58.269C106.857 58.9035 106.499 59.5667 106.159 60.2413L106.159 60.2413ZM108.401 56.3663L108.027 56.116C108.45 55.4783 108.894 54.8578 109.345 54.2706L109.701 54.5465C109.256 55.125 108.818 55.7372 108.401 56.3663L108.401 56.3663ZM111.128 52.8287L110.795 52.5263C111.309 51.9549 111.843 51.4093 112.383 50.9049L112.689 51.2353C112.159 51.7306 111.634 52.2667 111.128 52.8287L111.128 52.8287ZM120.246 46.6827C119.541 46.9079 118.851 47.1764 118.179 47.4865L117.991 47.0768C118.68 46.759 119.388 46.4837 120.11 46.2523L120.246 46.6827ZM114.388 49.7927L114.114 49.4346C114.52 49.1225 114.939 48.824 115.357 48.5473C115.564 48.4098 115.774 48.2764 115.986 48.1469L116.22 48.5324C116.003 48.6645 115.788 48.8029 115.578 48.9413C115.177 49.2075 114.776 49.4938 114.388 49.7927Z" fill="#85B2CA"/>
<path d="M133.572 39.3065L120.006 51.8144L118.867 47.878L133.572 39.3065Z" fill="#0A587F"/>
<path d="M133.572 39.3065L114.535 44.318L123.199 51.4375L133.572 39.3065Z" fill="#38B6FF"/>
<path d="M133.572 39.3065L119.89 48.718L120.006 51.8144L117.647 46.8751L133.572 39.3065Z" fill="#008BC2"/>
<path d="M243.405 193.388C244.087 193.666 244.793 193.922 245.502 194.15L245.365 194.579C244.645 194.348 243.929 194.088 243.236 193.806L243.405 193.388ZM247.65 194.752C248.369 194.925 249.105 195.072 249.836 195.19L249.764 195.635C249.022 195.515 248.276 195.366 247.545 195.19L247.65 194.752ZM252.048 195.458C252.791 195.519 253.539 195.55 254.273 195.549L254.273 196C253.527 196.001 252.766 195.97 252.011 195.908L252.048 195.458ZM256.495 195.452C257.244 195.385 257.985 195.284 258.699 195.152L258.781 195.596C258.053 195.731 257.298 195.833 256.535 195.901L256.495 195.452ZM260.862 194.639C261.363 194.492 261.862 194.325 262.344 194.142C262.549 194.064 262.753 193.982 262.955 193.898L263.128 194.315C262.921 194.401 262.713 194.484 262.503 194.564C262.009 194.751 261.5 194.922 260.987 195.071L260.862 194.639ZM258.617 181.727C258.987 182.346 259.484 182.88 260.075 183.291L259.818 183.661C259.174 183.213 258.634 182.633 258.231 181.959L258.617 181.727ZM257.7 179.497C257.836 178.983 258.08 178.506 258.415 178.095C258.543 177.928 258.677 177.766 258.819 177.611L259.151 177.916C259.018 178.061 258.892 178.212 258.772 178.369C258.474 178.726 258.258 179.144 258.138 179.594C258.128 179.64 258.12 179.685 258.113 179.731L257.669 179.662C257.677 179.607 257.687 179.552 257.7 179.497V179.497ZM266.808 191.711L267.077 192.073C266.468 192.527 265.831 192.942 265.17 193.316L264.95 192.923C265.594 192.558 266.215 192.153 266.808 191.711V191.711ZM262.038 184.182C262.745 184.364 263.473 184.444 264.202 184.42L264.215 184.871C263.443 184.896 262.672 184.811 261.925 184.619L262.038 184.182ZM261.87 175.56C262.157 175.452 262.449 175.359 262.745 175.283L262.856 175.72C262.576 175.793 262.3 175.88 262.029 175.982C261.618 176.138 261.221 176.327 260.843 176.55L260.616 176.16C261.016 175.925 261.436 175.725 261.87 175.561V175.56ZM268.645 190.126C269.121 189.653 269.563 189.148 269.969 188.615L270.327 188.888C269.908 189.438 269.452 189.959 268.961 190.446L268.81 190.595L268.497 190.271L268.645 190.126ZM266.359 184.075C266.559 184.016 266.757 183.949 266.953 183.876C267.439 183.692 267.906 183.46 268.347 183.184L268.586 183.567C268.12 183.859 267.626 184.103 267.111 184.298C266.905 184.376 266.697 184.446 266.485 184.508L266.359 184.075ZM265.033 175.026C265.805 175.048 266.57 175.19 267.299 175.446L267.225 175.659L267.121 175.861C266.444 175.626 265.735 175.497 265.019 175.476L265.033 175.026ZM271.898 184.682L272.335 184.785C272.156 185.534 271.891 186.259 271.543 186.946L271.142 186.744C271.473 186.089 271.727 185.397 271.898 184.682ZM271.43 180.077L271.792 180.323L272.056 180.227C272.33 180.95 272.494 181.71 272.542 182.482L272.094 182.509C272.051 181.825 271.913 181.15 271.683 180.504C271.288 181.075 270.846 181.612 270.361 182.109L270.041 181.793C270.556 181.265 271.02 180.691 271.43 180.077ZM269.328 176.551C269.942 177.019 270.487 177.573 270.947 178.194L270.586 178.464C270.152 177.876 269.637 177.353 269.057 176.91L269.328 176.551ZM273.383 176.09L273.806 176.243C273.552 176.959 273.26 177.661 272.932 178.346L272.528 178.149C272.849 177.478 273.134 176.791 273.383 176.09H273.383ZM274.345 172.792C274.426 172.455 274.503 172.116 274.576 171.775L275.015 171.871C274.941 172.214 274.864 172.557 274.782 172.897C274.689 173.289 274.589 173.681 274.482 174.074L274.049 173.955C274.155 173.567 274.253 173.179 274.345 172.792H274.345ZM275.277 167.347L275.724 167.393C275.649 168.13 275.551 168.887 275.431 169.642L274.987 169.571C275.106 168.824 275.203 168.077 275.277 167.347H275.277ZM275.441 162.872L275.89 162.858C275.914 163.6 275.911 164.363 275.882 165.129L275.432 165.112C275.461 164.357 275.464 163.603 275.441 162.872H275.441ZM274.952 158.431L275.393 158.344C275.536 159.07 275.65 159.826 275.734 160.592L275.287 160.641C275.205 159.888 275.092 159.145 274.952 158.431ZM271.846 150.028C272.297 150.64 272.71 151.28 273.082 151.942L272.691 152.164C272.328 151.517 271.925 150.894 271.485 150.297L271.846 150.028ZM273.95 154.873C273.86 154.637 273.767 154.399 273.668 154.164L274.083 153.989C274.179 154.219 274.271 154.45 274.359 154.684C274.536 155.154 274.701 155.642 274.848 156.134L274.418 156.263C274.277 155.792 274.12 155.325 273.95 154.873H273.95Z" fill="#85B2CA"/>
<path d="M264.991 136.48L268.685 154.596L271.905 152.076L264.991 136.48Z" fill="#0A587F"/>
<path d="M264.991 136.48L277.493 151.74L266.317 152.412L264.991 136.48Z" fill="#38B6FF"/>
<path d="M264.991 136.48L270.586 152.155L268.685 154.596L273.478 151.981L264.991 136.48Z" fill="#008BC2"/>
<path d="M85.3131 48.6241C85.3131 48.3165 85.2223 48.0158 85.052 47.76C84.8818 47.5042 84.6399 47.3049 84.3568 47.1872C84.0737 47.0695 83.7623 47.0387 83.4618 47.0987C83.1613 47.1587 82.8852 47.3068 82.6686 47.5243C82.4519 47.7418 82.3044 48.019 82.2446 48.3207C82.1848 48.6224 82.2155 48.9351 82.3328 49.2193C82.45 49.5035 82.6486 49.7464 82.9033 49.9173C83.1581 50.0882 83.4576 50.1794 83.764 50.1794C84.1748 50.1794 84.5689 50.0155 84.8594 49.7239C85.1499 49.4322 85.3131 49.0366 85.3131 48.6241Z" fill="#FFB600"/>
<path d="M78.2312 56.3641C78.2312 56.156 78.1697 55.9525 78.0545 55.7794C77.9394 55.6064 77.7756 55.4715 77.5841 55.3918C77.3926 55.3122 77.1818 55.2914 76.9785 55.332C76.7752 55.3726 76.5884 55.4728 76.4418 55.62C76.2952 55.7672 76.1954 55.9547 76.1549 56.1588C76.1145 56.363 76.1352 56.5746 76.2146 56.7669C76.2939 56.9592 76.4282 57.1235 76.6006 57.2392C76.773 57.3548 76.9756 57.4165 77.183 57.4165C77.461 57.4165 77.7276 57.3056 77.9242 57.1083C78.1207 56.9109 78.2312 56.6432 78.2312 56.3641Z" fill="#FFB600"/>
<path d="M85.4566 62.545C85.4549 62.2671 85.3712 61.9959 85.2161 61.7656C85.061 61.5354 84.8415 61.3564 84.5853 61.2513C84.329 61.1461 84.0474 61.1195 83.7761 61.1748C83.5048 61.2301 83.2559 61.3648 83.0607 61.562C82.8656 61.7591 82.733 62.0099 82.6796 62.2826C82.6262 62.5554 82.6545 62.8379 82.7609 63.0945C82.8672 63.3511 83.0469 63.5704 83.2772 63.7246C83.5075 63.8789 83.7781 63.9612 84.055 63.9612C84.4279 63.96 84.7851 63.8101 85.0479 63.5446C85.3108 63.279 85.4578 62.9194 85.4566 62.545Z" fill="#FFB600"/>
<path d="M84.0774 63.0374C84.0201 63.0184 83.8458 62.9599 76.8551 56.384L76.708 56.2456L83.3585 48.5414L83.6752 48.817L77.2887 56.2153C79.9933 58.7584 83.9749 62.4758 84.2452 62.6546C84.2341 62.6478 84.2223 62.6424 84.2099 62.6383L84.0774 63.0374Z" fill="#FFB600"/>
<path d="M227.822 111.481C227.203 108.968 224.582 107.826 223.376 105.596C221.985 103.028 222.855 99.5435 224.667 97.4197C224.784 97.2832 233.886 81.8216 241.653 89.4875C243.902 91.7069 244.473 99.2709 244.524 102.633C244.602 107.779 244.681 112.925 244.759 118.071C244.862 124.818 239.188 129.459 233.331 127.426C230.902 126.583 227.113 124.18 226.366 121.245C225.481 117.769 228.668 114.917 227.822 111.481Z" fill="#70B0FF"/>
<path d="M233.612 154.199L235.976 104.34L235.539 104.318L233.175 154.199H233.612Z" fill="white"/>
<path d="M235.447 109.518L229.757 102.874L230.084 102.575L235.551 108.958L241.223 105.993L241.421 106.395L235.447 109.518Z" fill="white"/>
<path d="M235.032 118.267L228.295 115.799L228.441 115.374L235.044 117.793L241.083 115.936L241.208 116.368L235.032 118.267Z" fill="white"/>
<path d="M232.141 117.111L230.879 112.805L231.297 112.674L232.559 116.98L232.141 117.111Z" fill="white"/>
<path d="M239.252 107.41L238.816 107.371L239.149 103.45L239.584 103.49L239.252 107.41Z" fill="white"/>
<path d="M236.357 121.092C236.228 118.575 236.166 115.82 237.649 113.818C238.294 112.973 239.175 112.339 240.18 111.997C241.185 111.656 242.269 111.622 243.293 111.9C244.314 112.226 245.226 112.829 245.927 113.643C246.628 114.456 247.091 115.449 247.266 116.511C247.578 118.436 246.956 120.374 246.718 122.311C246.166 126.789 247.635 131.579 245.917 135.73C244.977 138.003 242.568 139.969 240.31 139.152C237.889 138.277 237.057 134.997 236.915 132.646C236.683 128.801 236.555 124.941 236.357 121.092Z" fill="white"/>
<path d="M241.454 154.199L242.403 122.386L241.966 122.372L241.017 154.199H241.454Z" fill="white"/>
<path d="M242.001 128.087L238.364 123.88L238.69 123.579L242.046 127.462L244.974 124.964L245.252 125.312L242.001 128.087Z" fill="white"/>
<path d="M241.932 133.734L241.771 133.314L244.634 132.143L244.795 132.563L241.932 133.734Z" fill="white"/>
<path d="M214.803 124.872C215.083 124.244 215.501 123.691 215.79 123.068C215.956 122.765 216.055 122.43 216.082 122.085C216.109 121.741 216.062 121.394 215.945 121.069C215.54 120.18 214.436 119.873 213.876 119.078C213.213 118.134 213.504 116.795 214.041 115.769C214.577 114.743 215.338 113.814 215.603 112.68C215.963 111.14 215.342 109.509 215.604 107.947C215.698 107.327 215.949 106.742 216.335 106.248C216.72 105.755 217.226 105.369 217.803 105.13C218.385 104.92 219.019 104.908 219.608 105.097C220.197 105.286 220.707 105.664 221.059 106.174C222.018 107.675 221.273 109.715 221.706 111.457C222.137 113.19 223.716 114.537 223.776 116.325C223.818 117.55 223.127 118.657 222.789 119.831C222.472 121.19 222.412 122.596 222.613 123.976C222.814 125.354 222.865 126.75 222.766 128.139C222.446 130.765 219.807 133.698 217.136 131.81C215.253 130.479 213.824 127.073 214.803 124.872Z" fill="#A8C6FF"/>
<path d="M219.122 112.448L218.686 112.449L218.817 154.2L219.254 154.198L219.122 112.448Z" fill="white"/>
<path d="M60.3925 131.479C58.848 128.843 58.8799 124.862 60.8892 121.784C61.532 120.8 62.3886 119.834 62.3947 118.646C62.4003 117.569 61.6982 116.649 61.2264 115.689C59.2538 111.672 61.3746 106.716 65.6439 105.574C69.1167 104.644 73.1153 106.966 72.2731 111.693C71.6471 115.206 68.9567 116.888 69.5143 119.135C69.8747 120.587 71.4468 121.243 72.6479 122.084C73.9624 123.061 74.9516 124.415 75.4854 125.967C76.0193 127.519 76.0727 129.197 75.6387 130.781C73.3233 138.729 63.6041 136.961 60.3925 131.479Z" fill="#70B0FF"/>
<path d="M67.0473 110.619H66.5801V151.279H67.0473V110.619Z" fill="white"/>
<path d="M66.9858 124.554L66.6416 124.228L68.5708 122.059L68.9149 122.386L66.9858 124.554Z" fill="white"/>
<path d="M66.7994 133.717L64.2285 131.01L64.5621 130.672L66.8278 133.058L72.5884 127.979L72.8917 128.346L66.7994 133.717Z" fill="white"/>
<path d="M66.6459 115.192L63.436 111.77L63.7716 111.434L66.9814 114.856L66.6459 115.192Z" fill="white"/>
<path d="M80.3913 130.06C79.9184 129.223 79.6951 128.267 79.7478 127.306C79.8005 126.344 80.1271 125.419 80.6887 124.639C81.0734 124.088 81.5862 123.547 81.5899 122.883C81.5932 122.281 81.1729 121.767 80.8905 121.229C80.6175 120.692 80.4704 120.1 80.4605 119.497C80.4506 118.894 80.578 118.297 80.8332 117.751C81.0884 117.205 81.4645 116.725 81.9328 116.348C82.401 115.97 82.9491 115.705 83.535 115.573C85.6139 115.053 88.0076 116.351 87.5034 118.995C87.1287 120.96 85.5181 121.9 85.8519 123.157C86.0677 123.969 87.0087 124.336 87.7278 124.806C88.5017 125.321 89.0923 126.07 89.4142 126.944C89.736 127.819 89.7725 128.773 89.5182 129.67C88.1321 134.115 82.3139 133.126 80.3913 130.06Z" fill="white"/>
<path d="M84.4692 118.394H84.002V152.87H84.4692V118.394Z" fill="white"/>
<path d="M84.4076 126.249L84.0635 125.944L85.2184 124.731L85.5625 125.036L84.4076 126.249Z" fill="white"/>
<path d="M84.2214 131.436L82.6211 129.862L82.9547 129.546L84.2498 130.82L87.6314 128.034L87.9353 128.377L84.2214 131.436Z" fill="white"/>
<path d="M84.068 121.015L82.146 119.101L82.4815 118.787L84.403 120.701L84.068 121.015Z" fill="white"/>
<path d="M105.466 152.271H52.4512V153.625H105.466V152.271Z" fill="#3B8BDB"/>
<path d="M239.8 153.625H212.394V154.978H239.8V153.625Z" fill="#3B8BDB"/>
<path d="M262.713 153.625H246.988V154.978H262.713V153.625Z" fill="#3B8BDB"/>
<path d="M226.594 30.7398H204.102C202.815 30.7564 201.573 30.2595 200.649 29.3582C199.726 28.4569 199.196 27.2247 199.176 25.9318C199.178 24.5583 199.694 23.2357 200.621 22.2254C201.547 21.215 202.818 20.5903 204.181 20.4747C205.141 20.3982 206.104 20.5718 206.977 20.9787C207.47 20.1749 208.16 19.5119 208.982 19.0538C209.804 18.5956 210.73 18.3576 211.67 18.3628C212.823 18.3623 213.948 18.7222 214.888 19.3926C215.138 18.575 215.63 17.8536 216.3 17.325C216.969 16.7964 217.784 16.4859 218.634 16.4352C219.484 16.3845 220.33 16.5959 221.057 17.0412C221.784 17.4864 222.358 18.1442 222.702 18.9264C223.531 18.5532 224.429 18.3611 225.338 18.3628C227.531 18.3628 231.24 19.3011 231.641 25.5328H231.681V25.775C231.661 27.1101 231.113 28.3826 230.16 29.3133C229.206 30.244 227.923 30.757 226.594 30.7398ZM204.622 20.9419C204.488 20.9419 204.353 20.9471 204.219 20.9577C202.976 21.0633 201.819 21.6328 200.974 22.5537C200.13 23.4747 199.66 24.6801 199.658 25.9318C199.678 27.0963 200.157 28.2054 200.99 29.0159C201.823 29.8264 202.942 30.2722 204.102 30.2555H226.594C227.769 30.2715 228.905 29.8299 229.763 29.0232C230.621 28.2165 231.135 27.1075 231.196 25.9289L231.173 25.7873C230.884 20.0513 227.84 18.8471 225.338 18.8471C224.415 18.8457 223.504 19.0601 222.677 19.4735L222.432 19.5953L222.342 19.3359C222.066 18.5815 221.553 17.938 220.88 17.5025C220.208 17.067 219.412 16.8632 218.614 16.9221C217.816 16.9809 217.058 17.2991 216.456 17.8286C215.854 18.3581 215.44 19.07 215.277 19.8567L215.204 20.2642L214.885 20.0007C213.979 19.2537 212.842 18.8459 211.67 18.8471C210.777 18.8413 209.899 19.0764 209.128 19.5276C208.356 19.9789 207.72 20.6298 207.285 21.4125L207.171 21.6197L206.962 21.5109C206.239 21.1358 205.436 20.9406 204.622 20.9419Z" fill="#70B0FF"/>
<path d="M138.98 20.1911H107.869C106.087 20.1891 104.378 19.4774 103.118 18.2122C101.857 16.9469 101.148 15.2315 101.146 13.4421C101.126 11.5368 101.817 9.69272 103.082 8.27253C104.347 6.85234 106.096 5.95875 107.984 5.76742C109.326 5.65736 110.673 5.91485 111.88 6.51245C112.407 5.59016 113.123 4.79135 113.982 4.16944C114.841 3.54753 115.822 3.11685 116.859 2.90619C117.897 2.69554 118.968 2.70978 120 2.94794C121.032 3.18611 122.001 3.64272 122.843 4.28724C123.131 3.12357 123.781 2.08218 124.698 1.31362C125.615 0.545058 126.751 0.0891422 127.943 0.0117794C129.135 -0.0655834 130.321 0.239616 131.329 0.883255C132.337 1.52689 133.114 2.47562 133.55 3.59231C134.704 3.04122 135.966 2.7562 137.243 2.7581C142.43 2.7581 145.489 6.38448 145.876 12.9776L145.925 12.9781V13.2186C145.923 15.0672 145.191 16.8395 143.889 18.1466C142.587 19.4537 140.822 20.189 138.98 20.1911ZM108.587 6.22769C108.4 6.22769 108.211 6.23526 108.023 6.25039C106.255 6.43143 104.619 7.26975 103.436 8.60056C102.253 9.93137 101.608 11.6584 101.629 13.4421C101.631 15.103 102.289 16.6954 103.459 17.8698C104.628 19.0442 106.214 19.7048 107.869 19.7067H138.98C140.664 19.7048 142.28 19.0444 143.486 17.8656C144.692 16.6868 145.393 15.0825 145.44 13.3932L145.406 13.2302C145.004 4.97532 140.745 3.24248 137.243 3.24248C135.95 3.24094 134.675 3.55019 133.525 4.14438L133.276 4.27209L133.187 4.00602C132.822 2.91639 132.105 1.97998 131.151 1.34488C130.197 0.709775 129.059 0.412223 127.917 0.499277C126.775 0.586331 125.695 1.05303 124.847 1.82555C123.999 2.59808 123.432 3.63235 123.235 4.7648L123.163 5.18199L122.841 4.90762C122.049 4.23064 121.116 3.74073 120.11 3.47399C119.104 3.20725 118.051 3.17048 117.029 3.36637C116.007 3.56225 115.042 3.98582 114.204 4.60587C113.367 5.22591 112.679 6.02664 112.191 6.94908L112.077 7.1629L111.865 7.04864C110.856 6.50861 109.73 6.22663 108.587 6.22769Z" fill="#70B0FF"/>
<path d="M39.7181 44.6763H13.9573C12.4815 44.6746 11.0667 44.0853 10.0232 43.0377C8.97968 41.9901 8.39268 40.5696 8.39098 39.088C8.37422 37.5103 8.9459 35.9834 9.99361 34.8075C11.0413 33.6315 12.4893 32.8916 14.0528 32.7332C15.164 32.6421 16.2789 32.8553 17.2789 33.3501C17.7148 32.5865 18.3081 31.925 19.019 31.4101C19.73 30.8951 20.5423 30.5385 21.4016 30.3641C22.2609 30.1896 23.1474 30.2014 24.0018 30.3986C24.8562 30.5958 25.6588 30.9739 26.356 31.5076C26.5949 30.5441 27.1329 29.6818 27.8921 29.0454C28.6513 28.4091 29.5924 28.0315 30.5793 27.9675C31.5663 27.9034 32.548 28.1561 33.3825 28.6891C34.217 29.222 34.861 30.0076 35.2216 30.9322C36.1769 30.4759 37.2218 30.2398 38.2797 30.2414C42.574 30.2414 45.1076 33.2442 45.4279 38.7034L45.4685 38.7038V38.9029C45.4668 40.4336 44.8604 41.901 43.7823 42.9834C42.7043 44.0657 41.2426 44.6745 39.7181 44.6763ZM14.5522 33.1143C14.3967 33.1143 14.2409 33.1206 14.0848 33.1331C12.6212 33.283 11.2664 33.9772 10.2867 35.0791C9.30699 36.181 8.77328 37.611 8.79048 39.088C8.79206 40.4633 9.33693 41.7817 10.3055 42.7542C11.2742 43.7266 12.5874 44.2736 13.9572 44.2752H39.7181C41.1118 44.2736 42.45 43.7267 43.4487 42.7507C44.4474 41.7746 45.0279 40.4462 45.067 39.0475L45.0389 38.9125C44.7053 32.0773 41.1791 30.6425 38.2797 30.6425C37.2087 30.6412 36.1531 30.8973 35.2009 31.3893L34.9947 31.4951L34.9207 31.2748C34.6186 30.3725 34.0255 29.5972 33.2353 29.0713C32.4451 28.5454 31.5028 28.299 30.5574 28.3711C29.6121 28.4432 28.7176 28.8296 28.0156 29.4693C27.3135 30.1089 26.8438 30.9653 26.6809 31.903L26.6208 32.2485L26.3547 32.0213C25.6987 31.4608 24.9257 31.0551 24.0928 30.8342C23.2598 30.6134 22.3882 30.5829 21.5419 30.7451C20.6957 30.9073 19.8966 31.258 19.2032 31.7714C18.5099 32.2848 17.9402 32.9479 17.5359 33.7116L17.4419 33.8887L17.2657 33.7941C16.4306 33.3469 15.4986 33.1134 14.5522 33.1143Z" fill="#70B0FF"/>
<g style="mix-blend-mode:screen" opacity="0.19">
<path d="M169.245 158.336C169.231 158.781 169.35 159.22 169.586 159.596C169.822 159.973 170.165 160.271 170.57 160.451C170.975 160.631 171.425 160.685 171.862 160.607C172.298 160.529 172.701 160.321 173.019 160.012C173.338 159.702 173.557 159.304 173.648 158.868C173.74 158.433 173.7 157.98 173.534 157.567C173.367 157.155 173.082 156.802 172.714 156.553C172.347 156.304 171.914 156.171 171.47 156.171C170.889 156.162 170.329 156.385 169.911 156.791C169.494 157.197 169.255 157.753 169.245 158.336Z" fill="#CAD0E0"/>
</g>
<g style="mix-blend-mode:screen" opacity="0.19">
<g style="mix-blend-mode:screen" opacity="0.19">
<path d="M167.835 158.336C167.812 159.055 168 159.766 168.378 160.378C168.755 160.99 169.304 161.476 169.955 161.776C170.607 162.075 171.332 162.175 172.04 162.062C172.748 161.949 173.407 161.629 173.934 161.141C174.462 160.654 174.833 160.02 175.003 159.321C175.173 158.622 175.133 157.888 174.889 157.212C174.644 156.535 174.206 155.946 173.63 155.519C173.053 155.091 172.363 154.845 171.647 154.81C171.165 154.786 170.684 154.859 170.23 155.024C169.777 155.19 169.361 155.444 169.006 155.772C168.652 156.1 168.365 156.496 168.164 156.936C167.963 157.376 167.852 157.852 167.835 158.336C167.809 158.817 168.578 158.816 168.604 158.336C168.802 154.767 174.336 154.734 174.336 158.336C174.336 161.938 168.802 161.908 168.604 158.336C168.578 157.857 167.809 157.854 167.835 158.336Z" fill="#CAD0E0"/>
</g>
</g>
<path d="M154.92 106.777H151.44V116.432H154.92V106.777Z" fill="white"/>
<path d="M175.795 106.777H172.316V116.432H175.795V106.777Z" fill="white"/>
<path d="M182.754 106.777H179.274V116.432H182.754V106.777Z" fill="white"/>
<path d="M118.15 151.695C118.15 151.695 97.1757 152.46 96.3139 155.906C95.4522 159.351 131.678 169.189 141.995 165.276C152.312 161.362 155.079 158.937 155.079 158.937C155.079 158.937 155.855 154.984 139.295 152.879C122.736 150.774 118.15 151.695 118.15 151.695Z" fill="#FF7843"/>
<path d="M133.313 160.488C133.313 160.488 144.975 156.66 145.873 153.718C146.77 150.776 142.508 129.863 140.266 127.837C138.094 125.874 126.408 124.123 125.672 124.014V124.009L125.653 124.012L125.635 124.009V124.014C124.899 124.123 113.213 125.874 111.041 127.837C108.798 129.863 104.537 150.776 105.434 153.718C106.331 156.66 117.994 160.488 117.994 160.488L119.115 157.673L110.873 151.034C110.873 151.034 114.335 139.546 115.492 142.248C116.648 144.95 118.891 154.07 118.891 154.07H132.416C132.416 154.07 134.658 144.95 135.815 142.248C136.971 139.546 140.47 151.034 140.47 151.034L132.759 157.817L133.313 160.488Z" fill="#34A4B6"/>
<path d="M114.177 160.488H125.671H137.166L141.651 147.653H125.671H109.691L114.177 160.488Z" fill="#DBDBDB"/>
<path d="M127.454 124.65V119.23H123.889V124.65C123.889 124.65 125.708 126.388 127.454 124.65Z" fill="#FEA086"/>
<path d="M98.2501 155.151C97.551 155.232 96.8843 155.492 96.3138 155.906C94.4908 157.403 95.3522 159.985 96.7538 161.973C97.2966 162.753 97.9423 163.456 98.6733 164.062C101.242 166.118 104.836 167.146 108.242 167.812C112.154 168.515 116.115 168.903 120.089 168.973C121.273 169.011 128.764 169.736 129.385 169.042L131.332 166.863C131.38 166.809 120.768 161.628 120.099 161.33C114.329 158.758 105.093 154.03 98.2501 155.151Z" fill="#FF7843"/>
<path d="M152.142 156.423C145.299 155.302 136.063 160.03 130.293 162.602C129.624 162.9 119.012 168.081 119.06 168.135L121.008 170.314C121.628 171.009 129.119 170.283 130.303 170.245C134.277 170.176 138.238 169.788 142.15 169.085C145.556 168.418 149.151 167.39 151.719 165.334C152.45 164.728 153.095 164.025 153.638 163.245C155.04 161.257 155.901 158.675 154.078 157.178C153.508 156.764 152.841 156.504 152.142 156.423Z" fill="#FF7843"/>
<path d="M122.479 111.049C120.032 113.129 120.719 116.215 120.719 116.215C120.814 124.28 126.022 122.813 128.401 121.928C130.781 121.044 131.357 115.895 130.254 112.888C129.151 109.88 124.926 108.969 122.479 111.049Z" fill="#FEA086"/>
<path d="M130.794 110.682C130.385 110.353 129.916 110.108 129.412 109.962C128.898 109.681 128.415 109.348 127.969 108.967C127.477 108.645 126.893 108.496 126.308 108.544C125.013 108.483 123.729 108.807 122.616 109.473C121.919 109.874 120.768 109.857 120.32 110.619C119.823 111.45 119.661 112.44 119.867 113.387C120.196 114.332 120.151 115.367 119.743 116.28C119.577 116.68 120.004 118.324 120.36 118.719C120.716 119.114 120.424 117.792 120.71 117.486C120.853 117.339 120.97 117.168 121.058 116.983C121.336 116.449 121.524 115.874 121.616 115.279C121.989 113.553 123.397 112.472 125.123 113.203C126.561 113.811 128.86 112.739 129.399 114.476C129.632 114.965 129.819 115.475 129.956 116C130.048 117.207 129.47 117.833 130.047 118.04C130.746 118.292 131.264 118.275 131.621 117.557C132.151 116.492 131.621 115.252 131.621 114.119C131.621 113.037 131.618 111.504 130.794 110.682Z" fill="#0B1B57"/>
<path d="M131.621 117.557C131.251 116.907 130.126 116.234 130.033 116.931C129.941 117.628 129.243 119.001 128.641 119.339C128.039 119.677 127.818 119.431 126.707 119.106C125.503 118.871 124.258 118.961 123.1 119.369C122.492 119.648 121.802 119.558 121.525 118.329C121.379 117.349 121.405 116.35 121.602 115.378C121.602 115.378 120.469 116.628 120.36 117.185C120.25 117.743 120.041 117.913 120.36 118.719C120.679 119.525 120.515 120.391 120.377 121.264C120.238 122.137 120.978 122.993 121.996 123.179C123.014 123.364 122.829 123.318 123.708 123.896C124.588 124.473 126.855 124.34 127.919 123.896C128.984 123.451 129.585 123.55 130.793 122.638C132.002 121.726 131.205 121.274 131.436 120.205C131.667 119.137 131.991 118.208 131.621 117.557Z" fill="#0B1B57"/>
<path d="M125.78 119.566C125.109 119.566 124.565 119.808 124.565 120.105C124.565 120.403 125.109 120.645 125.78 120.645C126.451 120.645 126.995 120.403 126.995 120.105C126.995 119.808 126.451 119.566 125.78 119.566Z" fill="#FEA086"/>
<path d="M147.777 32.9296C147.609 37.0723 149.5 43.2483 155.687 52.4491C161.875 43.2483 163.766 37.0723 163.597 32.9296C163.297 25.5422 148.077 25.5422 147.777 32.9296ZM155.687 36.8911C153.076 36.8911 150.958 35.3409 150.958 33.4283C150.958 31.5159 153.076 29.9656 155.687 29.9656C158.299 29.9656 160.416 31.5159 160.416 33.4283C160.416 35.3409 158.299 36.8911 155.687 36.8911V36.8911Z" fill="#FF7843"/>
<path fill-rule="evenodd" clip-rule="evenodd" d="M179.97 65.818C182.329 65.818 184.248 67.7886 184.248 70.2122C184.248 72.6358 182.329 74.6063 179.97 74.6063C177.61 74.6063 175.692 72.6358 175.692 70.2122C175.692 68.7286 176.408 67.4262 177.489 66.6334L176.078 63.9494C174.38 65.1838 174.148 65.9879 173.586 68.0038C173.376 68.7626 173.332 69.4761 172.516 69.8045C172.097 69.963 171.723 70.031 171.149 70.0536C170.355 70.0763 169.385 69.997 168.68 69.963C168.448 69.9517 168.261 69.8498 168.073 69.7139C167.797 69.5214 167.72 69.51 167.39 69.5893L165.912 69.9064C165.923 70.0083 165.923 70.1103 165.923 70.2235C165.923 72.6471 164.005 74.6177 161.645 74.6177C159.286 74.6177 157.367 72.6471 157.367 70.2235C157.367 67.7999 159.286 65.8294 161.645 65.8294C163.31 65.8294 164.743 66.8033 165.449 68.2303L166.805 67.6187C166.794 67.4602 166.783 67.3016 166.772 67.1431C166.948 67.0185 167.125 66.8939 167.301 66.7693C167.092 66.7354 166.948 66.6674 166.739 66.6334C166.232 66.5428 165.956 66.3503 165.526 66.0672C165.251 65.886 165.24 65.7954 164.931 65.886C164.721 65.9539 164.435 65.8067 164.247 65.7048C163.299 65.2291 161.799 64.5383 160.906 63.9267C160.653 63.7568 160.543 63.5983 160.399 63.4397C160.223 63.2585 160.333 63.0773 160.432 62.8735C160.598 62.5451 160.653 62.4545 160.796 62.3978C161.017 62.3072 161.116 62.3412 161.325 62.4092C161.403 62.4318 161.469 62.4545 161.546 62.4771C161.733 62.5337 161.855 62.6017 161.733 62.3186C161.634 62.0581 161.634 62.126 161.347 62.0468C160.587 61.8429 159.815 61.639 159.054 61.4239C158.492 61.2766 158.657 60.9709 159.153 61.0388C160.068 61.186 160.995 61.3333 161.91 61.4692C162.108 61.5031 162.34 61.5031 162.483 61.3446C162.77 61.0162 162.836 61.1521 163.277 61.2087C164.798 61.4239 166.309 61.639 167.831 61.8542C168.349 61.9222 168.966 61.8542 169.462 61.7296C170.069 61.5824 170.763 61.4692 171.304 61.2427C171.425 61.186 171.502 61.0048 171.634 60.9482C171.745 60.8916 171.844 60.8916 171.932 60.8803C172.086 60.8576 172.241 60.8689 172.45 60.9256C172.594 60.9595 172.737 61.0162 172.88 61.0501C173.013 61.0841 173.31 61.0275 173.432 60.9709C173.641 60.8689 173.851 60.767 174.06 60.6424C174.203 60.5518 174.181 60.4612 174.192 60.314C174.192 60.2347 174.17 60.1555 174.148 60.0875C174.126 59.9629 173.983 59.8157 173.873 59.7704C173.751 59.7251 173.707 59.6798 173.707 59.4646C173.707 59.34 173.707 59.2268 173.718 59.1022C173.718 58.9437 173.674 58.7964 173.509 58.8644C173.167 58.9776 172.836 59.1022 172.494 59.2155C172.263 59.2608 172.031 58.8191 172.351 58.6945C172.715 58.5586 173.068 58.4227 173.432 58.2755C173.641 58.1962 174.082 58.2302 174.281 58.3434C175.824 59.2381 175.802 59.2947 176.563 61.1407C176.618 61.2653 176.717 61.4805 176.662 61.6277C176.552 61.8769 176.552 61.8089 176.662 62.0581C176.717 62.1713 176.761 62.2733 176.816 62.3865C177.522 62.194 178.404 62.1147 178.911 62.0921C179.154 62.0807 179.099 62.0581 179.33 62.1374C179.97 62.3299 180.576 62.7149 181.293 63.0887C181.69 63.2925 181.591 63.5643 181.205 63.4058C179.826 62.8622 178.184 62.5111 176.872 63.4171L178.283 66.1578C178.834 65.9313 179.385 65.818 179.97 65.818ZM164.479 68.6606L163.134 69.2722C162.825 68.7626 162.285 68.4341 161.667 68.4341C160.708 68.4341 159.936 69.2269 159.936 70.2122C159.936 71.1975 160.708 71.9902 161.667 71.9902C162.549 71.9902 163.266 71.3221 163.387 70.45L164.865 70.1329C164.865 70.1556 164.865 70.1895 164.865 70.2122C164.865 72.0242 163.431 73.4965 161.667 73.4965C159.903 73.4965 158.47 72.0242 158.47 70.2122C158.47 68.4002 159.903 66.9279 161.667 66.9279C162.88 66.9279 163.95 67.6301 164.479 68.6606ZM178.018 67.6074L178.955 69.3741C178.779 69.6006 178.68 69.8838 178.68 70.2009C178.68 70.937 179.264 71.5372 179.981 71.5372C180.697 71.5372 181.282 70.937 181.282 70.2009C181.282 69.4647 180.697 68.8645 179.981 68.8645C179.904 68.8645 179.826 68.8758 179.749 68.8871L178.834 67.1431C179.187 67.0072 179.573 66.9279 179.97 66.9279C181.734 66.9279 183.167 68.4002 183.167 70.2122C183.167 72.0242 181.734 73.4965 179.97 73.4965C178.206 73.4965 176.772 72.0242 176.772 70.2122C176.772 69.1476 177.268 68.2076 178.018 67.6074ZM165.67 64.98C165.692 65.0932 165.736 65.2178 165.835 65.2744C166.044 65.399 166.199 65.4556 166.408 65.5802C166.541 65.6595 166.761 65.7274 166.915 65.6935C167.125 65.6482 167.224 65.6595 167.026 65.3877C166.893 65.2065 166.706 65.0479 166.574 64.878C166.452 64.7195 166.474 64.7308 166.265 64.7082C166.1 64.6968 165.923 64.6855 165.758 64.6742C165.515 64.6289 165.636 64.8101 165.67 64.98Z" fill="#D4E2FF"/>
<path fill-rule="evenodd" clip-rule="evenodd" d="M161.52 92.9536C162.185 92.9536 162.818 93.1166 163.379 93.421L163.42 93.3883C162.891 93.0731 162.34 92.7906 161.769 92.5949C161.396 92.4754 161.385 92.2906 161.759 92.3667C162.455 92.5188 163.192 92.6927 163.836 93.0297L164.012 92.8775C163.971 92.834 163.929 92.7797 163.877 92.7362C163.576 92.4101 163.586 92.171 163.846 91.7689C162.185 90.9863 160.638 89.9211 158.966 89.269C158.322 89.019 158.354 89.1821 158.104 88.5299C158.011 88.2799 157.949 88.3886 157.845 88.1386C157.627 87.5735 158.021 87.2909 158.54 87.3343C159.724 87.4213 160.835 87.5082 161.977 87.5952C162.579 87.6387 163.13 87.8452 163.42 88.4538C163.773 89.1929 163.638 89.3668 164.375 89.4755C165.652 89.6712 166.93 89.8559 168.207 90.0516C168.591 89.6712 168.747 89.5081 169.131 89.1277C170.532 87.7147 172.91 87.8343 174.592 88.3778C174.976 88.5082 175.308 88.7256 175.692 88.856C175.755 88.7799 175.807 88.7038 175.869 88.6169C176.077 88.3451 176.471 88.4212 176.772 88.4973C176.897 88.5299 177.011 88.5625 177.136 88.5951C177.478 88.6821 177.509 88.8234 177.53 89.0951C177.551 89.3451 177.727 89.4429 177.945 89.3777C178.132 89.3234 178.319 89.269 178.496 89.2147C178.901 89.0842 178.786 89.0299 178.631 88.6821C178.568 88.5408 178.506 88.3995 178.444 88.2691C178.298 87.943 178.07 87.9321 177.759 87.9104C177.198 87.8669 176.741 87.8126 176.139 87.53C175.962 87.443 175.817 87.193 176.066 87.0844C176.191 87.03 176.315 86.9757 176.44 86.9322C176.637 86.7583 176.835 86.5735 177.032 86.3996C177.302 86.1605 177.447 86.0844 177.769 86.3561C178.485 86.9539 179.088 87.5408 179.596 88.1278C179.659 88.0191 179.7 87.856 179.7 87.7147C179.586 87.6495 179.586 87.5626 179.524 87.4648C179.441 87.117 179.451 86.7365 179.492 86.3887C179.524 86.1605 179.679 86.1714 179.866 86.2474C180.448 86.4866 180.915 87.1061 180.406 87.5843C180.271 87.7147 180.115 87.8017 179.949 87.8669C179.929 87.9973 179.897 88.1278 179.877 88.2582C179.835 88.4973 179.825 88.4212 179.96 88.606C180.468 89.2799 180.645 89.8994 180.988 90.7255C181.403 91.7254 181.247 91.6928 180.375 92.1384C180.126 92.2688 179.596 92.4645 179.306 92.4862C179.119 92.4971 178.942 92.508 178.755 92.5188C178.517 92.5297 178.506 92.7145 178.568 92.834C178.61 92.921 178.662 92.9536 178.911 92.8992C179.7 92.7471 180.666 92.5623 181.309 92.8123C181.382 92.834 181.393 92.9753 181.268 93.0405L181.154 93.1058C182.929 93.584 184.248 95.2687 184.248 97.2794C184.248 99.6597 182.41 101.584 180.136 101.584C177.862 101.584 176.025 99.6597 176.025 97.2794C176.025 97.2251 176.025 97.1707 176.025 97.1273C175.89 97.5185 175.765 97.899 175.672 98.3011C175.474 99.1054 175.09 99.7793 174 99.7902C171.643 99.8119 168.861 99.9423 166.545 99.7032C166.037 99.6489 165.912 99.6163 166.016 99.1272C166.13 98.8228 166.712 98.0294 166.743 97.7468C166.784 97.4316 166.795 97.3555 166.442 97.5077C166.13 97.6272 165.85 97.7794 165.549 97.9207C165.258 100.008 163.545 101.605 161.479 101.605C159.205 101.605 157.367 99.6815 157.367 97.3012C157.409 94.8883 159.246 92.9536 161.52 92.9536ZM177.977 95.5947L178.517 96.3338C178.371 96.6164 178.298 96.9316 178.298 97.2686C178.298 98.3555 179.139 99.2467 180.188 99.2467C181.226 99.2467 182.078 98.3663 182.078 97.2686C182.078 96.1817 181.237 95.2904 180.188 95.2904C179.949 95.2904 179.721 95.3339 179.513 95.4208L179.254 94.5948C179.544 94.4861 179.866 94.4209 180.188 94.4209C181.694 94.4209 182.908 95.6926 182.908 97.2686C182.908 98.8446 181.694 100.116 180.188 100.116C178.683 100.116 177.468 98.8446 177.468 97.2686C177.458 96.6382 177.655 96.0621 177.977 95.5947ZM163.275 95.0948L162.091 95.986C161.915 95.8991 161.728 95.8556 161.52 95.8556C160.773 95.8556 160.17 96.486 160.17 97.2686C160.17 98.0511 160.773 98.6815 161.52 98.6815C162.257 98.6815 162.86 98.0511 162.87 97.2794L164.22 96.899C164.23 97.0186 164.24 97.149 164.24 97.2686C164.24 98.8446 163.026 100.116 161.52 100.116C160.015 100.116 158.8 98.8446 158.8 97.2686C158.8 95.6926 160.015 94.4209 161.52 94.4209C162.195 94.4209 162.808 94.6709 163.275 95.0948Z" fill="#D4E2FF"/>
<path fill-rule="evenodd" clip-rule="evenodd" d="M161.52 119.941C162.185 119.941 162.818 120.104 163.379 120.409L163.42 120.376C162.891 120.061 162.34 119.778 161.769 119.583C161.396 119.463 161.385 119.278 161.759 119.354C162.455 119.507 163.192 119.681 163.836 120.017L164.012 119.865C163.971 119.822 163.929 119.767 163.877 119.724C163.576 119.398 163.586 119.159 163.846 118.757C162.185 117.974 160.638 116.909 158.966 116.257C158.322 116.007 158.354 116.17 158.104 115.518C158.011 115.268 157.949 115.376 157.845 115.126C157.627 114.561 158.021 114.279 158.54 114.322C159.724 114.409 160.835 114.496 161.977 114.583C162.579 114.626 163.13 114.833 163.42 115.442C163.773 116.181 163.638 116.355 164.375 116.463C165.652 116.659 166.93 116.844 168.207 117.039C168.591 116.659 168.747 116.496 169.131 116.116C170.532 114.703 172.91 114.822 174.592 115.366C174.976 115.496 175.308 115.713 175.692 115.844C175.755 115.768 175.807 115.692 175.869 115.605C176.077 115.333 176.471 115.409 176.772 115.485C176.897 115.518 177.011 115.55 177.136 115.583C177.478 115.67 177.509 115.811 177.53 116.083C177.551 116.333 177.727 116.431 177.945 116.365C178.132 116.311 178.319 116.257 178.496 116.202C178.901 116.072 178.786 116.018 178.631 115.67C178.568 115.529 178.506 115.387 178.444 115.257C178.298 114.931 178.07 114.92 177.759 114.898C177.198 114.855 176.741 114.8 176.139 114.518C175.962 114.431 175.817 114.181 176.066 114.072C176.191 114.018 176.315 113.963 176.44 113.92C176.637 113.746 176.835 113.561 177.032 113.387C177.302 113.148 177.447 113.072 177.769 113.344C178.485 113.942 179.088 114.529 179.596 115.116C179.659 115.007 179.7 114.844 179.7 114.703C179.586 114.637 179.586 114.55 179.524 114.453C179.441 114.105 179.451 113.724 179.492 113.377C179.524 113.148 179.679 113.159 179.866 113.235C180.448 113.474 180.915 114.094 180.406 114.572C180.271 114.703 180.115 114.789 179.949 114.855C179.929 114.985 179.897 115.116 179.877 115.246C179.835 115.485 179.825 115.409 179.96 115.594C180.468 116.268 180.645 116.887 180.988 117.713C181.403 118.713 181.247 118.681 180.375 119.126C180.126 119.257 179.596 119.452 179.306 119.474C179.119 119.485 178.942 119.496 178.755 119.507C178.517 119.517 178.506 119.702 178.568 119.822C178.61 119.909 178.662 119.941 178.911 119.887C179.7 119.735 180.666 119.55 181.309 119.8C181.382 119.822 181.393 119.963 181.268 120.028L181.154 120.094C182.929 120.572 184.248 122.256 184.248 124.267C184.248 126.648 182.41 128.571 180.136 128.571C177.862 128.571 176.025 126.648 176.025 124.267C176.025 124.213 176.025 124.159 176.025 124.115C175.89 124.506 175.765 124.887 175.672 125.289C175.474 126.093 175.09 126.767 174 126.778C171.643 126.8 168.861 126.93 166.545 126.691C166.037 126.637 165.912 126.604 166.016 126.115C166.13 125.811 166.712 125.017 166.743 124.735C166.784 124.419 166.795 124.343 166.442 124.495C166.13 124.615 165.85 124.767 165.549 124.908C165.258 126.995 163.545 128.593 161.479 128.593C159.205 128.593 157.367 126.669 157.367 124.289C157.409 121.876 159.246 119.941 161.52 119.941ZM177.977 122.583L178.517 123.322C178.371 123.604 178.298 123.919 178.298 124.256C178.298 125.343 179.139 126.235 180.188 126.235C181.226 126.235 182.078 125.354 182.078 124.256C182.078 123.169 181.237 122.278 180.188 122.278C179.949 122.278 179.721 122.322 179.513 122.409L179.254 121.583C179.544 121.474 179.866 121.409 180.188 121.409C181.694 121.409 182.908 122.68 182.908 124.256C182.908 125.832 181.694 127.104 180.188 127.104C178.683 127.104 177.468 125.832 177.468 124.256C177.458 123.626 177.655 123.05 177.977 122.583ZM163.275 122.083L162.091 122.974C161.915 122.887 161.728 122.843 161.52 122.843C160.773 122.843 160.17 123.474 160.17 124.256C160.17 125.039 160.773 125.669 161.52 125.669C162.257 125.669 162.86 125.039 162.87 124.267L164.22 123.887C164.23 124.006 164.24 124.137 164.24 124.256C164.24 125.832 163.026 127.104 161.52 127.104C160.015 127.104 158.8 125.832 158.8 124.256C158.8 122.68 160.015 121.409 161.52 121.409C162.195 121.409 162.808 121.659 163.275 122.083Z" fill="#D4E2FF"/>
<defs>
<linearGradient id="paint0_linear" x1="-6.54653" y1="-34.7213" x2="86.0489" y2="109.296" gradientUnits="userSpaceOnUse">
<stop offset="0.375" stop-color="#D1FCFF"/>
<stop offset="1" stop-color="white"/>
</linearGradient>
</defs>
</svg>
