<svg width="126" height="132" viewBox="0 0 126 132" fill="none" xmlns="http://www.w3.org/2000/svg">
<path d="M63 124.266C97.3107 124.266 125.125 96.4516 125.125 62.1409C125.125 27.8302 97.3107 0.0158691 63 0.0158691C28.6893 0.0158691 0.875 27.8302 0.875 62.1409C0.875 96.4516 28.6893 124.266 63 124.266Z" fill="#34A4B6"/>
<path d="M35.3352 30.2062H89.8227C91.5409 30.2062 93.1886 30.8887 94.4035 32.1036C95.6184 33.3185 96.3009 34.9662 96.3009 36.6843V123.714C96.3009 125.433 95.6184 127.08 94.4035 128.295C93.1886 129.51 91.5409 130.193 89.8227 130.193H35.3353C34.4846 130.193 33.6422 130.025 32.8562 129.699C32.0703 129.374 31.3561 128.897 30.7546 128.295C30.153 127.694 29.6759 126.98 29.3503 126.194C29.0247 125.408 28.8572 124.565 28.8572 123.714V36.6842C28.8572 34.9661 29.5397 33.3184 30.7545 32.1035C31.9694 30.8887 33.6171 30.2062 35.3352 30.2062V30.2062Z" fill="white"/>
<path d="M89.8227 31.9145C91.0878 31.9145 92.301 32.417 93.1955 33.3115C94.09 34.206 94.5925 35.4192 94.5925 36.6842V123.714C94.5925 124.979 94.09 126.193 93.1955 127.087C92.301 127.982 91.0878 128.484 89.8227 128.484H35.3352C34.0702 128.484 32.857 127.982 31.9625 127.087C31.068 126.193 30.5655 124.979 30.5655 123.714V36.6842C30.5655 35.4192 31.068 34.206 31.9625 33.3115C32.857 32.417 34.0702 31.9145 35.3352 31.9145H89.8227V31.9145ZM89.8227 28.4977H35.3352C30.8211 28.4977 27.1487 32.1701 27.1487 36.6842V123.714C27.1487 128.229 30.8211 131.901 35.3352 131.901H89.8227C94.3369 131.901 98.0094 128.229 98.0094 123.714V36.6842C98.0094 32.1701 94.3369 28.4977 89.8227 28.4977V28.4977Z" fill="#3C3C3C"/>
<g opacity="0.2">
<path opacity="0.2" d="M89.8228 31.9147H84.3664C84.4696 41.2051 87.2654 125.091 30.5656 122.287V123.715C30.5655 124.341 30.6889 124.961 30.9286 125.54C31.1683 126.119 31.5196 126.644 31.9626 127.087C32.4055 127.53 32.9313 127.882 33.51 128.121C34.0887 128.361 34.7089 128.484 35.3353 128.484H89.8228C90.4492 128.484 91.0694 128.361 91.6481 128.121C92.2268 127.882 92.7526 127.53 93.1955 127.087C93.6384 126.644 93.9898 126.119 94.2295 125.54C94.4692 124.961 94.5925 124.341 94.5925 123.715V36.6844C94.5925 35.4194 94.09 34.2062 93.1955 33.3117C92.301 32.4172 91.0878 31.9147 89.8228 31.9147V31.9147Z" fill="#3C3C3C"/>
</g>
<g opacity="0.2">
<path opacity="0.2" d="M42.7156 48.7161H81.6209C81.8018 48.7161 81.9808 48.7517 82.1479 48.8209C82.315 48.8901 82.4668 48.9915 82.5947 49.1194C82.7225 49.2473 82.824 49.3991 82.8932 49.5662C82.9624 49.7332 82.998 49.9123 82.998 50.0931V50.3912C82.998 50.5721 82.9624 50.7511 82.8932 50.9182C82.824 51.0853 82.7225 51.2371 82.5947 51.365C82.4668 51.4928 82.315 51.5943 82.1479 51.6635C81.9808 51.7327 81.8018 51.7683 81.6209 51.7683H42.7156C42.3504 51.7683 42.0001 51.6232 41.7418 51.365C41.4836 51.1067 41.3385 50.7564 41.3385 50.3912V50.0931C41.3385 49.7279 41.4836 49.3777 41.7418 49.1194C42.0001 48.8611 42.3504 48.7161 42.7156 48.7161Z" fill="#3C3C3C"/>
</g>
<g opacity="0.2">
<path opacity="0.2" d="M42.7156 55.4436H81.6209C81.8018 55.4436 81.9808 55.4792 82.1479 55.5484C82.315 55.6176 82.4668 55.7191 82.5947 55.8469C82.7225 55.9748 82.824 56.1266 82.8932 56.2937C82.9624 56.4608 82.998 56.6398 82.998 56.8207V57.1188C82.998 57.484 82.8529 57.8343 82.5947 58.0925C82.3364 58.3508 81.9861 58.4958 81.6209 58.4958H42.7156C42.3504 58.4958 42.0001 58.3508 41.7418 58.0925C41.4836 57.8343 41.3385 57.484 41.3385 57.1188V56.8207C41.3385 56.4555 41.4836 56.1052 41.7418 55.8469C42.0001 55.5887 42.3504 55.4436 42.7156 55.4436Z" fill="#3C3C3C"/>
</g>
<path d="M43.4762 65.7202H80.8602C81.7293 65.7202 82.5627 66.0654 83.1772 66.6799C83.7917 67.2944 84.137 68.1278 84.137 68.9969V79.2006C84.137 80.0696 83.7918 80.9031 83.1773 81.5175C82.5628 82.132 81.7294 82.4772 80.8604 82.4772H43.4762C42.6072 82.4772 41.7738 82.132 41.1593 81.5175C40.5448 80.903 40.1996 80.0696 40.1996 79.2006V68.9968C40.1996 68.5665 40.2843 68.1404 40.449 67.7429C40.6137 67.3453 40.855 66.9841 41.1593 66.6799C41.4635 66.3756 41.8248 66.1342 42.2223 65.9696C42.6198 65.8049 43.0459 65.7202 43.4762 65.7202Z" fill="white"/>
<path d="M80.8604 66.8591C81.4273 66.8591 81.9711 67.0843 82.372 67.4852C82.7728 67.8861 82.9981 68.4298 82.9981 68.9968V79.2006C82.9981 79.7676 82.7728 80.3113 82.372 80.7122C81.9711 81.1131 81.4273 81.3383 80.8604 81.3383H43.4763C43.1955 81.3383 42.9176 81.283 42.6582 81.1756C42.3988 81.0682 42.1632 80.9107 41.9647 80.7122C41.7662 80.5137 41.6087 80.278 41.5013 80.0187C41.3939 79.7593 41.3386 79.4814 41.3386 79.2006V68.9968C41.3386 68.7161 41.3939 68.4381 41.5013 68.1787C41.6087 67.9194 41.7662 67.6837 41.9647 67.4852C42.1632 67.2867 42.3988 67.1292 42.6582 67.0218C42.9176 66.9144 43.1955 66.8591 43.4763 66.8591H80.8604ZM80.8604 64.5812H43.4763C42.3056 64.5825 41.1832 65.0481 40.3554 65.8759C39.5276 66.7037 39.062 67.8261 39.0607 68.9968V79.2006C39.062 80.3713 39.5276 81.4937 40.3554 82.3215C41.1832 83.1493 42.3056 83.6149 43.4763 83.6162H80.8604C82.0311 83.6149 83.1534 83.1493 83.9812 82.3215C84.809 81.4937 85.2746 80.3713 85.2759 79.2006V68.9968C85.2746 67.8261 84.809 66.7037 83.9812 65.8759C83.1534 65.0481 82.0311 64.5825 80.8604 64.5812V64.5812Z" fill="#3C3C3C"/>
<path d="M48.7584 76.9538C50.3352 76.9538 51.6134 75.6755 51.6134 74.0988C51.6134 72.522 50.3352 71.2438 48.7584 71.2438C47.1817 71.2438 45.9034 72.522 45.9034 74.0988C45.9034 75.6755 47.1817 76.9538 48.7584 76.9538Z" fill="#F2221B"/>
<path d="M57.6982 76.9538C59.275 76.9538 60.5532 75.6755 60.5532 74.0988C60.5532 72.522 59.275 71.2438 57.6982 71.2438C56.1215 71.2438 54.8433 72.522 54.8433 74.0988C54.8433 75.6755 56.1215 76.9538 57.6982 76.9538Z" fill="#F2221B"/>
<path d="M66.6383 76.9538C68.215 76.9538 69.4932 75.6755 69.4932 74.0988C69.4932 72.522 68.215 71.2438 66.6383 71.2438C65.0615 71.2438 63.7833 72.522 63.7833 74.0988C63.7833 75.6755 65.0615 76.9538 66.6383 76.9538Z" fill="#F2221B"/>
<path d="M75.5782 76.9538C77.155 76.9538 78.4332 75.6755 78.4332 74.0988C78.4332 72.522 77.155 71.2438 75.5782 71.2438C74.0015 71.2438 72.7233 72.522 72.7233 74.0988C72.7233 75.6755 74.0015 76.9538 75.5782 76.9538Z" fill="#F2221B"/>
<path d="M46.48 107.135H77.8565C79.2201 107.135 80.5279 107.676 81.4921 108.641C82.4563 109.605 82.998 110.913 82.998 112.276V112.276C82.998 113.64 82.4563 114.948 81.4921 115.912C80.5279 116.876 79.2201 117.418 77.8565 117.418H46.48C45.1164 117.418 43.8086 116.876 42.8444 115.912C41.8802 114.948 41.3385 113.64 41.3385 112.276V112.276C41.3385 110.913 41.8802 109.605 42.8444 108.641C43.8086 107.676 45.1164 107.135 46.48 107.135V107.135Z" fill="#F2221B"/>
<path d="M77.8564 118.841H46.48C42.86 118.841 39.9148 115.896 39.9148 112.276C39.9148 108.656 42.86 105.711 46.48 105.711H77.8564C81.4766 105.711 84.4218 108.656 84.4218 112.276C84.4218 115.896 81.4766 118.841 77.8564 118.841ZM46.48 108.558C45.4939 108.558 44.5483 108.95 43.8511 109.647C43.1538 110.344 42.7621 111.29 42.7621 112.276C42.7621 113.262 43.1538 114.208 43.8511 114.905C44.5483 115.602 45.4939 115.994 46.48 115.994H77.8564C78.3447 115.994 78.8281 115.898 79.2792 115.711C79.7303 115.524 80.1401 115.25 80.4854 114.905C80.8306 114.56 81.1044 114.15 81.2913 113.699C81.4781 113.248 81.5743 112.764 81.5743 112.276C81.5743 111.788 81.4781 111.304 81.2913 110.853C81.1044 110.402 80.8306 109.992 80.4854 109.647C80.1401 109.302 79.7303 109.028 79.2792 108.841C78.8281 108.654 78.3447 108.558 77.8564 108.558H46.48Z" fill="#3C3C3C"/>
<g opacity="0.6">
<path opacity="0.6" d="M43.5122 113.026C43.5133 112.04 43.9054 111.095 44.6024 110.398C45.2994 109.701 46.2444 109.309 47.2301 109.308H78.6065C79.4087 109.308 80.189 109.57 80.8294 110.053C80.4844 109.59 80.036 109.213 79.5199 108.954C79.0038 108.694 78.4342 108.559 77.8565 108.558H46.4801C45.6993 108.557 44.9381 108.802 44.3047 109.259C43.6712 109.715 43.1978 110.36 42.9516 111.101C42.7054 111.842 42.6991 112.641 42.9335 113.386C43.1678 114.131 43.631 114.783 44.2571 115.249C43.774 114.609 43.5125 113.828 43.5122 113.026V113.026Z" fill="white"/>
</g>
<g opacity="0.5">
<path opacity="0.5" d="M42.7156 40.4955H81.6209C81.8018 40.4955 81.9808 40.5311 82.1479 40.6003C82.315 40.6695 82.4668 40.7709 82.5947 40.8988C82.7225 41.0267 82.824 41.1785 82.8932 41.3456C82.9624 41.5127 82.998 41.6917 82.998 41.8726V43.0449C82.998 43.2257 82.9624 43.4048 82.8932 43.5719C82.824 43.739 82.7225 43.8908 82.5947 44.0187C82.4668 44.1465 82.315 44.248 82.1479 44.3172C81.9808 44.3864 81.8018 44.422 81.6209 44.422H42.7156C42.3504 44.422 42.0001 44.2769 41.7418 44.0187C41.4836 43.7604 41.3385 43.4101 41.3385 43.0449V41.8726C41.3385 41.5073 41.4836 41.1571 41.7418 40.8988C42.0001 40.6406 42.3504 40.4955 42.7156 40.4955V40.4955Z" fill="#3C3C3C"/>
</g>
<g opacity="0.2">
<path opacity="0.2" d="M42.7156 97.2893H81.6209C81.8018 97.2893 81.9808 97.3249 82.1479 97.3941C82.315 97.4633 82.4668 97.5648 82.5947 97.6927C82.7225 97.8205 82.824 97.9723 82.8932 98.1394C82.9624 98.3065 82.998 98.4856 82.998 98.6664V98.6664C82.998 99.0316 82.8529 99.3819 82.5947 99.6402C82.3364 99.8984 81.9861 100.043 81.6209 100.043H42.7156C42.3504 100.043 42.0001 99.8984 41.7418 99.6402C41.4836 99.3819 41.3385 99.0316 41.3385 98.6664V98.6664C41.3385 98.3012 41.4836 97.9509 41.7418 97.6927C42.0001 97.4344 42.3504 97.2893 42.7156 97.2893Z" fill="#3C3C3C"/>
</g>
<g opacity="0.2">
<path opacity="0.2" d="M42.7156 89.8715H81.6209C81.8018 89.8715 81.9808 89.9071 82.1479 89.9763C82.315 90.0455 82.4668 90.1469 82.5947 90.2748C82.7225 90.4027 82.824 90.5545 82.8932 90.7216C82.9624 90.8886 82.998 91.0677 82.998 91.2485V92.0375C82.998 92.4027 82.8529 92.7529 82.5947 93.0112C82.3364 93.2695 81.9861 93.4145 81.6209 93.4145H42.7156C42.3504 93.4145 42.0001 93.2695 41.7418 93.0112C41.4836 92.7529 41.3385 92.4027 41.3385 92.0375V91.2485C41.3385 91.0677 41.3741 90.8886 41.4433 90.7216C41.5125 90.5545 41.614 90.4027 41.7418 90.2748C41.8697 90.1469 42.0215 90.0455 42.1886 89.9763C42.3557 89.9071 42.5347 89.8715 42.7156 89.8715Z" fill="#3C3C3C"/>
</g>
<path d="M93.2933 18.228C92.8403 18.228 92.4057 18.048 92.0853 17.7276C91.765 17.4073 91.585 16.9727 91.585 16.5197V5.26587C91.585 4.81278 91.765 4.37825 92.0853 4.05787C92.4057 3.73749 92.8403 3.5575 93.2933 3.5575C93.7464 3.5575 94.181 3.73749 94.5014 4.05787C94.8217 4.37825 95.0017 4.81278 95.0017 5.26587V16.5197C95.0017 16.9727 94.8217 17.4073 94.5013 17.7276C94.181 18.048 93.7464 18.228 93.2933 18.228V18.228Z" fill="#3C3C3C"/>
<path d="M105.754 25.6163C105.416 25.6163 105.086 25.5161 104.805 25.3283C104.524 25.1406 104.305 24.8738 104.176 24.5616C104.047 24.2495 104.013 23.906 104.079 23.5746C104.145 23.2432 104.307 22.9388 104.546 22.6999L112.504 14.7422C112.662 14.5835 112.851 14.4575 113.058 14.3716C113.265 14.2856 113.488 14.2414 113.712 14.2413C113.936 14.2413 114.159 14.2855 114.366 14.3713C114.573 14.4572 114.762 14.583 114.92 14.7417C115.079 14.9004 115.205 15.0888 115.291 15.2961C115.377 15.5034 115.421 15.7257 115.421 15.9501C115.421 16.1745 115.376 16.3967 115.29 16.604C115.205 16.8113 115.079 16.9996 114.92 17.1582L106.962 25.1159C106.804 25.2748 106.615 25.4008 106.408 25.4866C106.201 25.5725 105.979 25.6166 105.754 25.6163Z" fill="#3C3C3C"/>
<path d="M122.627 39.3596H111.373C110.92 39.3596 110.486 39.1796 110.165 38.8592C109.845 38.5389 109.665 38.1043 109.665 37.6512C109.665 37.1982 109.845 36.7636 110.165 36.4432C110.486 36.1229 110.92 35.9429 111.373 35.9429H122.627C123.08 35.9429 123.515 36.1229 123.835 36.4432C124.155 36.7636 124.335 37.1982 124.335 37.6512C124.335 38.1043 124.155 38.5389 123.835 38.8592C123.515 39.1796 123.08 39.3596 122.627 39.3596V39.3596Z" fill="#3C3C3C"/>
</svg>
