<svg width="325" height="260" viewBox="0 0 325 260" fill="none" xmlns="http://www.w3.org/2000/svg">
<path d="M162.5 260C252.246 260 325 256.774 325 252.794C325 248.814 252.246 245.588 162.5 245.588C72.7537 245.588 0 248.814 0 252.794C0 256.774 72.7537 260 162.5 260Z" fill="#F7F7FF"/>
<path d="M225.695 41.9401C228.295 35.0942 235.878 33.1485 242.522 34.7339C251.767 36.9678 257.039 45.0388 261.733 52.6773C265.272 58.3702 269.1 64.2793 274.878 67.6663C279.5 70.3326 284.989 71.1252 289.756 73.5033C294.522 75.8813 298.783 80.9977 297.339 86.1141C295.678 92.0953 287.95 93.7527 281.739 93.3204C271.411 92.6718 261.372 89.429 252.489 84.1685C240.428 77.1784 219.483 58.1541 225.695 41.9401Z" fill="#F7F7FF"/>
<path d="M305.861 229.374C291.922 245.011 269.317 252.289 248.806 247.822C232.989 244.363 219.267 234.562 203.956 229.374C182.433 222.095 159.033 223.969 136.572 221.014C99.1612 216.042 63.2668 196.153 42.2501 164.878C21.2334 133.603 16.6834 91.0144 33.8723 57.5056C40.9501 43.6696 53.4445 32.2838 65.7223 23.7084C90.8556 5.98118 122.272 -0.576473 152.245 6.41355C159.467 8.07098 165.606 10.377 169.433 13.1874C182.65 22.9158 192.4 36.4634 201.356 50.1552C210.311 63.847 218.833 78.0433 230.317 89.7173C244.4 104.13 262.311 114.074 278.778 125.676C295.245 137.35 311.061 151.691 317.633 170.715C324.422 190.46 319.8 213.736 305.861 229.374Z" fill="#F7F7FF"/>
<path d="M309.111 150.754H308.533C308.533 149.745 308.605 148.736 308.605 147.727H309.183C309.183 148.736 309.111 149.745 309.111 150.754ZM308.533 144.701C308.533 143.692 308.461 142.683 308.389 141.674H308.894C308.966 142.683 309.039 143.692 309.039 144.701H308.533ZM308.172 138.647C308.1 137.783 308.028 136.918 307.883 136.053L307.811 135.621L308.316 135.549L308.389 135.909C308.533 136.846 308.605 137.711 308.678 138.575L308.172 138.647ZM279.428 134.18C279.283 134.18 279.211 134.18 279.066 134.18C278.633 134.18 278.2 134.108 277.766 134.036L277.839 133.531C278.2 133.603 278.633 133.675 279.066 133.675C279.644 133.675 280.222 133.675 280.8 133.603L280.872 134.108C280.439 134.18 279.933 134.18 279.428 134.18ZM283.905 133.387L283.761 132.883C284.628 132.594 285.494 132.234 286.578 131.73L286.794 132.234C285.711 132.738 284.844 133.099 283.905 133.387ZM274.878 133.027C273.939 132.45 273.072 131.802 272.494 131.009L272.928 130.649C273.505 131.369 274.228 132.018 275.166 132.522L274.878 133.027ZM307.233 132.738C306.944 131.874 306.583 131.081 306.15 130.432C306.078 130.36 306.005 130.216 305.933 130.144L306.366 129.784C306.439 129.928 306.511 130 306.655 130.144C307.161 130.865 307.522 131.657 307.811 132.594L307.233 132.738ZM289.466 130.865L289.25 130.36L289.394 130.288C290.261 129.856 291.128 129.351 291.994 128.991L292.211 129.496C291.344 129.928 290.478 130.36 289.611 130.793L289.466 130.865ZM303.622 128.415C302.755 127.982 301.816 127.766 300.805 127.622L300.878 127.118C301.961 127.262 302.972 127.55 303.839 127.982L303.622 128.415ZM294.955 128.343L294.739 127.838C295.678 127.478 296.544 127.262 297.411 127.118C297.483 127.118 297.628 127.118 297.7 127.045L297.772 127.55C297.7 127.55 297.555 127.55 297.483 127.622C296.689 127.838 295.894 128.054 294.955 128.343ZM271.339 128.126C271.266 127.838 271.266 127.55 271.266 127.19C271.266 126.541 271.339 125.892 271.483 125.028L271.989 125.1C271.844 125.892 271.772 126.613 271.772 127.19C271.772 127.478 271.772 127.766 271.844 128.054L271.339 128.126ZM272.566 122.145L272.061 122.073V122.001C272.133 121.569 272.133 121.064 272.133 120.632C272.133 120.128 272.061 119.623 271.989 119.119L272.494 119.047C272.566 119.551 272.639 120.055 272.639 120.632C272.639 121.136 272.566 121.569 272.494 122.073L272.566 122.145ZM270.689 116.669C270.544 116.524 270.328 116.452 270.183 116.308C269.461 115.948 268.666 115.876 268.016 115.876V115.299C268.739 115.299 269.605 115.371 270.4 115.804C270.616 115.948 270.833 116.02 271.05 116.236L270.689 116.669ZM264.983 115.876C264.189 115.804 263.611 115.516 263.105 115.155C262.816 114.939 262.528 114.579 262.311 114.218L262.744 113.93C262.961 114.218 263.178 114.507 263.394 114.723C263.828 115.083 264.333 115.227 265.055 115.299L264.983 115.876ZM262.239 111.192L261.733 111.12C261.878 110.111 262.239 109.174 262.672 108.165L263.178 108.381C262.744 109.39 262.383 110.255 262.239 111.192ZM264.117 105.499L263.611 105.355C263.9 104.418 264.044 103.409 264.189 102.4L264.694 102.472C264.622 103.553 264.405 104.562 264.117 105.499ZM264.333 99.4457C264.333 98.4368 264.189 97.428 264.044 96.4912L264.55 96.4191C264.694 97.428 264.839 98.4368 264.839 99.4457H264.333Z" fill="#C5C2F2"/>
<path d="M274.661 80.2772V94.041C274.661 95.6985 273.289 97.0676 271.628 97.0676H257.833C256.172 97.0676 254.8 95.6985 254.8 94.041V80.2772C254.8 78.6197 256.172 77.2506 257.833 77.2506H271.628C273.289 77.2506 274.661 78.6197 274.661 80.2772Z" fill="#E1E0FF"/>
<path d="M264.767 80.4213C262.383 80.4213 260.433 82.367 260.433 84.745C260.433 87.1231 264.767 93.8969 264.767 93.8969C264.767 93.8969 269.1 87.1231 269.1 84.745C269.1 82.367 267.15 80.4213 264.767 80.4213ZM264.261 86.6907C263.394 86.5466 262.672 85.7539 262.528 84.8891C262.311 83.4479 263.394 82.2949 264.767 82.2949C265.994 82.2949 267.006 83.3038 267.006 84.5288C267.006 85.898 265.706 86.9789 264.261 86.6907Z" fill="#E8468A"/>
<path d="M317.561 150.898V164.662C317.561 166.319 316.189 167.689 314.528 167.689H300.733C299.072 167.689 297.7 166.319 297.7 164.662V150.898C297.7 149.241 299.072 147.871 300.733 147.871H314.528C316.261 147.871 317.561 149.241 317.561 150.898Z" fill="#E1E0FF"/>
<path d="M307.667 151.042C305.283 151.042 303.333 152.988 303.333 155.366C303.333 157.744 307.667 164.518 307.667 164.518C307.667 164.518 312 157.744 312 155.366C312 152.988 310.05 151.042 307.667 151.042ZM307.161 157.312C306.295 157.167 305.572 156.375 305.428 155.51C305.211 154.069 306.295 152.916 307.667 152.916C308.895 152.916 309.906 153.925 309.906 155.15C309.906 156.519 308.606 157.6 307.161 157.312Z" fill="#5731EB"/>
<path d="M237.394 12.1064V238.525C237.394 245.227 231.978 250.632 225.261 250.632H118.083C111.367 250.632 105.95 245.227 105.95 238.525V12.1064C105.95 5.40466 111.367 0 118.083 0H225.261C231.978 0 237.394 5.40466 237.394 12.1064Z" fill="#0E0063"/>
<path d="M233.639 19.4568V231.103C233.639 235.715 229.883 239.39 225.261 239.39H118.083C113.461 239.39 109.778 235.643 109.778 231.103V19.4568C109.778 14.8448 113.533 11.0976 118.083 11.0976H225.261C229.883 11.1696 233.639 14.9169 233.639 19.4568Z" fill="#F7F7FF"/>
<path d="M167.121 95.1977C165.388 95.1977 164.015 96.5669 164.015 98.2964V122.87C164.015 124.599 165.388 125.968 167.121 125.968H196.371V95.1977H167.121Z" fill="#1A1A1A"/>
<path d="M196.3 109.61H163.944V111.628H196.3V109.61Z" fill="url(#paint0_linear)"/>
<path d="M196.3 109.61H163.944V111.628H196.3V109.61Z" fill="white"/>
<path d="M188.211 100.891H173.044V102.908H188.211V100.891Z" fill="white"/>
<path d="M196.372 118.402H173.044V120.419H196.372V118.402Z" fill="white"/>
<path d="M188.789 95.1977H187.055V126.04H188.789V95.1977Z" fill="white"/>
<path d="M173.333 95.1977H171.6V126.04H173.333V95.1977Z" fill="white"/>
<path d="M248.3 95.1977H196.3V126.04H248.3C250.033 126.04 251.406 124.671 251.406 122.942V98.3684C251.478 96.639 250.033 95.1977 248.3 95.1977Z" fill="url(#paint1_linear)"/>
<path d="M203.45 104.638C202.727 104.638 202.222 104.061 202.222 103.413C202.222 103.052 202.366 102.764 202.583 102.548C202.8 102.332 203.161 102.188 203.45 102.188H244.4C245.122 102.188 245.627 102.764 245.627 103.413C245.627 103.773 245.483 104.061 245.266 104.278C245.05 104.494 244.689 104.638 244.4 104.638H203.45Z" fill="white"/>
<path d="M203.45 121.212C202.727 121.212 202.222 120.636 202.222 119.987C202.222 119.627 202.366 119.338 202.583 119.122C202.8 118.906 203.161 118.762 203.45 118.762H218.327C219.05 118.762 219.555 119.338 219.555 119.987C219.555 120.347 219.411 120.636 219.194 120.852C218.977 121.068 218.616 121.212 218.327 121.212H203.45Z" fill="white"/>
<path d="M203.45 112.925C202.727 112.925 202.222 112.348 202.222 111.7C202.222 111.34 202.366 111.051 202.583 110.835C202.8 110.619 203.161 110.475 203.45 110.475H230.461C231.183 110.475 231.689 111.051 231.689 111.7C231.689 112.06 231.544 112.348 231.327 112.565C231.111 112.781 230.75 112.925 230.461 112.925H203.45Z" fill="white"/>
<path d="M180.916 82.4427C175.716 82.2986 171.455 86.4061 171.455 91.5946C171.455 97.4316 177.089 101.683 180.194 107.809C180.339 108.097 180.772 108.097 180.989 107.809C183.805 102.332 188.716 98.6567 189.583 93.3241C190.522 87.8474 186.478 82.6589 180.916 82.4427ZM180.628 96.3507C177.955 96.3507 175.861 94.1888 175.861 91.5946C175.861 89.0004 178.028 86.8385 180.628 86.8385C183.3 86.8385 185.394 89.0004 185.394 91.5946C185.394 94.1888 183.228 96.3507 180.628 96.3507Z" fill="url(#paint2_linear)"/>
<path d="M298.928 235.066H265.922L271.339 252.65C271.556 253.37 272.278 253.875 273 253.875H291.778C292.572 253.875 293.222 253.37 293.439 252.65L298.928 235.066Z" fill="#FFA6BB"/>
<path d="M300.372 235.066H264.478C264.189 235.066 263.9 234.778 263.9 234.49V230.887C263.9 230.599 264.189 230.31 264.478 230.31H300.372C300.661 230.31 300.95 230.599 300.95 230.887V234.49C300.95 234.85 300.661 235.066 300.372 235.066Z" fill="#FFA6BB"/>
<path d="M298.928 235.066L269.317 246.02L265.922 235.066H298.928Z" fill="#F58EA2"/>
<path d="M278.85 217.195C278.994 218.204 279.211 219.069 279.428 219.861C279.933 221.375 280.511 222.528 281.161 223.536C281.233 223.609 281.306 223.681 281.306 223.825C281.956 224.834 282.678 225.915 283.544 226.995C284.411 228.076 285.278 229.085 286.433 230.022C286.578 230.166 286.794 230.31 286.939 230.454H289.972C289.033 228.941 288.383 227.284 287.878 225.554C287.589 224.617 287.3 223.753 287.083 222.816C286.722 221.519 286.361 220.222 286.144 218.925C285.783 216.763 286.289 214.601 287.444 212.727C288.528 210.854 290.117 209.124 291.633 207.395C294.667 203.864 297.628 200.188 299.722 195.865C300.733 193.703 301.528 191.469 301.961 189.091C302.322 186.929 302.394 184.623 302.033 182.461C302.033 182.317 301.961 182.173 301.961 182.029L301.094 182.173C300.733 182.821 300.517 183.398 300.156 183.902C299.867 184.479 299.578 184.983 299.289 185.488C298.639 186.497 298.061 187.361 297.411 188.226C296.183 189.956 294.883 191.397 293.583 192.838C290.983 195.721 288.167 198.387 285.206 201.702C284.483 202.566 283.617 203.503 282.822 204.656C282.028 205.809 281.089 207.106 280.367 208.692C279.644 210.277 278.994 212.151 278.778 214.168C278.706 215.105 278.633 216.114 278.778 217.051C278.85 217.051 278.85 217.123 278.85 217.195Z" fill="#53B0A6"/>
<path d="M302.033 189.091C301.6 191.397 300.806 193.703 299.795 195.865C297.7 200.116 294.739 203.864 291.706 207.395C290.189 209.124 288.6 210.781 287.517 212.727C286.361 214.601 285.856 216.763 286.217 218.925C286.433 220.222 286.722 221.519 287.156 222.816C285.206 223.32 283.183 223.609 281.161 223.609C279.717 223.609 278.272 223.464 276.828 223.104C277.478 221.086 278.128 219.069 278.85 217.123C279.717 214.817 280.8 212.511 282.245 210.493C284.7 206.962 288.095 204.152 291.2 201.125C292.933 199.396 294.595 197.594 296.039 195.721C298.567 192.334 300.517 188.586 301.456 184.407C301.6 183.758 301.817 183.182 302.106 182.533C302.467 184.623 302.395 186.929 302.033 189.091Z" fill="#47A093"/>
<path d="M278.272 230.382H282.822C282.967 227.932 282.172 225.626 281.161 223.825C279.645 221.158 277.478 219.285 275.311 217.988C275.022 217.844 274.806 217.699 274.517 217.555C273.65 217.123 272.856 216.763 271.917 216.546C270.689 216.186 269.317 215.898 267.8 215.826C266.283 215.754 264.55 215.898 262.889 216.474C262.022 216.763 261.228 217.123 260.506 217.772C260.145 218.06 259.783 218.348 259.422 218.708C259.133 219.069 258.845 219.429 258.556 219.861L258.7 220.726C260.867 220.51 263.033 221.231 265.056 222.167C267.078 223.104 269.1 224.257 271.05 225.41C273.072 226.491 274.95 227.716 276.756 229.085C277.333 229.518 277.839 229.95 278.272 230.382Z" fill="#53B0A6"/>
<path d="M278.633 228.509C278.778 229.157 278.922 229.734 278.994 230.382H282.822C282.967 227.932 282.172 225.626 281.161 223.825C279.644 221.158 277.478 219.285 275.311 217.988C275.022 217.844 274.805 217.699 274.517 217.555C275.528 219.357 276.394 221.231 277.044 223.032C277.839 225.266 278.344 226.923 278.633 228.509Z" fill="#3E9385"/>
<path d="M279.861 228.221C280.005 228.941 280.15 229.662 280.294 230.382H283.472C284.7 227.212 284.989 223.753 284.7 220.438C284.267 215.826 282.461 211.43 279.861 207.683C277.261 203.864 273.578 200.765 269.389 198.819C268.378 198.315 267.222 197.882 266.139 197.594C265.055 197.234 263.828 197.018 262.6 196.801C261.3 196.657 260 196.585 258.628 196.874C257.978 197.018 257.328 197.162 256.678 197.45C256.028 197.738 255.522 198.099 255.017 198.531L255.089 199.396C256.967 199.252 258.772 199.972 260.361 200.909C261.155 201.341 262.022 201.846 262.744 202.422C263.539 202.999 264.333 203.503 265.055 204.152C268.017 206.602 270.689 209.412 272.855 212.583C275.094 215.682 276.972 219.069 278.272 222.672C278.922 224.473 279.5 226.347 279.861 228.221Z" fill="#53B0A6"/>
<path d="M279.861 228.221C280.078 228.941 280.15 229.662 280.294 230.382H283.472C284.483 227.716 284.917 224.834 284.772 222.095C283.978 220.582 283.039 219.069 282.1 217.699C279.933 214.529 277.261 211.718 274.3 209.268C271.411 206.746 268.161 204.656 264.622 203.071C263.756 202.639 262.889 202.35 262.022 201.99C262.239 202.134 262.456 202.278 262.672 202.494C263.467 203.071 264.261 203.575 264.983 204.224C267.944 206.674 270.617 209.484 272.783 212.655C275.022 215.754 276.9 219.141 278.2 222.744C278.922 224.473 279.5 226.347 279.861 228.221Z" fill="#47A093"/>
<path d="M315.467 211.214C314.311 210.854 313.228 210.565 312.289 210.277C311.278 209.989 310.339 209.773 309.328 209.556C307.45 209.124 305.572 208.836 303.55 208.692C301.528 208.548 299.433 208.692 297.267 209.124C296.111 209.34 295.028 209.701 293.872 210.061C292.717 210.493 291.633 211.07 290.478 211.718C286.072 214.313 282.822 218.492 281.306 223.104C280.583 225.482 280.294 228.004 280.583 230.454H285.422C285.928 229.157 286.506 227.86 287.3 226.635C289.178 223.537 291.778 220.942 294.883 219.141C297.917 217.267 301.528 216.258 305.139 215.466C306.944 215.033 308.75 214.601 310.628 214.096C312.433 213.52 314.239 212.871 315.972 212.079L315.467 211.214Z" fill="#53B0A6"/>
<path d="M315.467 211.214C311.928 211.214 308.461 211.43 304.994 211.862C299.144 212.511 293.078 213.808 288.6 217.627C285.783 220.078 283.833 223.464 282.894 227.14C282.606 228.221 282.461 229.301 282.389 230.454H285.35C285.856 229.157 286.433 227.86 287.228 226.635C289.106 223.537 291.706 220.942 294.811 219.141C297.844 217.267 301.456 216.258 305.067 215.466C306.872 215.033 308.678 214.601 310.556 214.096C312.361 213.52 314.167 212.871 315.9 212.079L315.467 211.214Z" fill="#47A093"/>
<path d="M292.355 197.09C292.427 197.234 292.5 197.378 292.5 197.594C292.5 198.027 292.138 198.387 291.705 198.387C291.561 198.387 291.416 198.387 291.344 198.315C291.488 198.531 291.705 198.675 291.994 198.675C292.427 198.675 292.788 198.315 292.788 197.882C292.788 197.522 292.572 197.234 292.355 197.09Z" fill="#3E9385"/>
<path d="M292.5 197.594C292.5 197.45 292.428 197.234 292.355 197.09C292.211 197.018 292.139 197.018 291.994 197.018C291.561 197.018 291.2 197.378 291.2 197.81C291.2 197.954 291.272 198.171 291.344 198.315C291.489 198.387 291.561 198.387 291.705 198.387C292.139 198.387 292.5 198.027 292.5 197.594Z" fill="#47A093"/>
<path d="M268.594 203.431C268.667 203.575 268.739 203.719 268.739 203.936C268.739 204.368 268.378 204.728 267.944 204.728C267.8 204.728 267.655 204.728 267.583 204.656C267.728 204.872 267.944 205.017 268.233 205.017C268.667 205.017 269.028 204.656 269.028 204.224C269.028 203.791 268.811 203.575 268.594 203.431Z" fill="#3E9385"/>
<path d="M268.739 203.864C268.739 203.719 268.667 203.503 268.595 203.359C268.45 203.287 268.378 203.287 268.233 203.287C267.8 203.287 267.439 203.647 267.439 204.08C267.439 204.224 267.511 204.44 267.583 204.584C267.728 204.656 267.8 204.656 267.945 204.656C268.378 204.656 268.739 204.296 268.739 203.864Z" fill="#47A093"/>
<path d="M277.189 208.043C277.261 208.187 277.333 208.331 277.333 208.548C277.333 208.98 276.972 209.34 276.539 209.34C276.394 209.34 276.25 209.34 276.177 209.268C276.322 209.484 276.539 209.629 276.827 209.629C277.261 209.629 277.622 209.268 277.622 208.836C277.55 208.403 277.405 208.187 277.189 208.043Z" fill="#3E9385"/>
<path d="M277.333 208.476C277.333 208.331 277.261 208.115 277.189 207.971C277.045 207.899 276.972 207.899 276.828 207.899C276.395 207.899 276.033 208.259 276.033 208.692C276.033 208.836 276.106 209.052 276.178 209.196C276.322 209.268 276.395 209.268 276.539 209.268C276.972 209.268 277.333 208.98 277.333 208.476Z" fill="#47A093"/>
<path d="M286.65 216.979C286.722 217.123 286.794 217.267 286.794 217.483C286.794 217.916 286.433 218.276 286 218.276C285.855 218.276 285.711 218.276 285.639 218.204C285.783 218.42 286 218.564 286.289 218.564C286.722 218.564 287.083 218.204 287.083 217.772C287.083 217.339 286.939 217.051 286.65 216.979Z" fill="#3E9385"/>
<path d="M286.867 217.411C286.867 217.267 286.794 217.051 286.722 216.907C286.578 216.835 286.506 216.835 286.361 216.835C285.928 216.835 285.567 217.195 285.567 217.627C285.567 217.772 285.639 217.988 285.711 218.132C285.856 218.204 285.928 218.204 286.072 218.204C286.506 218.204 286.867 217.844 286.867 217.411Z" fill="#47A093"/>
<path d="M269.894 220.87C269.966 221.014 270.039 221.158 270.039 221.375C270.039 221.807 269.678 222.167 269.244 222.167C269.1 222.167 268.955 222.167 268.883 222.095C269.028 222.311 269.244 222.456 269.533 222.456C269.966 222.456 270.328 222.095 270.328 221.663C270.328 221.303 270.183 221.014 269.894 220.87Z" fill="#3E9385"/>
<path d="M270.039 221.375C270.039 221.231 269.967 221.014 269.895 220.87C269.75 220.798 269.678 220.798 269.533 220.798C269.1 220.798 268.739 221.158 268.739 221.591C268.739 221.735 268.811 221.951 268.883 222.095C269.028 222.167 269.1 222.167 269.245 222.167C269.678 222.167 270.039 221.807 270.039 221.375Z" fill="#47A093"/>
<path d="M168 60.0999H125.895C116.867 60.8926 120.695 26.3748 120.695 26.3748H164.317C161.356 44.6065 168 60.0999 168 60.0999Z" fill="#C5C2F2"/>
<path d="M169.806 58.6586H127.701C118.745 59.4513 120.695 26.3748 120.695 26.3748H164.317C162.295 43.8138 169.806 58.6586 169.806 58.6586Z" fill="#E1E0FF"/>
<path d="M164.245 20.826H120.623V26.3748H164.245V20.826Z" fill="#F6DA53"/>
<path d="M171.539 57.2895H129.434C120.551 58.0101 120.623 26.3749 120.623 26.3749H164.245C163.234 43.0933 171.539 57.2895 171.539 57.2895Z" fill="white"/>
<path d="M127.556 23.9248C127.412 23.9248 127.267 23.7806 127.267 23.6365C127.267 23.4924 127.412 23.3483 127.556 23.3483C128.062 23.3483 128.567 23.1321 128.928 22.7718C129.289 22.4115 129.434 21.907 129.434 21.3305C129.362 20.3937 128.639 19.6731 127.701 19.601C127.628 19.601 127.556 19.601 127.556 19.601C126.762 19.601 126.112 20.0334 125.823 20.754L125.751 20.8981H125.101L125.173 20.682C125.534 19.6731 126.473 19.0245 127.556 19.0245C127.628 19.0245 127.701 19.0245 127.773 19.0245C128.928 19.0966 129.867 20.0334 130.012 21.1864C130.084 21.907 129.867 22.6276 129.362 23.1321C128.928 23.6365 128.206 23.9248 127.556 23.9248Z" fill="black"/>
<path d="M134.273 23.9248C134.128 23.9248 133.984 23.7807 133.984 23.6365C133.984 23.4924 134.128 23.3483 134.273 23.3483C134.778 23.3483 135.284 23.1321 135.645 22.7718C136.006 22.4115 136.151 21.907 136.151 21.3306C136.078 20.3937 135.356 19.6731 134.417 19.6011C134.345 19.6011 134.273 19.6011 134.273 19.6011C133.478 19.6011 132.828 20.0334 132.54 20.7541L132.467 20.8982H131.817L131.89 20.682C132.251 19.6731 133.19 19.0246 134.273 19.0246C134.345 19.0246 134.417 19.0246 134.49 19.0246C135.645 19.0966 136.584 20.0334 136.728 21.1864C136.801 21.907 136.584 22.6277 136.078 23.1321C135.645 23.6365 134.995 23.9248 134.273 23.9248Z" fill="black"/>
<path d="M141.062 23.9248C140.917 23.9248 140.773 23.7807 140.773 23.6365C140.773 23.4924 140.917 23.3483 141.062 23.3483C141.567 23.3483 142.073 23.1321 142.434 22.7718C142.795 22.4115 142.939 21.907 142.939 21.3306C142.867 20.3937 142.145 19.6731 141.206 19.6011C141.134 19.6011 141.062 19.6011 141.062 19.6011C140.267 19.6011 139.617 20.0334 139.328 20.7541L139.256 20.8982H138.606L138.678 20.682C139.039 19.6731 139.978 19.0246 141.062 19.0246C141.134 19.0246 141.206 19.0246 141.278 19.0246C142.434 19.0966 143.373 20.0334 143.517 21.1864C143.589 21.907 143.373 22.6277 142.867 23.1321C142.434 23.6365 141.712 23.9248 141.062 23.9248Z" fill="black"/>
<path d="M147.778 23.9248C147.634 23.9248 147.489 23.7807 147.489 23.6365C147.489 23.4924 147.634 23.3483 147.778 23.3483C148.284 23.3483 148.789 23.1321 149.151 22.7718C149.512 22.4115 149.656 21.907 149.656 21.3306C149.584 20.3937 148.862 19.6731 147.923 19.6011C147.851 19.6011 147.778 19.6011 147.778 19.6011C146.984 19.6011 146.334 20.0334 146.045 20.7541L145.973 20.8982H145.323L145.395 20.682C145.756 19.6731 146.695 19.0246 147.778 19.0246C147.851 19.0246 147.923 19.0246 147.995 19.0246C149.151 19.0966 150.089 20.0334 150.234 21.1864C150.306 21.907 150.089 22.6277 149.584 23.1321C149.151 23.6365 148.501 23.9248 147.778 23.9248Z" fill="black"/>
<path d="M154.567 23.9248C154.423 23.9248 154.278 23.7807 154.278 23.6365C154.278 23.4924 154.423 23.3483 154.567 23.3483C155.073 23.3483 155.578 23.1321 155.939 22.7718C156.3 22.4115 156.445 21.907 156.445 21.3306C156.373 20.3937 155.65 19.6731 154.712 19.6011C154.639 19.6011 154.567 19.6011 154.567 19.6011C153.773 19.6011 153.123 20.0334 152.834 20.7541L152.762 20.8982H152.112L152.184 20.682C152.545 19.6731 153.484 19.0246 154.567 19.0246C154.639 19.0246 154.712 19.0246 154.784 19.0246C155.939 19.0966 156.878 20.0334 157.023 21.1864C157.095 21.907 156.878 22.6277 156.373 23.1321C155.939 23.6365 155.217 23.9248 154.567 23.9248Z" fill="black"/>
<path d="M161.284 23.9248C161.139 23.9248 160.995 23.7807 160.995 23.6365C160.995 23.4924 161.139 23.3483 161.284 23.3483C161.789 23.3483 162.295 23.1321 162.656 22.7718C163.017 22.4115 163.162 21.907 163.162 21.3306C163.089 20.3937 162.367 19.6731 161.428 19.6011C161.356 19.6011 161.284 19.6011 161.284 19.6011C160.489 19.6011 159.839 20.0334 159.551 20.7541L159.478 20.8982H158.828L158.901 20.682C159.262 19.6731 160.201 19.0246 161.284 19.0246C161.356 19.0246 161.428 19.0246 161.501 19.0246C162.656 19.0966 163.595 20.0334 163.739 21.1864C163.812 21.907 163.595 22.6277 163.089 23.1321C162.656 23.6365 162.006 23.9248 161.284 23.9248Z" fill="black"/>
<path d="M144.673 36.2474C144.673 38.121 144.24 39.7784 142.29 39.7784C140.34 39.7784 139.906 38.121 139.906 36.1753C139.906 34.3738 140.267 32.5722 142.29 32.5722C144.384 32.5722 144.673 34.5899 144.673 36.2474ZM142.29 33.1487C140.917 33.1487 140.556 34.7341 140.556 36.2474C140.556 38.0489 140.99 39.274 142.29 39.274C143.806 39.274 144.023 37.6165 144.023 36.1753C144.023 34.662 143.806 33.1487 142.29 33.1487Z" fill="#0E0063"/>
<path d="M149.512 34.3017C149.367 33.5811 148.934 33.0766 148.14 33.0766C146.406 33.0766 146.262 34.9503 146.19 36.2474C146.623 35.7429 146.984 35.1664 148.067 35.1664C149.512 35.1664 150.306 36.0312 150.306 37.4724C150.306 38.9137 149.44 39.7784 148.067 39.7784C146.623 39.7784 145.612 38.9137 145.612 36.3915C145.612 34.7341 146.117 32.5722 148.212 32.5722C149.295 32.5722 150.162 33.1487 150.306 34.3017H149.512ZM146.406 37.4724C146.406 38.2651 146.84 39.2019 147.995 39.2019C149.223 39.2019 149.584 38.2651 149.584 37.4004C149.584 36.3194 149.078 35.6709 147.995 35.6709C146.984 35.7429 146.406 36.5356 146.406 37.4724Z" fill="#0E0063"/>
<path d="M137.017 49.723C137.162 51.0201 137.956 51.4525 139.112 51.4525C140.412 51.4525 140.917 50.7318 140.917 49.9392C140.917 47.7052 136.512 49.2185 136.512 46.3361C136.512 45.3272 137.378 44.3904 138.967 44.3904C140.556 44.3904 141.423 45.3993 141.423 46.5522H140.773C140.773 45.4713 139.906 44.9669 138.967 44.9669C137.595 44.9669 137.089 45.8316 137.234 46.5522C137.523 48.4259 141.639 47.0567 141.639 49.8671C141.639 51.1642 140.701 51.9569 138.967 51.9569C137.451 51.9569 136.367 51.1642 136.367 49.6509H137.017V49.723Z" fill="#0E0063"/>
<path d="M142.867 51.8848V44.6786H147.706V45.2551H143.589V47.8493H147.345V48.4258H143.589V51.3083H147.778V51.8848H142.867Z" fill="#0E0063"/>
<path d="M148.934 51.8848V44.6786H151.606C153.484 44.6786 153.989 45.6154 153.989 46.6963C153.989 48.2817 152.545 48.7141 151.245 48.7141H149.728V51.8848H148.934ZM151.173 48.1376C152.473 48.1376 153.267 47.8493 153.267 46.6243C153.267 45.7595 152.689 45.2551 151.389 45.2551H149.656V48.1376H151.173Z" fill="#0E0063"/>
<path d="M127.453 233.856C127.397 236.562 126.678 239.213 125.294 241.532C121.088 248.38 112.121 250.368 104.151 250.976C91.6975 251.97 79.078 251.252 66.7906 248.877C59.4846 247.441 52.1233 245.343 45.9796 241.146C39.8359 236.893 35.0759 230.211 34.6884 222.811C34.3563 215.742 37.8987 209.115 41.1089 202.819C44.3191 196.523 47.4186 189.509 46.1456 182.551C45.26 177.912 42.4926 173.715 41.8838 169.021C41.607 166.922 41.7731 164.713 42.4372 162.67C43.1014 160.461 44.2084 158.417 45.7582 156.76C48.747 153.502 53.2302 151.956 57.6581 151.901C64.1339 151.79 76.1999 157.644 80.5171 162.504C84.8343 167.364 87.4357 173.439 89.9263 179.403C92.3617 185.423 94.7417 191.553 98.6714 196.689C99.0035 197.131 99.391 197.572 99.7231 198.014C102.878 201.825 106.752 204.973 110.571 208.121C111.18 208.618 111.789 209.115 112.343 209.612C117.213 213.643 121.973 218.006 124.851 223.584C126.567 226.621 127.508 230.321 127.453 233.856Z" fill="#FFB636"/>
<g opacity="0.5">
<path opacity="0.5" d="M110.627 208.065C92.3063 209.391 74.318 215.024 58.6543 224.578C60.8129 219.884 64.0785 214.969 71.2184 209.612C79.5761 203.316 89.4281 199.395 99.723 197.959C102.878 201.77 106.752 204.917 110.627 208.065Z" fill="#F6DA53"/>
</g>
<g opacity="0.5">
<path opacity="0.5" d="M127.453 233.856C127.397 236.562 126.678 239.213 125.294 241.532C121.088 248.38 112.121 250.368 104.151 250.976C91.6975 251.97 79.078 251.252 66.7906 248.877C59.4846 247.441 52.1233 245.343 45.9796 241.146C39.8359 236.893 35.0759 230.211 34.6884 222.811C34.3563 215.742 37.8987 209.115 41.1089 202.819C44.3191 196.523 47.4186 189.509 46.1456 182.551C45.26 177.912 42.4926 173.715 41.8838 169.021C41.607 166.922 41.7731 164.713 42.4372 162.67C42.9907 164.658 43.821 166.591 44.8172 168.358C47.4186 173.273 50.9056 177.857 52.1233 183.269C53.7284 190.338 51.1823 197.628 48.9684 204.531C46.7544 211.434 44.7619 219 47.3079 225.848C50.5181 234.298 59.706 238.881 68.4511 241.146C88.0445 246.116 109.52 243.355 127.453 233.856Z" fill="#F6DA53"/>
</g>
<path d="M124.353 248.988L129.279 249.043L130.109 239.986L123.966 240.096L124.353 248.988Z" fill="#1A1A1A"/>
<path d="M123.689 254.455C125.017 255.118 140.183 255.725 139.795 254.345C139.463 253.13 131.493 249.43 129.999 248.767C129.833 248.712 129.777 248.546 129.777 248.38C129.777 248.159 129.611 247.938 129.39 247.938L124.298 247.883C124.076 247.883 123.91 248.049 123.91 248.27C123.855 249.374 122.859 250.479 122.637 251.418C122.361 252.522 122.36 253.792 123.689 254.455Z" fill="#0A121F"/>
<path d="M170.237 248.27L173.779 244.901L168.134 237.832L163.761 242.14L170.237 248.27Z" fill="#1A1A1A"/>
<path d="M173.613 252.688C175.052 252.246 186.344 242.14 185.126 241.422C184.019 240.759 175.717 243.686 174.222 244.238C174.056 244.294 173.89 244.238 173.779 244.128C173.613 243.962 173.337 243.962 173.226 244.073L169.518 247.552C169.352 247.718 169.352 247.938 169.518 248.104C170.237 248.988 170.292 250.424 170.791 251.252C171.289 252.246 172.174 253.074 173.613 252.688Z" fill="#0A121F"/>
<path d="M116.715 158.417C116.77 158.307 116.826 158.196 116.881 158.031C117.933 155.435 118.984 152.784 119.483 150.023C119.925 147.096 119.704 144.003 118.21 141.463C117.877 140.855 117.435 140.303 116.881 139.917C116.438 139.585 115.885 139.42 115.331 139.42C115.165 139.42 115.055 139.42 114.944 139.475C113.671 139.806 113.117 141.297 112.951 142.623C112.785 144.279 112.951 145.991 113.45 147.648C113.616 148.145 113.726 148.808 113.339 149.084C112.896 149.415 112.287 148.974 111.955 148.587C111.568 148.201 111.125 147.703 110.571 147.869C110.129 147.98 109.963 148.532 110.073 148.918C110.184 149.36 110.461 149.692 110.737 150.023C111.346 150.741 111.955 151.459 112.564 152.177C112.841 152.508 113.117 152.784 113.339 153.116L116.66 158.086L116.715 158.417Z" fill="#FFA6BB"/>
<path d="M116.549 158.141C116.66 158.086 116.77 158.086 116.881 158.031C117.933 155.435 118.984 152.784 119.482 150.023C119.925 147.096 119.704 144.003 118.209 141.463C117.877 140.855 117.435 140.303 116.881 139.917C116.438 139.585 115.885 139.42 115.331 139.42C116.549 140.524 117.49 142.015 117.933 143.617C118.486 145.66 118.265 147.869 117.324 149.747C116.992 150.41 116.549 151.017 115.94 151.404C115.221 151.79 114.39 151.845 113.56 151.901C113.228 151.956 112.841 152.011 112.509 152.122C112.785 152.453 113.062 152.729 113.283 153.06L116.549 158.141Z" fill="#1A1A1A"/>
<path d="M125.239 182.109C124.907 184.208 124.132 185.644 122.693 186.141C119.538 187.135 107.582 183.103 103.155 181.005C103.099 180.949 103.044 180.949 102.989 180.894C102.49 180.673 102.048 180.452 101.549 180.176C100.941 179.845 100.332 179.569 99.7229 179.237C98.5606 178.575 97.4536 177.912 96.3467 177.249C92.749 174.985 89.7048 172.61 88.2104 171.174C85.6644 168.745 85.3323 165.431 85.443 163.388C85.443 163.001 85.5537 162.67 85.7197 162.338C86.0518 161.51 86.7714 160.902 87.7123 160.682C89.2067 160.35 84.8341 158.141 87.2695 159.025C87.7676 159.19 89.5388 159.853 91.5313 160.626C94.1881 161.62 97.1769 162.891 98.1178 163.498C99.2801 164.271 100.442 165.155 101.605 165.983C102.38 166.535 103.099 167.088 103.819 167.585C106.42 169.462 115.774 173.549 115.387 172.5C115.276 172.224 115.221 171.782 115.11 171.23C115.11 171.119 115.054 171.009 115.054 170.843C114.169 165.928 112.951 153.281 112.951 153.281C112.951 153.281 113.117 153.226 113.339 153.116C113.948 152.839 115.165 152.398 116.494 152.287C116.604 152.287 116.715 152.287 116.826 152.287C117.822 152.232 118.486 152.398 118.874 152.563C119.15 152.674 119.316 152.784 119.316 152.784C119.316 152.784 119.372 152.95 119.482 153.171C120.368 155.656 124.962 169.242 125.46 178.188C125.405 179.679 125.405 181.005 125.239 182.109Z" fill="#1A1A1A"/>
<path d="M102.933 180.894C102.435 180.673 101.992 180.452 101.494 180.176C100.885 179.845 100.277 179.569 99.6677 179.237C98.5054 178.575 97.3985 177.912 96.2915 177.249C92.6938 174.985 89.6496 172.61 88.1552 171.174C85.6092 168.745 85.2771 165.431 85.3878 163.388C85.3878 163.001 85.4985 162.67 85.6645 162.338C85.9966 161.51 86.7162 160.902 87.6571 160.682C89.1515 160.35 84.779 158.141 87.2143 159.025C87.7125 159.19 89.4836 159.853 91.4762 160.626C93.4134 162.338 95.3506 164.713 97.1217 167.971C98.3394 169.904 99.4464 172.555 100.719 175.593C101.384 177.305 102.158 179.127 102.933 180.894Z" fill="#1A1A1A"/>
<path d="M117.047 198.014C114.944 208.618 111.734 215.687 98.9483 217.067C96.7897 217.288 94.3544 217.399 91.6423 217.288C91.6423 217.288 94.3544 221.43 93.192 220.823C91.5316 220.049 91.9744 220.823 89.7604 219.331C81.1814 213.367 70.3884 197.904 67.9531 187.742C66.6801 182.33 64.7982 176.863 64.6875 172.997C64.6322 172.169 64.6875 171.395 64.8536 170.733C66.2373 164.713 69.2261 160.626 75.5358 158.362C75.5358 158.362 87.6572 152.895 96.1809 168.524C100.553 175.206 103.432 192.933 117.047 198.014Z" fill="#1A1A1A"/>
<g opacity="0.5">
<path opacity="0.5" d="M107.97 205.856C105.645 210.054 102.546 213.864 98.9483 217.067C96.7897 217.288 94.3544 217.399 91.6423 217.288C91.6423 217.288 94.3544 221.43 93.192 220.823C91.5316 220.049 91.9744 220.823 89.7604 219.331C81.1814 213.367 70.3884 197.904 67.9531 187.742C66.6801 182.33 64.7982 176.863 64.6875 172.997L65.1303 172.61C66.7907 174.654 68.4512 176.752 70.1117 178.796C72.4917 181.778 74.927 184.76 78.0819 186.914C85.2218 191.829 94.5758 191.663 102.933 193.983C105.535 194.701 108.413 195.971 109.354 198.511C110.295 200.941 109.188 203.647 107.97 205.856Z" fill="#1A1A1A"/>
</g>
<path d="M95.9041 186.859C95.3506 186.969 94.7972 186.803 94.299 186.582C93.8009 186.362 93.3027 186.085 92.86 185.809C91.9744 185.202 91.0888 184.539 90.2586 183.821C88.5981 182.441 87.1037 180.894 85.6093 179.348C84.1149 177.802 82.7312 176.145 81.3474 174.488C80.0191 172.831 78.6907 171.119 77.5837 169.242C78.9675 170.898 80.4065 172.445 81.8456 174.046C83.2846 175.648 84.7237 177.194 86.2181 178.74C87.6572 180.287 89.1516 181.833 90.7014 183.324C91.4762 184.042 92.2511 184.76 93.0814 185.423C93.4688 185.754 93.9116 186.085 94.3544 186.362C94.5758 186.472 94.7972 186.638 95.0739 186.693C95.3506 186.803 95.6274 186.859 95.9041 186.859Z" fill="#1A1A1A"/>
<path d="M89.5388 209.059C89.5388 209.059 91.2546 221.154 93.9667 222.645C96.4574 224.026 102.38 225.627 122.028 216.681C126.18 214.803 130.774 214.195 135.257 215.134C136.585 215.41 137.692 215.797 138.19 216.239C139.961 217.896 160.551 241.643 164.702 244.183L170.348 239.655C170.348 239.655 146.216 202.819 141.899 199.284C137.471 195.695 103.099 199.892 89.5388 209.059Z" fill="#3E22B3"/>
<path d="M87.048 151.845C87.6014 152.563 88.4317 152.95 89.3172 153.116C89.9814 153.226 90.6456 153.171 91.3098 153.06C91.5312 153.005 91.5865 152.674 91.4205 152.563C90.4242 151.956 88.2656 150.575 86.9926 149.636C86.8266 149.526 86.6052 149.581 86.5498 149.802C86.3838 150.52 86.5498 151.293 87.048 151.845Z" fill="#AA6464"/>
<path d="M83.5057 158.804C83.1736 159.687 83.0076 160.626 83.0076 161.51C83.0076 164.603 84.1146 166.701 84.2253 166.867C82.8416 168.745 70.0007 162.559 70.8863 160.185C70.8863 160.185 75.7016 156.153 75.7016 154.717C75.7016 154.496 75.6462 154.22 75.5909 153.778C75.4802 152.95 75.3142 151.735 75.1481 150.41C75.7569 150.851 76.3658 151.183 77.03 151.514C79.1886 152.563 81.5132 153.116 83.7825 153.668C84.5574 153.889 85.3876 154.11 86.0518 154.607C85.9411 154.607 85.8304 154.607 85.8304 154.607C85.8304 154.607 84.336 156.484 83.5057 158.804Z" fill="black"/>
<path d="M75.1482 150.41C75.3142 151.735 75.4803 152.95 75.591 153.778C76.0338 154.165 76.5319 154.496 77.03 154.828C78.8565 156.098 80.7937 157.258 82.731 158.362C83.0077 158.528 83.2844 158.638 83.5612 158.804C84.3914 156.484 85.8858 154.607 85.8858 154.607C85.8858 154.607 85.9412 154.607 86.0519 154.607C85.443 154.11 84.6128 153.889 83.7826 153.668C81.5133 153.06 79.1333 152.563 77.03 151.514C76.3659 151.183 75.757 150.851 75.1482 150.41Z" fill="black"/>
<path d="M75.1482 150.41C75.3142 151.735 75.4803 152.95 75.591 153.778C76.0338 154.165 76.5319 154.496 77.03 154.828C78.8565 156.098 80.7937 157.258 82.731 158.362C83.0077 158.528 83.2844 158.638 83.5612 158.804C84.3914 156.484 85.8858 154.607 85.8858 154.607C85.8858 154.607 85.9412 154.607 86.0519 154.607C85.443 154.11 84.6128 153.889 83.7826 153.668C81.5133 153.06 79.1333 152.563 77.03 151.514C76.3659 151.183 75.757 150.851 75.1482 150.41Z" fill="black"/>
<path d="M108.247 191.332C108.302 191.829 108.413 192.326 108.745 192.657C109.077 193.044 109.575 193.265 110.073 193.486C111.125 193.928 112.177 194.369 113.339 194.48C114.501 194.59 115.608 194.259 116.715 193.928C117.767 193.596 118.874 193.21 119.981 193.044C121.143 192.933 122.029 193.154 123.08 193.596C123.302 193.707 123.578 193.762 123.8 193.762C123.634 193.707 123.468 193.651 123.357 193.596C122.25 193.044 121.364 192.657 120.091 192.657C118.818 192.657 117.656 192.989 116.438 193.21C115.221 193.431 113.948 193.651 112.73 193.431C111.512 193.21 110.405 192.602 109.298 191.995C108.911 191.829 108.579 191.608 108.247 191.332Z" fill="#1A1A1A"/>
<path d="M108.192 196.137C105.535 196.578 102.491 197.02 99.8339 197.131C98.1181 197.186 96.5683 197.186 95.2953 196.91C95.1846 196.91 95.0185 196.855 94.9078 196.855C93.5795 196.578 92.4172 196.247 91.3655 195.805C91.0888 195.695 90.812 195.584 90.5907 195.474C90.3139 195.363 90.0925 195.253 89.8158 195.198C89.2623 194.977 88.7088 194.756 88.2107 194.59C87.159 194.204 86.2181 193.817 85.3325 193.431C85.1111 193.32 84.8897 193.265 84.6684 193.154C84.2256 192.989 83.8381 192.768 83.3953 192.602C80.6279 191.332 78.3033 189.951 75.5358 187.521C75.1484 187.19 74.7056 186.803 74.2628 186.362C72.6577 184.815 70.8312 182.938 68.728 180.563C66.8461 178.409 65.407 175.813 64.7982 172.997V172.942C64.7429 172.555 64.6875 172.224 64.6875 171.837C64.6875 171.727 64.6875 171.616 64.6875 171.506C64.6875 171.395 64.6875 171.285 64.7429 171.174C64.7429 170.954 64.7982 170.733 64.8535 170.567C64.9089 170.457 64.9089 170.346 64.9642 170.236C65.0196 170.125 65.0196 170.015 65.0749 169.904C65.1303 169.683 65.241 169.518 65.3517 169.352C65.3517 169.352 65.3517 169.352 65.3517 169.297C65.2963 169.849 65.2963 170.457 65.407 171.064V171.119C66.0159 173.936 67.4549 176.531 69.3368 178.685C78.414 188.902 81.5135 189.841 90.3693 193.32C90.8674 193.541 91.3655 193.707 91.919 193.928C92.9706 194.369 94.133 194.701 95.4613 194.977C99.1143 195.86 103.598 196.137 108.192 196.137Z" fill="#1A1A1A"/>
<path d="M99.8337 197.131C98.1179 197.186 96.5682 197.186 95.2952 196.91C95.1845 196.91 95.0184 196.855 94.9077 196.855C96.5682 196.965 98.1733 197.075 99.8337 197.131Z" fill="#1A1A1A"/>
<path d="M88.9853 206.077C88.9853 206.077 86.1072 208.397 86.55 212.704C86.9928 216.957 90.4244 220.657 93.856 222.535C99.2248 225.517 114.114 214.748 122.969 205.58L122.416 242.085H130.331C130.331 242.085 137.692 198.346 135.146 190.448C128.56 178.188 88.9853 206.077 88.9853 206.077Z" fill="#5731EB"/>
<path d="M94.1882 150.907C93.8008 151.238 93.0259 150.851 92.6384 150.907C92.5831 150.907 92.5278 150.962 92.4724 151.017C91.8636 153.447 90.8119 155.435 89.1515 156.705C88.764 156.761 88.2659 156.761 87.7678 156.65C86.1627 156.374 84.6683 155.711 83.3399 154.828C83.0078 154.607 82.6204 154.386 82.2329 154.165C80.1297 153.06 78.0264 151.956 76.1999 150.41C75.6464 149.913 75.0929 149.416 74.6501 148.863C74.9822 145.771 75.4804 142.07 76.0339 141.187C76.9748 139.641 83.2292 137.155 84.6682 137.321C86.052 137.487 92.4171 133.952 93.524 140.414C93.524 142.512 93.4133 144.611 93.2473 146.489C93.3026 146.654 93.358 146.82 93.358 146.93C93.358 147.041 94.5756 150.63 94.1882 150.907Z" fill="#FFC1CD"/>
<path d="M71.3846 140.579C70.3883 142.236 70.2776 144.335 70.7758 146.212C71.2739 148.311 72.4362 150.189 74.0414 151.569C74.1521 151.845 74.3181 152.122 74.4841 152.342C74.9823 153.06 75.7018 153.613 76.532 153.778C77.7497 154.054 79.0227 153.447 79.7423 152.508C79.7976 152.453 79.853 152.398 79.853 152.342C80.8492 151.68 80.6832 149.802 80.7385 149.36C80.7385 149.139 80.6832 149.029 80.6278 148.918C80.3511 148.642 80.1297 148.366 79.9083 148.035C79.5762 147.593 79.3548 147.041 79.2441 146.489C79.2441 146.323 79.1888 146.212 79.1888 146.047C78.912 144.556 80.1297 143.506 81.1813 143.285C81.7348 143.175 82.4543 144.335 83.0078 145.439C83.506 146.433 83.8934 147.427 83.9488 147.427C84.0041 147.483 84.1148 147.648 84.2808 147.096C84.6129 146.489 85.2218 144.666 85.6646 143.23C85.9967 142.181 86.9376 141.463 88.0446 141.463C91.4762 141.463 98.3394 141.076 98.8929 140.414C101.162 137.873 97.9519 134.449 94.5757 133.952C94.5203 133.952 94.4096 133.952 94.3543 133.897C94.3543 133.621 94.3543 133.345 94.3543 133.069C94.2436 131.743 93.5794 130.473 92.5278 129.755C91.4208 129.037 89.8711 128.982 88.8194 129.81C88.1552 128.651 87.159 127.657 85.9966 126.883C85.6646 126.773 85.3325 126.607 84.945 126.552C83.506 126.221 81.8455 126.386 80.7385 127.38C80.185 127.877 79.7976 128.485 79.2441 128.927C78.2478 129.645 76.9748 129.589 75.7572 129.313C74.4841 129.037 73.2111 129.589 72.713 130.804C71.9381 132.572 71.7167 134.67 72.1595 136.548C72.3255 137.155 72.5469 137.818 72.4362 138.481C72.3809 139.199 71.8274 139.861 71.3846 140.579Z" fill="#0E0063"/>
<path d="M87.6018 153.723C87.8232 154.165 88.2107 154.551 88.6534 154.772C88.9855 154.938 89.373 154.993 89.7604 155.049C89.9265 155.049 89.9818 154.883 89.8711 154.772C89.4283 154.275 88.4321 153.226 87.8786 152.508C87.8232 152.398 87.6572 152.453 87.6018 152.508C87.4358 152.895 87.4358 153.337 87.6018 153.723Z" fill="white"/>
<path d="M90.5749 147.021C90.8235 146.601 90.8761 146.173 90.6923 146.064C90.5086 145.955 90.1582 146.207 89.9096 146.627C89.661 147.047 89.6084 147.476 89.7921 147.585C89.9758 147.693 90.3263 147.441 90.5749 147.021Z" fill="#0E0063"/>
<path d="M92.0296 145.605C92.251 145.329 92.3064 144.832 92.085 144.5C91.8636 144.114 91.4762 143.893 91.0887 143.838C90.3138 143.727 89.4836 144.169 89.2622 144.887C89.9264 144.611 90.4799 144.5 90.978 144.556C91.2548 144.611 91.4762 144.666 91.6422 144.832C91.8082 144.997 91.9743 145.274 92.0296 145.605Z" fill="#F58EA2"/>
<path d="M124.409 198.622L114.778 198.29C114.335 198.29 114.003 197.793 114.225 197.352L124.077 178.354C124.187 178.133 124.464 177.967 124.685 178.023L134.095 178.74C134.537 178.796 134.814 179.237 134.593 179.679L124.907 198.235C124.851 198.511 124.63 198.622 124.409 198.622Z" fill="#F6DA53"/>
<path d="M125.239 193.099C125.516 192.492 125.073 191.774 124.63 191.166C123.8 190.172 122.859 189.178 121.586 188.571C120.368 187.963 118.818 187.687 117.49 188.129C116.66 188.35 115.996 188.847 115.276 189.178C113.726 189.896 111.845 190.172 110.129 189.841C109.575 189.73 108.966 189.62 108.579 189.896C108.192 190.172 108.192 190.724 108.302 191.166C108.358 191.663 108.468 192.216 108.856 192.657C109.188 193.044 109.686 193.265 110.184 193.486C111.236 193.928 112.287 194.369 113.45 194.48C114.612 194.59 115.719 194.259 116.826 193.928C117.878 193.596 118.984 193.21 120.091 193.044C121.254 192.934 122.139 193.154 123.191 193.596C123.8 193.928 124.907 193.817 125.239 193.099Z" fill="#FFA6BB"/>
<path d="M115.11 193.983C115.055 194.259 115.055 194.535 114.999 194.811C113.671 195.087 111.125 195.64 108.192 196.137C105.535 196.578 102.491 197.02 99.8339 197.131C98.1181 197.186 96.5683 197.186 95.2953 196.91C95.1846 196.91 95.0185 196.855 94.9078 196.855C93.5795 196.578 92.4172 196.247 91.3655 195.805C91.0888 195.695 90.812 195.584 90.5907 195.474C90.3139 195.363 90.0925 195.253 89.8158 195.198C89.2623 194.977 88.7088 194.756 88.2107 194.59C87.159 194.204 86.2181 193.817 85.3325 193.431C85.1111 193.32 84.8897 193.265 84.6684 193.154C84.2256 192.989 83.8381 192.768 83.3953 192.602C80.6279 191.332 78.3033 189.951 75.5358 187.521C75.1484 187.19 74.7056 186.803 74.2628 186.362C72.6577 184.815 70.8312 182.938 68.728 180.563C66.8461 178.409 65.407 175.813 64.7982 172.997V172.942C64.7429 172.555 64.6875 172.224 64.6875 171.837C64.6875 171.727 64.6875 171.616 64.6875 171.506C64.6875 171.395 64.6875 171.285 64.7429 171.175C64.7429 170.954 64.7982 170.733 64.8535 170.567C64.9089 170.457 64.9089 170.346 64.9642 170.236C65.0196 170.125 65.0196 170.015 65.0749 169.904C65.1303 169.683 65.241 169.518 65.3517 169.352C66.2926 167.695 68.1191 166.536 70.2224 166.591C72.9898 166.701 76.2554 167.253 77.5837 169.242C80.1298 172.942 92.6939 187.577 95.8488 186.859C98.2288 186.306 105.645 186.362 114.114 188.515C115.442 190.559 115.331 192.271 115.11 193.983Z" fill="#1A1A1A"/>
<defs>
<linearGradient id="paint0_linear" x1="153.02" y1="111.857" x2="158.254" y2="95.9662" gradientUnits="userSpaceOnUse">
<stop offset="0.0807516" stop-color="#8C4B06"/>
<stop offset="1" stop-color="#FBE78F"/>
<stop offset="1" stop-color="#DEA631"/>
</linearGradient>
<linearGradient id="paint1_linear" x1="177.694" y1="129.545" x2="259.432" y2="101.892" gradientUnits="userSpaceOnUse">
<stop offset="0.0807516" stop-color="#8C4B06"/>
<stop offset="1" stop-color="#FBE78F"/>
<stop offset="1" stop-color="#DEA631"/>
</linearGradient>
<linearGradient id="paint2_linear" x1="165.289" y1="110.932" x2="194.937" y2="106.925" gradientUnits="userSpaceOnUse">
<stop offset="0.0807516" stop-color="#8C4B06"/>
<stop offset="1" stop-color="#FBE78F"/>
<stop offset="1" stop-color="#DEA631"/>
</linearGradient>
</defs>
</svg>
