<svg width="140" height="140" viewBox="0 0 140 140" fill="none" xmlns="http://www.w3.org/2000/svg">
<path d="M110.427 137.897H29.6583V140H110.427V137.897Z" fill="#EAEEFD"/>
<path d="M106.157 41.9761L104.089 41.2095C104.089 41.2095 103.107 35.0805 104.216 35.2412C105.142 35.3839 104.836 36.9779 104.706 37.4978C104.993 36.5132 105.357 33.749 108.927 35.5037C112.872 37.4527 106.157 41.9761 106.157 41.9761Z" fill="#FFB688"/>
<path d="M33.4124 41.2668L35.4796 40.5002C35.4796 40.5002 36.4618 34.3711 35.3532 34.5318C34.427 34.6745 34.7335 36.2685 34.863 36.7885C34.5764 35.8039 34.2117 33.0396 30.6419 34.7944C26.6965 36.7434 33.4124 41.2668 33.4124 41.2668Z" fill="#FFB688"/>
<path d="M84.3556 127.163C88.6067 123.663 85.1475 111.008 85.1475 111.008L53.6305 108.95C53.6305 108.95 51.699 123.062 56.4813 127.48C62.8267 133.341 77.6863 132.653 84.3556 127.163Z" fill="#FF7843"/>
<path d="M106.722 41.7538C106.722 41.7538 103.65 61.1078 100.344 66.5559C98.2215 70.0428 86.3874 79.3567 86.3874 79.3567L86.0463 111.012C85.9353 115.975 52.8871 115.236 52.9981 110.273L52.9032 80.1335C52.9032 80.1335 40.5955 70.2419 38.3309 66.3288C35.1569 60.7954 32.6406 41.2011 32.6406 41.2011C32.4822 40.7469 35.7574 39.6026 35.9159 40.0567L45.7404 63.4956L56.5322 70.4597H82.5028L93.0104 63.5525L103.879 40.6584C104.043 40.2629 106.885 41.3584 106.722 41.7538Z" fill="#34A4B6"/>
<path d="M87.0045 88.0071V111.798C87.0045 114.319 52.7151 114.319 52.7151 111.798V88.0071C52.7151 87.0122 53.5299 86.1973 54.5343 86.1973H85.1948C86.1992 86.1973 87.0045 87.0122 87.0045 88.0071Z" fill="#EAEEFD"/>
<path d="M52.7151 110.017V111.798C52.7151 114.319 87.0045 114.319 87.0045 111.798V110.017H52.7151Z" fill="#DCE0EE"/>
<path d="M50.3505 135.153L53.2039 137.896C53.4012 137.897 53.5971 137.821 53.7474 137.665L55.0739 136.261L54.2741 135.089C54.2741 135.089 51.9575 134.491 51.0411 134.408C50.9103 134.396 50.665 134.473 50.5369 134.606C50.3889 134.76 50.3325 134.959 50.3505 135.153Z" fill="#50CB52"/>
<path d="M55.1776 136.7C55.1776 136.7 79.4518 131.834 89.5738 126.402C101.712 119.887 104.032 114.448 101.876 110.431C99.72 106.414 93.9051 105.341 81.7668 111.855C71.6448 117.287 53.9069 134.753 53.9069 134.753C53.6273 134.935 54.898 136.882 55.1776 136.7Z" fill="#FF7843"/>
<path d="M92.4432 135.153L89.5898 137.896C89.3926 137.897 89.1966 137.821 89.0464 137.665L87.7198 136.261L88.5197 135.089C88.5197 135.089 90.8363 134.491 91.7527 134.408C91.8835 134.396 92.1287 134.473 92.2569 134.606C92.4047 134.76 92.4611 134.959 92.4432 135.153Z" fill="#50CB52"/>
<path d="M87.6997 136.547C87.6997 136.547 63.3915 132.05 53.2312 126.526C41.047 119.902 38.7296 114.436 40.9071 110.43C43.0846 106.425 48.9323 105.398 61.1166 112.022C71.2769 117.545 88.7371 134.904 88.7371 134.904C88.8855 134.998 87.848 136.641 87.6997 136.547Z" fill="#FF7843"/>
<path d="M73.5198 66.2124H65.8813V71.4946C65.8813 72.5884 73.5198 72.5884 73.5198 71.4946V66.2124Z" fill="#FFB688"/>
<path d="M78.2944 57.3025C78.2944 62.9404 74.4884 69.8244 69.7977 69.8244C65.1046 69.8244 61.3011 62.9404 61.3011 57.3025C61.3011 56.36 61.4071 55.4489 61.6072 54.5812C62.5979 50.2642 65.888 47.0945 69.7977 47.0945C74.0593 47.0945 77.588 50.8643 78.2003 55.7816C78.263 56.2781 78.2944 56.7867 78.2944 57.3025Z" fill="#FFBD94"/>
<path d="M78.2002 55.7817C78.2002 55.7817 76.7684 56.3914 76.648 59.3129H76.1972L75.8936 55.7817C75.8936 55.7817 73.3049 52.8217 75.5248 52.2384C74.2135 52.5373 65.1746 54.4921 63.7211 52.2023C63.7211 52.2023 64.6274 53.9811 63.2704 55.396L62.9981 58.4596H62.4871C62.4871 58.4596 62.3521 55.8154 61.6073 54.5812C62.598 50.2642 69.6964 52.2705 71.1644 48.6468C73.5447 42.7716 83.9997 49.822 78.2002 55.7817Z" fill="#FF7843"/>
<path d="M77.0481 50.3597C77.4821 47.06 73.2263 43.779 67.5424 43.0315C61.8586 42.284 56.8992 44.353 56.4652 47.6527C56.0313 50.9525 60.2871 54.2334 65.9709 54.9809C71.6547 55.7285 76.6141 53.6595 77.0481 50.3597Z" fill="#FF7843"/>
<path d="M50.3505 135.153L53.2039 137.896C53.4012 137.897 53.5971 137.821 53.7474 137.665L55.0739 136.261L54.2741 135.089C54.2741 135.089 51.9575 134.491 51.0411 134.408C50.9103 134.396 50.665 134.473 50.5369 134.606C50.3889 134.76 50.3325 134.959 50.3505 135.153Z" fill="#50CB52"/>
<path d="M78.8485 5.62664C78.7643 5.62664 78.6821 5.58215 78.6376 5.50278C78.5724 5.38645 78.6131 5.23888 78.7303 5.17361L79.5748 4.69979C79.6874 4.63548 79.8377 4.67426 79.904 4.79253C79.9693 4.90886 79.9286 5.05643 79.8114 5.12158L78.9668 5.5954C78.9299 5.61619 78.8891 5.62664 78.8485 5.62664Z" fill="#DCE0EE"/>
<path d="M55.7323 18.6098C55.6477 18.6098 55.5654 18.5653 55.5214 18.4859C55.4557 18.3696 55.4974 18.222 55.6137 18.1568L57.2645 17.2299C57.3813 17.1656 57.5294 17.2054 57.5941 17.3225C57.6598 17.4389 57.6181 17.5864 57.5018 17.6517L55.851 18.5786C55.8132 18.5995 55.7724 18.6098 55.7323 18.6098ZM59.0344 16.7552C58.9498 16.7552 58.8679 16.7108 58.8235 16.6314C58.7577 16.5151 58.7994 16.3675 58.9157 16.3022L60.5669 15.3745C60.6842 15.3092 60.8308 15.3499 60.8965 15.4671C60.9622 15.5835 60.9205 15.731 60.8042 15.7963L59.1529 16.7241C59.1157 16.7448 59.0745 16.7552 59.0344 16.7552ZM62.3369 14.9007C62.2526 14.9007 62.1705 14.8562 62.126 14.7768C62.0607 14.6605 62.1014 14.5129 62.2186 14.4476L63.8698 13.5199C63.9824 13.4556 64.1327 13.4944 64.199 13.6126C64.2642 13.7289 64.2235 13.8765 64.1062 13.9417L62.4549 14.8694C62.4182 14.8902 62.3775 14.9007 62.3369 14.9007ZM65.6394 13.0461C65.5553 13.0461 65.473 13.0016 65.4285 12.9223C65.3632 12.8059 65.4039 12.6584 65.5212 12.5931L67.1724 11.6653C67.285 11.601 67.4354 11.6397 67.5016 11.758C67.5669 11.8743 67.5262 12.0219 67.409 12.0872L65.7577 13.0149C65.7207 13.0357 65.68 13.0461 65.6394 13.0461ZM68.9419 11.1914C68.8577 11.1914 68.7755 11.147 68.731 11.0676C68.6657 10.9513 68.7065 10.8037 68.8238 10.7384L70.4741 9.81059C70.5867 9.74531 70.737 9.78506 70.8033 9.90321C70.8685 10.0195 70.8278 10.1671 70.7105 10.2324L69.0602 11.1602C69.0232 11.1811 68.9825 11.1914 68.9419 11.1914ZM72.2435 9.33689C72.1592 9.33689 72.077 9.2924 72.0326 9.21302C71.9673 9.09669 72.008 8.94913 72.1252 8.88385L73.7764 7.95603C73.8889 7.89172 74.0393 7.9305 74.1056 8.04877C74.1708 8.1651 74.1301 8.31267 74.0129 8.37782L72.3616 9.30565C72.3248 9.32643 72.2841 9.33689 72.2435 9.33689ZM75.546 7.48233C75.4619 7.48233 75.3796 7.43784 75.3351 7.35846C75.2698 7.24214 75.3105 7.09457 75.4277 7.02942L77.079 6.10159C77.1916 6.03632 77.3419 6.07606 77.4082 6.19421C77.4735 6.31054 77.4327 6.45811 77.3156 6.52339L75.6644 7.45121C75.6273 7.47187 75.5866 7.48233 75.546 7.48233Z" fill="#DCE0EE"/>
<path d="M54.0385 20.5541C53.9917 20.5541 53.9444 20.5408 53.9027 20.5125L53.1012 19.9697C53.0317 19.9224 52.9914 19.8429 52.9948 19.7588C52.9986 19.6755 53.0449 19.5989 53.1182 19.5583L53.9628 19.0835C54.0781 19.0192 54.2267 19.059 54.2923 19.1762C54.3581 19.2925 54.3164 19.44 54.2 19.5053L53.6969 19.7881L54.174 20.1115C54.2846 20.1863 54.3136 20.3366 54.2388 20.4482C54.1921 20.5171 54.116 20.5541 54.0385 20.5541Z" fill="#DCE0EE"/>
<path d="M74.2295 34.2412C74.1822 34.2412 74.1349 34.2279 74.0933 34.1996L72.4109 33.0591C72.3003 32.9843 72.2718 32.8331 72.3466 32.7223C72.4222 32.6117 72.5726 32.5833 72.6833 32.658L74.3657 33.7986C74.4764 33.8733 74.5048 34.0246 74.43 34.1353C74.3826 34.2042 74.307 34.2412 74.2295 34.2412ZM70.8645 31.96C70.8172 31.96 70.7699 31.9467 70.7283 31.9184L69.0449 30.7778C68.9343 30.7031 68.9059 30.5519 68.9806 30.4411C69.0562 30.3295 69.2076 30.3021 69.3173 30.3768L71.0007 31.5174C71.1114 31.5921 71.1398 31.7433 71.065 31.8541C71.0178 31.9231 70.942 31.96 70.8645 31.96ZM67.4986 29.6789C67.4513 29.6789 67.4041 29.6656 67.3625 29.6373L65.6801 28.4967C65.5694 28.422 65.541 28.2708 65.6158 28.16C65.6915 28.0494 65.8427 28.021 65.9525 28.0957L67.6349 29.2363C67.7455 29.311 67.7739 29.4623 67.6992 29.573C67.6518 29.642 67.5762 29.6789 67.4986 29.6789ZM64.1336 27.3978C64.0863 27.3978 64.0391 27.3845 63.9975 27.3562L62.3151 26.2157C62.2044 26.1409 62.176 25.9897 62.2508 25.8789C62.3273 25.7674 62.4777 25.739 62.5875 25.8146L64.2699 26.9552C64.3805 27.0299 64.409 27.1812 64.3342 27.2919C64.2869 27.3609 64.2112 27.3978 64.1336 27.3978ZM60.7688 25.1167C60.722 25.1167 60.6747 25.1034 60.633 25.0751L58.9501 23.9346C58.8394 23.8598 58.8105 23.7086 58.8853 23.5979C58.9609 23.4872 59.1112 23.4588 59.2215 23.5336L60.9044 24.6741C61.015 24.7489 61.044 24.9001 60.9692 25.0108C60.9224 25.0797 60.8463 25.1167 60.7688 25.1167ZM57.4034 22.8356C57.3566 22.8356 57.3093 22.8223 57.2676 22.794L55.5852 21.6535C55.4746 21.5787 55.4456 21.4274 55.5204 21.3168C55.596 21.2061 55.7473 21.1777 55.8566 21.2525L57.5391 22.393C57.6497 22.4678 57.6786 22.619 57.6038 22.7297C57.557 22.7986 57.481 22.8356 57.4034 22.8356Z" fill="#DCE0EE"/>
<path d="M76.7131 35.9263C76.6658 35.9263 76.6185 35.9131 76.5769 35.8848L75.7759 35.3419C75.6653 35.2671 75.6368 35.1159 75.7116 35.0052C75.7882 34.8936 75.9385 34.8653 76.0483 34.9409L76.8493 35.4838C76.96 35.5585 76.9884 35.7097 76.9137 35.8205C76.8662 35.8895 76.7906 35.9263 76.7131 35.9263Z" fill="#DCE0EE"/>
<path d="M68.4733 35.4121L69.3903 36.5598H69.4207L70.1555 36.1328L70.8903 36.5598H70.949L71.6858 36.1328L72.4206 36.5598H72.4814L73.2162 36.1328L73.951 36.5598H74.0097L74.7466 36.1328L75.4814 36.5598H75.5422L76.2749 36.1328L77.0118 36.5598H78.2303C78.704 38.1873 80.206 39.3755 81.9853 39.3755C84.1471 39.3755 85.8981 37.6224 85.8981 35.4626C85.8981 33.3008 84.1471 31.5479 81.9853 31.5479C80.2039 31.5479 78.702 32.7381 78.2303 34.3656H69.3902L68.4733 35.4121Z" fill="#6EE371"/>
<path d="M83.5012 36.9786C83.8391 36.6407 83.4336 35.6875 82.5956 34.8494C81.7576 34.0114 80.8043 33.606 80.4664 33.9439C80.1285 34.2817 80.534 35.235 81.372 36.073C82.21 36.9111 83.1633 37.3165 83.5012 36.9786Z" fill="#50CB52"/>
<path d="M88.0733 0H71.3127V9.82331H88.0733V0Z" fill="#34A4B6"/>
<path d="M88.0733 0L79.693 6.68429L71.3127 0" fill="#34A4B6"/>
<path d="M88.0733 9.66746V9.8239H87.8767L79.6942 3.2946L71.5092 9.8239H71.3127V9.66746L79.6942 2.9816L88.0733 9.66746Z" fill="#34A4B6"/>
<path d="M67.453 18.2876V22.3095C67.453 22.7952 67.045 23.1837 66.5593 23.1837H41.1859C40.7001 23.1837 40.3115 22.7952 40.3115 22.3095V18.2876C40.3115 17.8019 40.7001 17.4134 41.1859 17.4134H66.5594C67.045 17.4134 67.453 17.8019 67.453 18.2876Z" fill="#ECF0FD"/>
<path d="M44.5484 21.402C44.4933 21.3641 44.4668 21.309 44.4668 21.2369C44.4668 21.2008 44.4782 21.1629 44.5029 21.1269L44.5485 21.0624L45.1803 20.514L44.3474 20.442L44.2754 20.423C44.226 20.4116 44.19 20.3794 44.1654 20.3282C44.1407 20.2751 44.135 20.222 44.1464 20.1669L44.3571 19.5275C44.3685 19.4782 44.4007 19.4422 44.4538 19.4175C44.505 19.3928 44.5543 19.3871 44.6037 19.4004C44.6226 19.4004 44.6473 19.4118 44.6777 19.4365L45.3892 19.8557L45.2166 19.0436L45.2071 18.9696C45.2071 18.9202 45.226 18.8746 45.2659 18.8329C45.3058 18.7893 45.3532 18.7684 45.4082 18.7684H46.0761C46.1311 18.7684 46.1785 18.7893 46.2165 18.8329C46.2563 18.8746 46.2771 18.9202 46.2771 18.9696L46.2676 19.0436L46.0856 19.8557L46.8065 19.4365L46.8805 19.4004C46.8919 19.3928 46.9071 19.3909 46.9261 19.3909C46.9735 19.3909 47.0191 19.4023 47.059 19.427C47.0988 19.4517 47.1216 19.4858 47.1273 19.5275L47.3455 20.1669L47.3549 20.222C47.3549 20.2656 47.3417 20.3055 47.3151 20.3453C47.2866 20.3852 47.2525 20.4117 47.2088 20.4231L47.1443 20.4421L46.3037 20.5237L46.9356 21.0625C46.9717 21.1004 46.9906 21.1213 46.9906 21.1213C47.0134 21.163 47.0267 21.2011 47.0267 21.2371C47.0267 21.3091 46.9983 21.3642 46.9432 21.4021L46.4044 21.8043C46.3683 21.8215 46.3285 21.831 46.2867 21.831C46.207 21.831 46.152 21.8063 46.1217 21.7569C46.1159 21.7512 46.1084 21.7437 46.1027 21.7342C46.097 21.7267 46.0875 21.7115 46.0761 21.6943L45.7459 20.9164L45.4082 21.6943C45.3968 21.7114 45.3873 21.7266 45.3816 21.7342C45.3741 21.7437 45.3684 21.7514 45.3627 21.7569C45.3323 21.8063 45.2773 21.831 45.1976 21.831C45.1559 21.831 45.116 21.8215 45.0799 21.8043L44.5484 21.402Z" fill="#FF7843"/>
<path d="M48.6162 21.4025C48.5612 21.3646 48.5347 21.3095 48.5347 21.2374C48.5347 21.2013 48.5461 21.1634 48.5708 21.1274L48.6164 21.0629L49.2482 20.5145L48.4153 20.4425L48.3432 20.4235C48.2939 20.4121 48.2579 20.3799 48.2332 20.3287C48.2086 20.2756 48.2028 20.2224 48.2143 20.1674L48.4249 19.528C48.4363 19.4786 48.4686 19.4427 48.5217 19.418C48.5729 19.3933 48.6222 19.3876 48.6715 19.4009C48.6905 19.4009 48.7152 19.4123 48.7456 19.437L49.457 19.8562L49.2844 19.0441L49.2749 18.9701C49.2749 18.9207 49.2939 18.8751 49.3338 18.8334C49.3736 18.7898 49.4211 18.7689 49.4761 18.7689H50.1439C50.199 18.7689 50.2464 18.7898 50.2843 18.8334C50.3242 18.8751 50.345 18.9207 50.345 18.9701L50.3355 19.0441L50.1534 19.8562L50.8744 19.437L50.9484 19.4009C50.9598 19.3933 50.9749 19.3914 50.994 19.3914C51.0414 19.3914 51.087 19.4028 51.1268 19.4275C51.1667 19.4521 51.1894 19.4863 51.1951 19.528L51.4133 20.1674L51.4228 20.2224C51.4228 20.2661 51.4096 20.3059 51.3829 20.3458C51.3545 20.3857 51.3203 20.4122 51.2767 20.4236L51.2122 20.4426L50.3716 20.5241L51.0035 21.063C51.0394 21.1009 51.0585 21.1218 51.0585 21.1218C51.0812 21.1635 51.0946 21.2016 51.0946 21.2375C51.0946 21.3096 51.0662 21.3647 51.0111 21.4026L50.4723 21.8048C50.4362 21.822 50.3964 21.8315 50.3546 21.8315C50.2749 21.8315 50.2199 21.8068 50.1895 21.7574C50.1838 21.7517 50.1763 21.7442 50.1706 21.7347C50.1649 21.7272 50.1554 21.712 50.1439 21.6948L49.8138 20.9169L49.4761 21.6948C49.4647 21.7118 49.4552 21.727 49.4495 21.7347C49.442 21.7442 49.4363 21.7518 49.4305 21.7574C49.4001 21.8068 49.3452 21.8315 49.2655 21.8315C49.2238 21.8315 49.1839 21.822 49.1478 21.8048L48.6162 21.4025Z" fill="#FF7843"/>
<path d="M52.6839 21.4025C52.6288 21.3646 52.6023 21.3095 52.6023 21.2374C52.6023 21.2013 52.6137 21.1634 52.6384 21.1274L52.684 21.0629L53.3158 20.5145L52.4829 20.4425L52.4109 20.4235C52.3615 20.4121 52.3255 20.3799 52.3009 20.3287C52.2762 20.2756 52.2705 20.2224 52.2819 20.1674L52.4926 19.528C52.504 19.4786 52.5362 19.4427 52.5893 19.418C52.6405 19.3933 52.6898 19.3876 52.7392 19.4009C52.7581 19.4009 52.7828 19.4123 52.8132 19.437L53.5247 19.8562L53.3521 19.0441L53.3426 18.9701C53.3426 18.9207 53.3615 18.8751 53.4014 18.8334C53.4413 18.7898 53.4887 18.7689 53.5438 18.7689H54.2116C54.2666 18.7689 54.314 18.7898 54.352 18.8334C54.3918 18.8751 54.4127 18.9207 54.4127 18.9701L54.4033 19.0441L54.2212 19.8562L54.9421 19.437L55.0161 19.4009C55.0276 19.3933 55.0428 19.3914 55.0617 19.3914C55.1091 19.3914 55.1547 19.4028 55.1946 19.4275C55.2345 19.4521 55.2572 19.4863 55.2629 19.528L55.4811 20.1674L55.4906 20.2224C55.4906 20.2661 55.4773 20.3059 55.4507 20.3458C55.4223 20.3857 55.3881 20.4122 55.3445 20.4236L55.2799 20.4426L54.4394 20.5241L55.0712 21.063C55.1073 21.1009 55.1263 21.1218 55.1263 21.1218C55.149 21.1635 55.1624 21.2016 55.1624 21.2375C55.1624 21.3096 55.1339 21.3647 55.0789 21.4026L54.54 21.8048C54.5039 21.822 54.4642 21.8315 54.4223 21.8315C54.3426 21.8315 54.2877 21.8068 54.2573 21.7574C54.2516 21.7517 54.244 21.7442 54.2383 21.7347C54.2326 21.7272 54.2231 21.712 54.2117 21.6948L53.8816 20.9169L53.5439 21.6948C53.5324 21.7118 53.523 21.727 53.5173 21.7347C53.5096 21.7442 53.504 21.7518 53.4983 21.7574C53.4679 21.8068 53.413 21.8315 53.3332 21.8315C53.2915 21.8315 53.2517 21.822 53.2156 21.8048L52.6839 21.4025Z" fill="#FF7843"/>
<path d="M56.7499 21.4025C56.6948 21.3646 56.6683 21.3095 56.6683 21.2374C56.6683 21.2013 56.6798 21.1634 56.7044 21.1274L56.75 21.0629L57.3819 20.5145L56.549 20.4425L56.4769 20.4235C56.4275 20.4121 56.3916 20.3799 56.3669 20.3287C56.3422 20.2756 56.3365 20.2224 56.3479 20.1674L56.5586 19.528C56.57 19.4786 56.6022 19.4427 56.6553 19.418C56.7065 19.3933 56.7559 19.3876 56.8052 19.4009C56.8242 19.4009 56.8489 19.4123 56.8792 19.437L57.5907 19.8562L57.4181 19.0441L57.4086 18.9701C57.4086 18.9207 57.4276 18.8751 57.4674 18.8334C57.5073 18.7898 57.5547 18.7689 57.6098 18.7689H58.2776C58.3327 18.7689 58.3801 18.7898 58.418 18.8334C58.4579 18.8751 58.4787 18.9207 58.4787 18.9701L58.4692 19.0441L58.2871 19.8562L59.008 19.437L59.0821 19.4009C59.0935 19.3933 59.1087 19.3914 59.1276 19.3914C59.175 19.3914 59.2206 19.4028 59.2605 19.4275C59.3004 19.4521 59.3231 19.4863 59.3288 19.528L59.547 20.1674L59.5565 20.2224C59.5565 20.2661 59.5432 20.3059 59.5166 20.3458C59.4882 20.3857 59.454 20.4122 59.4104 20.4236L59.3458 20.4426L58.5053 20.5241L59.1371 21.063C59.1732 21.1009 59.1922 21.1218 59.1922 21.1218C59.2149 21.1635 59.2283 21.2016 59.2283 21.2375C59.2283 21.3096 59.1998 21.3647 59.1448 21.4026L58.6059 21.8048C58.5698 21.822 58.5301 21.8315 58.4883 21.8315C58.4085 21.8315 58.3536 21.8068 58.3232 21.7574C58.3175 21.7517 58.3099 21.7442 58.3042 21.7347C58.2985 21.7272 58.289 21.712 58.2776 21.6948L57.9475 20.9169L57.6098 21.6948C57.5984 21.7118 57.5889 21.727 57.5832 21.7347C57.5755 21.7442 57.5699 21.7518 57.5642 21.7574C57.5338 21.8068 57.4789 21.8315 57.3991 21.8315C57.3574 21.8315 57.3176 21.822 57.2815 21.8048L56.7499 21.4025Z" fill="#FF7843"/>
<path d="M60.8178 21.4025C60.7627 21.3646 60.7362 21.3095 60.7362 21.2374C60.7362 21.2013 60.7476 21.1634 60.7723 21.1274L60.8179 21.0629L61.4498 20.5145L60.6169 20.4425L60.5448 20.4235C60.4954 20.4121 60.4594 20.3799 60.4348 20.3287C60.4101 20.2756 60.4044 20.2224 60.4158 20.1674L60.6265 19.528C60.6379 19.4786 60.6701 19.4427 60.7232 19.418C60.7744 19.3933 60.8237 19.3876 60.8731 19.4009C60.8921 19.4009 60.9167 19.4123 60.9471 19.437L61.6586 19.8562L61.486 19.0441L61.4765 18.9701C61.4765 18.9207 61.4955 18.8751 61.5353 18.8334C61.5752 18.7898 61.6226 18.7689 61.6777 18.7689H62.3455C62.4005 18.7689 62.448 18.7898 62.4859 18.8334C62.5258 18.8751 62.5467 18.9207 62.5467 18.9701L62.5372 19.0441L62.3551 19.8562L63.076 19.437L63.1501 19.4009C63.1615 19.3933 63.1767 19.3914 63.1956 19.3914C63.243 19.3914 63.2886 19.4028 63.3285 19.4275C63.3684 19.4521 63.3911 19.4863 63.3968 19.528L63.615 20.1674L63.6245 20.2224C63.6245 20.2661 63.6112 20.3059 63.5846 20.3458C63.5562 20.3857 63.522 20.4122 63.4784 20.4236L63.4138 20.4426L62.5733 20.5241L63.2051 21.063C63.2412 21.1009 63.2602 21.1218 63.2602 21.1218C63.2829 21.1635 63.2963 21.2016 63.2963 21.2375C63.2963 21.3096 63.2678 21.3647 63.2128 21.4026L62.6739 21.8048C62.6379 21.822 62.5981 21.8315 62.5563 21.8315C62.4765 21.8315 62.4216 21.8068 62.3912 21.7574C62.3855 21.7517 62.3779 21.7442 62.3722 21.7347C62.3665 21.7272 62.357 21.712 62.3456 21.6948L62.0155 20.9169L61.6778 21.6948C61.6664 21.7118 61.6569 21.727 61.6512 21.7347C61.6435 21.7442 61.6379 21.7518 61.6322 21.7574C61.6018 21.8068 61.5469 21.8315 61.4671 21.8315C61.4254 21.8315 61.3856 21.822 61.3495 21.8048L60.8178 21.4025Z" fill="#FF7843"/>
<path d="M81.2633 92.6543V95.0184C81.2633 95.3039 81.0235 95.5323 80.738 95.5323H58.9703C58.6848 95.5323 58.4564 95.3039 58.4564 95.0184V92.6543C58.4564 92.3688 58.6848 92.1405 58.9703 92.1405H80.738C81.0235 92.1405 81.2633 92.3688 81.2633 92.6543Z" fill="#DCE0EE"/>
<path d="M61.1746 94.5218C61.1658 94.5129 61.1613 94.5017 61.1613 94.4883V93.1856C61.1613 93.1712 61.1658 93.1589 61.1746 93.1499C61.1824 93.1398 61.1947 93.1354 61.2091 93.1354H61.7277C61.8917 93.1354 62.0199 93.1734 62.1125 93.2503C62.205 93.3262 62.252 93.4343 62.252 93.5738C62.252 93.6708 62.2285 93.7533 62.1817 93.8191C62.1349 93.8848 62.069 93.9328 61.9854 93.9618L62.2753 94.4725C62.2798 94.4803 62.2809 94.487 62.2809 94.4937C62.2809 94.506 62.2776 94.5159 62.2686 94.5238C62.2597 94.5316 62.2497 94.5361 62.2396 94.5361H62.0555C62.0344 94.5361 62.0176 94.5316 62.0053 94.5217C61.993 94.5116 61.9831 94.4982 61.973 94.4826L61.7176 94.0075H61.4433V94.4882C61.4433 94.5016 61.4388 94.5128 61.4288 94.5217C61.4199 94.5317 61.4076 94.5361 61.3931 94.5361H61.209C61.1958 94.5364 61.1846 94.5319 61.1746 94.5218ZM61.721 93.7802C61.8014 93.7802 61.8615 93.7623 61.9016 93.7267C61.9417 93.6922 61.9607 93.6396 61.9607 93.5717C61.9607 93.5036 61.9417 93.4512 61.9016 93.4155C61.8615 93.3787 61.8012 93.3597 61.721 93.3597H61.4433V93.7802H61.721Z" fill="#FF7843"/>
<path d="M62.5228 94.5218C62.5139 94.5129 62.5094 94.5017 62.5094 94.4883V93.1856C62.5094 93.1712 62.5139 93.1589 62.5228 93.1499C62.5305 93.1398 62.5428 93.1354 62.5573 93.1354H63.4395C63.454 93.1354 63.4663 93.1399 63.4753 93.1499C63.4852 93.1588 63.4897 93.1711 63.4897 93.1856V93.3195C63.4897 93.3339 63.4852 93.3462 63.4753 93.3552C63.4664 93.3641 63.4541 93.3675 63.4395 93.3675H62.7838V93.7177H63.396C63.4105 93.7177 63.4228 93.7233 63.4318 93.7321C63.4406 93.741 63.4451 93.7533 63.4451 93.7679V93.8939C63.4451 93.9084 63.4406 93.9207 63.4318 93.9297C63.4229 93.9375 63.4106 93.942 63.396 93.942H62.7838V94.3044H63.4551C63.4706 94.3044 63.4818 94.3089 63.4919 94.3178C63.5008 94.3256 63.5053 94.3379 63.5053 94.3523V94.4883C63.5053 94.5028 63.5008 94.5151 63.4919 94.5229C63.4818 94.5317 63.4708 94.5362 63.4551 94.5362H62.5573C62.544 94.5364 62.5329 94.5319 62.5228 94.5218Z" fill="#FF7843"/>
<path d="M63.936 94.5032C63.8513 94.4664 63.7865 94.4196 63.742 94.3605C63.6985 94.3025 63.675 94.2379 63.6729 94.1687C63.6729 94.1575 63.6763 94.1487 63.684 94.1397C63.6929 94.1308 63.7019 94.1263 63.7142 94.1263H63.896C63.9116 94.1263 63.9228 94.1296 63.9329 94.1364C63.9417 94.1431 63.9507 94.1532 63.9585 94.1642C63.9719 94.2099 64.002 94.2479 64.0499 94.2791C64.0967 94.3092 64.1615 94.3248 64.2451 94.3248C64.3378 94.3248 64.408 94.3092 64.4559 94.278C64.5027 94.2468 64.5273 94.2032 64.5273 94.1487C64.5273 94.1129 64.515 94.0829 64.4904 94.0583C64.467 94.0349 64.4303 94.0137 64.3822 93.9959C64.3331 93.978 64.2607 93.9558 64.1648 93.9301C64.0075 93.8933 63.8915 93.8443 63.8191 93.7829C63.7455 93.7215 63.7087 93.6335 63.7087 93.5186C63.7087 93.4417 63.7299 93.3725 63.7723 93.3112C63.8158 93.251 63.876 93.203 63.9552 93.1684C64.0356 93.1339 64.127 93.1161 64.233 93.1161C64.3433 93.1161 64.4393 93.1361 64.5196 93.174C64.601 93.2131 64.6623 93.2611 64.7036 93.3191C64.7461 93.377 64.7683 93.435 64.7706 93.493C64.7706 93.5031 64.7672 93.5131 64.7594 93.522C64.7506 93.5298 64.7416 93.5343 64.7293 93.5343H64.5386C64.5095 93.5343 64.4895 93.5231 64.4795 93.4986C64.4728 93.4562 64.4461 93.4206 64.4014 93.3915C64.3557 93.3626 64.3 93.348 64.2331 93.348C64.1596 93.348 64.1015 93.3624 64.0602 93.3904C64.0178 93.4182 63.9967 93.4596 63.9967 93.5131C63.9967 93.5488 64.0079 93.5788 64.029 93.6023C64.0502 93.6268 64.0836 93.648 64.1294 93.6658C64.174 93.6837 64.2398 93.7038 64.3268 93.726C64.4462 93.7528 64.5399 93.7829 64.61 93.8163C64.6803 93.8498 64.7316 93.8922 64.765 93.9424C64.7984 93.9937 64.8152 94.0583 64.8152 94.1364C64.8152 94.2234 64.7918 94.298 64.7439 94.3616C64.6971 94.4252 64.6301 94.4732 64.5443 94.5066C64.4585 94.5401 64.358 94.5568 64.2454 94.5568C64.1245 94.5568 64.022 94.539 63.936 94.5032Z" fill="#FF7843"/>
<path d="M65.0557 94.5218C65.0469 94.5129 65.0424 94.5017 65.0424 94.4883V93.1856C65.0424 93.1712 65.0469 93.1589 65.0557 93.1499C65.0635 93.1398 65.0758 93.1354 65.0903 93.1354H65.9725C65.987 93.1354 65.9992 93.1399 66.0082 93.1499C66.0183 93.1588 66.0227 93.1711 66.0227 93.1856V93.3195C66.0227 93.3339 66.0182 93.3462 66.0082 93.3552C65.9994 93.3641 65.9871 93.3675 65.9725 93.3675H65.3167V93.7177H65.929C65.9434 93.7177 65.9557 93.7233 65.9647 93.7321C65.9736 93.741 65.9781 93.7533 65.9781 93.7679V93.8939C65.9781 93.9084 65.9736 93.9207 65.9647 93.9297C65.9558 93.9375 65.9436 93.942 65.929 93.942H65.3167V94.3044H65.9881C66.0036 94.3044 66.0148 94.3089 66.0249 94.3178C66.0338 94.3256 66.0383 94.3379 66.0383 94.3523V94.4883C66.0383 94.5028 66.0338 94.5151 66.0249 94.5229C66.0148 94.5317 66.0037 94.5362 65.9881 94.5362H65.0903C65.077 94.5364 65.0658 94.5319 65.0557 94.5218Z" fill="#FF7843"/>
<path d="M66.6117 94.5218C66.6016 94.5129 66.5972 94.5017 66.5972 94.4883V93.3864H66.227C66.2136 93.3864 66.2024 93.3809 66.1935 93.372C66.1835 93.3631 66.1791 93.3508 66.1791 93.3362V93.1856C66.1791 93.1712 66.1836 93.1589 66.1924 93.1499C66.2013 93.1398 66.2125 93.1354 66.227 93.1354H67.2497C67.2642 93.1354 67.2765 93.1399 67.2855 93.1499C67.2956 93.1588 67.2999 93.1711 67.2999 93.1856V93.3362C67.2999 93.3507 67.2954 93.363 67.2855 93.372C67.2766 93.3809 67.2643 93.3864 67.2497 93.3864H66.8817V94.4883C66.8817 94.5017 66.8772 94.5129 66.8683 94.5218C66.8594 94.5319 66.8482 94.5362 66.8338 94.5362H66.6452C66.6317 94.5364 66.6206 94.5319 66.6117 94.5218Z" fill="#FF7843"/>
<path d="M67.9232 94.5218C67.9143 94.5129 67.9098 94.5017 67.9098 94.4883V93.1856C67.9098 93.1712 67.9143 93.1589 67.9232 93.1499C67.9309 93.1398 67.9432 93.1354 67.9577 93.1354H68.4941C68.6547 93.1354 68.7818 93.1734 68.8744 93.2503C68.9659 93.3262 69.0117 93.4365 69.0117 93.5815C69.0117 93.7255 68.966 93.8347 68.8744 93.9095C68.7818 93.9832 68.6547 94.0199 68.4941 94.0199H68.1997V94.4883C68.1997 94.5028 68.1952 94.5151 68.1852 94.5229C68.1764 94.5317 68.1641 94.5362 68.1495 94.5362H67.9577C67.9443 94.5364 67.9331 94.5319 67.9232 94.5218ZM68.4841 93.7957C68.5611 93.7957 68.6202 93.7779 68.6615 93.741C68.7016 93.7042 68.7217 93.6507 68.7217 93.5804C68.7217 93.5102 68.7027 93.4567 68.6626 93.4176C68.6236 93.3796 68.5645 93.3596 68.4841 93.3596H68.1953V93.7957H68.4841Z" fill="#FF7843"/>
<path d="M69.024 94.5241C69.0162 94.5163 69.0117 94.5062 69.0117 94.4939L69.0162 94.4761L69.4957 93.1856C69.5091 93.1522 69.5337 93.1354 69.5682 93.1354H69.7878C69.8224 93.1354 69.8469 93.1522 69.8603 93.1856L70.3398 94.4761L70.3443 94.4939C70.3443 94.5062 70.3398 94.5162 70.3309 94.5241C70.3221 94.5319 70.3131 94.5364 70.3019 94.5364H70.1245C70.0956 94.5364 70.0767 94.5241 70.0655 94.4984L69.9741 94.2564H69.3819L69.2892 94.4984C69.2791 94.5241 69.2602 94.5364 69.2312 94.5364H69.0539C69.0419 94.5364 69.0318 94.5319 69.024 94.5241ZM69.4522 94.0244H69.9039L69.6775 93.4076L69.4522 94.0244Z" fill="#FF7843"/>
<path d="M70.688 94.5032C70.6032 94.4664 70.5386 94.4196 70.494 94.3605C70.4504 94.3025 70.427 94.2379 70.4248 94.1687C70.4248 94.1575 70.4282 94.1487 70.436 94.1397C70.4449 94.1308 70.4539 94.1263 70.4661 94.1263H70.648C70.6635 94.1263 70.6747 94.1296 70.6848 94.1364C70.6937 94.1431 70.7027 94.1532 70.7105 94.1642C70.7238 94.2099 70.754 94.2479 70.8019 94.2791C70.8487 94.3092 70.9133 94.3248 70.9971 94.3248C71.0897 94.3248 71.16 94.3092 71.2079 94.278C71.2547 94.2468 71.2792 94.2032 71.2792 94.1487C71.2792 94.1129 71.2669 94.0829 71.2424 94.0583C71.2189 94.0349 71.1822 94.0137 71.1342 93.9959C71.0851 93.978 71.0126 93.9558 70.9167 93.9301C70.7594 93.8933 70.6435 93.8443 70.571 93.7829C70.4974 93.7215 70.4607 93.6335 70.4607 93.5186C70.4607 93.4417 70.4818 93.3725 70.5242 93.3112C70.5678 93.251 70.6279 93.203 70.7072 93.1684C70.7875 93.1339 70.8789 93.1161 70.9849 93.1161C71.0953 93.1161 71.1912 93.1361 71.2716 93.174C71.353 93.2131 71.4143 93.2611 71.4556 93.3191C71.498 93.377 71.5203 93.435 71.5224 93.493C71.5224 93.5031 71.5192 93.5131 71.5113 93.522C71.5024 93.5298 71.4934 93.5343 71.4811 93.5343H71.2904C71.2613 93.5343 71.2413 93.5231 71.2313 93.4986C71.2246 93.4562 71.1979 93.4206 71.1533 93.3915C71.1076 93.3626 71.0518 93.348 70.9849 93.348C70.9113 93.348 70.8533 93.3624 70.8121 93.3904C70.7697 93.4182 70.7485 93.4596 70.7485 93.5131C70.7485 93.5488 70.7597 93.5788 70.7808 93.6023C70.802 93.6268 70.8355 93.648 70.8812 93.6658C70.9259 93.6837 70.9916 93.7038 71.0786 93.726C71.198 93.7528 71.2917 93.7829 71.362 93.8163C71.4322 93.8498 71.4835 93.8922 71.517 93.9424C71.5504 93.9937 71.5672 94.0583 71.5672 94.1364C71.5672 94.2234 71.5437 94.298 71.4958 94.3616C71.449 94.4252 71.382 94.4732 71.2962 94.5066C71.2104 94.5401 71.11 94.5568 70.9973 94.5568C70.8765 94.5568 70.7739 94.539 70.688 94.5032Z" fill="#FF7843"/>
<path d="M71.974 94.5032C71.8893 94.4664 71.8246 94.4196 71.78 94.3605C71.7365 94.3025 71.7131 94.2379 71.7108 94.1687C71.7108 94.1575 71.7142 94.1487 71.722 94.1397C71.7309 94.1308 71.7399 94.1263 71.7521 94.1263H71.934C71.9495 94.1263 71.9607 94.1296 71.9708 94.1364C71.9797 94.1431 71.9887 94.1532 71.9965 94.1642C72.0098 94.2099 72.04 94.2479 72.0879 94.2791C72.1347 94.3092 72.1993 94.3248 72.2831 94.3248C72.3757 94.3248 72.446 94.3092 72.4939 94.278C72.5407 94.2468 72.5652 94.2032 72.5652 94.1487C72.5652 94.1129 72.5529 94.0829 72.5284 94.0583C72.5049 94.0349 72.4682 94.0137 72.4202 93.9959C72.3711 93.978 72.2987 93.9558 72.2027 93.9301C72.0455 93.8933 71.9295 93.8443 71.857 93.7829C71.7834 93.7215 71.7467 93.6335 71.7467 93.5186C71.7467 93.4417 71.7678 93.3725 71.8102 93.3112C71.8538 93.251 71.9139 93.203 71.9932 93.1684C72.0735 93.1339 72.1649 93.1161 72.2709 93.1161C72.3813 93.1161 72.4772 93.1361 72.5576 93.174C72.639 93.2131 72.7003 93.2611 72.7416 93.3191C72.784 93.377 72.8063 93.435 72.8085 93.493C72.8085 93.5031 72.8052 93.5131 72.7973 93.522C72.7884 93.5298 72.7794 93.5343 72.7671 93.5343H72.5764C72.5474 93.5343 72.5273 93.5231 72.5173 93.4986C72.5106 93.4562 72.4839 93.4206 72.4393 93.3915C72.3936 93.3626 72.3378 93.348 72.2709 93.348C72.1973 93.348 72.1393 93.3624 72.0981 93.3904C72.0557 93.4182 72.0345 93.4596 72.0345 93.5131C72.0345 93.5488 72.0457 93.5788 72.0669 93.6023C72.088 93.6268 72.1215 93.648 72.1673 93.6658C72.2119 93.6837 72.2776 93.7038 72.3647 93.726C72.484 93.7528 72.5777 93.7829 72.648 93.8163C72.7183 93.8498 72.7696 93.8922 72.803 93.9424C72.8364 93.9937 72.8532 94.0583 72.8532 94.1364C72.8532 94.2234 72.8297 94.298 72.7818 94.3616C72.735 94.4252 72.6681 94.4732 72.5822 94.5066C72.4964 94.5401 72.396 94.5568 72.2833 94.5568C72.1625 94.5568 72.0599 94.539 71.974 94.5032Z" fill="#FF7843"/>
<path d="M73.2198 94.4761L72.9834 93.1935L72.9812 93.178C72.9812 93.1657 72.9857 93.1557 72.9935 93.1478C73.0013 93.1401 73.0113 93.1356 73.0236 93.1356H73.2032C73.221 93.1356 73.2333 93.139 73.2411 93.1444C73.25 93.1511 73.2545 93.1612 73.2579 93.1757L73.424 94.0757L73.6014 93.4957C73.6147 93.4623 73.6371 93.4455 73.6671 93.4455H73.7775C73.7954 93.4455 73.8087 93.4511 73.8199 93.4611C73.83 93.4712 73.8378 93.4822 73.8422 93.4956L74.0217 94.0755L74.1857 93.1756C74.1902 93.1488 74.2079 93.1354 74.2415 93.1354H74.4221C74.4322 93.1354 74.4422 93.1399 74.4499 93.1477C74.4577 93.1555 74.4622 93.1656 74.4622 93.1779C74.4622 93.1845 74.4611 93.1901 74.46 93.1934L74.2236 94.4759C74.2214 94.4949 74.2135 94.5094 74.2014 94.5206C74.188 94.5306 74.1723 94.5361 74.1522 94.5361H74.0162C73.9973 94.5361 73.9817 94.5316 73.9694 94.5217C73.9583 94.5116 73.9494 94.4994 73.946 94.4859L73.7218 93.8223L73.4977 94.4859C73.4865 94.5193 73.4632 94.5361 73.4274 94.5361H73.2914C73.2532 94.5364 73.2287 94.5162 73.2198 94.4761Z" fill="#FF7843"/>
<path d="M74.7912 94.4188C74.6897 94.3273 74.6362 94.1901 74.6317 94.0083C74.6295 93.9703 74.6295 93.9135 74.6295 93.8387C74.6295 93.7629 74.6295 93.7049 74.6317 93.6669C74.6362 93.4896 74.6908 93.3536 74.7957 93.2588C74.8994 93.164 75.0399 93.1161 75.2172 93.1161C75.3935 93.1161 75.534 93.1641 75.6388 93.2588C75.7436 93.3536 75.7983 93.4896 75.8039 93.6669C75.806 93.7439 75.8073 93.8008 75.8073 93.8387C75.8073 93.8744 75.8062 93.9312 75.8039 94.0083C75.7983 94.1901 75.7448 94.3272 75.6422 94.4188C75.5407 94.5113 75.3991 94.5571 75.2172 94.5571C75.0343 94.5571 74.8927 94.5114 74.7912 94.4188ZM75.4291 94.2448C75.4815 94.1913 75.5095 94.1099 75.5138 93.9983C75.516 93.9192 75.5171 93.8645 75.5171 93.8366C75.5171 93.8065 75.516 93.7519 75.5138 93.675C75.5093 93.5657 75.4804 93.4842 75.4279 93.4297C75.3744 93.3762 75.3041 93.3482 75.2171 93.3482C75.129 93.3482 75.0587 93.3761 75.0052 93.4297C74.9518 93.4844 74.9238 93.5657 74.9216 93.675C74.9205 93.714 74.9194 93.7676 74.9194 93.8366C74.9194 93.9047 74.9205 93.9593 74.9216 93.9983C74.9238 94.1087 74.9518 94.1901 75.0042 94.2437C75.0565 94.2984 75.1279 94.3252 75.2171 94.3252C75.3063 94.3252 75.3778 94.2983 75.4291 94.2448Z" fill="#FF7843"/>
<path d="M76.0815 94.5218C76.0726 94.5129 76.0681 94.5017 76.0681 94.4883V93.1856C76.0681 93.1712 76.0726 93.1589 76.0815 93.1499C76.0893 93.1398 76.1015 93.1354 76.116 93.1354H76.6345C76.7985 93.1354 76.9268 93.1734 77.0193 93.2503C77.1118 93.3262 77.1587 93.4343 77.1587 93.5738C77.1587 93.6708 77.1352 93.7533 77.0884 93.8191C77.0416 93.8848 76.9758 93.9328 76.8921 93.9618L77.1822 94.4725C77.1867 94.4803 77.1877 94.487 77.1877 94.4937C77.1877 94.506 77.1843 94.5159 77.1755 94.5238C77.1666 94.5316 77.1565 94.5361 77.1464 94.5361H76.9624C76.9412 94.5361 76.9245 94.5316 76.9122 94.5217C76.8999 94.5116 76.8899 94.4982 76.8799 94.4826L76.6245 94.0075H76.3501V94.4882C76.3501 94.5016 76.3456 94.5128 76.3356 94.5217C76.3268 94.5317 76.3145 94.5361 76.2999 94.5361H76.1159C76.1028 94.5364 76.0916 94.5319 76.0815 94.5218ZM76.628 93.7802C76.7083 93.7802 76.7685 93.7623 76.8086 93.7267C76.8487 93.6922 76.8677 93.6396 76.8677 93.5717C76.8677 93.5036 76.8487 93.4512 76.8086 93.4155C76.7685 93.3787 76.7082 93.3597 76.628 93.3597H76.3502V93.7802H76.628Z" fill="#FF7843"/>
<path d="M77.4299 94.5218C77.421 94.5129 77.4165 94.5017 77.4165 94.4883V93.1856C77.4165 93.1712 77.421 93.1589 77.4299 93.1499C77.4377 93.1398 77.4499 93.1354 77.4644 93.1354H77.9529C78.3455 93.1354 78.5462 93.3173 78.5552 93.6796C78.5574 93.7577 78.5585 93.809 78.5585 93.8358C78.5585 93.8615 78.5574 93.9128 78.5552 93.9897C78.5496 94.177 78.4994 94.3143 78.4035 94.4035C78.3087 94.4916 78.1615 94.5362 77.963 94.5362H77.4645C77.451 94.5364 77.44 94.5319 77.4299 94.5218ZM77.9529 94.3043C78.0633 94.3043 78.1436 94.2798 78.1927 94.2306C78.2419 94.1804 78.2675 94.099 78.2708 93.9841C78.273 93.9038 78.2742 93.8537 78.2742 93.8335C78.2742 93.8124 78.2731 93.7633 78.2708 93.6863C78.2675 93.577 78.2406 93.4956 78.1883 93.4443C78.137 93.393 78.0544 93.3674 77.9428 93.3674H77.6986V94.3042H77.9529V94.3043Z" fill="#FF7843"/>
<path d="M73.6831 105.917C71.9328 107.662 69.0908 107.662 67.3454 105.917C65.5999 104.171 65.5999 101.329 67.3454 99.5838C68.5697 98.3595 70.4136 97.9563 72.0312 98.5365L72.5819 97.681L73.5996 99.6625L71.3772 99.5543L71.9083 98.7283C70.389 98.2022 68.6533 98.5906 67.5028 99.7411C65.8458 101.398 65.8458 104.102 67.5028 105.759C69.1647 107.421 71.8641 107.421 73.5211 105.759L73.6831 105.917Z" fill="#908793"/>
<path d="M71.6768 102.455H69.1345V100.936C69.1345 100.236 69.7047 99.6654 70.4055 99.6654C71.1066 99.6654 71.6768 100.236 71.6768 100.936V102.455ZM69.3671 102.223H71.4443V100.936C71.4443 100.364 70.9784 99.898 70.4055 99.898C69.833 99.898 69.3671 100.364 69.3671 100.936V102.223Z" fill="#BCB4BF"/>
<path d="M72.1428 102.034V105.084C72.1428 105.163 72.0764 105.23 71.9965 105.23H68.8143C68.7346 105.23 68.668 105.163 68.668 105.084V102.034C68.668 101.951 68.7345 101.885 68.8143 101.885H71.9965C72.0764 101.885 72.1428 101.951 72.1428 102.034Z" fill="#FF7843"/>
<path d="M70.2894 104.129V104.24H70.5218V104.129C70.5218 103.893 70.6152 103.675 70.7389 103.474C70.7758 103.414 70.7971 103.343 70.7971 103.268C70.7971 103.053 70.6228 102.876 70.4054 102.876C70.1882 102.876 70.0138 103.053 70.0138 103.268C70.0138 103.343 70.0352 103.414 70.072 103.474C70.1959 103.675 70.2894 103.893 70.2894 104.129Z" fill="#E8601E"/>
<path d="M70.3476 103.651V103.706H70.4638V103.651C70.4638 103.533 70.5104 103.424 70.5723 103.323C70.5908 103.293 70.6015 103.258 70.6015 103.22C70.6015 103.113 70.5143 103.024 70.4057 103.024C70.297 103.024 70.2098 103.113 70.2098 103.22C70.2098 103.258 70.2205 103.293 70.239 103.323C70.3008 103.424 70.3476 103.533 70.3476 103.651Z" fill="#F7651E"/>
<path d="M72.1425 102.33H71.5607V102.493H72.1425V102.33Z" fill="#F7651E"/>
<path d="M72.1425 102.862H71.5607V103.025H72.1425V102.862Z" fill="#F7651E"/>
<path d="M72.1425 103.394H71.5607V103.557H72.1425V103.394Z" fill="#F7651E"/>
<path d="M72.1425 103.926H71.5607V104.089H72.1425V103.926Z" fill="#F7651E"/>
<path d="M72.1425 104.458H71.5607V104.621H72.1425V104.458Z" fill="#F7651E"/>
</svg>
