<svg width="110" height="80" viewBox="0 0 110 80" fill="none" xmlns="http://www.w3.org/2000/svg">
<path d="M67.3635 58.3459C65.4253 60.8043 59.3451 61.5771 57.6917 56.1904" stroke="#D8E4EF" stroke-width="2" stroke-linecap="round" stroke-linejoin="round"/>
<path d="M6.51294 29.142C10.0429 28.7027 12.8248 26.5504 12.0248 24.2733C11.2249 21.9962 7.39614 21.4481 6.24855 23.5138C4.95789 25.837 3.65719 29.4972 6.51294 29.142Z" fill="#F2F5FA"/>
<path d="M7.5293 35.7395C8.52306 34.9647 6.38218 34.3071 5.8078 35.5795C5.23342 36.8519 6.27534 36.7174 7.5293 35.7395Z" fill="#F2F5FA"/>
<path d="M55.0607 59.0958C56.663 58.3393 57.9094 60.9764 56.2167 60.8634C54.3339 60.7378 53.7008 59.738 55.0607 59.0958Z" fill="#D7E3F4"/>
<path d="M104.873 68.4092C103.789 67.654 104.843 67.0519 106.037 66.6608C107.23 66.2697 105.809 69.0616 104.873 68.4092Z" fill="#F2F5FA"/>
<path d="M108.151 54.5788C108.268 53.2134 111.001 54.363 109.603 55.5533C108.204 56.7436 108.055 55.6989 108.151 54.5788Z" fill="#F2F5FA"/>
<path d="M65.1923 61.891C66.2824 60.8785 69.1954 62.5649 67.5625 63.1292C65.9296 63.6935 64.508 62.5271 65.1923 61.891Z" stroke="#D8E4EF" stroke-width="2" stroke-linecap="round" stroke-linejoin="round"/>
<path d="M10.9333 32.7246C11.824 31.4737 8.53737 31.1845 9.12507 32.2339C9.71277 33.2832 10.1724 33.7921 10.9333 32.7246Z" fill="#F2F5FA"/>
<path d="M27.1661 10.8854C27.1369 10.8856 27.1085 10.8757 27.0856 10.8575C27.0627 10.8393 27.0465 10.8138 27.0398 10.7851C27.0331 10.7564 27.0362 10.7263 27.0487 10.6996C27.0611 10.673 27.0821 10.6514 27.1083 10.6383C27.1742 10.6055 27.2425 10.5739 27.311 10.5439C27.3267 10.5368 27.3436 10.5328 27.3608 10.5323C27.378 10.5319 27.3952 10.5349 27.4112 10.5412C27.4273 10.5475 27.4419 10.557 27.4543 10.569C27.4666 10.5811 27.4765 10.5956 27.4832 10.6116C27.49 10.6276 27.4935 10.6448 27.4936 10.6621C27.4937 10.6795 27.4903 10.6967 27.4838 10.7128C27.4772 10.7289 27.4675 10.7434 27.4552 10.7556C27.443 10.7679 27.4284 10.7775 27.4125 10.784C27.3484 10.8113 27.2848 10.8406 27.2236 10.8713C27.2057 10.8804 27.1861 10.8853 27.1661 10.8854Z" fill="#D8E4EF"/>
<path d="M32.7304 11.1219H32.7184C32.562 11.1076 32.4064 11.0851 32.2523 11.0547C32.2357 11.0514 32.2198 11.0448 32.2057 11.0353C32.1916 11.0258 32.1795 11.0136 32.17 10.9994C32.1606 10.9852 32.154 10.9693 32.1506 10.9525C32.1473 10.9357 32.1472 10.9184 32.1505 10.9016C32.1538 10.8848 32.1603 10.8688 32.1697 10.8546C32.1791 10.8403 32.1911 10.8281 32.2052 10.8185C32.2193 10.809 32.2351 10.8023 32.2517 10.799C32.2683 10.7956 32.2855 10.7955 32.3021 10.7988C32.4475 10.8276 32.5943 10.8488 32.7418 10.8623C32.7742 10.8662 32.8039 10.8822 32.8251 10.9073C32.8462 10.9324 32.8571 10.9646 32.8557 10.9975C32.8542 11.0304 32.8405 11.0615 32.8172 11.0846C32.794 11.1077 32.763 11.121 32.7304 11.1219ZM33.644 11.1099C33.6111 11.1097 33.5796 11.0969 33.5558 11.0741C33.532 11.0513 33.5178 11.0202 33.5159 10.9871C33.514 10.954 33.5247 10.9214 33.5457 10.896C33.5668 10.8706 33.5966 10.8543 33.6292 10.8503C33.7765 10.8332 33.9228 10.8086 34.0675 10.7764C34.0841 10.7727 34.1012 10.7724 34.1179 10.7754C34.1346 10.7783 34.1506 10.7846 34.1649 10.7938C34.1792 10.8031 34.1915 10.815 34.2012 10.8291C34.211 10.8431 34.2178 10.8589 34.2215 10.8757C34.2251 10.8924 34.2255 10.9097 34.2225 10.9265C34.2196 10.9434 34.2133 10.9595 34.2042 10.9739C34.1951 10.9884 34.1832 11.0008 34.1693 11.0106C34.1554 11.0204 34.1397 11.0274 34.1232 11.0311C33.9698 11.065 33.8149 11.0911 33.6589 11.1092C33.6539 11.1098 33.6489 11.11 33.644 11.1099ZM31.3997 10.8002C31.3865 10.8002 31.3733 10.7981 31.3607 10.7941C31.2162 10.7469 31.0706 10.7061 30.9275 10.669C30.9111 10.6647 30.8957 10.6572 30.8822 10.647C30.8686 10.6367 30.8572 10.6238 30.8486 10.609C30.84 10.5943 30.8344 10.578 30.832 10.5611C30.8296 10.5441 30.8306 10.5269 30.8348 10.5103C30.8391 10.4937 30.8465 10.4782 30.8567 10.4645C30.8669 10.4508 30.8796 10.4393 30.8942 10.4306C30.9088 10.4219 30.925 10.4162 30.9418 10.4139C30.9585 10.4115 30.9756 10.4124 30.992 10.4167C31.1396 10.4547 31.2899 10.4981 31.4388 10.5456C31.4683 10.5549 31.4935 10.5745 31.5099 10.601C31.5262 10.6275 31.5326 10.659 31.5279 10.6899C31.5232 10.7207 31.5076 10.7488 31.4841 10.7691C31.4606 10.7894 31.4307 10.8004 31.3997 10.8002ZM28.2382 10.5319C28.2041 10.535 28.1702 10.5243 28.1439 10.5022C28.1176 10.4801 28.101 10.4483 28.0979 10.4139C28.0948 10.3795 28.1054 10.3452 28.1273 10.3186C28.1493 10.2921 28.1807 10.2754 28.2148 10.2723C28.3654 10.2437 28.5215 10.2213 28.6793 10.2062C28.6962 10.2045 28.7133 10.2062 28.7295 10.2112C28.7457 10.2162 28.7608 10.2244 28.7739 10.2353C28.787 10.2462 28.7979 10.2595 28.8058 10.2747C28.8138 10.2898 28.8188 10.3063 28.8204 10.3234C28.8221 10.3404 28.8204 10.3576 28.8154 10.374C28.8105 10.3904 28.8024 10.4056 28.7916 10.4189C28.7808 10.4321 28.7676 10.443 28.7526 10.4511C28.7376 10.4591 28.7212 10.4641 28.7043 10.4658C28.5543 10.4802 28.4056 10.5014 28.2628 10.5286C28.2544 10.5305 28.2458 10.5316 28.2373 10.5319H28.2382ZM30.0616 10.4974C30.056 10.4979 30.0504 10.4979 30.0448 10.4974C29.8947 10.4778 29.7444 10.4634 29.5981 10.4545C29.5802 10.4549 29.5624 10.4516 29.5458 10.4447C29.5293 10.4378 29.5143 10.4276 29.5019 10.4146C29.4895 10.4016 29.4799 10.3861 29.4737 10.3691C29.4675 10.3522 29.4649 10.3341 29.4659 10.3161C29.467 10.298 29.4718 10.2804 29.48 10.2643C29.4882 10.2483 29.4996 10.2341 29.5135 10.2227C29.5274 10.2113 29.5434 10.2029 29.5607 10.1981C29.578 10.1934 29.596 10.1922 29.6137 10.1949C29.7659 10.2043 29.9223 10.2185 30.0782 10.2397C30.111 10.2437 30.141 10.2602 30.162 10.2858C30.1831 10.3114 30.1937 10.3442 30.1915 10.3774C30.1894 10.4107 30.1748 10.4418 30.1506 10.4645C30.1264 10.4871 30.0946 10.4996 30.0616 10.4993V10.4974Z" fill="#D8E4EF"/>
<path d="M34.9651 10.7441C34.9356 10.7442 34.9069 10.7341 34.8839 10.7155C34.8608 10.6969 34.8448 10.6709 34.8385 10.6418C34.8321 10.6127 34.8358 10.5823 34.849 10.5556C34.8622 10.529 34.884 10.5077 34.9108 10.4953C35.0263 10.4417 35.0904 10.4037 35.0908 10.4032C35.1054 10.3944 35.1216 10.3885 35.1384 10.386C35.1552 10.3834 35.1724 10.3842 35.1889 10.3884C35.2054 10.3926 35.2209 10.4 35.2346 10.4102C35.2482 10.4204 35.2597 10.4333 35.2685 10.448C35.2772 10.4627 35.283 10.4791 35.2855 10.4961C35.2879 10.5131 35.2871 10.5304 35.2829 10.547C35.2787 10.5637 35.2713 10.5793 35.2612 10.5931C35.251 10.6068 35.2382 10.6185 35.2236 10.6272C35.2206 10.6291 35.1486 10.6721 35.0193 10.732C35.0023 10.7399 34.9838 10.744 34.9651 10.7441Z" fill="#D8E4EF"/>
<path d="M21.9239 11.8831C21.8947 11.8832 21.8664 11.8733 21.8435 11.8551C21.8206 11.8369 21.8045 11.8113 21.7979 11.7827C21.7912 11.754 21.7943 11.7239 21.8068 11.6973C21.8192 11.6706 21.8402 11.6491 21.8664 11.636C21.9323 11.6032 22.0003 11.5716 22.069 11.5416C22.0846 11.5349 22.1014 11.5314 22.1183 11.5312C22.1353 11.531 22.1521 11.5342 22.1678 11.5406C22.1836 11.547 22.1979 11.5564 22.21 11.5684C22.2221 11.5804 22.2318 11.5947 22.2384 11.6104C22.2451 11.6262 22.2486 11.6431 22.2487 11.6602C22.2489 11.6773 22.2457 11.6943 22.2394 11.7102C22.2331 11.726 22.2237 11.7405 22.2119 11.7527C22.2 11.765 22.1859 11.7747 22.1703 11.7814C22.1065 11.8088 22.0429 11.8381 21.9816 11.8687C21.9638 11.878 21.944 11.883 21.9239 11.8831Z" fill="#D8E4EF"/>
<path d="M27.4883 12.1196C27.4844 12.1198 27.4805 12.1198 27.4766 12.1196C27.3197 12.1054 27.1637 12.0829 27.0091 12.0523C26.9923 12.0492 26.9763 12.0427 26.9621 12.0333C26.9478 12.0238 26.9355 12.0116 26.926 11.9974C26.9164 11.9831 26.9097 11.9671 26.9063 11.9502C26.9029 11.9333 26.9029 11.9159 26.9062 11.899C26.9095 11.8821 26.9161 11.8661 26.9256 11.8518C26.9351 11.8374 26.9473 11.8252 26.9615 11.8157C26.9757 11.8062 26.9917 11.7996 27.0084 11.7963C27.0252 11.7931 27.0424 11.7932 27.0591 11.7967C27.2045 11.8254 27.3513 11.8465 27.4988 11.86C27.5312 11.8638 27.561 11.8799 27.5821 11.905C27.6032 11.9302 27.6141 11.9624 27.6126 11.9953C27.6111 12.0282 27.5974 12.0593 27.5741 12.0824C27.5508 12.1054 27.5198 12.1187 27.4872 12.1196H27.4883ZM28.4019 12.1076C28.3691 12.1074 28.3376 12.0946 28.3138 12.0717C28.29 12.0489 28.2757 12.0178 28.2738 11.9847C28.272 11.9517 28.2826 11.9191 28.3037 11.8937C28.3247 11.8683 28.3546 11.8519 28.3872 11.8479C28.5338 11.8307 28.6815 11.8059 28.8257 11.7741C28.8423 11.7702 28.8595 11.7697 28.8763 11.7726C28.8931 11.7755 28.9092 11.7817 28.9236 11.7909C28.938 11.8001 28.9504 11.8121 28.9602 11.8262C28.97 11.8403 28.977 11.8562 28.9806 11.873C28.9843 11.8898 28.9846 11.9071 28.9816 11.9241C28.9786 11.941 28.9723 11.9572 28.9631 11.9716C28.9539 11.9861 28.9419 11.9985 28.9279 12.0083C28.9138 12.0181 28.898 12.0249 28.8814 12.0285C28.7285 12.0623 28.5723 12.0887 28.4171 12.1069C28.412 12.1073 28.407 12.1076 28.4019 12.1076ZM26.1577 11.7979C26.1444 11.7978 26.1313 11.7958 26.1186 11.7918C25.9744 11.7446 25.8288 11.7037 25.6855 11.6667C25.6523 11.658 25.6239 11.6365 25.6066 11.6067C25.5892 11.5769 25.5842 11.5414 25.5928 11.508C25.6013 11.4745 25.6227 11.4458 25.6522 11.4283C25.6817 11.4107 25.7169 11.4057 25.75 11.4144C25.8977 11.4524 26.0481 11.4958 26.1967 11.5432C26.2262 11.5525 26.2515 11.5722 26.2678 11.5987C26.2842 11.6252 26.2906 11.6567 26.2859 11.6876C26.2811 11.7184 26.2656 11.7465 26.2421 11.7668C26.2185 11.787 26.1886 11.7981 26.1577 11.7979ZM22.9962 11.5296C22.9639 11.5296 22.9329 11.5175 22.9091 11.4956C22.8852 11.4736 22.8704 11.4435 22.8675 11.4111C22.8645 11.3787 22.8737 11.3464 22.8932 11.3205C22.9127 11.2946 22.9411 11.277 22.9728 11.2711C23.1233 11.2426 23.2797 11.2204 23.4375 11.205C23.4544 11.2034 23.4714 11.2051 23.4877 11.2101C23.5039 11.2151 23.519 11.2233 23.5321 11.2342C23.5452 11.2451 23.556 11.2585 23.564 11.2736C23.5719 11.2887 23.5769 11.3053 23.5785 11.3223C23.5801 11.3394 23.5784 11.3566 23.5734 11.373C23.5685 11.3893 23.5604 11.4046 23.5496 11.4178C23.5388 11.431 23.5255 11.4419 23.5106 11.45C23.4956 11.458 23.4792 11.463 23.4623 11.4646C23.3122 11.4793 23.1638 11.5003 23.0209 11.5274C23.0125 11.529 23.0038 11.5297 22.9952 11.5296H22.9962ZM24.8196 11.4951C24.8139 11.4952 24.8082 11.4948 24.8025 11.4939C24.6527 11.4743 24.5024 11.4599 24.356 11.451C24.3384 11.4509 24.321 11.4473 24.3049 11.4402C24.2887 11.4332 24.2742 11.4228 24.2621 11.4099C24.2501 11.397 24.2408 11.3817 24.2348 11.365C24.2288 11.3482 24.2263 11.3305 24.2274 11.3128C24.2284 11.295 24.2331 11.2777 24.241 11.2619C24.249 11.246 24.26 11.232 24.2736 11.2206C24.2871 11.2092 24.3027 11.2008 24.3196 11.1957C24.3365 11.1907 24.3542 11.1892 24.3717 11.1913C24.5239 11.2005 24.68 11.2149 24.8359 11.2359C24.8687 11.2399 24.8986 11.2564 24.9197 11.282C24.9408 11.3076 24.9513 11.3404 24.9492 11.3736C24.9472 11.4068 24.9325 11.4379 24.9084 11.4606C24.8843 11.4833 24.8525 11.4958 24.8196 11.4956V11.4951Z" fill="#D8E4EF"/>
<path d="M29.7226 11.7417C29.6931 11.7419 29.6645 11.7318 29.6414 11.7132C29.6184 11.6946 29.6024 11.6686 29.596 11.6395C29.5897 11.6104 29.5934 11.58 29.6066 11.5533C29.6197 11.5267 29.6416 11.5054 29.6684 11.493C29.7839 11.4394 29.8479 11.4014 29.8484 11.4009C29.8778 11.3844 29.9123 11.3801 29.9448 11.3889C29.9772 11.3977 30.005 11.4189 30.0223 11.448C30.0395 11.4772 30.0448 11.5119 30.0371 11.5449C30.0294 11.5779 30.0093 11.6066 29.981 11.6249C29.9147 11.6633 29.8466 11.6982 29.7769 11.7297C29.7599 11.7377 29.7414 11.7418 29.7226 11.7417Z" fill="#D8E4EF"/>
<path d="M94.8538 24.064C94.8246 24.0641 94.7963 24.0542 94.7734 24.0359C94.7505 24.0177 94.7345 23.9921 94.7278 23.9635C94.7211 23.9348 94.7243 23.9047 94.7367 23.8781C94.7491 23.8515 94.7701 23.8299 94.7963 23.8169C94.8622 23.784 94.9302 23.7524 94.999 23.7224C95.0147 23.715 95.0317 23.7109 95.0491 23.7103C95.0664 23.7096 95.0837 23.7125 95.0999 23.7188C95.1161 23.7251 95.1309 23.7346 95.1434 23.7467C95.1559 23.7589 95.1658 23.7734 95.1726 23.7896C95.1794 23.8057 95.183 23.823 95.183 23.8405C95.183 23.8581 95.1795 23.8754 95.1728 23.8915C95.166 23.9077 95.1561 23.9223 95.1436 23.9345C95.1312 23.9466 95.1164 23.9562 95.1002 23.9625C95.0364 23.9899 94.9728 24.0191 94.9116 24.0498C94.8936 24.0589 94.8739 24.0638 94.8538 24.064Z" fill="#D8E4EF"/>
<path d="M100.418 24.3005H100.406C100.25 24.2861 100.094 24.2636 99.94 24.2332C99.9234 24.2299 99.9076 24.2233 99.8935 24.2138C99.8793 24.2043 99.8672 24.1921 99.8578 24.1779C99.8483 24.1637 99.8418 24.1477 99.8384 24.1309C99.8351 24.1141 99.8351 24.0969 99.8383 24.0801C99.8416 24.0633 99.8482 24.0473 99.8576 24.033C99.867 24.0188 99.8791 24.0065 99.8931 23.997C99.9072 23.9875 99.923 23.9808 99.9397 23.9775C99.9563 23.9741 99.9734 23.9741 99.9901 23.9774C100.135 24.0062 100.282 24.0274 100.43 24.0409C100.462 24.0447 100.492 24.0608 100.513 24.0859C100.534 24.111 100.545 24.1433 100.544 24.1762C100.542 24.2091 100.528 24.2402 100.505 24.2632C100.482 24.2863 100.451 24.2996 100.418 24.3005ZM101.332 24.2885C101.299 24.2883 101.267 24.2755 101.244 24.2526C101.22 24.2298 101.205 24.1987 101.204 24.1656C101.202 24.1326 101.212 24.1 101.233 24.0746C101.255 24.0492 101.284 24.0328 101.317 24.0288C101.464 24.0118 101.611 23.9871 101.756 23.955C101.772 23.9513 101.789 23.9509 101.806 23.9539C101.823 23.9569 101.839 23.9632 101.853 23.9724C101.867 23.9816 101.879 23.9936 101.889 24.0076C101.899 24.0217 101.906 24.0375 101.909 24.0542C101.913 24.0709 101.913 24.0882 101.91 24.1051C101.908 24.1219 101.901 24.138 101.892 24.1525C101.883 24.1669 101.871 24.1794 101.857 24.1892C101.843 24.199 101.828 24.2059 101.811 24.2096C101.658 24.2435 101.503 24.2696 101.347 24.2878C101.342 24.2883 101.337 24.2886 101.332 24.2885ZM99.0875 23.9788C99.0742 23.9787 99.0609 23.9767 99.0482 23.9727C98.904 23.9255 98.7583 23.8846 98.615 23.8476C98.5986 23.8433 98.5832 23.8358 98.5697 23.8255C98.5561 23.8152 98.5447 23.8023 98.5361 23.7876C98.5275 23.7729 98.5219 23.7565 98.5195 23.7396C98.5171 23.7227 98.5181 23.7054 98.5223 23.6888C98.5266 23.6723 98.534 23.6567 98.5442 23.6431C98.5544 23.6294 98.5671 23.6179 98.5817 23.6092C98.5963 23.6005 98.6125 23.5948 98.6293 23.5924C98.646 23.59 98.6631 23.591 98.6795 23.5953C98.8273 23.6333 98.9776 23.6767 99.1265 23.7241C99.156 23.7334 99.1813 23.7531 99.1976 23.7796C99.214 23.8061 99.2204 23.8376 99.2156 23.8684C99.2109 23.8993 99.1954 23.9274 99.1718 23.9477C99.1483 23.9679 99.1184 23.979 99.0875 23.9788ZM95.9257 23.7104C95.8916 23.7136 95.8577 23.7029 95.8314 23.6808C95.8051 23.6586 95.7885 23.6269 95.7854 23.5924C95.7823 23.558 95.7929 23.5237 95.8148 23.4972C95.8368 23.4706 95.8682 23.454 95.9023 23.4508C96.0529 23.4223 96.2093 23.3998 96.3671 23.3847C96.4012 23.3814 96.4352 23.3919 96.4616 23.4139C96.488 23.4359 96.5047 23.4676 96.508 23.502C96.5113 23.5365 96.5009 23.5708 96.4791 23.5975C96.4573 23.6242 96.4259 23.641 96.3918 23.6444C96.2418 23.6588 96.0933 23.68 95.9505 23.7071C95.9421 23.709 95.9336 23.7101 95.925 23.7104H95.9257ZM97.7491 23.676C97.7435 23.6765 97.7379 23.6765 97.7323 23.676C97.5822 23.6564 97.4319 23.642 97.2856 23.633C97.2677 23.6335 97.2499 23.6301 97.2333 23.6233C97.2168 23.6164 97.2018 23.6061 97.1894 23.5931C97.177 23.5801 97.1674 23.5646 97.1612 23.5477C97.155 23.5307 97.1523 23.5126 97.1534 23.4946C97.1545 23.4766 97.1593 23.459 97.1675 23.4429C97.1757 23.4268 97.1871 23.4126 97.201 23.4012C97.2149 23.3898 97.2309 23.3815 97.2482 23.3767C97.2655 23.3719 97.2835 23.3708 97.3012 23.3734C97.4534 23.3828 97.6096 23.397 97.7655 23.4183C97.7982 23.4222 97.8282 23.4387 97.8492 23.4643C97.8703 23.4899 97.8809 23.5227 97.8788 23.5559C97.8767 23.5891 97.8621 23.6202 97.838 23.6429C97.8139 23.6656 97.7821 23.6781 97.7491 23.6779V23.676Z" fill="#D8E4EF"/>
<path d="M102.653 23.9226C102.624 23.9227 102.595 23.9126 102.572 23.894C102.549 23.8754 102.533 23.8494 102.526 23.8203C102.52 23.7912 102.524 23.7608 102.537 23.7342C102.55 23.7075 102.572 23.6862 102.599 23.6738C102.714 23.6202 102.778 23.5822 102.779 23.5818C102.808 23.5653 102.843 23.561 102.875 23.5698C102.908 23.5785 102.935 23.5998 102.953 23.6289C102.97 23.658 102.975 23.6927 102.968 23.7258C102.96 23.7588 102.94 23.7875 102.911 23.8058C102.908 23.8076 102.837 23.8506 102.707 23.9106C102.69 23.9184 102.672 23.9225 102.653 23.9226Z" fill="#D8E4EF"/>
<path d="M96.2706 25.3739C96.2414 25.3741 96.213 25.3642 96.1901 25.346C96.1671 25.3278 96.151 25.3022 96.1443 25.2736C96.1376 25.2449 96.1407 25.2148 96.1532 25.1881C96.1656 25.1615 96.1866 25.1399 96.2128 25.1268C96.2787 25.094 96.347 25.0624 96.4155 25.0324C96.4311 25.0257 96.4478 25.0221 96.4648 25.0219C96.4818 25.0218 96.4986 25.0249 96.5143 25.0313C96.5301 25.0377 96.5444 25.0471 96.5565 25.0591C96.5686 25.0711 96.5783 25.0854 96.585 25.1011C96.5916 25.1168 96.5952 25.1338 96.5953 25.1509C96.5955 25.168 96.5924 25.185 96.5861 25.2009C96.5797 25.2168 96.5704 25.2312 96.5585 25.2435C96.5467 25.2557 96.5325 25.2655 96.5169 25.2722C96.4529 25.2996 96.3895 25.3289 96.3281 25.3595C96.3103 25.3689 96.2906 25.3738 96.2706 25.3739Z" fill="#D8E4EF"/>
<path d="M101.835 25.6104C101.831 25.6106 101.827 25.6106 101.823 25.6104C101.667 25.5961 101.511 25.5737 101.357 25.5431C101.34 25.54 101.324 25.5335 101.31 25.524C101.296 25.5146 101.283 25.5024 101.274 25.4881C101.264 25.4739 101.258 25.4579 101.254 25.441C101.251 25.4241 101.251 25.4067 101.254 25.3898C101.257 25.3729 101.264 25.3568 101.273 25.3425C101.283 25.3282 101.295 25.316 101.309 25.3065C101.324 25.2969 101.34 25.2904 101.356 25.2871C101.373 25.2839 101.39 25.284 101.407 25.2875C101.552 25.3162 101.699 25.3373 101.847 25.3508C101.879 25.3546 101.909 25.3707 101.93 25.3958C101.951 25.4209 101.962 25.4532 101.96 25.4861C101.959 25.519 101.945 25.5501 101.922 25.5732C101.899 25.5962 101.868 25.6095 101.835 25.6104ZM102.749 25.5984C102.716 25.5982 102.684 25.5854 102.66 25.5625C102.637 25.5397 102.622 25.5086 102.621 25.4755C102.619 25.4425 102.629 25.4099 102.65 25.3845C102.671 25.3591 102.701 25.3427 102.734 25.3387C102.88 25.3215 103.028 25.2967 103.172 25.2649C103.189 25.2608 103.206 25.2601 103.223 25.2629C103.24 25.2656 103.257 25.2718 103.271 25.281C103.286 25.2902 103.298 25.3022 103.308 25.3164C103.318 25.3305 103.325 25.3466 103.329 25.3635C103.333 25.3804 103.333 25.398 103.33 25.415C103.327 25.4321 103.32 25.4483 103.311 25.4629C103.301 25.4774 103.289 25.4898 103.275 25.4995C103.261 25.5092 103.245 25.5159 103.228 25.5193C103.075 25.5531 102.919 25.5795 102.764 25.5977L102.749 25.5984ZM100.504 25.2887C100.491 25.2886 100.478 25.2866 100.465 25.2826C100.321 25.2365 100.175 25.1945 100.032 25.1575C100.016 25.1532 100 25.1457 99.9868 25.1354C99.9732 25.1251 99.9619 25.1122 99.9533 25.0975C99.9446 25.0828 99.939 25.0665 99.9366 25.0495C99.9343 25.0326 99.9352 25.0153 99.9395 24.9987C99.9437 24.9822 99.9511 24.9666 99.9613 24.953C99.9715 24.9393 99.9843 24.9278 99.9989 24.9191C100.013 24.9104 100.03 24.9047 100.046 24.9023C100.063 24.8999 100.08 24.9009 100.097 24.9052C100.244 24.9432 100.395 24.9866 100.543 25.034C100.573 25.0433 100.598 25.063 100.615 25.0895C100.631 25.116 100.637 25.1475 100.633 25.1783C100.628 25.2092 100.612 25.2373 100.589 25.2576C100.565 25.2778 100.535 25.2889 100.504 25.2887ZM97.3428 25.0203C97.3106 25.0204 97.2795 25.0083 97.2557 24.9863C97.2319 24.9644 97.2171 24.9343 97.2142 24.9019C97.2112 24.8695 97.2204 24.8372 97.2399 24.8113C97.2594 24.7854 97.2878 24.7678 97.3195 24.7619C97.47 24.7333 97.6264 24.7112 97.7842 24.6958C97.8011 24.6942 97.8181 24.6959 97.8344 24.7009C97.8506 24.7059 97.8657 24.7141 97.8787 24.725C97.8918 24.7359 97.9027 24.7493 97.9106 24.7644C97.9186 24.7795 97.9235 24.7961 97.9252 24.8131C97.9268 24.8302 97.9251 24.8474 97.9201 24.8638C97.9152 24.8801 97.9071 24.8954 97.8963 24.9086C97.8855 24.9218 97.8722 24.9327 97.8572 24.9408C97.8423 24.9488 97.8259 24.9538 97.809 24.9554C97.6589 24.9701 97.5105 24.9911 97.3674 25.0182C97.359 25.0198 97.3504 25.0206 97.3419 25.0203H97.3428ZM99.1663 24.9859C99.1607 24.9864 99.155 24.9864 99.1494 24.9859C98.9994 24.9663 98.849 24.9519 98.7027 24.9429C98.6851 24.9429 98.6677 24.9393 98.6515 24.9322C98.6354 24.9251 98.6209 24.9148 98.6088 24.9019C98.5968 24.8889 98.5875 24.8736 98.5815 24.8569C98.5755 24.8402 98.573 24.8225 98.574 24.8047C98.5751 24.787 98.5798 24.7697 98.5877 24.7538C98.5956 24.738 98.6067 24.7239 98.6202 24.7126C98.6338 24.7012 98.6494 24.6927 98.6663 24.6877C98.6832 24.6827 98.7009 24.6812 98.7184 24.6833C98.8708 24.6925 99.0269 24.7069 99.1829 24.7279C99.2156 24.7319 99.2456 24.7484 99.2667 24.774C99.2877 24.7996 99.2983 24.8324 99.2962 24.8657C99.294 24.8989 99.2794 24.93 99.2552 24.9527C99.2311 24.9754 99.1992 24.9878 99.1663 24.9875V24.9859Z" fill="#D8E4EF"/>
<path d="M104.07 25.2325C104.04 25.2327 104.012 25.2227 103.988 25.2041C103.965 25.1855 103.949 25.1595 103.943 25.1304C103.937 25.1012 103.94 25.0708 103.953 25.0441C103.967 25.0175 103.988 24.9961 104.015 24.9837C104.131 24.9302 104.195 24.8922 104.196 24.8917C104.225 24.8752 104.259 24.8709 104.292 24.8797C104.324 24.8885 104.352 24.9097 104.369 24.9388C104.387 24.9679 104.392 25.0027 104.384 25.0357C104.377 25.0687 104.356 25.0974 104.328 25.1157C104.325 25.1176 104.253 25.1605 104.124 25.2205C104.107 25.2284 104.088 25.2325 104.07 25.2325Z" fill="#D8E4EF"/>
<path opacity="0.2" d="M18.5735 36.3284C30.9704 33.4687 39.2004 28.1193 50.5322 21.6178C61.8641 15.1163 72.4876 11.8996 81.9512 14.2303C91.4148 16.561 106.361 29.125 106.347 43.7765C106.332 58.428 98.1233 66.2102 87.485 68.5768C77.9733 70.692 58.548 59.2817 46.1499 62.6087C33.7518 65.9357 13.9521 70.4517 8.61317 59.9641C3.27428 49.4764 6.29649 39.1604 18.5735 36.3284Z" fill="#F6DA53"/>
<path d="M107.902 49.1505C104.104 46.8441 100.232 44.119 90.0545 46.762C79.8765 49.4049 74.4565 49.3594 66.558 47.4618C58.6596 45.5641 51.1237 45.4272 33.9723 47.4145C17.9603 49.2673 15.0632 45.8568 5.65387 51.6965C3.37109 53.1126 -2.75374 72.5632 8.1384 76.3494C19.0305 80.1357 77.7756 81.0064 92.3782 78.7897C106.981 76.573 107.683 69.8761 109.213 64.5953C110.742 59.3145 107.902 49.1505 107.902 49.1505Z" fill="#D3E0F2"/>
<path d="M105.773 27.8066C103.836 28.914 100.575 32.2763 98.9397 35.6127C97.3045 38.9492 95.4663 46.5056 95.4663 46.5056L100.852 46.3824C100.852 46.3824 103.847 42.6434 105.343 38.3235C107.208 32.9396 105.773 27.8066 105.773 27.8066Z" fill="#B6C5D9"/>
<path d="M98.3954 46.3867L98.3389 46.3735C99.7324 40.3077 105.446 28.488 105.495 28.4103L105.544 28.441C105.494 28.5286 99.7843 40.3443 98.3954 46.3867Z" fill="white"/>
<path d="M105.885 30.9894L105.862 30.9351L105.916 30.9119L105.94 30.9662L105.885 30.9894Z" fill="white"/>
<path d="M104.115 31.7489L104.092 31.6953L104.203 31.6481L104.226 31.7019L104.115 31.7489ZM104.337 31.6545L104.313 31.6009L104.424 31.5537L104.447 31.6073L104.337 31.6545ZM104.558 31.56L104.534 31.5062L104.645 31.459L104.668 31.5126L104.558 31.56ZM104.779 31.4656L104.755 31.4121L104.866 31.3649L104.889 31.4187L104.779 31.4656ZM105 31.3712L104.977 31.3177L105.087 31.2704L105.111 31.3243L105 31.3712ZM105.221 31.2768L105.198 31.2232L105.308 31.176L105.332 31.2296L105.221 31.2768ZM105.442 31.1824L105.419 31.1286L105.529 31.0814L105.553 31.135L105.442 31.1824ZM105.663 31.088L105.64 31.0344L105.75 30.9872L105.774 31.041L105.663 31.088Z" fill="white"/>
<path d="M103.952 31.8202L103.929 31.7659L103.983 31.7427L104.007 31.7972L103.952 31.8202Z" fill="white"/>
<path d="M105.86 33.3577L105.803 33.3749L105.82 33.4315L105.877 33.4143L105.86 33.3577Z" fill="white"/>
<path d="M102.991 34.2788L102.975 34.2229L103.083 34.19L103.1 34.246L102.991 34.2788ZM103.209 34.2132L103.192 34.1572L103.301 34.1244L103.318 34.1804L103.209 34.2132ZM103.426 34.1476L103.41 34.0916L103.519 34.0588L103.535 34.1148L103.426 34.1476ZM103.644 34.0819L103.628 34.026L103.736 33.9932L103.753 34.0491L103.644 34.0819ZM103.862 34.0163L103.845 33.9604L103.954 33.9276L103.971 33.9835L103.862 34.0163ZM104.079 33.9507L104.063 33.8948L104.172 33.862L104.188 33.9179L104.079 33.9507ZM104.297 33.8851L104.281 33.8292L104.389 33.7961L104.406 33.8521L104.297 33.8851ZM104.515 33.8195L104.498 33.7636L104.607 33.7307L104.624 33.7867L104.515 33.8195ZM104.733 33.7539L104.716 33.6979L104.825 33.6651L104.841 33.7211L104.733 33.7539ZM104.95 33.6883L104.934 33.6323L105.042 33.5995L105.059 33.6555L104.95 33.6883ZM105.168 33.6226L105.151 33.5667L105.26 33.5339L105.277 33.5898L105.168 33.6226ZM105.385 33.557L105.369 33.5011L105.478 33.4683L105.494 33.5242L105.385 33.557ZM105.603 33.4914L105.587 33.4355L105.695 33.4027L105.712 33.4586L105.603 33.4914Z" fill="white"/>
<path d="M102.866 34.2606L102.809 34.2777L102.826 34.3343L102.883 34.3172L102.866 34.2606Z" fill="white"/>
<path d="M105.413 36.3102L105.398 36.2531L105.456 36.238L105.471 36.2954L105.413 36.3102Z" fill="white"/>
<path d="M101.708 37.2892L101.694 37.2328L101.803 37.204L101.817 37.2604L101.708 37.2892ZM101.926 37.2316L101.911 37.1752L102.02 37.1464L102.035 37.2028L101.926 37.2316ZM102.144 37.174L102.129 37.1176L102.238 37.0888L102.253 37.1452L102.144 37.174ZM102.362 37.1165L102.347 37.06L102.456 37.0313L102.471 37.0877L102.362 37.1165ZM102.58 37.0589L102.565 37.0022L102.674 36.9734L102.689 37.0298L102.58 37.0589ZM102.798 37.0013L102.783 36.9446L102.892 36.9158L102.907 36.9722L102.798 37.0013ZM103.016 36.9435L103.001 36.887L103.11 36.8582L103.125 36.9147L103.016 36.9435ZM103.234 36.8859L103.219 36.8295L103.328 36.8007L103.343 36.8571L103.234 36.8859ZM103.452 36.8283L103.437 36.7719L103.546 36.7431L103.561 36.7995L103.452 36.8283ZM103.67 36.7707L103.655 36.7143L103.764 36.6855L103.779 36.7419L103.67 36.7707ZM103.888 36.7131L103.873 36.6567L103.982 36.6279L103.996 36.6843L103.888 36.7131ZM104.105 36.6555L104.091 36.5991L104.2 36.5703L104.214 36.6267L104.105 36.6555ZM104.323 36.5979L104.309 36.5415L104.418 36.5127L104.432 36.5691L104.323 36.5979ZM104.541 36.5403L104.527 36.4839L104.636 36.4549L104.65 36.5115L104.541 36.5403ZM104.759 36.4827L104.745 36.4261L104.853 36.3973L104.868 36.4539L104.759 36.4827ZM104.977 36.4249L104.962 36.3685L105.071 36.3397L105.086 36.3961L104.977 36.4249ZM105.195 36.3673L105.181 36.3109L105.289 36.2821L105.304 36.3385L105.195 36.3673Z" fill="white"/>
<path d="M101.544 37.3334L101.529 37.2762L101.586 37.2612L101.601 37.3183L101.544 37.3334Z" fill="white"/>
<path d="M104.401 39.4576L104.343 39.4701L104.355 39.5279L104.413 39.5153L104.401 39.4576Z" fill="white"/>
<path d="M100.49 40.3575L100.478 40.3004L100.591 40.2768L100.603 40.3339L100.49 40.3575ZM100.717 40.3084L100.705 40.2513L100.819 40.2277L100.831 40.2846L100.717 40.3084ZM100.944 40.2596L100.932 40.2024L101.046 40.1788L101.058 40.236L100.944 40.2596ZM101.172 40.2105L101.16 40.1533L101.274 40.1297L101.285 40.1869L101.172 40.2105ZM101.399 40.1614L101.387 40.1043L101.501 40.0806L101.513 40.1378L101.399 40.1614ZM101.627 40.1123L101.615 40.0552L101.728 40.0316L101.74 40.0884L101.627 40.1123ZM101.854 40.0632L101.842 40.0063L101.956 39.9827L101.968 40.0398L101.854 40.0632ZM102.081 40.0143L102.069 39.9572L102.183 39.9336L102.195 39.9907L102.081 40.0143ZM102.309 39.9652L102.297 39.9081L102.41 39.8845L102.423 39.9416L102.309 39.9652ZM102.536 39.9161L102.524 39.859L102.638 39.8354L102.65 39.8925L102.536 39.9161ZM102.764 39.867L102.752 39.8099L102.865 39.7863L102.877 39.8432L102.764 39.867ZM102.991 39.818L102.979 39.7611L103.093 39.7375L103.105 39.7946L102.991 39.818ZM103.219 39.7691L103.206 39.712L103.32 39.6884L103.332 39.7455L103.219 39.7691ZM103.446 39.72L103.434 39.6629L103.547 39.6393L103.56 39.6964L103.446 39.72ZM103.673 39.6709L103.661 39.6138L103.775 39.5902L103.787 39.6473L103.673 39.6709ZM103.901 39.6218L103.888 39.5647L104.002 39.5411L104.014 39.598L103.901 39.6218ZM104.128 39.573L104.116 39.5159L104.23 39.4922L104.242 39.5494L104.128 39.573Z" fill="white"/>
<path d="M100.364 40.3279L100.306 40.3404L100.318 40.3982L100.376 40.3857L100.364 40.3279Z" fill="white"/>
<path d="M102.575 43.1121L102.565 43.0537L102.623 43.0434L102.634 43.1016L102.575 43.1121Z" fill="white"/>
<path d="M99.3047 43.7003L99.2944 43.6427L99.4113 43.6217L99.4214 43.6793L99.3047 43.7003ZM99.5385 43.658L99.5282 43.6007L99.6451 43.5797L99.6554 43.637L99.5385 43.658ZM99.7723 43.616L99.7622 43.5584L99.8791 43.5377L99.8894 43.595L99.7723 43.616ZM100.006 43.574L99.996 43.5164L100.113 43.4954L100.123 43.553L100.006 43.574ZM100.24 43.532L100.23 43.4744L100.347 43.4534L100.357 43.5108L100.24 43.532ZM100.474 43.4898L100.463 43.4324L100.58 43.4112L100.59 43.4688L100.474 43.4898ZM100.707 43.4477L100.697 43.3902L100.814 43.3692L100.824 43.4267L100.707 43.4477ZM100.941 43.4057L100.931 43.3481L101.048 43.3271L101.058 43.3847L100.941 43.4057ZM101.175 43.3635L101.165 43.3061L101.282 43.2851L101.292 43.3425L101.175 43.3635ZM101.409 43.3215L101.399 43.2641L101.516 43.2429L101.526 43.3005L101.409 43.3215ZM101.642 43.2795L101.632 43.2219L101.749 43.2009L101.759 43.2585L101.642 43.2795ZM101.876 43.2372L101.866 43.1799L101.983 43.1589L101.993 43.2162L101.876 43.2372ZM102.11 43.1952L102.1 43.1379L102.217 43.1168L102.227 43.1742L102.11 43.1952ZM102.344 43.1532L102.332 43.0954L102.449 43.0744L102.459 43.132L102.344 43.1532Z" fill="white"/>
<path d="M99.1746 43.6731L99.1162 43.6836L99.1265 43.7418L99.1849 43.7313L99.1746 43.6731Z" fill="white"/>
<path d="M97.1066 41.7954L97.0747 41.7463L97.124 41.7149L97.1557 41.7637L97.1066 41.7954Z" fill="white"/>
<path d="M98.7556 44.3699L98.6923 44.2708L98.7409 44.2391L98.8045 44.3383L98.7556 44.3699ZM98.6289 44.1719L98.5653 44.0727L98.6142 44.0411L98.6775 44.14L98.6289 44.1719ZM98.502 43.9736L98.4386 43.8745L98.4872 43.8429L98.5508 43.942L98.502 43.9736ZM98.3753 43.7756L98.3117 43.6765L98.3605 43.6448L98.4239 43.744L98.3753 43.7756ZM98.2483 43.5773L98.185 43.4784L98.2336 43.4468L98.2969 43.5457L98.2483 43.5773ZM98.1214 43.3793L98.058 43.2804L98.1069 43.2486L98.1702 43.3477L98.1214 43.3793ZM97.9947 43.1813L97.9311 43.0822L97.9799 43.0505L98.0433 43.1497L97.9947 43.1813ZM97.8677 42.983L97.8044 42.8841L97.853 42.8525L97.9166 42.9514L97.8677 42.983ZM97.741 42.785L97.6774 42.6859L97.7263 42.6543L97.7897 42.7534L97.741 42.785ZM97.6141 42.587L97.5507 42.4879L97.5994 42.4562L97.6629 42.5554L97.6141 42.587ZM97.4874 42.3887L97.4238 42.2898L97.4727 42.2582L97.536 42.3571L97.4874 42.3887ZM97.3604 42.1907L97.2971 42.0916L97.3457 42.06L97.4093 42.1591L97.3604 42.1907ZM97.2337 41.9927L97.1702 41.8936L97.219 41.8619L97.2824 41.9611L97.2337 41.9927Z" fill="white"/>
<path d="M98.8502 44.5188L98.8186 44.4697L98.8677 44.4383L98.8993 44.4872L98.8502 44.5188Z" fill="white"/>
<path d="M96.1411 45.183L96.1035 45.1384L96.1484 45.1008L96.1859 45.1454L96.1411 45.183Z" fill="white"/>
<path d="M98.0984 47.529L98.0231 47.4389L98.0675 47.4013L98.1428 47.4915L98.0984 47.529ZM97.9478 47.3487L97.8726 47.2583L97.917 47.2208L97.9923 47.3112L97.9478 47.3487ZM97.7973 47.1682L97.7218 47.078L97.7662 47.0405L97.8417 47.1306L97.7973 47.1682ZM97.6465 46.9878L97.5712 46.8974L97.6157 46.8599L97.6909 46.9501L97.6465 46.9878ZM97.496 46.8073L97.4207 46.7171L97.4651 46.6796L97.5404 46.7698L97.496 46.8073ZM97.3454 46.6267L97.2701 46.5366L97.3145 46.499L97.3898 46.5892L97.3454 46.6267ZM97.1949 46.4464L97.1196 46.3562L97.164 46.3185L97.2393 46.4089L97.1949 46.4464ZM97.0443 46.2659L96.9688 46.1757L97.0132 46.1382L97.0887 46.2283L97.0443 46.2659ZM96.8935 46.0855L96.8183 45.9951L96.8627 45.9576L96.9379 46.0478L96.8935 46.0855ZM96.743 45.905L96.6677 45.8148L96.7121 45.7771L96.7874 45.8674L96.743 45.905ZM96.5924 45.7244L96.5172 45.6343L96.5616 45.5967L96.6368 45.6869L96.5924 45.7244ZM96.4419 45.5441L96.3666 45.4537L96.411 45.4162L96.4863 45.5066L96.4419 45.5441ZM96.2913 45.3635L96.2158 45.2734L96.2602 45.2358L96.3358 45.326L96.2913 45.3635Z" fill="white"/>
<path d="M98.2116 47.6641L98.1738 47.6192L98.2187 47.5819L98.2564 47.6265L98.2116 47.6641Z" fill="white"/>
<path d="M98.146 38.9666C98.1127 38.9194 98.1094 38.9116 98.1091 38.901H98.1384L98.166 38.8923C98.1743 38.9064 98.1835 38.9199 98.1934 38.9329L98.146 38.9666Z" fill="white"/>
<path d="M99.8599 41.1185L99.7879 41.03L99.8325 40.9927L99.9045 41.0817L99.8599 41.1185ZM99.7154 40.9403L99.6434 40.8511L99.6883 40.8142L99.7603 40.9035L99.7154 40.9403ZM99.5712 40.7621L99.4992 40.6729L99.5443 40.636L99.6163 40.7253L99.5712 40.7621ZM99.4272 40.5839L99.3554 40.4947L99.4005 40.4579L99.4723 40.5471L99.4272 40.5839ZM99.2834 40.4055L99.2116 40.316L99.2568 40.2794L99.3285 40.3686L99.2834 40.4055ZM99.1399 40.2268L99.0681 40.1376L99.1132 40.1008L99.185 40.1902L99.1399 40.2268ZM98.9961 40.0481L98.9248 39.9589L98.9699 39.9221L99.0415 40.0115L98.9961 40.0481ZM98.853 39.8694L98.7815 39.78L98.8257 39.7439L98.8975 39.8333L98.853 39.8694ZM98.7102 39.6903L98.6387 39.6006L98.684 39.5643L98.7553 39.6537L98.7102 39.6903ZM98.5674 39.5109L98.4972 39.421L98.5426 39.3847L98.6127 39.4746L98.5674 39.5109ZM98.4252 39.3311L98.3551 39.2407L98.4007 39.2046L98.4708 39.2947L98.4252 39.3311ZM98.285 39.1501C98.259 39.1165 98.2354 39.0861 98.2148 39.0589L98.2616 39.0235L98.3317 39.1142L98.285 39.1501Z" fill="white"/>
<path d="M99.966 41.2492L99.9292 41.2041L99.9745 41.1673L100.012 41.2124L99.966 41.2492Z" fill="white"/>
<path d="M99.4543 35.7398L99.4165 35.6949L99.4613 35.6574L99.4991 35.702L99.4543 35.7398Z" fill="white"/>
<path d="M101.157 37.7738L101.079 37.6815L101.124 37.6438L101.201 37.7363L101.157 37.7738ZM101.002 37.589L100.925 37.4965L100.969 37.4589L101.046 37.5512L101.002 37.589ZM100.847 37.404L100.77 37.3117L100.814 37.2739L100.892 37.3664L100.847 37.404ZM100.692 37.2192L100.615 37.1266L100.659 37.0891L100.737 37.1816L100.692 37.2192ZM100.537 37.0341L100.46 36.9418L100.504 36.9041L100.582 36.9966L100.537 37.0341ZM100.383 36.8493L100.305 36.7568L100.35 36.7193L100.427 36.8115L100.383 36.8493ZM100.228 36.6643L100.151 36.5717L100.195 36.5342L100.272 36.6267L100.228 36.6643ZM100.073 36.4795L99.9957 36.3869L100.04 36.3494L100.118 36.4417L100.073 36.4795ZM99.9184 36.2944L99.841 36.2021L99.8852 36.1644L99.9626 36.2569L99.9184 36.2944ZM99.7634 36.1096L99.686 36.0171L99.7304 35.9796L99.8078 36.0718L99.7634 36.1096ZM99.6086 35.9246L99.5312 35.8321L99.5757 35.7945L99.653 35.887L99.6086 35.9246Z" fill="white"/>
<path d="M101.272 37.9109L101.234 37.8663L101.279 37.8288L101.316 37.8734L101.272 37.9109Z" fill="white"/>
<path d="M101.199 32.7821L101.167 32.7335L101.216 32.7014L101.248 32.75L101.199 32.7821Z" fill="white"/>
<path d="M102.463 34.7133L102.4 34.6168L102.448 34.5847L102.511 34.6812L102.463 34.7133ZM102.336 34.5202L102.273 34.4237L102.321 34.3916L102.385 34.4881L102.336 34.5202ZM102.21 34.3272L102.147 34.2306L102.195 34.1985L102.258 34.2951L102.21 34.3272ZM102.083 34.1341L102.02 34.0376L102.069 34.0055L102.132 34.102L102.083 34.1341ZM101.957 33.941L101.894 33.8445L101.942 33.8124L102.006 33.9089L101.957 33.941ZM101.831 33.7477L101.768 33.6512L101.816 33.6191L101.879 33.7156L101.831 33.7477ZM101.704 33.5547L101.641 33.4581L101.69 33.426L101.753 33.5226L101.704 33.5547ZM101.578 33.3616L101.515 33.2651L101.563 33.233L101.626 33.3295L101.578 33.3616ZM101.452 33.1685L101.388 33.072L101.437 33.0399L101.5 33.1364L101.452 33.1685ZM101.325 32.9755L101.262 32.8787L101.31 32.8466L101.374 32.9434L101.325 32.9755Z" fill="white"/>
<path d="M102.558 34.8587L102.526 34.8101L102.575 34.778L102.607 34.8266L102.558 34.8587Z" fill="white"/>
<path d="M102.944 30.6245L102.921 30.57L102.976 30.547L102.999 30.6016L102.944 30.6245Z" fill="white"/>
<path d="M103.595 32.1871L103.548 32.0755L103.601 32.0519L103.648 32.1638L103.595 32.1871ZM103.501 31.9639L103.454 31.8522L103.508 31.8286L103.555 31.9403L103.501 31.9639ZM103.408 31.7404L103.361 31.6287L103.414 31.6051L103.461 31.7167L103.408 31.7404ZM103.314 31.5171L103.267 31.4054L103.321 31.3818L103.367 31.4935L103.314 31.5171ZM103.221 31.2936L103.174 31.1819L103.227 31.1595L103.274 31.2711L103.221 31.2936ZM103.127 31.0703L103.08 30.9586L103.134 30.935L103.181 31.0467L103.127 31.0703ZM103.034 30.847L102.987 30.7351L103.04 30.7127L103.087 30.8244L103.034 30.847Z" fill="white"/>
<path d="M103.665 32.3536L103.642 32.2993L103.697 32.2763L103.72 32.3309L103.665 32.3536Z" fill="white"/>
<path d="M32.0605 16.7043C35.1229 16.2226 38.3555 18.4783 37.0964 22.7866C35.8373 27.095 37.1595 32.2275 38.6704 34.7612C40.1813 37.2949 41.1884 42.8712 36.2158 44.4551C31.2432 46.039 23.8025 43.688 26.4584 36.7254C28.6533 30.9738 28.8506 30.0094 28.2671 24.5381C27.6004 18.2937 30.0461 17.0211 32.0605 16.7043Z" fill="#B6C5D9"/>
<path d="M33.4329 45.3775H33.1406V19.5435C33.1406 19.5401 33.1419 19.537 33.1443 19.5346C33.1466 19.5323 33.1497 19.531 33.153 19.531H33.4202C33.4235 19.531 33.4267 19.5323 33.429 19.5346C33.4313 19.537 33.4326 19.5401 33.4326 19.5435V45.3775H33.4329Z" fill="#DEEBFF"/>
<path d="M33.3791 27.8285L35.4875 25.7067L35.3491 25.5677L33.241 27.6895L33.3791 27.8285Z" fill="#DEEBFF"/>
<path d="M33.2807 24.4909L31.5354 22.7345L31.6738 22.5952L33.2807 24.2127V24.4909Z" fill="#DEEBFF"/>
<path d="M33.3586 40.2209L37.5515 36.0008L37.4134 35.8618L33.2202 40.0818L33.3586 40.2209Z" fill="#DEEBFF"/>
<path d="M33.2021 33.4574L30.7893 31.029L30.9275 30.89L33.2021 33.1791V33.4574Z" fill="#DEEBFF"/>
<path d="M21.8944 44.3947C19.127 43.2049 13.3851 38.2768 16.7607 36.9565C20.1364 35.6362 17.3038 32.845 15.1292 31.5676C12.9547 30.2903 12.6279 27.5014 15.3268 27.1353C18.0257 26.7693 16.6504 24.9134 15.1786 22.3953C14.1067 20.5635 16.234 17.2817 18.4804 18.5052C22.0381 20.4422 21.1299 27.4049 23.0335 25.722C24.2555 24.642 26.7229 24.6786 26.2411 27.2326C25.7593 29.7866 25.0816 34.2479 26.6937 33.735C28.3058 33.2221 29.5626 33.6222 29.4676 36.4832C29.3727 39.3443 29.4606 42.0298 27.1846 43.7383C24.9086 45.4469 23.0162 44.8771 21.8944 44.3947Z" fill="#E2EAF6"/>
<path d="M25.0436 45.5854C24.5908 40.1805 22.217 32.2943 17.9883 22.1484C17.8581 21.8357 17.7546 21.5862 17.6814 21.4076L17.7649 21.3734C17.8373 21.5516 17.9414 21.801 18.0713 22.1135C18.8297 23.9328 20.4076 27.7188 21.9019 32.119C23.755 37.5758 24.8423 42.1041 25.1334 45.5784L25.0436 45.5854Z" fill="white"/>
<path d="M19.0496 24.6954L17.0469 23.8365L17.0822 23.7529L19.0849 24.612L19.0496 24.6954Z" fill="white"/>
<path d="M21.4076 30.9129L16.5676 29.2534L16.5966 29.1677L21.4366 30.827L21.4076 30.9129Z" fill="white"/>
<path d="M22.3666 33.5292L22.281 33.5011L24.1355 27.8014L24.2211 27.8295L22.3666 33.5292Z" fill="white"/>
<path d="M24.597 42.2473L21.2734 40.4583L21.3158 40.3783L24.6393 42.1673L24.597 42.2473Z" fill="white"/>
<path d="M23.8856 38.8153L23.8271 38.7462L26.6397 36.3411L26.6981 36.4103L23.8856 38.8153Z" fill="white"/>
<g opacity="0.6">
<path d="M55.1957 46.5819C54.1935 42.7307 52.098 42.0887 50.0025 43.372C47.9069 44.6552 46.6492 38.141 43.7159 39.5208C41.1893 40.7092 42.176 43.3182 39.4229 42.9089C37.2654 42.5879 38.5226 37.6675 35.1516 39.2361C31.7806 40.8048 33.3093 36.1679 30.296 35.757C27.5816 35.3862 27.4072 39.8873 25.3117 39.5208C23.2162 39.1543 24.2915 35.8584 21.1856 35.161C17.6975 34.3776 16.1773 37.5434 13.9111 39.9994C11.6449 42.4555 33.8568 66.2239 33.8568 66.2239L62.2654 55.6487L55.1957 46.5819Z" fill="#F6DA53"/>
<path d="M9.55917 42.037C11.9357 39.6567 13.9541 40.147 15.2076 42.058C16.4611 43.9691 20.1121 39.7412 22.0316 42.1085C23.6851 44.1475 21.8161 45.6184 24.2962 46.5828C26.2395 47.3381 27.14 43.13 29.3529 45.8379C31.5658 48.5458 32.1245 44.4218 34.8246 45.5047C37.2558 46.4797 35.6117 49.8808 37.5213 50.5742C39.431 51.2676 39.8376 48.3414 42.7293 49.2555C45.9769 50.282 45.996 53.317 46.9258 56.171C47.8555 59.025 22.5408 69.6183 22.5408 69.6183L0 45.4733L9.55917 42.037Z" fill="#C7D7EA"/>
<path d="M87.4239 50.5426C82.8861 46.9043 80.7078 41.6525 83.8673 43.5136C87.0267 45.3746 90.5461 47.5821 89.4514 45.8332C88.3566 44.0843 85.7064 39.0391 87.0459 38.2819C88.3854 37.5248 89.8462 41.7326 90.6301 43.1492C91.4139 44.5658 91.8338 41.294 91.4099 38.8748C90.9861 36.4556 92.9019 34.1761 93.6633 38.1667C94.4247 42.1574 94.7865 45.7305 94.7865 45.7305C94.7865 45.7305 94.373 40.6162 95.2775 40.1347C96.1819 39.6532 96.7142 40.581 96.8353 42.8475C96.9564 45.114 97.103 46.1568 97.7047 46.285C98.3064 46.4131 98.2569 41.8225 99.563 41.9348C100.869 42.0472 100.093 44.3871 100.092 45.9118C100.091 47.4365 102.278 42.2089 102.486 40.0065C102.695 37.8042 103.891 36.1816 104.492 37.0721C105.093 37.9626 104.728 39.3157 104.011 42.1432C103.294 44.9708 106.357 40.1149 107.467 40.1073C108.576 40.0998 109.905 47.5517 105.436 50.1524C100.967 52.7531 87.4239 50.5426 87.4239 50.5426Z" fill="#F6DA53"/>
<path d="M107.892 49.159C104.095 46.8528 100.223 44.1274 90.0454 46.7704C79.8674 49.4134 74.4474 49.3678 66.5492 47.4702C58.651 45.5726 51.1149 45.4355 33.9632 47.4216C17.9513 49.2758 15.0541 45.8662 5.64432 51.7049C3.3613 53.1211 -2.76353 72.5716 8.12862 76.3579C19.0208 80.1442 77.7658 81.0151 92.3684 78.7981C106.971 76.5812 107.674 69.8845 109.203 64.6038C110.732 59.323 107.892 49.159 107.892 49.159Z" fill="#F6DA53"/>
<path d="M94.421 54.2179C87.5346 54.3904 78.207 55.5849 68.4821 55.2819C58.7572 54.9788 47.3959 54.2632 50.5455 58.217C53.6951 62.1709 70.5985 67.3804 81.6643 68.1281C92.7301 68.8758 104.013 64.4587 106.494 63.0649C108.975 61.6712 107.244 58.4861 104.807 57.2751C102.37 56.0641 100.914 54.0555 94.421 54.2179Z" fill="#F6DA53"/>
</g>
<path d="M85.4098 6.67034H44.5598C43.9162 6.67021 43.2988 6.92814 42.8435 7.38741C42.3881 7.84668 42.1321 8.46972 42.1316 9.11954V27.3381C42.1316 27.6599 42.1944 27.9786 42.3164 28.276C42.4384 28.5733 42.6173 28.8434 42.8429 29.0709C43.0684 29.2984 43.3361 29.4788 43.6307 29.6017C43.9253 29.7247 44.241 29.7878 44.5598 29.7875H85.4098C85.7285 29.7877 86.044 29.7245 86.3384 29.6014C86.6328 29.4784 86.9003 29.298 87.1256 29.0705C87.3509 28.843 87.5296 28.5729 87.6515 28.2756C87.7733 27.9784 87.8359 27.6598 87.8357 27.3381V9.11954C87.8357 8.7979 87.773 8.4794 87.6511 8.18223C87.5292 7.88507 87.3505 7.61506 87.1252 7.38762C86.9 7.16019 86.6325 6.97978 86.3382 6.85671C86.0438 6.73364 85.7284 6.67031 85.4098 6.67034ZM42.241 9.11954C42.2421 8.4992 42.4868 7.90463 42.9215 7.46621C43.3562 7.02778 43.9454 6.7813 44.5598 6.7808H48.6417V11.4495H42.241V9.11954Z" fill="white"/>
<path d="M85.4098 6.55916H44.5598C43.8873 6.55954 43.2424 6.82926 42.7667 7.30914C42.291 7.78902 42.0232 8.43985 42.0222 9.11882V27.3374C42.0226 27.9069 42.211 28.46 42.5576 28.9094C42.9042 29.3587 43.3893 29.6786 43.9361 29.8184C44.0763 29.8565 44.2199 29.8802 44.3648 29.8892C44.4296 29.8956 44.4946 29.8986 44.5596 29.8982H85.4098C86.082 29.8973 86.7264 29.6273 87.2017 29.1474C87.6769 28.6676 87.9443 28.0169 87.9451 27.3383V9.11976C87.9445 8.44101 87.6772 7.79021 87.2019 7.31017C86.7266 6.83012 86.0821 6.56004 85.4098 6.55916ZM87.7263 27.3374C87.7257 27.9575 87.4814 28.552 87.0471 28.9905C86.6129 29.429 86.024 29.6757 85.4098 29.6763H44.5598C44.3491 29.676 44.1394 29.6471 43.9363 29.5902C42.9608 29.314 42.241 28.4087 42.241 27.3374V9.11882C42.2421 8.49848 42.4869 7.90391 42.9216 7.46549C43.3562 7.02706 43.9454 6.78058 44.5598 6.78008H85.4098C86.024 6.7807 86.6128 7.0273 87.0471 7.46577C87.4814 7.90423 87.7257 8.49874 87.7263 9.11882V27.3374Z" fill="#C0D2FF"/>
<path d="M48.6416 6.78083V11.4496H42.241V9.11957C42.2421 8.49923 42.4868 7.90466 42.9215 7.46624C43.3562 7.02781 43.9453 6.78133 44.5598 6.78083H48.6416Z" fill="white"/>
<path d="M83.5855 6.67034H83.3667V29.7875H83.5855V6.67034Z" fill="#C0D2FF"/>
<path d="M78.6241 6.67034H78.4053V29.7875H78.6241V6.67034Z" fill="#C0D2FF"/>
<path d="M73.6649 6.67034H73.446V29.7875H73.6649V6.67034Z" fill="#C0D2FF"/>
<path d="M68.7037 6.67034H68.4849V29.7875H68.7037V6.67034Z" fill="#C0D2FF"/>
<path d="M63.7425 6.67034H63.5237V29.7875H63.7425V6.67034Z" fill="#C0D2FF"/>
<path d="M58.7833 6.67034H58.5645V29.7875H58.7833V6.67034Z" fill="#C0D2FF"/>
<path d="M53.8218 6.67034H53.603V29.7875H53.8218V6.67034Z" fill="#C0D2FF"/>
<path d="M48.8604 6.67034H48.6416V29.7875H48.8604V6.67034Z" fill="#C0D2FF"/>
<path d="M87.8357 26.4747H42.1316V26.6957H87.8357V26.4747Z" fill="#C0D2FF"/>
<path d="M87.8357 21.4656H42.1316V21.6865H87.8357V21.4656Z" fill="#C0D2FF"/>
<path d="M87.8357 16.4565H42.1316V16.6774H87.8357V16.4565Z" fill="#C0D2FF"/>
<path d="M87.8357 11.4496H42.1316V11.6705H87.8357V11.4496Z" fill="#C0D2FF"/>
<path d="M46.853 27.1103H44.1003V29.1082H46.853V27.1103Z" fill="#C0D2FF"/>
<path d="M46.853 23.1716H44.1003V25.1695H46.853V23.1716Z" fill="#C0D2FF"/>
<path d="M46.853 17.8946H44.1003V19.8925H46.853V17.8946Z" fill="#C0D2FF"/>
<path d="M46.853 13.0644H44.1003V15.0623H46.853V13.0644Z" fill="#C0D2FF"/>
<path d="M74.6165 18.2253C74.9047 18.7277 75.1633 19.2531 75.4746 19.6971C75.5117 19.7483 75.5522 19.797 75.5957 19.8427C75.6336 19.8828 75.682 19.9168 75.6834 19.9119C75.6638 19.9052 75.6425 19.9058 75.6233 19.9135C75.6116 19.9168 75.6039 19.927 75.6039 19.9227L75.6027 19.9241L75.614 19.9057C75.6465 19.8536 75.6794 19.7979 75.7124 19.7351C75.8463 19.4929 75.9805 19.238 76.1114 18.9841C76.3847 18.4795 76.661 17.9729 76.9764 17.4867C77.2917 17.0005 77.6242 16.515 78.0623 16.1263C77.7817 16.6354 77.5524 17.1558 77.2995 17.6706C77.054 18.188 76.7976 18.7014 76.5303 19.2109C76.3901 19.4634 76.255 19.7171 76.0965 19.9697C76.0579 20.0315 76.013 20.0964 75.9637 20.1623L75.9443 20.1882L75.9062 20.2288C75.8763 20.2596 75.8409 20.2844 75.8019 20.3018C75.7566 20.3219 75.7075 20.332 75.6579 20.3315C75.6158 20.3292 75.5744 20.3198 75.5354 20.3037C75.4045 20.2425 75.3503 20.1698 75.2942 20.1028C75.2464 20.0378 75.2031 19.9697 75.1644 19.8989C74.8781 19.3591 74.7238 18.8014 74.6165 18.2253Z" fill="#05009F"/>
<path d="M64.5742 23.4871C64.8625 23.9896 65.1212 24.515 65.4324 24.9587C65.4696 25.01 65.5101 25.0588 65.5537 25.1046C65.5916 25.1445 65.64 25.1787 65.6412 25.1738C65.6216 25.1671 65.6004 25.1677 65.5813 25.1754C65.5694 25.1787 65.5617 25.1889 65.5619 25.1846L65.5605 25.186L65.572 25.1676C65.6045 25.1155 65.6374 25.0598 65.6704 24.997C65.8043 24.7548 65.9385 24.4999 66.0694 24.246C66.3427 23.7413 66.619 23.2348 66.9344 22.7486C67.2497 22.2624 67.5819 21.7769 68.02 21.3882C67.7395 21.8973 67.5104 22.4177 67.2575 22.9325C67.0117 23.4498 66.7553 23.9633 66.4883 24.4728C66.3481 24.7253 66.213 24.9788 66.0545 25.2316C66.0157 25.2934 65.9708 25.3583 65.9214 25.4242L65.9023 25.4501L65.8642 25.4907C65.8341 25.5214 65.7987 25.5461 65.7597 25.5637C65.7144 25.5838 65.6654 25.5939 65.6159 25.5934C65.5738 25.5911 65.5324 25.5817 65.4934 25.5656C65.3625 25.5044 65.3083 25.4315 65.2522 25.3647C65.2044 25.2997 65.1611 25.2316 65.1224 25.1608C64.8353 24.621 64.6818 24.0633 64.5742 23.4871Z" fill="#05009F"/>
<path d="M79.7031 22.6825C80.055 22.7824 80.3731 22.9809 80.6579 23.2084C80.9395 23.4389 81.1952 23.7001 81.4202 23.9873C81.6446 24.271 81.8429 24.5749 82.0126 24.895C82.1825 25.2136 82.33 25.5462 82.4193 25.9035C81.9265 25.3668 81.5135 24.806 81.0784 24.2627C80.8608 23.9927 80.6497 23.718 80.4227 23.4564C80.1957 23.1949 79.9621 22.9407 79.7031 22.6825Z" fill="#FE5900"/>
<path d="M82.628 22.8898C82.5362 23.2469 82.3459 23.5721 82.1264 23.8641C81.9037 24.153 81.6502 24.4163 81.3706 24.6493C81.094 24.8815 80.7971 25.0877 80.4834 25.2653C80.1713 25.4433 79.845 25.5988 79.4927 25.6958C80.0145 25.1879 80.5615 24.7595 81.091 24.3097C81.354 24.0845 81.6219 23.8659 81.8762 23.6316C82.1306 23.3972 82.3777 23.1574 82.628 22.8898Z" fill="#FE5900"/>
<path d="M64.4272 12.7219C64.7791 12.8218 65.0972 13.0205 65.382 13.2478C65.6636 13.4784 65.9193 13.7396 66.1443 14.0267C66.3688 14.3104 66.5671 14.6143 66.7369 14.9344C66.9066 15.253 67.0541 15.5856 67.1434 15.9429C66.6507 15.4062 66.2376 14.8454 65.8025 14.3021C65.5849 14.0321 65.3738 13.7574 65.148 13.4961C64.9221 13.2348 64.6872 12.9801 64.4272 12.7219Z" fill="#FE5900"/>
<path d="M67.3529 12.9294C67.261 13.2863 67.0707 13.6115 66.8514 13.9035C66.6287 14.1924 66.3752 14.4557 66.0954 14.6887C65.819 14.9209 65.5221 15.1271 65.2085 15.3047C64.8962 15.4827 64.5698 15.6382 64.2178 15.7355C64.7393 15.2273 65.2863 14.7992 65.8158 14.3491C66.0788 14.1242 66.3467 13.9054 66.6011 13.6712C66.8554 13.4371 67.103 13.1968 67.3529 12.9294Z" fill="#FE5900"/>
<path d="M46.2427 56.7528C45.5454 57.0466 44.8198 57.3145 44.0731 57.5553C40.6542 58.653 36.7867 59.1699 33.2455 58.9067C32.3132 58.8414 31.3863 58.7135 30.4708 58.5237C30.3465 56.2833 30.3675 53.6352 30.6282 50.7309C30.6471 50.501 30.6705 50.2686 30.6939 50.0339C31.2811 44.249 32.8167 37.5231 35.9963 31.02C37.3346 28.284 38.9619 25.5884 40.9345 23.0189C41.3831 23.9866 42.0734 24.785 42.954 25.3824C43.7722 25.942 44.7503 26.3265 45.8528 26.5181C45.8105 28.3674 46.9515 32.6205 47.5341 36.1056C47.6211 36.6319 47.6961 37.1417 47.7524 37.6206C47.7641 37.7273 47.7758 37.8434 47.7831 37.9666C48.0603 42.0514 46.1467 54.702 46.2427 56.7528Z" fill="#090909"/>
<path d="M36.7594 30.2447C34.9726 33.2533 37.4677 38.9135 39.8746 40.84C42.2815 42.7664 46.1266 45.5816 46.1266 45.5816V40.0694L36.7594 30.2447Z" fill="#090909"/>
<path d="M46.2426 56.7528C45.5453 57.0466 44.8197 57.3145 44.073 57.5553C44.4557 56.7681 45.1626 55.6088 45.5383 54.2101C46.2426 51.5808 45.4796 47.0622 44.7435 38.1715C44.7435 38.1715 46.089 37.4983 47.7797 37.9652C48.0602 42.0514 46.1466 54.702 46.2426 56.7528Z" fill="#090909"/>
<path d="M47.4661 62.3753C45.9188 62.9229 44.3948 63.423 42.9013 63.8623C39.5221 64.8535 36.2958 65.5264 33.2806 65.6782C32.8369 65.7043 32.3978 65.7162 31.9633 65.7138C31.8794 65.6245 31.8068 65.5249 31.7473 65.4174C31.7286 65.3867 31.712 65.3534 31.6933 65.3178C31.4467 64.8413 31.2073 64.0638 31.0006 63.03C30.984 62.947 30.9677 62.8648 30.9513 62.7787C30.9324 62.6814 30.916 62.5821 30.8973 62.4848C30.8714 62.3354 30.8456 62.1813 30.822 62.0225C30.7493 61.5459 30.6818 61.0312 30.6247 60.4815C30.5943 60.1921 30.5661 59.8959 30.5427 59.5877C30.5144 59.2438 30.491 58.8883 30.47 58.5232C31.3857 58.7134 32.3129 58.8417 33.2455 58.9072C36.7865 59.1704 40.654 58.6535 44.0729 57.5557L44.0753 57.5534C44.1999 57.5133 44.3242 57.4729 44.4465 57.4302C44.5075 57.4089 44.5685 57.3898 44.6295 57.3686C44.6812 57.3521 44.7329 57.3329 44.7845 57.3141C44.8643 57.2855 44.9419 57.2595 45.0216 57.2286C45.1062 57.2003 45.1885 57.1694 45.2729 57.1361C45.3809 57.0983 45.4889 57.0556 45.5946 57.0129C45.8131 56.9301 46.0291 56.8423 46.2428 56.7521V56.783C46.344 58.518 47.5774 60.9125 47.4661 62.3753Z" fill="#322FE6"/>
<path d="M47.532 36.1054C47.5133 36.1762 47.504 36.2168 47.504 36.2168C47.504 36.2168 46.4543 32.2363 46.2734 31.608C46.0924 30.9797 45.8461 29.0002 45.0381 27.7863C44.2302 26.5724 42.9695 26.141 42.9531 25.3822C43.7713 25.9418 44.7494 26.3263 45.8519 26.5179C45.8084 28.3676 46.9497 32.6203 47.532 36.1054Z" fill="#86A8FF"/>
<path d="M43.8547 43.5261C42.3871 45.6005 39.0222 51.997 36.7913 54.2113C35.2556 55.7382 34.4807 57.6572 33.2454 58.9082C32.3131 58.8424 31.3862 58.714 30.4708 58.5237C30.3371 56.1056 30.3721 53.2108 30.6938 50.034C31.9524 50.3066 33.5963 50.3587 35.6746 48.8817C40.2371 45.6409 41.4158 42.3998 42.705 42.6774C43.9943 42.955 43.8547 43.5261 43.8547 43.5261Z" fill="#090909"/>
<path opacity="0.5" d="M39.3156 46.4705C39.3156 46.4705 35.2651 51.7789 30.8622 50.7831C30.7846 50.7666 30.7072 50.7475 30.6284 50.7309C30.6474 50.5011 30.6707 50.2686 30.6941 50.034C31.2813 44.2491 32.817 37.5232 35.9965 31.02C36.7126 30.5862 37.1282 30.413 37.1282 30.413C35.7076 34.2016 34.9163 35.8802 34.1507 38.9669C33.3851 42.0536 33.3325 46.8548 34.1507 47.0625C34.9689 47.2702 38.4645 46.0358 41.752 41.5098C45.0395 36.9838 39.3156 46.4705 39.3156 46.4705Z" fill="#090909"/>
<path d="M47.4659 62.3753C45.9186 62.9229 44.3946 63.423 42.901 63.8623C42.8587 63.7957 42.8141 63.7294 42.7694 63.6583C41.936 62.3543 42.7203 59.4807 44.0727 57.5557L44.075 57.5534C44.1996 57.5133 44.324 57.4729 44.4463 57.4302C45.0637 57.2239 45.6619 56.9964 46.2426 56.7521V56.783C46.3438 58.518 47.5772 60.9125 47.4659 62.3753Z" fill="#322FE6"/>
<path d="M33.2816 65.6777C32.8379 65.7038 32.3988 65.7157 31.9643 65.7134C31.8803 65.624 31.8078 65.5244 31.7483 65.4169C31.7296 65.3862 31.713 65.353 31.6943 65.3173C31.4476 64.8408 31.2083 64.0633 31.0016 63.0296C30.985 62.9465 30.9686 62.8643 30.9523 62.7782C30.9333 62.6809 30.917 62.5816 30.8983 62.4843C30.8723 62.3349 30.8466 62.1808 30.823 62.022C30.7504 61.5454 30.6846 61.0317 30.6257 60.481C30.5953 60.1916 30.567 59.8954 30.5437 59.5872C30.5154 59.2433 30.492 58.8878 30.4709 58.5227C31.3867 58.7129 32.3139 58.8412 33.2465 58.9067C31.9783 61.2584 31.9783 64.7837 33.0939 65.5545C33.1572 65.5972 33.2182 65.6374 33.2816 65.6777Z" fill="#322FE6"/>
<path d="M53.4039 18.7986C53.3402 18.9015 53.2663 18.9975 53.1833 19.0853C52.9836 19.3034 52.7419 19.4955 52.5521 19.6591C52.3623 19.8227 52.2211 19.9603 52.2304 20.0646C52.2374 20.1309 52.2374 20.4368 52.1575 20.8373C52.1528 20.8588 52.1481 20.8824 52.1434 20.9062C51.951 21.8031 51.3591 23.1206 49.6005 23.4097C49.303 23.4569 49.0018 23.4751 48.7009 23.4643C48.4873 23.4586 48.2742 23.442 48.0623 23.4145C47.8792 23.3909 47.6373 23.4501 47.3789 23.5948C46.8766 23.8745 46.3153 24.4718 46.0333 25.3751C45.9202 25.7383 45.8586 26.1158 45.8503 26.4964V26.5179C45.0403 26.3763 44.2934 26.1313 43.6313 25.7862C43.3972 25.6664 43.1707 25.5318 42.9534 25.3831C42.0728 24.7857 41.3824 23.9868 40.9338 23.0196C42.109 21.4866 43.3819 20.0325 44.7443 18.6666C44.7443 18.6666 45.4206 17.4292 46.1579 16.3907C46.6603 15.6843 47.1889 15.069 47.5529 14.9981C48.4545 14.8204 51.3498 14.9981 51.3498 14.9981C51.9461 15.2684 52.2187 15.6406 52.3478 16.0199C52.5264 16.5415 52.4324 17.0796 52.5334 17.3888C52.7099 17.9213 53.7572 18.2201 53.4039 18.7986Z" fill="#FDB2D0"/>
<path d="M53.4039 18.7985C53.3401 18.9014 53.2662 18.9975 53.1832 19.0853C53.0282 18.4785 52.0845 17.7636 52.0349 16.6779C52.0349 16.6779 52.1406 16.3175 52.3472 16.021C52.5258 16.5426 52.4319 17.0808 52.5328 17.39C52.7098 17.9213 53.7571 18.2201 53.4039 18.7985Z" fill="#FCCDE0"/>
<path d="M52.1438 20.9062C51.9514 21.8031 51.3595 23.1206 49.6008 23.4097C50.3779 22.9641 51.3784 22.0703 52.1438 20.9062Z" fill="#FCCDE0"/>
<path d="M52.0991 21.4229C52.1038 21.4064 52.1182 21.366 52.1395 21.3091C52.1322 21.3365 52.1236 21.3634 52.1135 21.3898C52.1062 21.4064 52.1015 21.4158 52.0991 21.4229Z" fill="#FE93BC"/>
<path d="M52.2309 20.0646C52.2379 20.1309 52.2379 20.4368 52.158 20.8373C52.1322 20.5364 52.0619 20.2329 52.0736 20.0905C52.0923 19.889 52.2073 19.8014 52.5526 19.6591C52.3623 19.825 52.2215 19.9603 52.2309 20.0646Z" fill="#FE93BC"/>
<path d="M49.3395 18.0534C49.8042 18.2423 50.0245 17.8526 50.0245 17.8526C50.0245 17.8526 50.2103 17.7346 50.7492 17.9069C51.288 18.0792 51.9428 17.1263 51.9428 17.1263C51.9428 17.1263 50.3139 16.3904 49.8155 16.8844C49.3171 17.3784 49.3395 18.0534 49.3395 18.0534Z" fill="#FE93BC"/>
<path d="M48.415 19.403C47.8678 19.6626 46.9287 20.4604 46.6444 20.6775C46.3602 20.8947 45.5291 21.0925 44.4629 21.1921C43.3966 21.2917 41.8495 23.295 42.6032 24.4662C42.8639 24.8693 42.9742 25.1941 42.9539 25.3812C42.0733 24.7838 41.3829 23.9849 40.9343 23.0177C42.1095 21.4847 43.3824 20.0306 44.7448 18.6647C44.7448 18.6647 45.4211 17.4273 46.1584 16.3888C46.2165 16.393 46.2739 16.4034 46.3298 16.4197C48.091 16.9255 48.415 19.403 48.415 19.403Z" fill="#FE93BC"/>
<path d="M51.6883 17.4733C50.7633 18.3029 50.1173 17.2361 50.1173 17.2361C50.27 18.4571 49.453 17.9735 48.819 18.0754C48.7231 18.0882 48.6305 18.1196 48.5464 18.1679C48.3987 18.2555 48.2953 18.4287 48.1957 18.6492C47.8764 19.3676 47.6204 20.5886 46.1152 21.0436C44.1473 21.6363 43.7459 19.403 44.3235 17.3926C44.3235 17.3926 47.3034 16.1337 49.5881 15.4296C50.6097 15.1143 51.4926 14.9104 51.9083 14.9812C52.0116 14.9977 52.0866 15.031 52.1266 15.0855C52.6865 15.8422 52.6136 16.6435 51.6883 17.4733Z" fill="#1A1A1A" fill-opacity="0.99"/>
<path d="M51.6882 17.4733C50.7631 18.3029 50.1172 17.2361 50.1172 17.2361C50.2699 18.457 49.4528 17.9734 48.8189 18.0754C48.7976 18.0612 48.7859 18.0541 48.7859 18.0541C48.9967 17.9543 49.1853 17.8124 49.3402 17.6369C49.5973 17.3381 49.5889 16.5486 50.1665 16.57C50.7442 16.5915 50.8992 16.4992 50.9885 15.503C51.2816 15.3056 51.5894 15.1313 51.9091 14.9816C52.0124 14.9981 52.0875 15.0314 52.1274 15.0859C52.6864 15.8421 52.6134 16.6434 51.6882 17.4733Z" fill="#1A1A1A"/>
<path d="M49.8521 15.4865C49.3261 15.9465 49.4857 16.9992 49.1194 17.1011C48.7531 17.2031 47.9008 16.9399 47.3678 17.3098C46.8348 17.6796 46.7132 17.5609 46.2548 17.7245C45.7963 17.888 45.2122 17.512 45.1416 18.2581C45.071 19.0042 46.8158 18.5685 47.3678 18.2581C47.6523 18.3699 47.9292 18.5005 48.1967 18.6492C47.8774 19.3676 47.6214 20.5886 46.1161 21.0436C44.1483 21.6363 43.7469 19.403 44.3245 17.3926C44.3245 17.3926 47.3044 16.1337 49.5891 15.4296C49.8357 15.394 49.9442 15.4084 49.8521 15.4865Z" fill="#1A1A1A"/>
<path d="M48.6639 19.6948C48.3633 19.2633 46.6984 18.9395 47.0483 18.1087L47.0507 18.1063C47.058 18.0841 47.0674 18.0626 47.0787 18.0421C47.5229 17.2102 48.6123 17.1436 49.4482 18.0374C49.4981 18.0883 49.5449 18.1422 49.5885 18.1986C49.5885 18.1986 49.9506 19.5524 48.6639 19.6948Z" fill="#FDB2D0"/>
<path d="M48.7013 23.4642C48.4877 23.4586 48.2745 23.4419 48.0626 23.4144C47.5202 23.3436 46.4589 24.0118 46.0337 25.3751C46.1606 24.811 46.4987 24.0404 46.8886 23.6705C47.3886 23.194 47.1046 22.5324 47.0859 22.4876C47.499 22.8359 47.9476 23.2485 48.7013 23.4642Z" fill="#FE93BC"/>
<path d="M51.7306 15.5598C51.3479 15.6779 50.7749 15.8586 50.0822 16.0696C49.9742 16.1029 49.8616 16.1383 49.7463 16.174C49.744 16.1763 49.7416 16.1787 49.7393 16.1787C49.0513 16.3897 48.2665 16.6271 47.4451 16.8709C47.4427 16.8733 47.438 16.8733 47.4334 16.8757C43.8618 17.9283 39.5976 19.0707 39.5199 18.5236C39.4031 17.6937 44.7751 17.5467 45.0688 15.5598C45.2731 14.1801 45.7334 12.5388 47.2314 11.7715C47.4162 11.6768 47.6087 11.5983 47.8067 11.5366C48.3656 11.3612 49.0396 11.2878 49.852 11.3542C49.96 11.3636 50.0682 11.373 50.1713 11.3874C53.6143 11.8142 55.0651 14.5216 51.7306 15.5598Z" fill="#FDA218"/>
<path d="M49.4483 18.0374C48.4174 17.7221 47.6565 17.4164 47.0508 18.1063C47.0582 18.0841 47.0675 18.0626 47.0788 18.0421C47.5228 17.2102 48.6117 17.1436 49.4483 18.0374Z" fill="#FCCDE0"/>
<path d="M51.7305 15.5598C51.3478 15.6779 50.7748 15.8586 50.0822 16.0696C51.1082 15.3087 52.4868 14.109 52.0992 13.412C51.4958 12.3308 49.5302 11.6789 48.3186 11.8283L47.8066 11.5366C48.3656 11.3612 49.0396 11.2878 49.8519 11.3542C49.9599 11.3636 50.0681 11.373 50.1712 11.3874C53.6142 11.8142 55.065 14.5216 51.7305 15.5598Z" fill="#FFBE71"/>
<path d="M47.4334 16.8757C43.8618 17.9283 39.5976 19.0707 39.5199 18.5236C39.4031 17.6937 44.7751 17.5467 45.0688 15.5599C45.2731 14.1801 45.7334 12.5388 47.2314 11.7715C47.2638 11.8197 47.281 11.8767 47.2807 11.935C46.1937 12.805 45.6417 14.6118 45.7004 15.5908C45.7591 16.5698 43.9815 17.1318 44.8481 17.191C45.3974 17.229 46.614 17.0274 47.4334 16.8757Z" fill="#FC8000"/>
<path d="M47.8781 12.2697C48.3586 12.203 48.702 11.8093 48.645 11.3903C48.5879 10.9712 48.1522 10.6855 47.6716 10.7521C47.1911 10.8188 46.8477 11.2125 46.9047 11.6316C46.9617 12.0506 47.3975 12.3363 47.8781 12.2697Z" fill="#FDA218"/>
<path d="M48.1067 10.9122C47.7327 10.8307 47.4206 10.89 47.6773 11.0752C47.934 11.2605 48.1916 11.4529 48.1727 11.6653C48.1537 11.8777 48.6203 11.632 48.5397 11.3023C48.459 10.9726 48.1067 10.9122 48.1067 10.9122Z" fill="#FFBE71"/>
<path opacity="0.8" d="M42.8191 38.488L46.1254 38.6469C45.1697 41.16 42.4166 44.9364 39.3776 48.3958V48.3981C37.0763 51.018 34.6107 53.4525 32.6311 55.0173C31.9198 55.5817 31.2692 56.0322 30.7142 56.3391C26.5764 58.6221 21.527 57.1996 21.2345 49.1982C20.9421 41.1968 24.4631 33.9066 29.1196 31.2582C33.4851 28.7785 32.7618 26.6447 37.099 25.7034C37.39 25.6395 37.7023 25.5826 38.0429 25.5304C38.9189 25.3954 39.7383 25.4124 40.4992 25.559C44.4418 26.3081 46.823 30.4949 47.0836 34.9331L46.0714 34.473L44.6648 33.8358L36.623 30.1848C33.8308 33.933 31.2339 47.1835 31.2738 47.6173C31.2764 47.6355 31.2819 47.6532 31.2902 47.6695C31.5006 48.1366 33.9648 49.1156 37.7713 45.9579C41.7225 42.6774 42.8191 38.488 42.8191 38.488Z" fill="#F6DA53"/>
<path d="M36.6222 30.1831C33.83 33.9313 31.233 47.1819 31.273 47.6157C30.7141 45.4037 32.71 38.3813 33.5624 35.7735C34.4147 33.1657 36.5079 27.5325 39.6982 27.9498C41.2787 28.1538 43.183 30.7474 44.6647 33.8341L36.6222 30.1831Z" fill="#FC8000"/>
<path d="M47.0836 34.9318L46.0714 34.4718C43.7938 32.1225 40.1962 28.7773 39.4143 28.4122C38.3576 27.9189 41.5276 26.8117 40.0789 26.9305C38.6302 27.0492 37.7024 26.985 38.8165 26.5179C39.7956 26.1077 39.3425 25.6597 40.4997 25.5577C44.4418 26.3069 46.823 30.4937 47.0836 34.9318Z" fill="#F6DA53"/>
<path d="M46.1252 38.6468C45.1696 41.16 42.4164 44.9363 39.3774 48.3957C39.3073 46.8595 38.943 45.9883 37.9381 47.0032C36.6558 48.2978 31.9102 49.8055 31.2903 47.6671C31.5007 48.1342 33.9649 49.1132 37.7714 45.9555C41.7221 42.6767 42.8209 38.4873 42.8209 38.4873L46.1252 38.6468Z" fill="#F6DA53"/>
<path d="M37.4559 26.1018C35.1146 26.7419 34.7177 27.4651 32.7407 29.3426C30.7637 31.2202 29.7068 30.509 27.7482 32.8893C25.7897 35.2696 24.698 41.493 24.3352 44.3024C23.9723 47.1118 23.6002 50.7796 24.7415 53.0081C25.7722 55.0232 28.1017 57.0953 32.6289 55.0185C31.9176 55.5828 31.267 56.0334 30.712 56.3402C26.5742 58.6233 21.5248 57.2008 21.2323 49.1994C20.9399 41.198 24.4609 33.9078 29.1174 31.2594C33.4829 28.7797 32.7596 26.6458 37.0968 25.7046C37.9232 25.8257 39.0642 25.6621 37.4559 26.1018Z" fill="#F6DA53"/>
<path d="M26.37 54.2042C24.0734 54.0879 23.7354 49.747 24.0194 46.4849C24.0921 45.6574 24.2051 44.9012 24.3364 44.3012C25.6397 45.0385 28.15 44.4981 29.2866 43.5497C29.3546 43.9599 29.2793 44.5361 29.3286 45.8967C29.352 46.5418 29.4039 47.3643 29.5119 48.4264C29.9229 52.4876 29.3053 54.3536 26.37 54.2042Z" fill="#322FE6"/>
<path d="M29.2866 43.5497C28.15 44.4981 25.6397 45.0385 24.3364 44.3012C24.3481 44.242 24.3598 44.1851 24.3741 44.1282C24.9611 41.2098 28.8073 42.5089 29.1596 43.1704C29.2237 43.2883 29.2667 43.4167 29.2866 43.5497Z" fill="#86A8FF"/>
<path d="M26.7706 45.8417C27.3109 45.8417 27.7489 45.3995 27.7489 44.854C27.7489 44.3085 27.3109 43.8662 26.7706 43.8662C26.2303 43.8662 25.7922 44.3085 25.7922 44.854C25.7922 45.3995 26.2303 45.8417 26.7706 45.8417Z" fill="white"/>
<path d="M65.6368 20.5838C65.2659 21.257 62.934 22.4484 64.6765 23.0991C65.1955 23.2936 65.3199 23.5804 65.1485 23.967C65.1508 23.967 65.1508 23.967 65.1485 23.9693C64.8589 24.6149 63.7466 25.5353 62.293 26.7627C61.7036 27.2583 61.0601 27.8059 60.391 28.4033C58.2024 30.3568 54.7952 45.8597 51.5853 46.3716C49.4201 46.7179 47.3278 45.2859 44.3926 43.2139C46.0739 41.9217 48.2788 39.1543 49.0727 37.09C49.8404 38.1356 50.5567 38.7922 51.0967 38.4887C52.7097 37.5807 57.3594 29.264 58.2634 27.4172C59.4377 25.0154 61.9313 22.2155 63.7676 20.8215C65.6039 19.4276 66.0102 19.9128 65.6368 20.5838Z" fill="#FDB2D0"/>
<path d="M62.293 26.7627C61.7036 27.2583 61.0601 27.8059 60.391 28.4032C58.2024 30.3568 54.7952 45.8597 51.5853 46.3716C49.4201 46.7179 47.3278 45.2859 44.3926 43.2139C46.0739 41.9216 48.2788 39.1543 49.0727 37.09C49.0914 38.8838 49.8521 43.6857 51.82 42.2915C53.7879 40.8973 56.0468 36.0707 57.1621 33.5504C58.2775 31.0302 59.245 28.868 59.7147 28.4224C59.9987 28.1538 61.3067 27.3527 62.293 26.7627Z" fill="#FE93BC"/>
<path d="M65.6367 20.5838C65.2657 21.257 62.9338 22.4484 64.6763 23.0991C65.1953 23.2936 65.3197 23.5804 65.1483 23.967C65.1387 23.642 65.0284 23.2603 64.573 23.2745C63.7887 23.2959 63.7064 22.5324 63.6994 22.1104C63.6924 21.6884 64.9557 20.1403 63.5608 21.2216C62.1658 22.3028 59.8038 24.6189 57.6716 28.782C55.5393 32.9452 51.7024 38.6017 50.9532 39.0476C50.204 39.4934 49.1639 38.3459 49.0725 37.0886C49.8402 38.1342 50.5565 38.7908 51.0965 38.4873C52.7095 37.5793 57.3593 29.2626 58.2633 27.4157C59.4375 25.014 61.9311 22.214 63.7674 20.8201C65.6037 19.4261 66.01 19.9128 65.6367 20.5838Z" fill="#FCCDE0"/>
<path d="M49.0726 37.0893C48.8093 37.7721 48.3946 38.5307 47.8936 39.2869C46.8793 40.821 45.5173 42.3476 44.3924 43.2131C42.9765 42.2126 41.3632 41.0627 39.4519 39.8916C33.5814 36.2951 35.427 30.7188 37.261 29.0143C38.6582 27.7161 40.9569 27.3902 43.1408 28.917C43.8241 29.3936 44.4981 30.0551 45.1279 30.9232C46.1044 32.2695 47.6517 35.1452 49.0726 37.0893Z" fill="#090909"/>
<path opacity="0.5" d="M49.0725 37.0893C48.8093 37.7721 48.3946 38.5307 47.8936 39.2869C46.5845 38.4715 41.1843 30.8683 38.9939 29.2515C38.2283 28.6895 40.5765 28.8958 41.8398 29.5359C42.8871 30.0646 42.3401 29.2586 43.1408 28.9171C43.8241 29.3936 44.4981 30.0552 45.1278 30.9233C46.1043 32.2695 47.6517 35.1452 49.0725 37.0893Z" fill="#090909"/>
<path d="M84.4065 0.0433878L75.775 0.830343C75.5121 0.854306 75.3183 1.08885 75.342 1.3542L76.3504 12.6284C76.3742 12.8938 76.6065 13.0895 76.8693 13.0655L85.5008 12.2785C85.7636 12.2546 85.9575 12.02 85.9337 11.7547L84.9253 0.480472C84.9016 0.215114 84.6693 0.019425 84.4065 0.0433878Z" fill="#F6DA53"/>
<path d="M84.2121 0.274817L75.9845 1.02494C75.7339 1.04779 75.5491 1.27143 75.5717 1.52446L75.8016 4.09396C75.8242 4.34698 76.0457 4.53358 76.2963 4.51073L84.5239 3.7606C84.7745 3.73775 84.9593 3.51411 84.9367 3.26109L84.7068 0.691588C84.6842 0.438563 84.4627 0.251968 84.2121 0.274817Z" fill="white"/>
<path d="M77.6954 3.02428C78.0652 3.02428 78.3649 2.72164 78.3649 2.34832C78.3649 1.97499 78.0652 1.67235 77.6954 1.67235C77.3256 1.67235 77.0259 1.97499 77.0259 2.34832C77.0259 2.72164 77.3256 3.02428 77.6954 3.02428Z" fill="#F6DA53"/>
<path d="M80.3629 2.78119C80.7326 2.78119 81.0324 2.47855 81.0324 2.10522C81.0324 1.73189 80.7326 1.42925 80.3629 1.42925C79.9931 1.42925 79.6934 1.73189 79.6934 2.10522C79.6934 2.47855 79.9931 2.78119 80.3629 2.78119Z" fill="#F6DA53"/>
<path d="M83.0304 2.53831C83.4001 2.53831 83.6999 2.23567 83.6999 1.86235C83.6999 1.48902 83.4001 1.18638 83.0304 1.18638C82.6606 1.18638 82.3608 1.48902 82.3608 1.86235C82.3608 2.23567 82.6606 2.53831 83.0304 2.53831Z" fill="#F6DA53"/>
<path d="M83.2414 4.65735L77.9866 5.13645C77.9781 5.13722 77.9718 5.1448 77.9726 5.15336L78.0025 5.4881C78.0033 5.49667 78.0108 5.50298 78.0193 5.50221L83.2741 5.02311C83.2826 5.02234 83.2889 5.01477 83.2881 5.0062L83.2582 4.67147C83.2574 4.6629 83.2499 4.65658 83.2414 4.65735Z" fill="white"/>
<path d="M79.7992 10.3469C79.4038 10.3831 79.0988 10.227 78.8844 9.87862C78.7215 9.61018 78.6202 9.25087 78.5805 8.8007C78.5465 8.41992 78.6066 8.07958 78.7607 7.77967C78.9428 7.42815 79.2155 7.23588 79.5789 7.20283C79.9207 7.17136 80.2004 7.2941 80.4179 7.57103C80.6059 7.81067 80.7162 8.11356 80.749 8.47971C80.8013 9.06788 80.7484 9.51774 80.5902 9.82929C80.432 10.1408 80.1684 10.3134 79.7992 10.3469ZM79.6121 7.58307C79.3701 7.60494 79.1894 7.74655 79.07 8.0079C78.9703 8.22599 78.9323 8.46831 78.9562 8.73485C78.9947 9.16677 79.0815 9.48572 79.2166 9.69169C79.3517 9.89765 79.535 9.99017 79.7664 9.96925C80.042 9.94407 80.2254 9.76721 80.3167 9.43867C80.3801 9.21067 80.3967 8.92745 80.3665 8.58899C80.3353 8.23338 80.2566 7.97187 80.1302 7.80445C80.0038 7.63704 79.8308 7.56324 79.6112 7.58307H79.6121Z" fill="white"/>
<path d="M83.0049 9.98151C82.9575 9.98266 82.9102 9.97662 82.8646 9.96357C82.8197 9.95046 82.7732 9.94433 82.7265 9.9454C82.6601 9.95138 82.5609 9.96436 82.4289 9.98434C82.2969 10.0043 82.1971 10.0174 82.1296 10.0235C82.0544 10.0323 81.9798 10.0458 81.9062 10.0639C81.8325 10.0816 81.7579 10.095 81.6827 10.104C81.6616 10.105 81.6405 10.1043 81.6195 10.1019C81.5986 10.0993 81.5775 10.0985 81.5564 10.0995C81.4667 10.1077 81.4043 10.0691 81.3694 9.98363C81.3498 9.93902 81.3348 9.86114 81.3248 9.7495C81.2973 9.44361 81.358 9.18997 81.5066 8.98856C81.5744 8.8962 81.7638 8.72013 82.0747 8.46035C82.2491 8.3148 82.3643 8.20308 82.4202 8.12519C82.5193 7.99453 82.5652 7.83054 82.5483 7.66684C82.5408 7.58282 82.4802 7.51288 82.3664 7.45702C82.2786 7.40933 82.1792 7.3875 82.0796 7.394C81.9583 7.40556 81.8429 7.45256 81.7477 7.52924L81.4886 7.77517C81.4367 7.82505 81.3938 7.85149 81.3598 7.85448C81.2261 7.86675 81.1543 7.81907 81.1445 7.71145C81.142 7.68117 81.1461 7.65071 81.1564 7.62218C81.1667 7.59365 81.1831 7.56773 81.2044 7.54623C81.3437 7.3881 81.4664 7.27174 81.5726 7.19716C81.7243 7.08752 81.9038 7.02381 82.0901 7.01349C82.2765 7.00316 82.4618 7.04665 82.6245 7.13886C82.8206 7.25184 82.9278 7.4102 82.9462 7.61397C82.9587 7.73951 82.9508 7.86627 82.9228 7.98925C82.895 8.10553 82.8462 8.21563 82.7788 8.31401C82.6919 8.44099 82.5385 8.58796 82.3188 8.7549C82.0881 8.93208 81.938 9.06417 81.8685 9.15118C81.8044 9.22983 81.7569 9.32081 81.7288 9.4186C81.7006 9.51639 81.6925 9.61894 81.7049 9.72L82.1023 9.64589C82.3764 9.60497 82.5727 9.57917 82.6912 9.56847C82.787 9.55924 82.8838 9.56788 82.9766 9.59396C83.0977 9.62936 83.1619 9.68774 83.1692 9.76909C83.1739 9.81975 83.1595 9.87033 83.1288 9.9107C83.1145 9.93092 83.096 9.94773 83.0746 9.95996C83.0532 9.97219 83.0294 9.97955 83.0049 9.98151Z" fill="white"/>
<path d="M107.545 18.2564H94.8516C93.9867 17.6048 93.334 16.5436 94.4638 15.5726C96.1937 14.0888 97.2742 16.196 97.3233 16.2946C97.3069 16.1709 96.914 13.0094 100.449 12.6016C104.053 12.1857 103.629 15.541 103.629 15.541C103.629 15.541 104.646 14.6604 105.436 15.2769C106.225 15.8934 105.389 16.5568 105.389 16.5568C106.227 16.4499 107.656 16.4015 108.015 17.1469C108.268 17.6699 108.086 18.0298 107.545 18.2564Z" fill="#F2F5FA"/>
<path d="M93.9912 55.5359C93.6583 56.1896 93.1138 56.8139 92.3936 57.3884C91.0709 58.4458 89.0796 58.986 88.1249 60.2785L88.1188 60.287C87.8119 60.7052 87.6293 61.1822 87.4787 61.6724C87.2398 62.4485 87.0813 63.2573 86.6372 63.9182C86.4904 64.1382 86.3123 64.3351 86.1086 64.5026C85.814 64.744 85.4636 64.926 85.0828 65.0763L85.0489 65.0896C84.813 65.1814 84.5657 65.2612 84.3132 65.336C83.4621 65.5876 82.5503 65.7802 81.8048 66.162C80.9761 66.5869 80.3926 67.2345 79.8426 67.8888C79.5497 67.8805 76.0494 67.2444 75.0217 66.9605C74.2283 66.7415 73.4087 66.5781 72.5905 66.3468C72.5339 66.331 71.3263 66.0424 70.7834 65.8861C70.7834 65.8861 68.7094 65.322 68.5374 65.2524C68.5981 65.0459 68.8616 64.4263 68.9682 64.2342C69.0028 64.1721 69.0398 64.1109 69.0792 64.0508C69.2896 63.7317 69.5559 63.4464 69.8488 63.1776C70.1789 62.8733 70.5429 62.5889 70.898 62.2988C70.9637 62.2443 71.0289 62.1919 71.0925 62.1388C71.2561 62.0003 71.413 61.8627 71.5633 61.7189C71.6068 61.6762 71.6528 61.6321 71.6963 61.5894C71.7117 61.5747 71.7234 61.5584 71.7382 61.5459C71.9145 61.3646 72.0809 61.1736 72.2366 60.9738C72.2813 60.917 72.3251 60.8596 72.3679 60.8015C72.7913 60.2322 73.1443 59.6176 73.5094 59.0136C73.5501 58.9461 73.591 58.8789 73.6322 58.8118C73.6679 58.7536 73.7038 58.6956 73.7399 58.6379C74.3632 57.6466 75.0652 56.7209 76.2179 56.1252C76.2443 56.1115 76.2712 56.0981 76.2981 56.0846C77.0735 55.7016 77.9785 55.5061 78.9164 55.3574C79.134 55.3227 79.3533 55.2906 79.5733 55.2592C80.8793 55.0728 82.2041 54.9121 83.2919 54.4046C84.9131 53.6472 85.7834 52.2275 87.136 51.2112L87.1486 51.2018C87.7331 50.7656 88.5113 50.4229 89.3365 50.2643C90.4252 50.0559 91.5955 50.1699 92.5088 50.8227C92.7529 51.0214 92.9839 51.2357 93.2005 51.4645C93.5306 51.8154 93.7868 52.1692 93.9743 52.5237C94.0211 52.6134 94.0642 52.7032 94.1036 52.793C94.143 52.8829 94.1782 52.9749 94.209 53.069C94.2683 53.2456 94.3118 53.4273 94.339 53.6118C94.4339 54.2672 94.3081 54.9147 93.9912 55.5359Z" fill="#C0D2FF"/>
<path d="M75.2834 58.514C75.2443 58.7871 75.2522 59.0649 75.3067 59.3353C75.8884 62.0654 76.8672 64.634 75.1861 66.7063C75.1447 66.7573 75.061 66.9107 75.0225 66.96C74.2277 66.7497 69.0573 65.483 69.0718 65.3976C69.1613 64.8587 71.9058 60.2785 71.849 57.7224C71.7574 53.6071 72.2995 49.4647 76.0125 51.2655C78.3614 52.4043 77.0264 54.8445 76.0202 56.7299C75.5912 57.534 75.3839 57.7412 75.2834 58.514Z" fill="#9FC3FC"/>
<path d="M74.6918 63.2084C74.6843 63.2125 73.8795 63.5009 72.8532 65.4002C72.8509 65.4063 72.846 65.4089 72.8446 65.4129C72.8364 65.4471 72.8301 65.482 72.8212 65.5163C72.7943 65.66 72.7478 65.8026 72.7097 65.9442C72.6863 66.0263 72.6145 66.264 72.5895 66.3466L72.4195 66.2994C72.446 66.2149 72.5189 65.9751 72.5425 65.8908C72.5818 65.7523 72.6262 65.6156 72.6547 65.4726C72.6634 65.4363 72.6706 65.3994 72.6781 65.3631C72.6739 65.3389 72.6778 65.314 72.6891 65.2923C72.6913 65.2902 72.6929 65.2876 72.6938 65.2847C72.8207 64.7107 72.9137 64.1282 72.9918 63.5438C72.9891 63.5386 72.987 63.5329 72.9857 63.5271C72.9102 62.8842 72.7987 62.3812 72.6802 61.9929C72.5229 61.4685 72.3529 61.1503 72.2344 60.9733C72.1917 60.9049 72.1415 60.8416 72.0848 60.7845C72.0646 60.7652 72.0519 60.7393 72.0491 60.7113C72.0464 60.6834 72.0537 60.6554 72.0698 60.6325C72.0761 60.6212 72.0848 60.6114 72.0952 60.6038C72.1057 60.5962 72.1176 60.5909 72.1302 60.5884C72.1428 60.5859 72.1559 60.5862 72.1684 60.5893C72.1809 60.5924 72.1925 60.5982 72.2026 60.6063C72.2644 60.6644 72.3193 60.7296 72.3662 60.8005C72.493 60.9813 72.6741 61.3052 72.8415 61.8416C72.9424 62.1723 73.0223 62.5092 73.0807 62.8502C73.1113 62.5761 73.1442 62.3007 73.1742 62.0269C73.1943 61.8332 73.2162 61.6403 73.2364 61.4465C73.3224 60.6349 73.4061 59.8222 73.5073 59.0127C73.5266 58.8571 73.5467 58.7016 73.5676 58.5463C73.7312 57.3884 73.9264 56.2293 74.2724 55.1176C73.9685 56.2423 73.7923 57.3999 73.659 58.5567C73.6492 58.6415 73.6395 58.7262 73.63 58.8109C73.5381 59.6341 73.4638 60.4576 73.3878 61.2823C73.3645 61.5339 73.3411 61.7874 73.3177 62.0375C73.2731 62.5056 73.2261 62.9746 73.1669 63.4433C73.17 63.4575 73.1723 63.4718 73.1739 63.4862C73.1774 63.5171 73.169 63.5482 73.1506 63.5731C73.0975 63.9904 73.0337 64.4079 72.9579 64.8226C73.9021 63.2578 74.6119 63.0092 74.6437 62.9991C74.6561 62.9955 74.6692 62.9947 74.682 62.9966C74.6948 62.9985 74.707 63.0031 74.7179 63.0102C74.7288 63.0172 74.7381 63.0265 74.7452 63.0375C74.7522 63.0484 74.7569 63.0608 74.7589 63.0737C74.7651 63.1005 74.7617 63.1287 74.7495 63.1533C74.7372 63.1779 74.7168 63.1974 74.6918 63.2084Z" fill="#C0D2FF"/>
<path d="M69.7325 65.6072C69.1873 65.4332 68.5508 65.6171 68.1587 65.442C67.0815 64.9633 66.4342 65.4226 65.6625 65.0358C64.9077 64.6581 64.8165 64.1035 63.1927 64.0013C60.6635 63.8424 62.5148 61.9479 63.6675 61.7433C63.9296 61.6961 64.1044 61.5684 64.2475 61.4079C64.7347 60.861 64.8518 59.941 66.7743 60.62C67.9572 61.038 68.3792 61.7954 68.6679 62.6515C68.7163 62.7931 68.7614 62.9392 68.8044 63.086C68.8439 63.2172 68.8827 63.3501 68.9232 63.4835C69.0372 63.8611 69.1628 64.2418 69.3484 64.6081C69.4723 64.8566 69.5391 65.3801 69.7325 65.6072Z" fill="#C0D2FF"/>
<path d="M69.1871 65.2519C69.1871 65.2519 69.1871 65.2519 69.1841 65.2519L68.8229 65.2106C68.7651 65.1745 68.709 65.1379 68.652 65.1004C68.3641 64.9023 68.0874 64.6881 67.823 64.4589C67.5591 64.2229 67.3029 63.9923 67.0249 63.7888C66.7498 63.5842 66.4502 63.4152 66.1333 63.2859C65.9746 63.2208 65.8102 63.1706 65.6424 63.1358C65.5574 63.1202 65.4715 63.1096 65.3853 63.1041C65.2983 63.1015 65.2095 63.0999 65.1213 63.1277C65.2981 63.064 65.4783 63.0767 65.6525 63.0954C65.8252 63.1181 65.9953 63.1576 66.1605 63.2134C66.4881 63.329 66.7997 63.4868 67.0874 63.6829C67.3803 63.8717 67.6407 64.1167 67.9056 64.3399C68.1702 64.5621 68.4465 64.7696 68.7334 64.9616C68.8795 65.0641 69.0288 65.1608 69.1834 65.2512C69.1834 65.2519 69.1852 65.2526 69.1871 65.2519Z" fill="#9FC3FC"/>
<path d="M92.1339 68.2438C92.1339 68.2438 89.922 68.6099 88.3415 69.4437C87.5768 69.8471 86.7773 70.0944 86.0168 70.1886C83.9192 69.7751 84.0929 68.7335 82.6739 68.2431C82.5734 68.2084 82.485 68.1447 82.3873 68.097L82.334 68.0694C86.1739 65.0705 89.299 65.9086 92.1339 68.2438Z" fill="#9FC3FC"/>
<path d="M87.8432 67.8629C87.4379 67.8202 85.9995 67.8128 84.4947 67.967C84.3161 67.9837 84.1347 68.0043 83.9551 68.0288C83.5168 68.0824 83.0808 68.152 82.6743 68.2431C82.5808 68.1931 82.4854 68.1447 82.3877 68.097C82.9061 67.9738 83.431 67.88 83.9598 67.8161H83.9626C84.2431 67.7803 84.5255 67.7515 84.8042 67.7248C86.2094 67.603 87.5003 67.6108 87.8818 67.6505C87.8947 67.6521 87.9071 67.6565 87.9182 67.6633C87.9293 67.6702 87.9389 67.6794 87.9461 67.6903C87.9534 67.7012 87.9583 67.7135 87.9605 67.7265C87.9627 67.7394 87.962 67.7527 87.9587 67.7654C87.9546 67.7931 87.9405 67.8183 87.9193 67.8362C87.898 67.8542 87.8709 67.8637 87.8432 67.8629Z" fill="#C0D2FF"/>
<path d="M83.9084 68.0077C83.8966 67.9974 83.8875 67.9845 83.8817 67.9699C83.876 67.9553 83.8737 67.9395 83.8752 67.9239C83.8767 67.9011 83.8845 67.8792 83.8979 67.8607C83.9112 67.8423 83.9294 67.828 83.9505 67.8196L85.7774 67.1519C85.7893 67.1471 85.8021 67.1451 85.8149 67.146C85.8277 67.1469 85.8401 67.1506 85.8513 67.1569C85.8625 67.1632 85.8721 67.1719 85.8796 67.1824C85.887 67.193 85.892 67.205 85.8943 67.2177C85.8999 67.2454 85.8957 67.2742 85.8823 67.299C85.869 67.3239 85.8474 67.3431 85.8214 67.3535L84.3018 67.9086L87.239 68.8154C87.2894 68.831 87.3142 68.8893 87.2946 68.9464C87.2869 68.9727 87.2696 68.9951 87.2461 69.009C87.2227 69.0228 87.1948 69.0271 87.1684 69.0209L83.9362 68.0233C83.9261 68.0199 83.9166 68.0146 83.9084 68.0077Z" fill="#C0D2FF"/>
<path d="M100.833 62.0291C100.822 62.0878 100.772 62.1277 100.719 62.1152C100.719 62.1146 100.718 62.1143 100.716 62.1143C100.715 62.1143 100.714 62.1146 100.714 62.1152C99.3198 61.8214 97.9658 61.65 96.6595 61.5997C96.1083 61.579 95.5658 61.579 95.032 61.5997C92.4558 61.7005 90.097 62.2951 88.0226 63.3598C87.8126 63.4664 87.6048 63.5786 87.3991 63.6963C85.834 64.5932 84.4461 65.7705 83.2674 67.2152C83.1094 67.4097 82.9558 67.6082 82.8043 67.8123C82.7185 67.9289 82.6386 68.0427 82.557 68.1635C82.4868 68.1595 82.4017 68.1571 82.3276 68.1494C82.8639 67.3667 83.4674 66.6331 84.131 65.9572C84.3963 65.6884 84.6721 65.4309 84.9552 65.1859C86.4773 63.8578 88.2404 62.8662 90.1938 62.2276C90.5863 62.097 90.9864 61.9829 91.3943 61.8853C94.1925 61.1987 97.3426 61.1869 100.73 61.8964L100.762 61.9028C100.775 61.9062 100.788 61.9122 100.798 61.9205C100.809 61.9288 100.818 61.9391 100.824 61.9509C100.831 61.9626 100.835 61.9756 100.836 61.9891C100.838 62.0025 100.837 62.0161 100.833 62.0291Z" fill="#4152F3"/>
<path d="M96.9221 61.3934C98.8278 59.9851 101.464 58.9027 104.2 59.3219C104.2 59.3219 101.212 61.6724 96.9221 61.3934Z" fill="#4152F3"/>
<path d="M100.437 61.9325C102.658 61.6281 105.388 61.997 107.614 63.7867C107.613 63.7867 104.075 64.3935 100.437 61.9325Z" fill="#4152F3"/>
<path d="M94.8867 61.477C97.1132 61.4371 99.7831 62.1298 101.823 64.1823C101.823 64.1823 98.2647 64.3683 94.8867 61.477Z" fill="#4152F3"/>
<path d="M90.1182 62.3288C91.5956 60.355 93.8648 58.4399 96.621 57.9055C96.621 57.9055 94.3413 61.135 90.1182 62.3288Z" fill="#4152F3"/>
<path d="M87.2341 63.6399C89.3631 62.7903 92.1235 62.4617 94.6594 63.6338C94.6594 63.6338 91.2908 65.1068 87.2341 63.6399Z" fill="#4152F3"/>
<path d="M84.127 65.9756C84.7862 63.5155 86.2019 60.7359 88.5686 58.9589C88.5689 58.9589 87.6179 62.9189 84.127 65.9756Z" fill="#4152F3"/>
<path d="M82.5989 67.8383C84.3115 66.1297 86.7934 64.6166 89.5709 64.5616C89.5709 64.5616 86.9033 67.3806 82.5989 67.8383Z" fill="#4152F3"/>
<path d="M96.7499 52.6047C96.749 52.6052 96.748 52.6055 96.747 52.6055C96.7459 52.6055 96.7449 52.6052 96.744 52.6047H96.7382C95.881 52.7318 95.043 52.8858 94.2242 53.0666C93.1889 53.2943 92.1867 53.5634 91.2174 53.874C90.4874 54.1086 89.7769 54.3631 89.0868 54.6451C85.7301 55.9994 82.8409 57.8873 80.4997 60.2372C80.4997 60.2386 80.4978 60.2372 80.4971 60.2391C80.2633 60.4737 80.0349 60.7111 79.8126 60.9559C78.1762 62.7477 76.7862 64.8809 75.7815 67.138C75.6961 67.1184 75.6031 67.1014 75.5166 67.0787C75.7541 66.5418 76.0683 65.9145 76.3442 65.4016C76.5999 64.9202 76.8726 64.4509 77.1624 63.9935L77.1635 63.9916C78.6819 61.579 80.6306 59.48 82.9611 57.7389C83.4373 57.3827 83.928 57.0421 84.4376 56.7167C84.4376 56.7148 84.4406 56.7134 84.4432 56.7119C86.5394 55.3666 88.9012 54.2809 91.4966 53.4827C91.5866 53.4572 91.6754 53.4289 91.7635 53.4027C92.5295 53.1731 93.3152 52.9686 94.1204 52.789C94.9567 52.6032 95.8133 52.4452 96.6903 52.3151H96.6935C96.7064 52.3132 96.7169 52.3108 96.73 52.3092C96.8013 52.2969 96.863 52.3564 96.8703 52.4388C96.8775 52.5211 96.8221 52.5953 96.7499 52.6047Z" fill="#4152F3"/>
<path d="M91.4954 53.4841C93.4885 50.7758 96.5603 48.1375 100.309 47.3749C100.309 47.3749 97.2361 51.8046 91.4954 53.4841Z" fill="#4152F3"/>
<path d="M96.3113 52.5053C99.1196 51.0611 102.842 50.2364 106.418 51.4715C106.418 51.4715 101.988 53.9288 96.3113 52.5053Z" fill="#4152F3"/>
<path d="M88.8503 54.558C91.7622 53.4487 95.5234 53.0687 98.9514 54.7282C98.9514 54.7282 94.3419 56.6563 88.8503 54.558Z" fill="#4152F3"/>
<path d="M82.8921 57.9136C84.1168 54.6841 86.4031 51.1537 89.8318 49.1612C89.8318 49.1612 88.0091 54.3791 82.8921 57.9136Z" fill="#4152F3"/>
<path d="M79.5781 60.9623C82.0673 58.8617 85.5765 57.1316 89.3355 57.4281C89.3346 57.4278 85.4432 60.915 79.5781 60.9623Z" fill="#4152F3"/>
<path d="M76.3424 65.429C76.3149 61.9653 77.1651 57.7323 79.6307 54.3338C79.6307 54.3338 79.82 59.8565 76.3424 65.429Z" fill="#4152F3"/>
<path d="M82.9848 61.0331C82.9848 61.0331 81.1025 64.7178 77.0568 67.404C76.6653 67.3096 76.244 67.2586 75.8447 67.1562C77.5005 64.6539 79.9495 62.195 82.9848 61.0331Z" fill="#4152F3"/>
</svg>
