<svg width="170" height="126" viewBox="0 0 170 126" fill="none" xmlns="http://www.w3.org/2000/svg">
<path d="M71.8185 125.202C71.8185 125.202 28.126 102.979 40.8363 69.3487C53.5467 35.7189 107.037 16.1235 138.284 18.7709C169.531 21.4183 173.106 54.7049 167.252 69.3487C161.398 83.9926 141.089 125.202 141.089 125.202H71.8185Z" fill="#D4E2FF"/>
<path d="M85.1194 50.6921H134.608C135.4 50.6921 136.159 51.0068 136.719 51.5668C137.279 52.1269 137.594 52.8865 137.594 53.6785V97.6206C137.594 98.4126 137.279 99.1722 136.719 99.7322C136.159 100.292 135.4 100.607 134.608 100.607H85.1194C84.3274 100.607 83.5678 100.292 83.0077 99.7322C82.4477 99.1722 82.1331 98.4126 82.1331 97.6206V53.6785C82.1331 52.8865 82.4477 52.1269 83.0077 51.5668C83.5678 51.0068 84.3274 50.6921 85.1194 50.6921Z" fill="#34A4B6"/>
<path d="M128.635 66.4773H91.0922V71.5968H128.635V66.4773Z" fill="white"/>
<path d="M102.788 69.6402C103.121 69.307 103.121 68.7668 102.788 68.4336C102.454 68.1004 101.914 68.1004 101.581 68.4336C101.248 68.7668 101.248 69.307 101.581 69.6402C101.914 69.9734 102.454 69.9734 102.788 69.6402Z" fill="black"/>
<path d="M106.428 69.2327C106.536 68.7741 106.252 68.3145 105.793 68.2063C105.335 68.098 104.875 68.382 104.767 68.8407C104.659 69.2993 104.943 69.7588 105.401 69.8671C105.86 69.9753 106.32 69.6913 106.428 69.2327Z" fill="black"/>
<path d="M109.01 69.8901C109.481 69.8901 109.863 69.5081 109.863 69.0368C109.863 68.5656 109.481 68.1836 109.01 68.1836C108.539 68.1836 108.157 68.5656 108.157 69.0368C108.157 69.5081 108.539 69.8901 109.01 69.8901Z" fill="black"/>
<path d="M113.027 69.6401C113.36 69.3069 113.36 68.7667 113.027 68.4335C112.693 68.1003 112.153 68.1003 111.82 68.4335C111.487 68.7667 111.487 69.3069 111.82 69.6401C112.153 69.9733 112.693 69.9734 113.027 69.6401Z" fill="black"/>
<path d="M116.667 69.2327C116.775 68.7741 116.491 68.3145 116.032 68.2063C115.574 68.098 115.114 68.382 115.006 68.8406C114.898 69.2993 115.182 69.7588 115.64 69.8671C116.099 69.9753 116.558 69.6913 116.667 69.2327Z" fill="black"/>
<path d="M119.249 69.8901C119.72 69.8901 120.102 69.5081 120.102 69.0368C120.102 68.5656 119.72 68.1836 119.249 68.1836C118.778 68.1836 118.396 68.5656 118.396 69.0368C118.396 69.5081 118.778 69.8901 119.249 69.8901Z" fill="black"/>
<path d="M128.635 76.2894H91.0922V81.4089H128.635V76.2894Z" fill="white"/>
<path d="M102.788 79.4525C103.121 79.1193 103.121 78.579 102.788 78.2458C102.454 77.9126 101.914 77.9126 101.581 78.2458C101.248 78.579 101.248 79.1193 101.581 79.4525C101.914 79.7857 102.454 79.7857 102.788 79.4525Z" fill="black"/>
<path d="M106.428 79.0453C106.536 78.5866 106.252 78.1271 105.793 78.0188C105.335 77.9105 104.875 78.1946 104.767 78.6532C104.659 79.1118 104.943 79.5714 105.401 79.6796C105.86 79.7879 106.32 79.5039 106.428 79.0453Z" fill="black"/>
<path d="M109.01 79.7022C109.481 79.7022 109.863 79.3202 109.863 78.8489C109.863 78.3777 109.481 77.9957 109.01 77.9957C108.539 77.9957 108.157 78.3777 108.157 78.8489C108.157 79.3202 108.539 79.7022 109.01 79.7022Z" fill="black"/>
<path d="M113.027 79.4523C113.36 79.1191 113.36 78.5788 113.027 78.2456C112.693 77.9124 112.153 77.9124 111.82 78.2456C111.487 78.5788 111.487 79.1191 111.82 79.4523C112.153 79.7855 112.693 79.7855 113.027 79.4523Z" fill="black"/>
<path d="M116.667 79.0453C116.775 78.5866 116.491 78.1271 116.032 78.0188C115.574 77.9105 115.114 78.1945 115.006 78.6532C114.898 79.1118 115.182 79.5714 115.64 79.6796C116.099 79.7879 116.558 79.5039 116.667 79.0453Z" fill="black"/>
<path d="M119.249 79.7022C119.72 79.7022 120.102 79.3202 120.102 78.8489C120.102 78.3777 119.72 77.9957 119.249 77.9957C118.778 77.9957 118.396 78.3777 118.396 78.8489C118.396 79.3202 118.778 79.7022 119.249 79.7022Z" fill="black"/>
<path d="M91.9454 86.5286H127.782C128.008 86.5286 128.225 86.6185 128.385 86.7785C128.545 86.9386 128.635 87.1556 128.635 87.3819V90.7949C128.635 91.0212 128.545 91.2382 128.385 91.3982C128.225 91.5582 128.008 91.6481 127.782 91.6481H91.9454C91.7191 91.6481 91.5021 91.5582 91.3421 91.3982C91.1821 91.2382 91.0922 91.0212 91.0922 90.7949V87.3819C91.0922 87.1556 91.1821 86.9385 91.3421 86.7785C91.5021 86.6185 91.7191 86.5286 91.9454 86.5286Z" fill="white"/>
<path d="M116.198 44.2404C114.945 42.9874 113.349 42.1341 111.611 41.7884C109.873 41.4427 108.072 41.6201 106.434 42.2982C104.797 42.9764 103.398 44.1247 102.414 45.5981C101.429 47.0715 100.904 48.8037 100.904 50.5758C100.904 52.3478 101.429 54.08 102.414 55.5534C103.398 57.0268 104.797 58.1751 106.434 58.8533C108.072 59.5314 109.873 59.7088 111.611 59.3631C113.349 59.0174 114.945 58.1641 116.198 56.9111C117.03 56.0791 117.69 55.0914 118.141 54.0044C118.591 52.9174 118.823 51.7523 118.823 50.5758C118.823 49.3992 118.591 48.2341 118.141 47.1471C117.69 46.0601 117.03 45.0724 116.198 44.2404ZM113.813 53.7822C113.911 53.8807 113.966 54.0142 113.966 54.1534C113.966 54.2926 113.911 54.4261 113.813 54.5246C113.714 54.623 113.581 54.6783 113.442 54.6783C113.302 54.6783 113.169 54.623 113.07 54.5246L109.864 51.3177L106.657 54.5246C106.558 54.6229 106.425 54.6781 106.286 54.678C106.146 54.678 106.013 54.6227 105.915 54.5243C105.816 54.4259 105.761 54.2925 105.761 54.1533C105.761 54.0142 105.816 53.8807 105.914 53.7822L109.121 50.5753L105.914 47.3684C105.816 47.27 105.761 47.1365 105.761 46.9973C105.761 46.8582 105.816 46.7248 105.915 46.6264C106.013 46.528 106.146 46.4727 106.286 46.4726C106.425 46.4726 106.558 46.5278 106.657 46.6261L109.864 49.833L113.07 46.6261C113.169 46.5277 113.302 46.4724 113.442 46.4724C113.581 46.4724 113.714 46.5277 113.813 46.6261C113.911 46.7245 113.966 46.858 113.966 46.9973C113.966 47.1365 113.911 47.27 113.813 47.3684L110.606 50.5753L113.813 53.7822Z" fill="white"/>
<path d="M62.6243 75.9055C62.6243 75.9055 61.7552 87.3425 62.0268 91.0819C62.2985 94.8213 63.4546 94.8213 63.4546 94.2094C63.4546 93.5976 63.0471 91.2179 63.7267 91.8297C64.4062 92.4415 64.3387 90.4017 63.7267 89.4499C63.1146 88.4982 64.1349 77.688 65.3586 76.1922L62.6243 75.9055Z" fill="#FFD0A6"/>
<path d="M69.3344 121.085H67.2013V123.218H69.3344V121.085Z" fill="#FFD0A6"/>
<path d="M67.1309 122.503V125.223H72.5178C74.2968 125.223 70.5301 123.916 69.5889 122.503H67.1309Z" fill="#1A1A1A"/>
<path d="M77.8669 121.085H75.7338V123.218H77.8669V121.085Z" fill="#FFD0A6"/>
<path d="M75.6633 122.503V125.223H81.0503C82.8293 125.223 79.0626 123.916 78.1214 122.503H75.6633Z" fill="#1A1A1A"/>
<path d="M65.7123 86.281C65.7123 86.281 64.4483 92.371 66.7464 101.448C64.6783 111.674 66.7464 121.441 66.7464 121.441H69.7327C69.7327 121.441 71.6863 103.286 71.1118 96.6222C71.1118 96.6222 72.8349 101.908 74.0981 102.712C72.9491 106.504 75.5913 121.44 75.5913 121.44H78.0044C78.0044 121.44 79.6134 103.171 78.0044 97.7706C76.9277 93.9913 76.0609 90.1554 75.408 86.2804L65.7123 86.281Z" fill="#1A1A1A"/>
<path d="M81.4077 68.3855L83.3112 67.6308C83.3112 67.6308 78.4159 61.3761 75.4925 60.3562C72.569 59.3363 73.9289 58.3166 75.0167 58.6565C76.1045 58.9965 74.5405 57.2286 74.5405 57.2286C74.5405 57.2286 85.3506 64.979 86.2347 67.6308C87.1188 70.2826 81.4077 70.8394 81.4077 70.8394V68.3855Z" fill="#FFD0A6"/>
<path d="M63.3113 72.1615L62.4272 76.4042L64.9903 77.1993L65.9627 76.4042C65.9627 76.4042 66.9347 84.0048 65.4323 86.7449H75.5084C75.5084 86.7449 74.006 75.9617 76.3925 72.78C77.5186 71.1839 81.9131 70.9362 81.9131 70.9362V68.1513C81.9131 68.1513 75.4763 67.3774 73.0624 68.3369C70.6485 69.2964 63.3113 72.1615 63.3113 72.1615Z" fill="white"/>
<path d="M74.9196 60.4192C74.9196 60.4192 76.6453 63.034 75.3379 65.1263C74.0306 67.2186 72.7228 66.0153 72.7228 66.0153L74.9196 60.4192Z" fill="#F7D8B8"/>
<path d="M73.381 56.4772C73.381 56.4772 69.3706 54.9815 68.2137 59.4687C67.0567 63.956 62.9109 65.18 60.939 68.2393C58.9671 71.2985 64.4745 75.7858 67.8075 73.4064C68.0795 75.3783 76.0345 75.65 74.8105 69.9393C73.5864 64.2286 75.8304 61.7126 75.8304 59.4691C75.8304 57.2256 73.381 56.4772 73.381 56.4772Z" fill="#112129"/>
<path d="M99.3976 34.6986C99.2651 34.6477 99.1191 34.6444 98.9844 34.6892C98.8497 34.734 98.7347 34.8241 98.659 34.9441C98.5833 35.0642 98.5516 35.2067 98.5692 35.3476C98.5868 35.4884 98.6528 35.6188 98.7557 35.7164C98.8587 35.8141 98.9924 35.8731 99.1339 35.8832C99.2755 35.8934 99.4162 35.8542 99.5321 35.7723C99.648 35.6903 99.7319 35.5707 99.7695 35.4339C99.8071 35.297 99.7961 35.1514 99.7383 35.0217C99.7055 34.9481 99.6586 34.8817 99.6001 34.8263C99.5416 34.7708 99.4728 34.7274 99.3976 34.6986Z" fill="#FFAA71"/>
<path d="M101.918 34.0512C101.5 33.1119 100.755 32.3564 99.8214 31.9248C98.8881 31.4932 97.8299 31.4149 96.8432 31.7045C95.8565 31.9941 95.0084 32.6318 94.4563 33.4993C93.9042 34.3668 93.6856 35.4052 93.8411 36.4216L84.7106 40.4865L85.6217 42.533L86.691 42.0569L87.2078 43.2177L89.1209 42.3659L88.6041 41.2051L90.0372 40.5671L90.554 41.7279L92.4671 40.8761L91.95 39.7161L94.7523 38.4681C95.2233 39.0435 95.8371 39.4851 96.5323 39.7489C97.2276 40.0126 97.9798 40.0891 98.7139 39.9709C99.448 39.8526 100.138 39.5437 100.715 39.075C101.293 38.6063 101.737 37.9942 102.003 37.3C102.205 36.7798 102.301 36.2248 102.286 35.6671C102.272 35.1095 102.147 34.5602 101.918 34.0512ZM99.7875 36.6401C99.4256 36.7996 99.0152 36.8091 98.6463 36.6663C98.2775 36.5235 97.9804 36.2403 97.8202 35.8786C97.66 35.517 97.6498 35.1066 97.7919 34.7375C97.9341 34.3684 98.2168 34.0708 98.5782 33.91C98.9395 33.7491 99.3499 33.7383 99.7192 33.8797C100.089 34.0212 100.387 34.3034 100.548 34.6645C100.71 35.0256 100.721 35.4359 100.58 35.8055C100.44 36.1751 100.158 36.4737 99.797 36.6358C99.7939 36.6372 99.7907 36.6387 99.7875 36.6401Z" fill="#34A4B6"/>
<path d="M130.483 43.3697C130.43 43.3038 130.355 43.2585 130.272 43.2414C130.189 43.2244 130.102 43.2367 130.027 43.2763C129.952 43.3158 129.893 43.3802 129.86 43.4584C129.827 43.5366 129.822 43.6238 129.847 43.7052C129.871 43.7865 129.922 43.857 129.993 43.9046C130.063 43.9522 130.147 43.974 130.232 43.9662C130.316 43.9584 130.396 43.9216 130.456 43.862C130.516 43.8024 130.554 43.7237 130.563 43.6393C130.568 43.5913 130.564 43.5428 130.55 43.4965C130.536 43.4502 130.514 43.4072 130.483 43.3697Z" fill="#34A4B6"/>
<path d="M131.983 43.7892C132.048 43.1773 131.888 42.5629 131.533 42.06C131.179 41.5571 130.654 41.1999 130.056 41.0546C129.458 40.9094 128.828 40.986 128.282 41.2702C127.736 41.5544 127.312 42.027 127.089 42.6002L121.143 41.9752L121.002 43.3079L121.699 43.3811L121.62 44.1371L122.866 44.2684L122.945 43.5123L123.878 43.6104L123.799 44.3664L125.044 44.4974L125.124 43.7413L126.949 43.9332C127.021 44.3721 127.207 44.7845 127.488 45.129C127.77 45.4735 128.136 45.7382 128.552 45.8965C128.968 46.0548 129.418 46.1013 129.857 46.0312C130.296 45.9611 130.709 45.7769 131.055 45.4971C131.315 45.2879 131.531 45.0292 131.69 44.7361C131.85 44.4429 131.949 44.1211 131.983 43.7892ZM130.106 44.4912C129.871 44.4656 129.655 44.3477 129.507 44.1634C129.359 43.9791 129.29 43.7435 129.315 43.5084C129.34 43.2733 129.458 43.0578 129.642 42.9092C129.826 42.7607 130.061 42.6912 130.297 42.7161C130.532 42.741 130.747 42.8582 130.896 43.042C131.045 43.2258 131.115 43.4611 131.09 43.6964C131.066 43.9316 130.949 44.1475 130.765 44.2966C130.582 44.4458 130.347 44.516 130.111 44.4918L130.106 44.4912Z" fill="#34A4B6"/>
<path d="M68.3322 54.7474C69.7461 54.1618 70.4175 52.5409 69.8318 51.1271C69.2462 49.7132 67.6253 49.0418 66.2115 49.6274C64.7976 50.2131 64.1262 51.834 64.7119 53.2478C65.2975 54.6616 66.9184 55.333 68.3322 54.7474Z" fill="#34A4B6"/>
<path d="M61.9991 49.4721C63.9137 47.5574 63.9137 44.4532 61.9991 42.5385C60.0844 40.6239 56.9802 40.6239 55.0655 42.5385C53.1509 44.4532 53.1509 47.5574 55.0655 49.4721C56.9802 51.3867 60.0844 51.3867 61.9991 49.4721Z" fill="#34A4B6"/>
<path d="M54.6495 33.327C54.6495 33.327 65.3708 30.9307 63.8573 21.0923C62.3437 11.254 51.8748 13.0198 51.8748 13.0198C51.8748 13.0198 51.8748 6.71307 47.2077 4.82097C42.9194 3.18104 38.8832 4.56886 37.2434 7.34357C36.3601 3.43357 28.8413 -0.952073 22.2437 1.47325C15.646 3.89857 13.4044 9.61365 13.4044 12.0108C8.61176 11.2539 -0.35669 16.149 0.46323 26.1503C1.28315 36.1516 10.7934 38.4481 14.4009 38.2843C14.6663 43.67 21.0988 46.9494 23.8739 47.0757C26.649 47.202 32.1985 47.2037 35.4781 41.4016C38.6315 44.8074 44.0556 45.5642 47.7135 44.3027C51.3715 43.0412 54.732 39.2041 54.6495 33.3296" fill="#34A4B6"/>
<path d="M42.4881 28.6149C42.4695 28.4039 42.3783 28.2059 42.2301 28.0546C42.0819 27.9033 41.8858 27.808 41.6753 27.7851C41.4647 27.7621 41.2527 27.8129 41.0754 27.9287C40.8981 28.0445 40.7664 28.2182 40.7028 28.4203C40.6392 28.6223 40.6476 28.8401 40.7266 29.0367C40.8056 29.2332 40.9503 29.3962 41.136 29.498C41.3218 29.5998 41.537 29.6341 41.7452 29.5949C41.9534 29.5558 42.1415 29.4457 42.2776 29.2834C42.3549 29.1913 42.4132 29.0848 42.4493 28.9701C42.4854 28.8554 42.4986 28.7347 42.4881 28.6149Z" fill="white"/>
<path d="M45.0048 31.57C45.9908 30.3943 46.5167 28.9009 46.4849 27.3669C46.4532 25.8329 45.866 24.3625 44.8323 23.2286C43.7986 22.0948 42.3886 21.3745 40.8641 21.2014C39.3395 21.0283 37.804 21.4142 36.5424 22.2875L25.1182 12.7015L22.9697 15.262L24.3077 16.3847L23.0888 17.8374L25.4825 19.8459L26.7005 18.3933L28.4938 19.8984L27.2749 21.3511L29.6686 23.3596L30.8875 21.9069L34.394 24.8493C33.9306 25.8573 33.7398 26.9693 33.841 28.0741C33.9421 29.1789 34.3315 30.2378 34.9702 31.1449C35.609 32.052 36.4746 32.7755 37.4807 33.243C38.4868 33.7106 39.598 33.9058 40.7032 33.8092C41.5325 33.7388 42.3396 33.5047 43.0778 33.1203C43.8161 32.736 44.4707 32.2091 45.004 31.5701L45.0048 31.57ZM40.1391 30.4056C39.6881 30.0246 39.4068 29.4802 39.3568 28.892C39.3069 28.3038 39.4924 27.7197 39.8727 27.2682C40.253 26.8166 40.7969 26.5344 41.3851 26.4835C41.9732 26.4327 42.5575 26.6173 43.0097 26.9969C43.4618 27.3764 43.7449 27.9199 43.7967 28.508C43.8485 29.0961 43.6648 29.6807 43.2859 30.1334C42.9071 30.5862 42.364 30.8701 41.776 30.9228C41.188 30.9755 40.6031 30.7927 40.1498 30.4146C40.1462 30.4116 40.1426 30.4086 40.1391 30.4056Z" fill="white"/>
</svg>
