<svg width="16" height="12" viewBox="0 0 16 12" fill="none" xmlns="http://www.w3.org/2000/svg">
<path d="M0.5 2.0625C0.5 1.338 1.088 0.75 1.8125 0.75H11.9375C12.662 0.75 13.25 1.338 13.25 2.0625V8.4375C13.25 8.7856 13.1117 9.11944 12.8656 9.36558C12.6194 9.61172 12.2856 9.75 11.9375 9.75H1.8125C1.4644 9.75 1.13056 9.61172 0.884422 9.36558C0.638281 9.11944 0.5 8.7856 0.5 8.4375V2.0625ZM2.75 1.6875V2.4375C2.75 2.58668 2.69074 2.72976 2.58525 2.83525C2.47976 2.94074 2.33668 3 2.1875 3H1.4375V4.125H2.1875C2.40911 4.125 2.62854 4.08135 2.83328 3.99655C3.03802 3.91174 3.22404 3.78744 3.38074 3.63074C3.53744 3.47404 3.66174 3.28801 3.74655 3.08328C3.83135 2.87854 3.875 2.65911 3.875 2.4375V1.6875H2.75ZM6.875 7.125C7.32255 7.125 7.75178 6.94721 8.06824 6.63074C8.38471 6.31427 8.5625 5.88505 8.5625 5.4375C8.5625 4.98995 8.38471 4.56072 8.06824 4.24426C7.75178 3.92779 7.32255 3.75 6.875 3.75C6.42745 3.75 5.99823 3.92779 5.68176 4.24426C5.36529 4.56072 5.1875 4.98995 5.1875 5.4375C5.1875 5.88505 5.36529 6.31427 5.68176 6.63074C5.99823 6.94721 6.42745 7.125 6.875 7.125ZM1.4375 7.5H2.1875C2.33668 7.5 2.47976 7.55926 2.58525 7.66475C2.69074 7.77024 2.75 7.91332 2.75 8.0625V8.8125H3.875V8.0625C3.875 7.61495 3.69721 7.18573 3.38074 6.86926C3.06428 6.55279 2.63505 6.375 2.1875 6.375H1.4375V7.5ZM11 8.0625C11 7.91332 11.0593 7.77024 11.1648 7.66475C11.2702 7.55926 11.4133 7.5 11.5625 7.5H12.3125V6.375H11.5625C11.1149 6.375 10.6857 6.55279 10.3693 6.86926C10.0528 7.18573 9.875 7.61495 9.875 8.0625V8.8125H11V8.0625ZM11 2.4375V1.6875H9.875V2.4375C9.875 2.65911 9.91865 2.87854 10.0035 3.08328C10.0883 3.28801 10.2126 3.47404 10.3693 3.63074C10.6857 3.94721 11.1149 4.125 11.5625 4.125H12.3125V3H11.5625C11.4133 3 11.2702 2.94074 11.1648 2.83525C11.0593 2.72976 11 2.58668 11 2.4375Z" fill="#1A1A1A"/>
<path d="M2.30078 10.875C2.49826 11.2172 2.78239 11.5014 3.12458 11.6989C3.46677 11.8964 3.85494 12.0002 4.25003 12H11.9375C12.4054 12 12.8686 11.9079 13.3008 11.7289C13.7331 11.5498 14.1258 11.2874 14.4566 10.9566C14.7874 10.6258 15.0498 10.2331 15.2289 9.80084C15.4079 9.36862 15.5 8.90537 15.5 8.43753V4.50003C15.5 3.66753 15.0478 2.94003 14.375 2.55078V8.43753C14.375 9.084 14.1182 9.70399 13.6611 10.1611C13.204 10.6182 12.584 10.875 11.9375 10.875H2.30078Z" fill="#1A1A1A"/>
</svg>
