<svg width="18" height="18" viewBox="0 0 18 18" fill="none" xmlns="http://www.w3.org/2000/svg">
<path d="M1.90847 12.0401C1.88789 11.8905 1.81385 11.7534 1.70003 11.6541C1.58621 11.5549 1.44031 11.5002 1.28931 11.5002C1.1383 11.5002 0.992407 11.5549 0.878588 11.6541C0.764768 11.7534 0.690723 11.8905 0.67014 12.0401L0.664307 12.1251V15.0434L0.668473 15.1892C0.704013 15.7467 0.941952 16.272 1.33756 16.6664C1.73318 17.0608 2.25922 17.2971 2.81681 17.3309L2.95597 17.3351H5.87264L5.95764 17.3301C6.10787 17.3101 6.24574 17.2363 6.34561 17.1224C6.44548 17.0084 6.50053 16.862 6.50053 16.7105C6.50053 16.5589 6.44548 16.4126 6.34561 16.2986C6.24574 16.1846 6.10787 16.1108 5.95764 16.0909L5.87264 16.0851H2.95597L2.84931 16.0801C2.61114 16.0554 2.38872 15.9495 2.21948 15.7801C2.05025 15.6108 1.94454 15.3882 1.92014 15.1501L1.91431 15.0434V12.1251L1.90847 12.0401Z" fill="#F6DA53"/>
<path d="M17.3251 12.0401C17.3035 11.8832 17.2232 11.7403 17.1004 11.6404C16.9775 11.5405 16.8213 11.4909 16.6633 11.5017C16.5054 11.5125 16.3574 11.5829 16.2493 11.6986C16.1411 11.8143 16.081 11.9667 16.0809 12.1251V15.0434L16.0759 15.1501C16.0495 15.4066 15.9289 15.6442 15.7374 15.8169C15.5459 15.9896 15.2972 16.0852 15.0393 16.0851H12.1226L12.0376 16.0909C11.8807 16.1125 11.7379 16.1928 11.638 16.3156C11.538 16.4385 11.4885 16.5947 11.4993 16.7527C11.5101 16.9106 11.5804 17.0586 11.6961 17.1667C11.8118 17.2749 11.9643 17.335 12.1226 17.3351H15.0393L15.1793 17.3309C15.7618 17.2952 16.3087 17.0387 16.7085 16.6136C17.1084 16.1886 17.331 15.627 17.3309 15.0434V12.1251L17.3251 12.0401Z" fill="#F6DA53"/>
<path d="M6.49764 1.29169C6.49764 1.12593 6.43179 0.966955 6.31458 0.849745C6.19737 0.732535 6.0384 0.666687 5.87264 0.666687H2.95597L2.81681 0.670854C2.23418 0.706301 1.68703 0.962737 1.28702 1.38783C0.887012 1.81293 0.664291 2.37465 0.664307 2.95835V5.87669L0.67014 5.96169C0.691724 6.11856 0.772052 6.2614 0.894891 6.36133C1.01773 6.46126 1.17392 6.51084 1.33191 6.50004C1.48989 6.48925 1.63789 6.41889 1.746 6.30318C1.8541 6.18747 1.91426 6.03504 1.91431 5.87669V2.95835L1.92014 2.85169C1.94653 2.5953 2.06704 2.35781 2.25836 2.18511C2.44968 2.01241 2.69824 1.91678 2.95597 1.91669H5.87264L5.95764 1.91085C6.10727 1.89031 6.2444 1.81629 6.34367 1.70246C6.44294 1.58864 6.49763 1.44272 6.49764 1.29169Z" fill="#F6DA53"/>
<path d="M15.1793 0.670854L15.0393 0.666687H12.1226L12.0376 0.67252C11.888 0.693103 11.7509 0.767148 11.6517 0.880968C11.5525 0.994788 11.4978 1.14068 11.4978 1.29169C11.4978 1.44269 11.5525 1.58859 11.6517 1.70241C11.7509 1.81623 11.888 1.89027 12.0376 1.91085L12.1226 1.91669H15.0393L15.1459 1.92169C15.3843 1.94612 15.6069 2.05195 15.7763 2.22135C15.9457 2.39075 16.0515 2.61337 16.0759 2.85169L16.0809 2.95835V5.87669L16.0868 5.96169C16.1074 6.11128 16.1814 6.24836 16.2952 6.34759C16.409 6.44683 16.5549 6.5015 16.7059 6.5015C16.8569 6.5015 17.0028 6.44683 17.1167 6.34759C17.2305 6.24836 17.3045 6.11128 17.3251 5.96169L17.3309 5.87669V2.95835L17.3268 2.81335C17.2915 2.25586 17.0537 1.73046 16.6583 1.33592C16.2628 0.941387 15.7369 0.704878 15.1793 0.670854Z" fill="#F6DA53"/>
<path d="M6.0835 10.25C6.0835 9.86702 6.15894 9.48775 6.30551 9.13388C6.45209 8.78001 6.66693 8.45848 6.93777 8.18765C7.20861 7.91681 7.53014 7.70197 7.884 7.55539C8.23787 7.40882 8.61714 7.33337 9.00016 7.33337C9.38319 7.33337 9.76246 7.40882 10.1163 7.55539C10.4702 7.70197 10.7917 7.91681 11.0626 8.18765C11.3334 8.45848 11.5482 8.78001 11.6948 9.13388C11.8414 9.48775 11.9168 9.86702 11.9168 10.25C11.9168 11.0236 11.6095 11.7655 11.0626 12.3124C10.5156 12.8594 9.77371 13.1667 9.00016 13.1667C8.22661 13.1667 7.48475 12.8594 6.93777 12.3124C6.39079 11.7655 6.0835 11.0236 6.0835 10.25Z" fill="#F6DA53"/>
<path d="M4.17522 8.78583L4.16855 8.80333V8.805C4.10987 8.95965 3.99228 9.08473 3.84154 9.15283C3.69081 9.22093 3.51922 9.22651 3.36439 9.16833C2.86605 8.98167 2.99939 8.36083 3.00105 8.35667L3.00605 8.34417C3.02778 8.28758 3.05197 8.23197 3.07855 8.1775C3.12855 8.07 3.20189 7.9225 3.30355 7.7475C3.57572 7.28313 3.90618 6.8555 4.28689 6.475C5.22189 5.54167 6.72939 4.625 9.00022 4.625C11.2719 4.625 12.7794 5.54167 13.7127 6.475C14.0934 6.8555 14.4239 7.28313 14.6961 7.7475C14.8081 7.93986 14.9077 8.13915 14.9944 8.34417L14.9994 8.35667L15.0011 8.36083V8.3625L15.0019 8.36417C15.0599 8.51932 15.054 8.69118 14.9854 8.84197C14.9168 8.99276 14.7912 9.11014 14.6361 9.16833C14.4809 9.22461 14.3099 9.21793 14.1596 9.14972C14.0093 9.0815 13.8917 8.95717 13.8319 8.80333L13.8252 8.78667C13.8252 8.78667 13.8061 8.74083 13.7886 8.70333C13.7364 8.59213 13.6791 8.4834 13.6169 8.3775C13.3989 8.00563 13.1342 7.66313 12.8294 7.35833C12.0961 6.625 10.8961 5.875 9.00022 5.875C7.10522 5.875 5.90439 6.625 5.17105 7.35833C4.86621 7.66312 4.60157 8.00562 4.38355 8.3775C4.30633 8.5095 4.23677 8.64584 4.17522 8.78583Z" fill="#F6DA53"/>
</svg>
