<svg width="26" height="20" viewBox="0 0 26 20" fill="none" xmlns="http://www.w3.org/2000/svg">
<path d="M1.29848 16.5008H16.9004C17.2318 16.5012 17.5505 16.6281 17.7915 16.8556C18.0325 17.083 18.1775 17.394 18.1969 17.7248C18.2163 18.0556 18.1087 18.3813 17.896 18.6355C17.6833 18.8896 17.3816 19.0529 17.0525 19.092L16.9004 19.1011H1.29848C0.967092 19.1008 0.648354 18.9739 0.407388 18.7464C0.166421 18.5189 0.0214129 18.208 0.00199218 17.8772C-0.0174285 17.5463 0.0902039 17.2206 0.302898 16.9665C0.515591 16.7124 0.817293 16.549 1.14636 16.5099L1.29848 16.5008ZM1.29848 8.69983H24.7014C25.0328 8.7002 25.3515 8.82709 25.5925 9.05458C25.8334 9.28207 25.9785 9.59299 25.9979 9.9238C26.0173 10.2546 25.9097 10.5804 25.697 10.8345C25.4843 11.0886 25.1826 11.2519 24.8535 11.2911L24.7014 11.3002H1.29848C0.967092 11.2998 0.648354 11.1729 0.407388 10.9454C0.166421 10.7179 0.0214129 10.407 0.00199218 10.0762C-0.0174285 9.74538 0.0902039 9.41963 0.302898 9.16551C0.515591 8.91139 0.817293 8.74808 1.14636 8.70894L1.29848 8.69983ZM1.29848 0.898865H20.8009C21.1323 0.899232 21.451 1.02612 21.692 1.25361C21.933 1.4811 22.078 1.79201 22.0974 2.12283C22.1168 2.45365 22.0092 2.77939 21.7965 3.03351C21.5838 3.28763 21.2821 3.45095 20.953 3.49009L20.8009 3.49919H1.29848C0.967092 3.49882 0.648354 3.37193 0.407388 3.14444C0.166421 2.91695 0.0214129 2.60604 0.00199218 2.27522C-0.0174285 1.94441 0.0902039 1.61866 0.302898 1.36454C0.515591 1.11042 0.817293 0.947105 1.14636 0.907966L1.29848 0.898865Z" fill="#1A1A1A"/>
</svg>
