<svg xmlns="http://www.w3.org/2000/svg" viewBox="0 0 18 18" width="18" height="18">
	<style>
		tspan { white-space:pre }
		.shp0 { fill: #000000 } 
	</style>
	<path id="Layer" fill-rule="evenodd" class="shp0" d="M1.66 1.66C1.77 1.56 1.91 1.5 2.06 1.5C2.21 1.5 2.35 1.56 2.46 1.66L5.69 4.89L6.54 5.74L6.54 5.74L11.75 10.95L11.75 10.95L16.33 15.54L16.39 15.6C16.47 15.72 16.51 15.86 16.5 16C16.48 16.14 16.41 16.27 16.3 16.36C16.2 16.46 16.06 16.51 15.92 16.5C15.77 16.49 15.64 16.44 15.54 16.34L11.1 11.9C10.53 12.44 9.78 12.74 8.99 12.73C8.21 12.72 7.46 12.4 6.9 11.85C6.35 11.29 6.03 10.55 6.03 9.76C6.02 8.98 6.32 8.22 6.86 7.65L5.5 6.3C4.16 7.17 3.2 8.52 2.82 10.07C2.78 10.21 2.68 10.34 2.56 10.41C2.43 10.49 2.28 10.51 2.14 10.47C1.99 10.44 1.87 10.35 1.79 10.22C1.71 10.09 1.69 9.94 1.72 9.8C2.16 8.05 3.22 6.52 4.69 5.49L1.66 2.46L1.61 2.4C1.53 2.29 1.49 2.16 1.5 2.02C1.51 1.89 1.57 1.76 1.66 1.66ZM9 4.12C10.67 4.13 12.3 4.68 13.61 5.71C14.93 6.74 15.87 8.18 16.28 9.8C16.31 9.95 16.28 10.1 16.21 10.22C16.13 10.35 16.01 10.44 15.86 10.47C15.72 10.51 15.57 10.49 15.44 10.41C15.32 10.34 15.22 10.22 15.19 10.07C14.79 8.49 13.79 7.12 12.41 6.24C11.03 5.36 9.37 5.05 7.76 5.37L6.83 4.44C7.52 4.24 8.25 4.12 9 4.12ZM9.15 6.76C9.89 6.79 10.59 7.11 11.12 7.63C11.65 8.16 11.96 8.86 12 9.61L9.15 6.76Z" />
</svg>