<svg width="18" height="18" viewBox="0 0 18 18" fill="none" xmlns="http://www.w3.org/2000/svg">
<g opacity="0.3">
<path d="M13.3156 10.5C13.5371 10.4999 13.7566 10.5435 13.9613 10.6282C14.166 10.7129 14.3521 10.8371 14.5088 10.9938C14.6655 11.1504 14.7898 11.3364 14.8746 11.5411C14.9594 11.7458 15.0031 11.9652 15.0031 12.1868V12.8753C15.003 13.3053 14.8685 13.7247 14.6183 14.0745C13.4588 15.6968 11.5651 16.5 9.00007 16.5C6.43357 16.5 4.54132 15.696 3.38482 14.0723C3.13606 13.723 3.00236 13.3048 3.00232 12.876V12.186C3.00222 11.9644 3.04578 11.745 3.1305 11.5403C3.21522 11.3356 3.33945 11.1495 3.49609 10.9928C3.65273 10.8361 3.83871 10.7118 4.04341 10.627C4.2481 10.5422 4.4675 10.4985 4.68907 10.4985H13.3148L13.3156 10.5ZM9.00007 1.50301C9.99463 1.50301 10.9485 1.89809 11.6517 2.60136C12.355 3.30462 12.7501 4.25844 12.7501 5.25301C12.7501 6.24757 12.355 7.2014 11.6517 7.90466C10.9485 8.60792 9.99463 9.00301 9.00007 9.00301C8.00551 9.00301 7.05168 8.60792 6.34842 7.90466C5.64516 7.2014 5.25007 6.24757 5.25007 5.25301C5.25007 4.25844 5.64516 3.30462 6.34842 2.60136C7.05168 1.89809 8.00551 1.50301 9.00007 1.50301Z" fill="#1A1A1A"/>
</g>
</svg>
