<svg width="18" height="18" viewBox="0 0 18 18" fill="none" xmlns="http://www.w3.org/2000/svg">
<g opacity="0.3">
<path d="M15.75 6.375V13.3125C15.75 13.959 15.4932 14.579 15.0361 15.0361C14.579 15.4932 13.959 15.75 13.3125 15.75H4.6875C4.04103 15.75 3.42105 15.4932 2.96393 15.0361C2.50681 14.579 2.25 13.959 2.25 13.3125V6.375H15.75ZM5.4375 11.25C5.18886 11.25 4.9504 11.3488 4.77459 11.5246C4.59877 11.7004 4.5 11.9389 4.5 12.1875C4.5 12.4361 4.59877 12.6746 4.77459 12.8504C4.9504 13.0262 5.18886 13.125 5.4375 13.125C5.68614 13.125 5.9246 13.0262 6.10041 12.8504C6.27623 12.6746 6.375 12.4361 6.375 12.1875C6.375 11.9389 6.27623 11.7004 6.10041 11.5246C5.9246 11.3488 5.68614 11.25 5.4375 11.25ZM9 11.25C8.75136 11.25 8.5129 11.3488 8.33709 11.5246C8.16127 11.7004 8.0625 11.9389 8.0625 12.1875C8.0625 12.4361 8.16127 12.6746 8.33709 12.8504C8.5129 13.0262 8.75136 13.125 9 13.125C9.24864 13.125 9.4871 13.0262 9.66291 12.8504C9.83873 12.6746 9.9375 12.4361 9.9375 12.1875C9.9375 11.9389 9.83873 11.7004 9.66291 11.5246C9.4871 11.3488 9.24864 11.25 9 11.25ZM5.4375 7.875C5.18886 7.875 4.9504 7.97377 4.77459 8.14959C4.59877 8.3254 4.5 8.56386 4.5 8.8125C4.5 9.06114 4.59877 9.2996 4.77459 9.47541C4.9504 9.65123 5.18886 9.75 5.4375 9.75C5.68614 9.75 5.9246 9.65123 6.10041 9.47541C6.27623 9.2996 6.375 9.06114 6.375 8.8125C6.375 8.56386 6.27623 8.3254 6.10041 8.14959C5.9246 7.97377 5.68614 7.875 5.4375 7.875ZM9 7.875C8.75136 7.875 8.5129 7.97377 8.33709 8.14959C8.16127 8.3254 8.0625 8.56386 8.0625 8.8125C8.0625 9.06114 8.16127 9.2996 8.33709 9.47541C8.5129 9.65123 8.75136 9.75 9 9.75C9.24864 9.75 9.4871 9.65123 9.66291 9.47541C9.83873 9.2996 9.9375 9.06114 9.9375 8.8125C9.9375 8.56386 9.83873 8.3254 9.66291 8.14959C9.4871 7.97377 9.24864 7.875 9 7.875ZM12.5625 7.875C12.3139 7.875 12.0754 7.97377 11.8996 8.14959C11.7238 8.3254 11.625 8.56386 11.625 8.8125C11.625 9.06114 11.7238 9.2996 11.8996 9.47541C12.0754 9.65123 12.3139 9.75 12.5625 9.75C12.8111 9.75 13.0496 9.65123 13.2254 9.47541C13.4012 9.2996 13.5 9.06114 13.5 8.8125C13.5 8.56386 13.4012 8.3254 13.2254 8.14959C13.0496 7.97377 12.8111 7.875 12.5625 7.875ZM13.3125 2.25C13.959 2.25 14.579 2.50681 15.0361 2.96393C15.4932 3.42105 15.75 4.04103 15.75 4.6875V5.25H2.25V4.6875C2.25 4.04103 2.50681 3.42105 2.96393 2.96393C3.42105 2.50681 4.04103 2.25 4.6875 2.25H13.3125Z" fill="#1A1A1A"/>
</g>
</svg>
