<svg width="16" height="16" viewBox="0 0 16 16" fill="none" xmlns="http://www.w3.org/2000/svg">
<path d="M7.5625 9.43167L7.63167 9.3725C7.73723 9.29553 7.86426 9.25357 7.9949 9.25252C8.12554 9.25148 8.25322 9.29139 8.36 9.36667L8.4375 9.43167L14.2108 15.0983C13.7843 15.3615 13.2929 15.5006 12.7917 15.5H3.20834C2.70722 15.5009 2.21578 15.3621 1.78917 15.0992L7.5625 9.43167L7.63167 9.3725L7.5625 9.43083V9.43167ZM12.7917 0.5C13.51 0.5 14.1988 0.785341 14.7068 1.29325C15.2147 1.80116 15.5 2.49004 15.5 3.20833V12.7917C15.5 13.3142 15.3517 13.8025 15.0958 14.2167L9.31334 8.53917L9.20667 8.4425C8.86979 8.15922 8.44398 8.00348 8.00383 8.00257C7.56367 8.00166 7.13723 8.15562 6.79917 8.4375L6.68667 8.54L0.90417 14.2158C0.639188 13.7881 0.499186 13.2948 0.500004 12.7917V3.20833C0.500004 2.49004 0.785345 1.80116 1.29326 1.29325C1.80117 0.785341 2.49004 0.5 3.20834 0.5H12.7917ZM11.1267 3C10.8802 3 10.6362 3.04854 10.4085 3.14285C10.1808 3.23716 9.97393 3.3754 9.79967 3.54966C9.6254 3.72393 9.48717 3.93081 9.39286 4.1585C9.29854 4.38618 9.25 4.63022 9.25 4.87667C9.25 5.12311 9.29854 5.36715 9.39286 5.59484C9.48717 5.82252 9.6254 6.02941 9.79967 6.20367C9.97393 6.37793 10.1808 6.51617 10.4085 6.61048C10.6362 6.70479 10.8802 6.75333 11.1267 6.75333C11.6244 6.75333 12.1017 6.55561 12.4537 6.20367C12.8056 5.85173 13.0033 5.37439 13.0033 4.87667C13.0033 4.37894 12.8056 3.90161 12.4537 3.54966C12.1017 3.19772 11.6244 3 11.1267 3ZM11.1267 4.25C11.209 4.25 11.2905 4.26621 11.3665 4.2977C11.4425 4.32919 11.5116 4.37535 11.5698 4.43355C11.628 4.49174 11.6741 4.56082 11.7056 4.63685C11.7371 4.71288 11.7533 4.79437 11.7533 4.87667C11.7533 4.95896 11.7371 5.04045 11.7056 5.11648C11.6741 5.19251 11.628 5.26159 11.5698 5.31979C11.5116 5.37798 11.4425 5.42414 11.3665 5.45563C11.2905 5.48712 11.209 5.50333 11.1267 5.50333C10.9605 5.50333 10.8011 5.43731 10.6835 5.31979C10.566 5.20226 10.5 5.04287 10.5 4.87667C10.5 4.71046 10.566 4.55107 10.6835 4.43355C10.8011 4.31602 10.9605 4.25 11.1267 4.25Z" fill="#F6DA53"/>
</svg>
