<svg width="13" height="16" viewBox="0 0 13 16" fill="none" xmlns="http://www.w3.org/2000/svg">
<path d="M10.3156 9.5C10.5371 9.4999 10.7566 9.54346 10.9613 9.62818C11.166 9.71291 11.3521 9.83714 11.5088 9.99378C11.6655 10.1504 11.7898 10.3364 11.8746 10.5411C11.9594 10.7458 12.0031 10.9652 12.0031 11.1868V11.8753C12.003 12.3053 11.8685 12.7246 11.6183 13.0745C10.4588 14.6968 8.56507 15.5 6.00007 15.5C3.43357 15.5 1.54132 14.696 0.38482 13.0723C0.136063 12.723 0.00236227 12.3048 0.0023195 11.876V11.186C0.00222098 10.9644 0.0457775 10.745 0.1305 10.5403C0.215224 10.3355 0.339453 10.1495 0.496092 9.99281C0.652731 9.8361 0.83871 9.71179 1.04341 9.62697C1.2481 9.54216 1.4675 9.4985 1.68907 9.4985H10.3148L10.3156 9.5ZM6.00007 0.503002C6.99463 0.503002 7.94846 0.89809 8.65172 1.60135C9.35498 2.30461 9.75007 3.25844 9.75007 4.253C9.75007 5.24756 9.35498 6.20139 8.65172 6.90465C7.94846 7.60791 6.99463 8.003 6.00007 8.003C5.00551 8.003 4.05168 7.60791 3.34842 6.90465C2.64516 6.20139 2.25007 5.24756 2.25007 4.253C2.25007 3.25844 2.64516 2.30461 3.34842 1.60135C4.05168 0.89809 5.00551 0.503002 6.00007 0.503002Z" fill="#1A1A1A"/>
</svg>
