<svg width="28" height="25" viewBox="0 0 28 25" fill="none" xmlns="http://www.w3.org/2000/svg">
<path d="M16.5667 0.337341C17.0895 0.337299 17.6031 0.473841 18.0569 0.733438C18.5106 0.993035 18.8886 1.36668 19.1534 1.81734L20.2388 3.66667H23.0001C23.5691 3.66667 24.1326 3.77876 24.6584 3.99653C25.1841 4.2143 25.6618 4.53349 26.0642 4.93588C26.4666 5.33827 26.7858 5.81597 27.0036 6.34171C27.2213 6.86746 27.3334 7.43095 27.3334 8.00001V20.6667C27.3334 21.2357 27.2213 21.7992 27.0036 22.325C26.7858 22.8507 26.4666 23.3284 26.0642 23.7308C25.6618 24.1332 25.1841 24.4524 24.6584 24.6702C24.1326 24.8879 23.5691 25 23.0001 25H5.00008C3.85081 25 2.74861 24.5435 1.93595 23.7308C1.12329 22.9181 0.666748 21.8159 0.666748 20.6667V8.00001C0.666748 6.85074 1.12329 5.74854 1.93595 4.93588C2.74861 4.12322 3.85081 3.66667 5.00008 3.66667H7.77341L8.94008 1.76801C9.20833 1.33097 9.58413 0.969984 10.0316 0.719521C10.4791 0.469058 10.9833 0.337477 11.4961 0.337341H16.5667ZM14.0001 7.66668C12.4088 7.66668 10.8827 8.29882 9.75744 9.42404C8.63222 10.5493 8.00008 12.0754 8.00008 13.6667C8.00008 15.258 8.63222 16.7841 9.75744 17.9093C10.8827 19.0345 12.4088 19.6667 14.0001 19.6667C15.5914 19.6667 17.1175 19.0345 18.2427 17.9093C19.3679 16.7841 20.0001 15.258 20.0001 13.6667C20.0001 12.0754 19.3679 10.5493 18.2427 9.42404C17.1175 8.29882 15.5914 7.66668 14.0001 7.66668ZM14.0001 9.66668C14.5254 9.66668 15.0455 9.77014 15.5308 9.97116C16.0161 10.1722 16.4571 10.4668 16.8285 10.8382C17.1999 11.2097 17.4946 11.6506 17.6956 12.1359C17.8966 12.6212 18.0001 13.1414 18.0001 13.6667C18.0001 14.192 17.8966 14.7121 17.6956 15.1974C17.4946 15.6827 17.1999 16.1237 16.8285 16.4951C16.4571 16.8665 16.0161 17.1612 15.5308 17.3622C15.0455 17.5632 14.5254 17.6667 14.0001 17.6667C12.9392 17.6667 11.9218 17.2452 11.1717 16.4951C10.4215 15.745 10.0001 14.7275 10.0001 13.6667C10.0001 12.6058 10.4215 11.5884 11.1717 10.8382C11.9218 10.0881 12.9392 9.66668 14.0001 9.66668Z" fill="#1A1A1A"/>
</svg>
