<svg width="18" height="16" viewBox="0 0 18 16" fill="none" xmlns="http://www.w3.org/2000/svg">
<path d="M10.6041 0.0858154C10.9308 0.0857892 11.2519 0.171128 11.5354 0.333376C11.819 0.495624 12.0553 0.72915 12.2208 1.01082L12.8991 2.16665H14.625C14.9806 2.16665 15.3328 2.2367 15.6614 2.37281C15.99 2.50891 16.2885 2.70841 16.54 2.9599C16.7915 3.21139 16.991 3.50996 17.1271 3.83855C17.2632 4.16714 17.3333 4.51932 17.3333 4.87498V12.7916C17.3333 13.1473 17.2632 13.4995 17.1271 13.8281C16.991 14.1567 16.7915 14.4552 16.54 14.7067C16.2885 14.9582 15.99 15.1577 15.6614 15.2938C15.3328 15.4299 14.9806 15.5 14.625 15.5H3.37496C2.65666 15.5 1.96779 15.2146 1.45988 14.7067C0.951967 14.1988 0.666626 13.5099 0.666626 12.7916V4.87498C0.666626 4.15669 0.951967 3.46781 1.45988 2.9599C1.96779 2.45199 2.65666 2.16665 3.37496 2.16665H5.10829L5.83746 0.979982C6.00512 0.706832 6.23999 0.481217 6.51966 0.324677C6.79933 0.168138 7.11446 0.0859002 7.43496 0.0858154H10.6041ZM8.99996 4.66665C8.0054 4.66665 7.05157 5.06174 6.34831 5.765C5.64505 6.46826 5.24996 7.42209 5.24996 8.41665C5.24996 9.41121 5.64505 10.365 6.34831 11.0683C7.05157 11.7716 8.0054 12.1666 8.99996 12.1666C9.99452 12.1666 10.9483 11.7716 11.6516 11.0683C12.3549 10.365 12.75 9.41121 12.75 8.41665C12.75 7.42209 12.3549 6.46826 11.6516 5.765C10.9483 5.06174 9.99452 4.66665 8.99996 4.66665ZM8.99996 5.91665C9.32826 5.91665 9.65335 5.98131 9.95667 6.10695C10.26 6.23259 10.5356 6.41674 10.7677 6.64888C10.9999 6.88103 11.184 7.15663 11.3097 7.45994C11.4353 7.76325 11.5 8.08834 11.5 8.41665C11.5 8.74495 11.4353 9.07004 11.3097 9.37336C11.184 9.67667 10.9999 9.95227 10.7677 10.1844C10.5356 10.4166 10.26 10.6007 9.95667 10.7263C9.65335 10.852 9.32826 10.9166 8.99996 10.9166C8.33692 10.9166 7.70103 10.6533 7.23219 10.1844C6.76335 9.71557 6.49996 9.07969 6.49996 8.41665C6.49996 7.75361 6.76335 7.11772 7.23219 6.64888C7.70103 6.18004 8.33692 5.91665 8.99996 5.91665Z" fill="#F6DA53"/>
</svg>
