<svg width="20" height="16" viewBox="0 0 20 16" fill="none" xmlns="http://www.w3.org/2000/svg">
<g clip-path="url(#clip0)">
<path d="M16.3514 9.98856L16.847 11.0273C16.968 10.9976 17.0935 10.9815 17.2224 10.9815C18.1835 10.9815 18.9654 11.8496 18.9654 12.9165C18.9654 13.9835 18.1835 14.8515 17.2224 14.8515C16.2614 14.8515 15.4794 13.9835 15.4794 12.9165C15.4794 12.3635 15.6899 11.8643 16.026 11.5114L15.5302 10.4722C14.8705 11.0359 14.4449 11.9208 14.4449 12.9165C14.4449 14.6195 15.6884 16 17.2224 16C18.7565 16 20 14.6195 20 12.9165C20 11.2136 18.7565 9.83301 17.2224 9.83301C16.9181 9.83301 16.6255 9.88816 16.3514 9.98856ZM2.77751 16C4.15308 16 5.29437 14.8897 5.51565 13.4325H4.45709C4.25311 14.2497 3.57764 14.8515 2.77752 14.8515C1.81649 14.8515 1.03452 13.9835 1.03452 12.9165C1.03452 11.8496 1.81649 10.9815 2.77752 10.9815C3.1887 10.9815 3.56675 11.1408 3.86514 11.4061L4.72331 10.7168C4.22213 10.1704 3.53543 9.83301 2.77752 9.83301C1.24354 9.83301 0 11.2136 0 12.9165C0 14.6195 1.24354 16 2.77751 16Z" fill="#1A1A1A"/>
<path d="M0.616271 7.02521L5.38837 10.0112L5.42718 10.1514L5.48136 10.3467L2.60734 12.6553C2.50526 12.7372 2.46242 12.8829 2.50123 13.0159C2.54004 13.1489 2.65165 13.239 2.77761 13.239H6.28296L6.33663 13.4325L6.39116 13.6294C6.49306 13.997 6.79899 14.2479 7.14544 14.2479H9.44453L13.2936 11.0705C13.3108 11.0463 13.3301 11.0238 13.3516 11.0036L14.4053 10.0096H12.39V9.81286H14.6139L14.9362 9.50891H11.4303V9.31217H15.1399V9.31676L15.1649 9.29314L16.9657 13.0675C17.0179 13.1768 17.1186 13.2391 17.2227 13.2391C17.2685 13.2391 17.3151 13.227 17.3585 13.2015C17.5002 13.1182 17.5543 12.923 17.4792 12.7656L15.6887 9.013L15.8843 9.00944L17.9765 8.97115C18.0636 8.96954 18.136 8.89638 18.1456 8.80036L18.182 8.43686C18.1856 8.40085 18.1799 8.36445 18.1657 8.33185L17.0133 5.69311L14.7247 2.97781C14.6889 2.93526 14.6326 2.92256 14.5846 2.94625L14.2574 3.10769C14.192 3.13998 14.1651 3.22705 14.1987 3.29716L15.1345 5.24502L14.4178 5.93571L14.2826 6.06591L13.784 5.02071C13.7467 4.94255 13.6821 4.88481 13.6053 4.86104L13.5017 4.82892C13.5258 5.02747 13.4899 5.22788 13.3963 5.40279C13.3814 5.43077 13.3644 5.45694 13.3469 5.48265L13.7194 6.26344H13.5222H12.4338L11.88 6.10277L9.74577 7.3164L9.77384 7.33176C10.0476 7.48145 10.2583 7.75228 10.352 8.07474C10.4456 8.39717 10.4172 8.75363 10.2738 9.05265L8.4734 12.8087C8.2759 13.2205 7.89196 13.4764 7.47137 13.4765C7.28702 13.4765 7.10309 13.4254 6.93938 13.3287C6.67192 13.1707 6.47591 12.9066 6.38745 12.5849C6.29891 12.2632 6.32857 11.9226 6.47091 11.6257L7.72161 9.01652L5.24486 7.66176C5.23701 7.65746 5.22956 7.65231 5.2218 7.64781L5.13605 7.65085C4.90405 7.65907 4.68294 7.54166 4.54427 7.33506C4.45315 7.19925 4.34194 7.04128 4.23266 6.88904C3.94977 6.49486 3.51827 6.26863 3.06436 6.27789L0.698149 6.32608C0.628249 6.3275 0.571285 6.38878 0.567824 6.46633L0.548755 6.88923C0.546202 6.9451 0.572353 6.99776 0.616271 7.02521ZM16.6977 5.95382L17.6885 8.25138C17.6885 8.25138 16.716 7.67293 16.4261 6.99669C16.1363 6.32048 16.6977 5.95382 16.6977 5.95382ZM5.71598 11.1932L6.05056 12.4006L6.10423 12.5941H3.67464L5.66179 10.9979L5.71598 11.1932Z" fill="#1A1A1A"/>
<path d="M12.4121 3.62524C13.306 3.4402 13.8955 2.48577 13.7288 1.49346C13.5621 0.501149 12.7024 -0.15327 11.8085 0.0317721C10.9147 0.216815 10.3252 1.17125 10.4919 2.16356C10.6585 3.15587 11.5183 3.81029 12.4121 3.62524Z" fill="#1A1A1A"/>
<path d="M6.6648 11.7401C6.42749 12.2352 6.59663 12.8501 7.04259 13.1135C7.1795 13.1943 7.32649 13.2327 7.47147 13.2327C7.79867 13.2327 8.11522 13.0372 8.27971 12.6941L10.0801 8.9381C10.1964 8.69551 10.2191 8.41096 10.1432 8.14942C10.0672 7.88788 9.89899 7.6717 9.6769 7.55026L9.46304 7.43328C9.41483 7.4432 9.36606 7.44979 9.31704 7.44979C9.15219 7.44979 8.99348 7.39466 8.85815 7.29038C8.7469 7.20473 8.66072 7.09079 8.60147 6.96203L7.46653 6.34126C7.83478 6.17638 8.21171 6.03712 8.57395 5.91423L8.75917 4.14575C8.80627 3.69516 9.14968 3.35532 9.55784 3.35532C9.58907 3.35532 9.62065 3.35739 9.65181 3.36143C9.8651 3.38896 10.0562 3.50719 10.1897 3.69433C10.3231 3.88146 10.3829 4.11508 10.3581 4.35215L10.2904 4.99875L10.8396 4.68646C10.9518 4.46333 10.9971 4.21848 10.9453 3.97601C10.7968 3.28055 10.0795 2.56061 8.95854 2.74358C7.41866 3.00524 6.51602 3.38958 5.15899 4.40501C4.21763 5.23153 4.48109 6.08941 4.79664 6.74629C4.90126 6.96409 4.99336 7.13766 5.10169 7.25177C5.17028 7.32753 5.25039 7.39298 5.342 7.44307L8.02189 8.90892L6.6648 11.7401Z" fill="#1A1A1A"/>
<path d="M10.0249 5.42349L10.14 4.32398C10.1774 3.96748 9.94732 3.64489 9.62619 3.60345C9.30614 3.5618 9.01445 3.81739 8.97716 4.17389L8.73549 6.48117C8.71056 6.71935 8.80574 6.95345 8.98323 7.09013C9.08306 7.16704 9.19974 7.20607 9.317 7.20607C9.40818 7.20607 9.49972 7.18243 9.58382 7.13459L12.4261 5.51829C12.7012 5.68353 13.0467 5.57921 13.2077 5.27824C13.3727 4.96962 13.2811 4.57092 13.0032 4.38771L12.7453 4.21779C12.5723 4.10364 12.3587 4.0963 12.1796 4.1982L10.0249 5.42349Z" fill="#1A1A1A"/>
</g>
<defs>
<clipPath id="clip0">
<rect width="20" height="16" fill="white"/>
</clipPath>
</defs>
</svg>
