<svg width="32" height="32" viewBox="0 0 32 32" fill="none" xmlns="http://www.w3.org/2000/svg">
<path d="M15.9999 12.0066C17.4144 12.0066 18.771 12.5685 19.7712 13.5687C20.7714 14.5689 21.3333 15.9255 21.3333 17.34C21.3333 18.7545 20.7714 20.111 19.7712 21.1112C18.771 22.1114 17.4144 22.6733 15.9999 22.6733C14.5855 22.6733 13.2289 22.1114 12.2287 21.1112C11.2285 20.111 10.6666 18.7545 10.6666 17.34C10.6666 15.9255 11.2285 14.5689 12.2287 13.5687C13.2289 12.5685 14.5855 12.0066 15.9999 12.0066V12.0066ZM15.9999 7.33331C22.1506 7.33331 27.4613 11.5333 28.9346 17.4186C28.9992 17.6759 28.9588 17.9483 28.8226 18.1758C28.6863 18.4034 28.4652 18.5674 28.208 18.632C27.9507 18.6965 27.6783 18.6562 27.4508 18.5199C27.2232 18.3837 27.0592 18.1626 26.9946 17.9053C26.3783 15.4557 24.9616 13.2821 22.9693 11.7294C20.9769 10.1766 18.5231 9.33368 15.9972 9.3343C13.4713 9.33491 11.0179 10.179 9.02632 11.7328C7.03476 13.2865 5.61909 15.4608 5.00395 17.9106C4.93487 18.1626 4.76997 18.3774 4.54451 18.5093C4.31905 18.6412 4.05093 18.6797 3.79749 18.6164C3.54405 18.5532 3.32541 18.3933 3.18833 18.171C3.05125 17.9486 3.00661 17.6815 3.06395 17.4266C3.78698 14.5433 5.45256 11.9841 7.79623 10.1554C10.1399 8.32676 13.0273 7.33349 15.9999 7.33331V7.33331Z" fill="black"/>
</svg>
