<svg width="18" height="18" viewBox="0 0 18 18" fill="none" xmlns="http://www.w3.org/2000/svg">
<g opacity="0.3" clip-path="url(#clip0)">
<path d="M17.3105 3.67572C16.6198 2.72534 15.4103 1.86753 13.9047 1.26038C12.4072 0.656534 10.6685 0.322584 9.00885 0.320229C7.34902 0.316081 5.60819 0.646584 4.10856 1.24572C2.60036 1.84833 1.38796 2.70242 0.694751 3.65055C0.0289615 4.56116 -0.162921 5.54269 0.139809 6.48903C0.336227 7.10289 0.909098 7.51598 1.56568 7.51692L3.81395 7.51903C3.81473 7.51903 3.81547 7.51903 3.8162 7.51903C4.26452 7.519 4.68572 7.32276 4.97197 6.98037C5.25518 6.64164 5.37247 6.19895 5.29386 5.76576C5.29154 5.75303 5.28876 5.74041 5.28556 5.72786L5.16726 5.26794C5.82236 4.95537 7.30666 4.35146 9.00193 4.36105C10.696 4.36974 12.1792 4.9733 12.8351 5.28601L12.7149 5.74333C12.7115 5.7563 12.7086 5.76931 12.7062 5.78242C12.6264 6.21537 12.7424 6.65837 13.0246 6.99791C13.3104 7.34174 13.7319 7.53925 14.1814 7.53992L16.4296 7.54203C16.4304 7.54203 16.4311 7.54203 16.4319 7.54203C17.0872 7.54199 17.6603 7.13084 17.8581 6.51824C18.1638 5.57215 17.9744 4.58925 17.3105 3.67572Z" fill="#1A1A1A"/>
<path d="M14.0839 9.83729L12.4073 8.07684C12.3059 7.97039 12.1653 7.91017 12.0184 7.91017H10.9348V7.17811C10.9348 6.8815 10.6944 6.64099 10.3977 6.64099C10.1011 6.64099 9.86061 6.88146 9.86061 7.17811V7.91017H8.14069V7.17811C8.14069 6.8815 7.90022 6.64099 7.60357 6.64099C7.30693 6.64099 7.06646 6.88146 7.06646 7.17811V7.91017H5.98298C5.83599 7.91017 5.6954 7.97042 5.59404 8.07684L3.91744 9.83729C2.60288 11.2176 1.87891 13.0275 1.87891 14.9336V17.1433C1.87891 17.4399 2.11938 17.6804 2.41602 17.6804H15.5853C15.8819 17.6804 16.1224 17.4399 16.1224 17.1433V14.9336C16.1224 13.0275 15.3985 11.2176 14.0839 9.83729ZM9.00065 15.7171C7.45061 15.7171 6.18959 14.456 6.18959 12.906C6.18959 11.356 7.45065 10.0949 9.00065 10.0949C10.5507 10.0949 11.8117 11.356 11.8117 12.906C11.8117 14.456 10.5507 15.7171 9.00065 15.7171Z" fill="#1A1A1A"/>
<path d="M9.00074 11.1685C8.04301 11.1685 7.26392 11.9476 7.26392 12.9053C7.26392 13.863 8.04305 14.6421 9.00074 14.6421C9.95843 14.6421 10.7376 13.863 10.7376 12.9053C10.7376 11.9476 9.95843 11.1685 9.00074 11.1685Z" fill="#1A1A1A"/>
</g>
<defs>
<clipPath id="clip0">
<rect width="18" height="18" fill="white"/>
</clipPath>
</defs>
</svg>
