<svg width="10" height="16" viewBox="0 0 10 16" fill="none" xmlns="http://www.w3.org/2000/svg">
<path d="M7.8125 0.5C8.26005 0.5 8.68927 0.67779 9.00574 0.994257C9.32221 1.31072 9.5 1.73995 9.5 2.1875V13.8125C9.5 14.2601 9.32221 14.6893 9.00574 15.0057C8.68927 15.3222 8.26005 15.5 7.8125 15.5H2.1875C1.73995 15.5 1.31073 15.3222 0.994257 15.0057C0.67779 14.6893 0.5 14.2601 0.5 13.8125V2.1875C0.5 1.73995 0.67779 1.31072 0.994257 0.994257C1.31073 0.67779 1.73995 0.5 2.1875 0.5H7.8125ZM5.9375 12.5H4.0625C3.91332 12.5 3.77024 12.5593 3.66475 12.6648C3.55926 12.7702 3.5 12.9133 3.5 13.0625C3.5 13.2117 3.55926 13.3548 3.66475 13.4602C3.77024 13.5657 3.91332 13.625 4.0625 13.625H5.9375C6.08668 13.625 6.22976 13.5657 6.33525 13.4602C6.44074 13.3548 6.5 13.2117 6.5 13.0625C6.5 12.9133 6.44074 12.7702 6.33525 12.6648C6.22976 12.5593 6.08668 12.5 5.9375 12.5Z" fill="#D81010"/>
</svg>
