<svg width="20" height="20" viewBox="0 0 20 20" fill="none" xmlns="http://www.w3.org/2000/svg">
<path d="M2.90847 13.0401C2.88789 12.8905 2.81385 12.7534 2.70003 12.6541C2.58621 12.5549 2.44031 12.5002 2.28931 12.5002C2.1383 12.5002 1.99241 12.5549 1.87859 12.6541C1.76477 12.7534 1.69072 12.8905 1.67014 13.0401L1.66431 13.1251V16.0434L1.66847 16.1892C1.70401 16.7467 1.94195 17.272 2.33756 17.6664C2.73318 18.0608 3.25922 18.2971 3.81681 18.3309L3.95597 18.3351H6.87264L6.95764 18.3301C7.10787 18.3101 7.24574 18.2363 7.34561 18.1224C7.44548 18.0084 7.50053 17.862 7.50053 17.7105C7.50053 17.5589 7.44548 17.4126 7.34561 17.2986C7.24574 17.1846 7.10787 17.1108 6.95764 17.0909L6.87264 17.0851H3.95597L3.84931 17.0801C3.61114 17.0554 3.38872 16.9495 3.21948 16.7801C3.05025 16.6108 2.94454 16.3882 2.92014 16.1501L2.91431 16.0434V13.1251L2.90847 13.0401V13.0401Z" fill="#34A4B6"/>
<path d="M18.3251 13.0401C18.3035 12.8832 18.2232 12.7403 18.1004 12.6404C17.9775 12.5405 17.8213 12.4909 17.6633 12.5017C17.5054 12.5125 17.3574 12.5829 17.2493 12.6986C17.1411 12.8143 17.081 12.9667 17.0809 13.1251V16.0434L17.0759 16.1501C17.0495 16.4066 16.9289 16.6442 16.7374 16.8169C16.5459 16.9896 16.2972 17.0852 16.0393 17.0851H13.1226L13.0376 17.0909C12.8807 17.1125 12.7379 17.1928 12.638 17.3156C12.538 17.4385 12.4885 17.5947 12.4993 17.7527C12.5101 17.9106 12.5804 18.0586 12.6961 18.1667C12.8118 18.2749 12.9643 18.335 13.1226 18.3351H16.0393L16.1793 18.3309C16.7618 18.2952 17.3087 18.0387 17.7085 17.6136C18.1084 17.1886 18.331 16.627 18.3309 16.0434V13.1251L18.3251 13.0401Z" fill="#34A4B6"/>
<path d="M7.49764 2.29169C7.49764 2.12593 7.43179 1.96696 7.31458 1.84975C7.19737 1.73253 7.0384 1.66669 6.87264 1.66669H3.95597L3.81681 1.67085C3.23418 1.7063 2.68703 1.96274 2.28702 2.38783C1.88701 2.81293 1.66429 3.37465 1.66431 3.95835V6.87669L1.67014 6.96169C1.69172 7.11856 1.77205 7.2614 1.89489 7.36133C2.01773 7.46126 2.17392 7.51084 2.33191 7.50004C2.48989 7.48925 2.63789 7.41889 2.746 7.30318C2.8541 7.18747 2.91426 7.03504 2.91431 6.87669V3.95835L2.92014 3.85169C2.94653 3.5953 3.06704 3.35781 3.25836 3.18511C3.44968 3.01241 3.69824 2.91678 3.95597 2.91669H6.87264L6.95764 2.91085C7.10727 2.89031 7.2444 2.81629 7.34367 2.70246C7.44294 2.58864 7.49763 2.44272 7.49764 2.29169V2.29169Z" fill="#34A4B6"/>
<path d="M16.1793 1.67085L16.0393 1.66669H13.1226L13.0376 1.67252C12.888 1.6931 12.7509 1.76715 12.6517 1.88097C12.5525 1.99479 12.4978 2.14068 12.4978 2.29169C12.4978 2.44269 12.5525 2.58859 12.6517 2.70241C12.7509 2.81623 12.888 2.89027 13.0376 2.91085L13.1226 2.91669H16.0393L16.1459 2.92169C16.3843 2.94612 16.6069 3.05195 16.7763 3.22135C16.9457 3.39075 17.0515 3.61337 17.0759 3.85169L17.0809 3.95835V6.87669L17.0868 6.96169C17.1074 7.11128 17.1814 7.24836 17.2952 7.34759C17.409 7.44683 17.5549 7.5015 17.7059 7.5015C17.8569 7.5015 18.0028 7.44683 18.1167 7.34759C18.2305 7.24836 18.3045 7.11128 18.3251 6.96169L18.3309 6.87669V3.95835L18.3268 3.81335C18.2915 3.25586 18.0537 2.73046 17.6583 2.33592C17.2628 1.94139 16.7369 1.70488 16.1793 1.67085V1.67085Z" fill="#34A4B6"/>
<path d="M7.0835 11.25C7.0835 10.867 7.15894 10.4877 7.30551 10.1339C7.45209 9.78001 7.66693 9.45848 7.93777 9.18765C8.20861 8.91681 8.53014 8.70197 8.884 8.55539C9.23787 8.40882 9.61714 8.33337 10.0002 8.33337C10.3832 8.33337 10.7625 8.40882 11.1163 8.55539C11.4702 8.70197 11.7917 8.91681 12.0626 9.18765C12.3334 9.45848 12.5482 9.78001 12.6948 10.1339C12.8414 10.4877 12.9168 10.867 12.9168 11.25C12.9168 12.0236 12.6095 12.7655 12.0626 13.3124C11.5156 13.8594 10.7737 14.1667 10.0002 14.1667C9.22661 14.1667 8.48475 13.8594 7.93777 13.3124C7.39079 12.7655 7.0835 12.0236 7.0835 11.25V11.25Z" fill="#34A4B6"/>
<path d="M5.17522 9.78583L5.16855 9.80333V9.805C5.10987 9.95965 4.99228 10.0847 4.84154 10.1528C4.69081 10.2209 4.51922 10.2265 4.36439 10.1683C3.86605 9.98167 3.99939 9.36083 4.00105 9.35667L4.00605 9.34417C4.02778 9.28758 4.05197 9.23197 4.07855 9.1775C4.12855 9.07 4.20189 8.9225 4.30355 8.7475C4.57572 8.28313 4.90618 7.8555 5.28689 7.475C6.22189 6.54167 7.72939 5.625 10.0002 5.625C12.2719 5.625 13.7794 6.54167 14.7127 7.475C15.0934 7.8555 15.4239 8.28313 15.6961 8.7475C15.8081 8.93986 15.9077 9.13915 15.9944 9.34417L15.9994 9.35667L16.0011 9.36083V9.3625L16.0019 9.36417C16.0599 9.51932 16.054 9.69118 15.9854 9.84197C15.9168 9.99276 15.7912 10.1101 15.6361 10.1683C15.4809 10.2246 15.3099 10.2179 15.1596 10.1497C15.0093 10.0815 14.8917 9.95717 14.8319 9.80333L14.8252 9.78667C14.8252 9.78667 14.8061 9.74083 14.7886 9.70333C14.7364 9.59213 14.6791 9.4834 14.6169 9.3775C14.3989 9.00563 14.1342 8.66313 13.8294 8.35833C13.0961 7.625 11.8961 6.875 10.0002 6.875C8.10522 6.875 6.90439 7.625 6.17105 8.35833C5.86621 8.66312 5.60157 9.00562 5.38355 9.3775C5.30633 9.5095 5.23677 9.64584 5.17522 9.78583V9.78583Z" fill="#34A4B6"/>
</svg>
